<?xml version="1.0" encoding="UTF-8" standalone="no"?>
<!DOCTYPE svg PUBLIC "-//W3C//DTD SVG 1.1//EN"
"http://www.w3.org/Graphics/SVG/1.1/DTD/svg11.dtd">


<!-- Page 100 -->
<svg x="0" y="0" width="909" height="1286" viewBox="0 0 909 1286" version="1.1" xmlns="http://www.w3.org/2000/svg" xmlns:xlink="http://www.w3.org/1999/xlink"
style="display: block;margin-left: auto;margin-right: auto;">
<defs>

<style type="text/css"><![CDATA[

.g1_100{
fill: #BEBEBE;
}

.s1_100{
font-size: 22.01px;
font-family: LiberationSerif-Bold_b;
fill: #737373;
}
.s2_100{
font-size: 16.50px;
font-family: LiberationSerif_e;
fill: #000000;
}
.s3_100{
font-size: 16.50px;
font-family: LiberationSerif_e;
fill: #8E0012;
}
.s4_100{
font-size: 16.50px;
font-family: LiberationSerif-Italic_l;
fill: #000000;
}
.s5_100{
font-size: 22.01px;
font-family: LiberationSerif_e;
fill: #000000;
}
.s6_100{
font-size: 22.01px;
font-family: LiberationSerif-Italic_l;
fill: #000000;
}
.s7_100{
font-size: 13.20px;
font-family: LiberationMono-Bold_1w;
fill: #006699;
}
.s8_100{
font-size: 13.20px;
font-family: LiberationMono_1q;
fill: #CC00FF;
}
.s9_100{
font-size: 13.20px;
font-family: LiberationMono_1q;
fill: #000000;
}
.s10_100{
font-size: 13.20px;
font-family: LiberationMono_1q;
fill: #000088;
}
.s11_100{
font-size: 13.20px;
font-family: LiberationMono-Italic_10;
fill: #CC3300;
}
.s12_100{
font-size: 13.20px;
font-family: LiberationMono_1q;
fill: #336666;
}
.s13_100{
font-size: 13.20px;
font-family: LiberationMono_1q;
fill: #FF6600;
}
.s14_100{
font-size: 13.20px;
font-family: LiberationMono-Italic_10;
fill: #0099FF;
}
.s15_100{
font-size: 13.20px;
font-family: LiberationMono-Bold_1w;
fill: #000000;
}

]]></style>

</defs>
<path d="M0,0
L0,1286
L909,1286
L909,0 Z " 
fill="#FFFFFF" stroke="none" />
<path fill-rule="evenodd" d="M93.5,53.9l722.5,0c3,0,5.5,2.5,5.5,5.5l0,77c0,3.1,-2.5,5.5,-5.5,5.5l-722.5,0c-3,0,-5.5,-2.4,-5.5,-5.5l0,-77c0,-3,2.5,-5.5,5.5,-5.5m0,1.1L816,55c2.4,0,4.4,2,4.4,4.4l0,77c0,2.5,-2,4.4,-4.4,4.4l-722.5,0c-2.4,0,-4.4,-1.9,-4.4,-4.4l0,-77c0,-2.4,2,-4.4,4.4,-4.4Z" class="g1_100" />
<text 
x="421" 
y="79" 
dx="0,1.1,1.1,1.1" 
class="s1_100"
>NOTE</text>

<text 
x="97" 
y="108" 
dx="0,0,0,0,0,0,0,0,0,0,0,0,0,0,0,0,0,0,0,0,0,0,0,0,0,0,0,0,0,0,0,0,0,0,0,0,0,0,0,0,0,0,0,-0.3,0,0,0,0,0,0,0,0" 
class="s2_100"
>There are, in fact, nonobvious tricks to efficiently</text>

<text 
x="428" 
y="108" 
class="s3_100"
>compute medians</text>

<text 
x="548" 
y="108" 
dx="0,0,0,0,0,0,0,0,0,0,0,0,0,0,0,0,0,0,0,0,0,0,0,0,0,0,0,0,0,0,0,0,0,-0.7,0,0,0,0,0" 
class="s2_100"
>without sorting the data. However, they</text>

<text 
x="97" 
y="128" 
class="s2_100"
>are beyond the scope of this book, so</text>

<text 
x="346" 
y="128" 
class="s4_100"
>we</text>

<text 
x="368" 
y="128" 
class="s2_100"
>have to sort the data.</text>

<text 
x="55" 
y="173" 
class="s5_100"
>At the same time, the mean is very sensitive to outliers in our data. If our friendliest user</text>

<text 
x="55" 
y="201" 
class="s5_100"
>had 200 friends (instead of 100), then the mean would rise to 7.82, while the median</text>

<text 
x="55" 
y="228" 
class="s5_100"
>would stay the same. If outliers are likely to be bad data (or otherwise unrepresentative of</text>

<text 
x="55" 
y="256" 
class="s5_100"
>whatever phenomenon we’re trying to understand), then the mean can sometimes give us a</text>

<text 
x="55" 
y="283" 
class="s5_100"
>misleading picture. For example, the story is often told that in the mid-1980s, the major at</text>

<text 
x="55" 
y="311" 
dx="0,0,0,0,0,0,0,0,0,0,0,0,0,0,0,0,0,0,0,0,0,0,0,0,0,0,0,0,0,0,0,0,0,0,0,0,0,0,0,0,0,0,0,0,0,0,0,0,0,0,0,0,0,0,0,0,0,0,0,0,0,0,0,0,0,0,0,0,0,0,0,0,0,0,0,0,0,0,0,0,0,0,0,0,0,0,0,-1.4" 
class="s5_100"
>the University of North Carolina with the highest average starting salary was geography,</text>

<text 
x="55" 
y="338" 
dx="0,0,0,0,0,0,0,0,0,0,0,0,0,0,0,0,0,0,0,0,0,0,0,0,0,-1.2,0,0,0,0,0,0,0,0,0,0,0,0,0,0,0,0,0,0,0,0,0,0,0,0,0,0,0,0,0,0,0,0,0" 
class="s5_100"
>mostly on account of NBA star (and outlier) Michael Jordan.</text>

<text 
x="55" 
y="377" 
dx="0,0,-1.2,0,0,0,0,0,0,0,0,0,0,0,0,0,0,0,0,0,0,0,0,0,0,0,0,0,0,0,0,0,0,0,0,0,0" 
class="s5_100"
>A generalization of the median is the</text>

<text 
x="384" 
y="377" 
class="s6_100"
>quantile</text>

<text 
x="456" 
y="377" 
class="s5_100"
>, which represents the value less than which</text>

<text 
x="55" 
y="404" 
class="s5_100"
>a certain percentile of the data lies. (The median represents the value less than which 50%</text>

<text 
x="55" 
y="432" 
class="s5_100"
>of the data lies.)</text>

<text 
x="76" 
y="477" 
class="s7_100"
>def</text>

<text 
x="108" 
y="477" 
class="s8_100"
>quantile</text>

<text 
x="171" 
y="477" 
class="s9_100"
>(</text>

<text 
x="179" 
y="477" 
class="s10_100"
>x</text>

<text 
x="187" 
y="477" 
class="s9_100"
>,</text>

<text 
x="203" 
y="477" 
class="s10_100"
>p</text>

<text 
x="211" 
y="477" 
class="s9_100"
>):</text>

<text 
x="108" 
y="492" 
dx="0,0,0,0,0,0,0,0,0,0,0,4.6,0,0,0,4.6,0,0,0,0,0,0,0,0,0,0,0,0,0,0,4.6,0,0,0,0,0,4.6,0,0,4.6,0,0,0" 
class="s11_100"
>"""returns the pth-percentile value in x"""</text>

<text 
x="108" 
y="508" 
class="s10_100"
>p_index</text>

<text 
x="171" 
y="508" 
class="s9_100"
>=</text>

<text 
x="187" 
y="508" 
class="s12_100"
>int</text>

<text 
x="211" 
y="508" 
class="s9_100"
>(</text>

<text 
x="219" 
y="508" 
class="s10_100"
>p</text>

<text 
x="235" 
y="508" 
class="s9_100"
>*</text>

<text 
x="250" 
y="508" 
class="s12_100"
>len</text>

<text 
x="274" 
y="508" 
class="s9_100"
>(</text>

<text 
x="282" 
y="508" 
class="s10_100"
>x</text>

<text 
x="290" 
y="508" 
class="s9_100"
>))</text>

<text 
x="108" 
y="523" 
class="s7_100"
>return</text>

<text 
x="163" 
y="523" 
class="s12_100"
>sorted</text>

<text 
x="211" 
y="523" 
class="s9_100"
>(</text>

<text 
x="219" 
y="523" 
class="s10_100"
>x</text>

<text 
x="227" 
y="523" 
class="s9_100"
>)[</text>

<text 
x="242" 
y="523" 
class="s10_100"
>p_index</text>

<text 
x="298" 
y="523" 
class="s9_100"
>]</text>

<text 
x="76" 
y="554" 
class="s10_100"
>quantile</text>

<text 
x="140" 
y="554" 
class="s9_100"
>(</text>

<text 
x="148" 
y="554" 
class="s10_100"
>num_friends</text>

<text 
x="235" 
y="554" 
class="s9_100"
>,</text>

<text 
x="250" 
y="554" 
class="s13_100"
>0.10</text>

<text 
x="282" 
y="554" 
class="s9_100"
>)</text>

<text 
x="298" 
y="554" 
dx="0,0,4.6" 
class="s14_100"
># 1</text>

<text 
x="76" 
y="569" 
class="s10_100"
>quantile</text>

<text 
x="140" 
y="569" 
class="s9_100"
>(</text>

<text 
x="148" 
y="569" 
class="s10_100"
>num_friends</text>

<text 
x="235" 
y="569" 
class="s9_100"
>,</text>

<text 
x="250" 
y="569" 
class="s13_100"
>0.25</text>

<text 
x="282" 
y="569" 
class="s9_100"
>)</text>

<text 
x="298" 
y="569" 
dx="0,0,4.6" 
class="s14_100"
># 3</text>

<text 
x="76" 
y="585" 
class="s10_100"
>quantile</text>

<text 
x="140" 
y="585" 
class="s9_100"
>(</text>

<text 
x="148" 
y="585" 
class="s10_100"
>num_friends</text>

<text 
x="235" 
y="585" 
class="s9_100"
>,</text>

<text 
x="250" 
y="585" 
class="s13_100"
>0.75</text>

<text 
x="282" 
y="585" 
class="s9_100"
>)</text>

<text 
x="298" 
y="585" 
dx="0,0,4.6" 
class="s14_100"
># 9</text>

<text 
x="76" 
y="600" 
class="s10_100"
>quantile</text>

<text 
x="140" 
y="600" 
class="s9_100"
>(</text>

<text 
x="148" 
y="600" 
class="s10_100"
>num_friends</text>

<text 
x="235" 
y="600" 
class="s9_100"
>,</text>

<text 
x="250" 
y="600" 
class="s13_100"
>0.90</text>

<text 
x="282" 
y="600" 
class="s9_100"
>)</text>

<text 
x="298" 
y="600" 
dx="0,0,4.6,0" 
class="s14_100"
># 13</text>

<text 
x="55" 
y="653" 
class="s5_100"
>Less commonly you might want to look at the</text>

<text 
x="464" 
y="653" 
class="s6_100"
>mode</text>

<text 
x="512" 
y="653" 
class="s5_100"
>, or most-common value[s]:</text>

<text 
x="76" 
y="698" 
class="s7_100"
>def</text>

<text 
x="108" 
y="698" 
class="s8_100"
>mode</text>

<text 
x="140" 
y="698" 
class="s9_100"
>(</text>

<text 
x="148" 
y="698" 
class="s10_100"
>x</text>

<text 
x="156" 
y="698" 
class="s9_100"
>):</text>

<text 
x="108" 
y="714" 
dx="0,0,0,0,0,0,0,0,0,0,0,4.6,0,4.6,0,0,0,0,0,4.6,0,0,0,0,0,4.6,0,0,4.6,0,0,0,0,4.6,0,0,0,0,4.6,0,0,0,4.6,0,0,0,0,0,0" 
class="s11_100"
>"""returns a list, might be more than one mode"""</text>

<text 
x="108" 
y="729" 
class="s10_100"
>counts</text>

<text 
x="163" 
y="729" 
class="s9_100"
>=</text>

<text 
x="179" 
y="729" 
class="s10_100"
>Counter</text>

<text 
x="235" 
y="729" 
class="s9_100"
>(</text>

<text 
x="242" 
y="729" 
class="s10_100"
>x</text>

<text 
x="250" 
y="729" 
class="s9_100"
>)</text>

<text 
x="108" 
y="744" 
class="s10_100"
>max_count</text>

<text 
x="187" 
y="744" 
class="s9_100"
>=</text>

<text 
x="203" 
y="744" 
class="s12_100"
>max</text>

<text 
x="227" 
y="744" 
class="s9_100"
>(</text>

<text 
x="235" 
y="744" 
class="s10_100"
>counts</text>

<text 
x="282" 
y="744" 
class="s9_100"
>.</text>

<text 
x="290" 
y="744" 
class="s10_100"
>values</text>

<text 
x="337" 
y="744" 
class="s9_100"
>())</text>

<text 
x="108" 
y="760" 
class="s7_100"
>return</text>

<text 
x="163" 
y="760" 
class="s9_100"
>[</text>

<text 
x="171" 
y="760" 
class="s10_100"
>x_i</text>

<text 
x="203" 
y="760" 
class="s7_100"
>for</text>

<text 
x="235" 
y="760" 
class="s10_100"
>x_i</text>

<text 
x="258" 
y="760" 
class="s9_100"
>,</text>

<text 
x="274" 
y="760" 
class="s10_100"
>count</text>

<text 
x="322" 
y="760" 
class="s15_100"
>in</text>

<text 
x="345" 
y="760" 
class="s10_100"
>counts</text>

<text 
x="393" 
y="760" 
class="s9_100"
>.</text>

<text 
x="401" 
y="760" 
class="s10_100"
>iteritems</text>

<text 
x="472" 
y="760" 
class="s9_100"
>()</text>

<text 
x="171" 
y="775" 
class="s7_100"
>if</text>

<text 
x="195" 
y="775" 
class="s10_100"
>count</text>

<text 
x="242" 
y="775" 
class="s9_100"
>==</text>

<text 
x="266" 
y="775" 
class="s10_100"
>max_count</text>

<text 
x="337" 
y="775" 
class="s9_100"
>]</text>

<text 
x="76" 
y="806" 
class="s10_100"
>mode</text>

<text 
x="108" 
y="806" 
class="s9_100"
>(</text>

<text 
x="116" 
y="806" 
class="s10_100"
>num_friends</text>

<text 
x="203" 
y="806" 
class="s9_100"
>)</text>

<text 
x="266" 
y="806" 
dx="0,0,4.6,0,4.6,0,0,0,4.6" 
class="s14_100"
># 1 and 6</text>

<text 
x="55" 
y="859" 
class="s5_100"
>But most frequently we’ll just use the mean.</text>



<!-- Any embedded fonts defined here -->
<style type="text/css" ><![CDATA[

@font-face {
	font-family: LiberationSerif-Italic_l;
	src: url("fonts/LiberationSerif-Italic_l.woff") format("woff");
}

@font-face {
	font-family: LiberationMono-Bold_1w;
	src: url("fonts/LiberationMono-Bold_1w.woff") format("woff");
}

@font-face {
	font-family: LiberationMono_1q;
	src: url("fonts/LiberationMono_1q.woff") format("woff");
}

@font-face {
	font-family: LiberationMono-Italic_10;
	src: url("fonts/LiberationMono-Italic_10.woff") format("woff");
}

@font-face {
	font-family: LiberationSerif-Bold_b;
	src: url("fonts/LiberationSerif-Bold_b.woff") format("woff");
}

@font-face {
	font-family: LiberationSerif_e;
	src: url("fonts/LiberationSerif_e.woff") format("woff");
}

]]></style>

</svg>
