<?xml version="1.0" encoding="UTF-8" standalone="no"?>
<!DOCTYPE svg PUBLIC "-//W3C//DTD SVG 1.1//EN"
"http://www.w3.org/Graphics/SVG/1.1/DTD/svg11.dtd">


<!-- Page 101 -->
<svg x="0" y="0" width="909" height="1286" viewBox="0 0 909 1286" version="1.1" xmlns="http://www.w3.org/2000/svg" xmlns:xlink="http://www.w3.org/1999/xlink"
style="display: block;margin-left: auto;margin-right: auto;">
<defs>

<style type="text/css"><![CDATA[

.g1_101{
fill: #BEBEBE;
}

.s1_101{
font-size: 25.31px;
font-family: LiberationSerif-Bold_b;
fill: #000000;
}
.s2_101{
font-size: 22.01px;
font-family: LiberationSerif-Italic_l;
fill: #000000;
}
.s3_101{
font-size: 22.01px;
font-family: LiberationSerif_e;
fill: #000000;
}
.s4_101{
font-size: 13.20px;
font-family: LiberationMono-Italic_10;
fill: #0099FF;
}
.s5_101{
font-size: 13.20px;
font-family: LiberationMono-Bold_1w;
fill: #006699;
}
.s6_101{
font-size: 13.20px;
font-family: LiberationMono_1q;
fill: #CC00FF;
}
.s7_101{
font-size: 13.20px;
font-family: LiberationMono_1q;
fill: #000000;
}
.s8_101{
font-size: 13.20px;
font-family: LiberationMono_1q;
fill: #000088;
}
.s9_101{
font-size: 13.20px;
font-family: LiberationMono_1q;
fill: #336666;
}
.s10_101{
font-size: 17.60px;
font-family: LiberationMono_1q;
fill: #000000;
}
.s11_101{
font-size: 13.20px;
font-family: LiberationMono-Italic_10;
fill: #CC3300;
}
.s12_101{
font-size: 13.20px;
font-family: LiberationMono-Bold_1w;
fill: #000000;
}
.s13_101{
font-size: 13.20px;
font-family: LiberationMono_1q;
fill: #FF6600;
}
.s14_101{
font-size: 22.01px;
font-family: LiberationSerif-Bold_b;
fill: #737373;
}
.s15_101{
font-size: 16.50px;
font-family: LiberationSerif_e;
fill: #000000;
}
.s16_101{
font-size: 16.50px;
font-family: LiberationSerif-Italic_l;
fill: #000000;
}
.s17_101{
font-size: 16.50px;
font-family: LiberationSerif_e;
fill: #8E0012;
}

]]></style>

</defs>
<path d="M0,0
L0,1286
L909,1286
L909,0 Z " 
fill="#FFFFFF" stroke="none" />
<path fill-rule="evenodd" d="M93.5,825.2l722.5,0c3,0,5.5,2.5,5.5,5.5l0,125.4c0,3.1,-2.5,5.5,-5.5,5.5l-722.5,0c-3,0,-5.5,-2.4,-5.5,-5.5L88,830.7c0,-3,2.5,-5.5,5.5,-5.5m0,1.1l722.5,0c2.4,0,4.4,2,4.4,4.4l0,125.4c0,2.5,-2,4.4,-4.4,4.4l-722.5,0c-2.4,0,-4.4,-1.9,-4.4,-4.4l0,-125.4c0,-2.4,2,-4.4,4.4,-4.4Z" class="g1_101" />
<text 
x="55" 
y="77" 
class="s1_101"
>Dispersion</text>

<text 
x="55" 
y="115" 
class="s2_101"
>Dispersion</text>

<text 
x="156" 
y="115" 
dx="0,0,0,0,0,0,0,0,0,0,0,0,0,0,0,0,0,0,0,0,0,0,0,0,0,0,0,0,0,0,0,0,0,0,0,0,0,0,0,0,0,0,0,0,0,0,0,0,0,0,0,-1.6,0,0,0,0,0,0,0,0,0,0,0,0,0,0,0,0,0,0,0,0,0,0,0,0,0,0,0,0,0,0" 
class="s3_101"
>refers to measures of how spread out our data is. Typically they’re statistics for</text>

<text 
x="55" 
y="143" 
class="s3_101"
>which values near zero signify</text>

<text 
x="329" 
y="143" 
dx="0,0,0,0,0,0,0,-0.8,0,0,0,0,0,0,0,0,0,0,0,0,0" 
class="s2_101"
>not spread out at all</text>

<text 
x="512" 
y="143" 
dx="0,0,0,0,0,0,0,0,0,0,0,0,0,0,0,0,0,-0.4,0,0,0,0,0,0,0,0,0,0,0,0,0,0,0,0,0,0" 
class="s3_101"
>and for which large values (whatever</text>

<text 
x="55" 
y="170" 
class="s3_101"
>that means) signify</text>

<text 
x="229" 
y="170" 
dx="0,0,0,0,0,0,0,0,-0.8,0,0,0,0,0,0" 
class="s2_101"
>very spread out</text>

<text 
x="364" 
y="170" 
class="s3_101"
>. For instance, a very simple measure is the</text>

<text 
x="750" 
y="170" 
class="s2_101"
>range</text>

<text 
x="801" 
y="170" 
class="s3_101"
>,</text>

<text 
x="55" 
y="198" 
dx="0,0,0,0,0,0,0,0,0,0,0,0,0,0,0,0,0,0,0,0,0,-0.4,0,0,0,0,0,0,0,0,0,0,0,0,0,0,0,0,0,0,0,0,0,0,-0.4,0,0,0,0,0,0,0,0,0,0,0,0,0,0,0,0,0,0,0,0,0,0,0,0,0,0" 
class="s3_101"
>which is just the difference between the largest and smallest elements:</text>

<text 
x="76" 
y="243" 
dx="0,0,4.6,0,0,0,0,0,0,0,4.6,0,0,0,0,0,0,0,4.6,0,0,0,0,0,4.6,0,0,0,0,0,0,0,0,0,4.6,0,0,4.6,0,0,0,0,0,0,0,4.6,0,0,4.6,0,0,0,0,0,4.6,0,0,0,4.6,0,4.6,0,0,0,0,0,0,0,0,0,4.6,0,0,0" 
class="s4_101"
># "range" already means something in Python, so we'll use a different name</text>

<text 
x="76" 
y="258" 
class="s5_101"
>def</text>

<text 
x="108" 
y="258" 
class="s6_101"
>data_range</text>

<text 
x="187" 
y="258" 
class="s7_101"
>(</text>

<text 
x="195" 
y="258" 
class="s8_101"
>x</text>

<text 
x="203" 
y="258" 
class="s7_101"
>):</text>

<text 
x="108" 
y="273" 
class="s5_101"
>return</text>

<text 
x="163" 
y="273" 
class="s9_101"
>max</text>

<text 
x="187" 
y="273" 
class="s7_101"
>(</text>

<text 
x="195" 
y="273" 
class="s8_101"
>x</text>

<text 
x="203" 
y="273" 
dx="0,0,4.6" 
class="s7_101"
>) -</text>

<text 
x="235" 
y="273" 
class="s9_101"
>min</text>

<text 
x="258" 
y="273" 
class="s7_101"
>(</text>

<text 
x="266" 
y="273" 
class="s8_101"
>x</text>

<text 
x="274" 
y="273" 
class="s7_101"
>)</text>

<text 
x="76" 
y="304" 
class="s8_101"
>data_range</text>

<text 
x="156" 
y="304" 
class="s7_101"
>(</text>

<text 
x="163" 
y="304" 
class="s8_101"
>num_friends</text>

<text 
x="250" 
y="304" 
class="s7_101"
>)</text>

<text 
x="266" 
y="304" 
dx="0,0,4.6,0" 
class="s4_101"
># 99</text>

<text 
x="55" 
y="357" 
class="s3_101"
>The range is zero precisely when the</text>

<text 
x="382" 
y="357" 
class="s10_101"
>max</text>

<text 
x="419" 
y="357" 
class="s3_101"
>and</text>

<text 
x="457" 
y="357" 
class="s10_101"
>min</text>

<text 
x="494" 
y="357" 
class="s3_101"
>are equal, which can only happen if the</text>

<text 
x="55" 
y="387" 
class="s3_101"
>elements of</text>

<text 
x="162" 
y="387" 
class="s10_101"
>x</text>

<text 
x="178" 
y="387" 
class="s3_101"
>are all the same, which means the data is as undispersed as possible.</text>

<text 
x="55" 
y="416" 
dx="0,0,0,0,0,0,0,0,0,0,-1.4,0,0,0,0,0,0,0,0,0,0,0,0,0,0,0,0,0,0,0,0,-0.4,0,0,0,0,0,0,0,0,0,0,0" 
class="s3_101"
>Conversely, if the range is large, then the</text>

<text 
x="420" 
y="416" 
class="s10_101"
>max</text>

<text 
x="457" 
y="416" 
dx="0,0,0,0,0,0,0,0,0,0,0,-0.4,0,0,0,0,0,0,0,0,0,0,0" 
class="s3_101"
>is much larger than the</text>

<text 
x="664" 
y="416" 
class="s10_101"
>min</text>

<text 
x="701" 
y="416" 
class="s3_101"
>and the data is</text>

<text 
x="55" 
y="446" 
class="s3_101"
>more spread out.</text>

<text 
x="55" 
y="485" 
dx="0,0,0,0,0,0,0,0,0,0,0,0,0,0,0,0,0,0,0,0,0,0,0,0,0,0,0,0,0,0,0,0,0,-0.4,0,0,0,0,0,0,0,0,0,0,0,0,0,0,0,0,0,0,0,0,0,0,0,0,0,0,0,0,0,0,0,0,0,0,0,0,0,0,0,0,-1.2,0,0,0,0,0,0,0,0,0,0,0,0,0" 
class="s3_101"
>Like the median, the range doesn’t really depend on the whole data set. A data set whose</text>

<text 
x="55" 
y="512" 
class="s3_101"
>points are all either 0 or 100 has the same range as a data set whose values are 0, 100, and</text>

<text 
x="55" 
y="540" 
class="s3_101"
>lots of 50s. But it seems like the first data set “should” be more spread out.</text>

<text 
x="55" 
y="578" 
dx="0,0,-1.2,0,0,0,0,0,0,0,0,0,0,0,0,0,0,0,0,0,0,0,0,0,0,0,0,0,0,0,0,0,0,0,0,0,0,0,0,0,0,0,0" 
class="s3_101"
>A more complex measure of dispersion is the</text>

<text 
x="457" 
y="578" 
class="s2_101"
>variance</text>

<text 
x="534" 
y="578" 
class="s3_101"
>, which is computed as:</text>

<text 
x="76" 
y="623" 
class="s5_101"
>def</text>

<text 
x="108" 
y="623" 
class="s6_101"
>de_mean</text>

<text 
x="163" 
y="623" 
class="s7_101"
>(</text>

<text 
x="171" 
y="623" 
class="s8_101"
>x</text>

<text 
x="179" 
y="623" 
class="s7_101"
>):</text>

<text 
x="108" 
y="639" 
dx="0,0,0,0,0,0,0,0,0,0,0,0,0,4.6,0,4.6,0,0,4.6,0,0,0,0,0,0,0,0,0,0,0,4.6,0,0,0,4.6,0,0,0,0,4.6,0,0,0,4.6,0,0,0,4.6,0,0,0,0,0,0,4.6,0,0,0,4.6,0,0,0,0,4.6,0,0,0,0" 
class="s11_101"
>"""translate x by subtracting its mean (so the result has mean 0)"""</text>

<text 
x="108" 
y="654" 
class="s8_101"
>x_bar</text>

<text 
x="156" 
y="654" 
class="s7_101"
>=</text>

<text 
x="171" 
y="654" 
class="s8_101"
>mean</text>

<text 
x="203" 
y="654" 
class="s7_101"
>(</text>

<text 
x="211" 
y="654" 
class="s8_101"
>x</text>

<text 
x="219" 
y="654" 
class="s7_101"
>)</text>

<text 
x="108" 
y="670" 
class="s5_101"
>return</text>

<text 
x="163" 
y="670" 
class="s7_101"
>[</text>

<text 
x="171" 
y="670" 
class="s8_101"
>x_i</text>

<text 
x="203" 
y="670" 
class="s7_101"
>-</text>

<text 
x="219" 
y="670" 
class="s8_101"
>x_bar</text>

<text 
x="266" 
y="670" 
class="s5_101"
>for</text>

<text 
x="298" 
y="670" 
class="s8_101"
>x_i</text>

<text 
x="329" 
y="670" 
class="s12_101"
>in</text>

<text 
x="353" 
y="670" 
class="s8_101"
>x</text>

<text 
x="361" 
y="670" 
class="s7_101"
>]</text>

<text 
x="76" 
y="700" 
class="s5_101"
>def</text>

<text 
x="108" 
y="700" 
class="s6_101"
>variance</text>

<text 
x="171" 
y="700" 
class="s7_101"
>(</text>

<text 
x="179" 
y="700" 
class="s8_101"
>x</text>

<text 
x="187" 
y="700" 
class="s7_101"
>):</text>

<text 
x="108" 
y="716" 
dx="0,0,0,0,0,0,0,0,0,0,0,4.6,0,4.6,0,0,0,4.6,0,0,4.6,0,0,0,0,0,4.6,0,0,0,4.6,0,0,0,0,0,0,0,0,0,0" 
class="s11_101"
>"""assumes x has at least two elements"""</text>

<text 
x="108" 
y="731" 
class="s8_101"
>n</text>

<text 
x="124" 
y="731" 
class="s7_101"
>=</text>

<text 
x="140" 
y="731" 
class="s9_101"
>len</text>

<text 
x="163" 
y="731" 
class="s7_101"
>(</text>

<text 
x="171" 
y="731" 
class="s8_101"
>x</text>

<text 
x="179" 
y="731" 
class="s7_101"
>)</text>

<text 
x="108" 
y="747" 
class="s8_101"
>deviations</text>

<text 
x="195" 
y="747" 
class="s7_101"
>=</text>

<text 
x="211" 
y="747" 
class="s8_101"
>de_mean</text>

<text 
x="266" 
y="747" 
class="s7_101"
>(</text>

<text 
x="274" 
y="747" 
class="s8_101"
>x</text>

<text 
x="282" 
y="747" 
class="s7_101"
>)</text>

<text 
x="108" 
y="762" 
class="s5_101"
>return</text>

<text 
x="163" 
y="762" 
class="s8_101"
>sum_of_squares</text>

<text 
x="274" 
y="762" 
class="s7_101"
>(</text>

<text 
x="282" 
y="762" 
class="s8_101"
>deviations</text>

<text 
x="361" 
y="762" 
dx="0,0,4.6,0,4.6" 
class="s7_101"
>) / (</text>

<text 
x="401" 
y="762" 
class="s8_101"
>n</text>

<text 
x="416" 
y="762" 
class="s7_101"
>-</text>

<text 
x="432" 
y="762" 
class="s13_101"
>1</text>

<text 
x="440" 
y="762" 
class="s7_101"
>)</text>

<text 
x="76" 
y="793" 
class="s8_101"
>variance</text>

<text 
x="140" 
y="793" 
class="s7_101"
>(</text>

<text 
x="148" 
y="793" 
class="s8_101"
>num_friends</text>

<text 
x="235" 
y="793" 
class="s7_101"
>)</text>

<text 
x="250" 
y="793" 
dx="0,0,4.6,0,0,0,0" 
class="s4_101"
># 81.54</text>

<text 
x="421" 
y="850" 
dx="0,1.1,1.1,1.1" 
class="s14_101"
>NOTE</text>

<text 
x="97" 
y="880" 
class="s15_101"
>This looks like it is almost the average squared deviation from the mean, except that we’re dividing by</text>

<text 
x="778" 
y="880" 
class="s7_101"
>n-1</text>

<text 
x="97" 
y="902" 
class="s15_101"
>instead of</text>

<text 
x="166" 
y="902" 
class="s7_101"
>n</text>

<text 
x="174" 
y="902" 
dx="0,0,0,0,0,0,0,0,0,0,0,0,0,0,0,0,0,0,0,0,0,0,0,0,0,0,0,0,0,0,0,0,0,0,0,0,0,0,0,0,0,0,0,0,0,0,0,0,0,0,0,0,0,0,-0.3,0,0,0,0,0,0,0,0,0,0,0,0,0,0" 
class="s15_101"
>. In fact, when we’re dealing with a sample from a larger population,</text>

<text 
x="631" 
y="902" 
class="s7_101"
>x_bar</text>

<text 
x="675" 
y="902" 
class="s15_101"
>is only an</text>

<text 
x="743" 
y="902" 
class="s16_101"
>estimate</text>

<text 
x="97" 
y="924" 
class="s15_101"
>of the actual mean, which means that on average</text>

<text 
x="422" 
y="924" 
dx="0,0,0,0,0,4.6,0,4.6,0,0,0,0,0,0,4.6,0,0,4.6" 
class="s7_101"
>(x_i - x_bar) ** 2</text>

<text 
x="569" 
y="924" 
class="s15_101"
>is an underestimate of</text>

<text 
x="718" 
y="924" 
class="s7_101"
>x_i</text>

<text 
x="742" 
y="924" 
dx="0,-0.9,0,0,0,0,0,0,0,0" 
class="s15_101"
>’s squared</text>

<text 
x="97" 
y="946" 
class="s15_101"
>deviation from the mean, which is why we divide by</text>

<text 
x="449" 
y="946" 
class="s7_101"
>n-1</text>

<text 
x="476" 
y="946" 
class="s15_101"
>instead of</text>

<text 
x="545" 
y="946" 
class="s7_101"
>n</text>

<text 
x="553" 
y="946" 
class="s15_101"
>. See</text>

<text 
x="589" 
y="946" 
dx="0,-0.7,0,0,0,0,0,0,0" 
class="s17_101"
>Wikipedia</text>

<text 
x="657" 
y="946" 
class="s15_101"
>.</text>

<text 
x="55" 
y="993" 
dx="0,0,0,-1.4,0,0,0,0,0,0,0,0,0,0,0,0,0,0,0,0,0,0,0,0,0,0,0,0,0,0,0,0,0,0,0,0,0,0,0,0,0,0,0,0,0,0,0,0,0,0,0,0,0,0,0,0,0,0,0,0,0,0,0,0,0,0,0,0,0,0,0,0,0,0,0,0,0,0,0,0,0,0,0,0,0,0,0,0,0,0,0,0,0" 
class="s3_101"
>Now, whatever units our data is in (e.g., “friends”), all of our measures of central tendency</text>

<text 
x="55" 
y="1021" 
class="s3_101"
>are in that same unit. The range will similarly be in that same unit. The variance, on the</text>

<text 
x="55" 
y="1048" 
class="s3_101"
>other hand, has units that are the</text>

<text 
x="345" 
y="1048" 
dx="0,0,0,0,0,-0.8" 
class="s2_101"
>square</text>

<text 
x="410" 
y="1048" 
class="s3_101"
>of the original units (e.g., “friends squared”). As it</text>

<text 
x="55" 
y="1076" 
class="s3_101"
>can be hard to make sense of these, we often look instead at the</text>

<text 
x="618" 
y="1076" 
dx="0,0,0,0,0,0,0,-0.8,0,0,0,0,0,0,0,0,0,0" 
class="s2_101"
>standard deviation</text>

<text 
x="783" 
y="1076" 
class="s3_101"
>:</text>

<text 
x="76" 
y="1121" 
class="s5_101"
>def</text>

<text 
x="108" 
y="1121" 
class="s6_101"
>standard_deviation</text>

<text 
x="250" 
y="1121" 
class="s7_101"
>(</text>

<text 
x="258" 
y="1121" 
class="s8_101"
>x</text>

<text 
x="266" 
y="1121" 
class="s7_101"
>):</text>

<text 
x="108" 
y="1136" 
class="s5_101"
>return</text>

<text 
x="163" 
y="1136" 
class="s8_101"
>math</text>

<text 
x="195" 
y="1136" 
class="s7_101"
>.</text>

<text 
x="203" 
y="1136" 
class="s8_101"
>sqrt</text>

<text 
x="235" 
y="1136" 
class="s7_101"
>(</text>

<text 
x="242" 
y="1136" 
class="s8_101"
>variance</text>

<text 
x="306" 
y="1136" 
class="s7_101"
>(</text>

<text 
x="314" 
y="1136" 
class="s8_101"
>x</text>

<text 
x="322" 
y="1136" 
class="s7_101"
>))</text>

<text 
x="76" 
y="1167" 
class="s8_101"
>standard_deviation</text>

<text 
x="219" 
y="1167" 
class="s7_101"
>(</text>

<text 
x="227" 
y="1167" 
class="s8_101"
>num_friends</text>

<text 
x="314" 
y="1167" 
class="s7_101"
>)</text>

<text 
x="329" 
y="1167" 
dx="0,0,4.6,0,0,0" 
class="s4_101"
># 9.03</text>

<text 
x="55" 
y="1220" 
class="s3_101"
>Both the range and the standard deviation have the same outlier problem that we saw</text>



<!-- Any embedded fonts defined here -->
<style type="text/css" ><![CDATA[

@font-face {
	font-family: LiberationSerif-Italic_l;
	src: url("fonts/LiberationSerif-Italic_l.woff") format("woff");
}

@font-face {
	font-family: LiberationMono-Bold_1w;
	src: url("fonts/LiberationMono-Bold_1w.woff") format("woff");
}

@font-face {
	font-family: LiberationMono-Italic_10;
	src: url("fonts/LiberationMono-Italic_10.woff") format("woff");
}

@font-face {
	font-family: LiberationMono_1q;
	src: url("fonts/LiberationMono_1q.woff") format("woff");
}

@font-face {
	font-family: LiberationSerif-Bold_b;
	src: url("fonts/LiberationSerif-Bold_b.woff") format("woff");
}

@font-face {
	font-family: LiberationSerif_e;
	src: url("fonts/LiberationSerif_e.woff") format("woff");
}

]]></style>

</svg>
