<?xml version="1.0" encoding="UTF-8" standalone="no"?>
<!DOCTYPE svg PUBLIC "-//W3C//DTD SVG 1.1//EN"
"http://www.w3.org/Graphics/SVG/1.1/DTD/svg11.dtd">


<!-- Page 106 -->
<svg x="0" y="0" width="909" height="1286" viewBox="0 0 909 1286" version="1.1" xmlns="http://www.w3.org/2000/svg" xmlns:xlink="http://www.w3.org/1999/xlink"
style="display: block;margin-left: auto;margin-right: auto;">
<defs>

<style type="text/css"><![CDATA[

.g1_106{
fill: #F1F6FC;
}
.g2_106{
fill: #C3C3C3;
}
.g3_106{
fill: #9D9D9D;
}

.s1_106{
font-size: 30.81px;
font-family: LiberationSerif-Bold_b;
fill: #8E0012;
}
.s2_106{
font-size: 22.01px;
font-family: LiberationSerif_e;
fill: #000000;
}
.s3_106{
font-size: 22.01px;
font-family: LiberationSerif-Italic_l;
fill: #000000;
}
.s4_106{
font-size: 16.50px;
font-family: LiberationSerif-Bold_b;
fill: #000000;
}
.s5_106{
font-size: 16.50px;
font-family: LiberationSerif_e;
fill: #000000;
}

]]></style>

</defs>
<path d="M0,0
L0,1286
L909,1286
L909,0 Z " 
fill="#FFFFFF" stroke="none" />
<path d="M298,342.2l84.7,0l0,46.2l-84.7,0l0,-46.2Z" class="g1_106" />
<path d="M382.7,342.2l105.6,0l0,46.2l-105.6,0l0,-46.2Z" class="g1_106" />
<path d="M488.3,342.2l123.1,0l0,46.2l-123.1,0l0,-46.2Z" class="g1_106" />
<path d="M488.3,342.2l123.1,0l0,1.1l-123.1,0l0,-1.1Z" class="g2_106" />
<path d="M488.3,388.4l123.1,0l0,1.1l-123.1,0l0,-1.1Z" class="g2_106" />
<path d="M382.7,342.2l105.6,0l0,1.1l-105.6,0l0,-1.1Z" class="g2_106" />
<path d="M382.7,388.4l105.6,0l0,1.1l-105.6,0l0,-1.1Z" class="g2_106" />
<path d="M298,342.2l84.7,0l0,1.1l-84.7,0l0,-1.1Z" class="g2_106" />
<path d="M298,388.4l84.7,0l0,1.1l-84.7,0l0,-1.1Z" class="g2_106" />
<path d="M488.3,296l123.1,0l0,1.1l-123.1,0l0,-1.1Z" class="g3_106" />
<path d="M488.3,342.2l123.1,0l0,1.1l-123.1,0l0,-1.1Z" class="g2_106" />
<path d="M382.7,296l105.6,0l0,1.1l-105.6,0l0,-1.1Z" class="g3_106" />
<path d="M382.7,342.2l105.6,0l0,1.1l-105.6,0l0,-1.1Z" class="g2_106" />
<path d="M298,296l84.7,0l0,1.1l-84.7,0l0,-1.1Z" class="g3_106" />
<path d="M298,342.2l84.7,0l0,1.1l-84.7,0l0,-1.1Z" class="g2_106" />
<path d="M488.3,266.3l123.1,0l0,1.1l-123.1,0l0,-1.1Z" class="g3_106" />
<path d="M488.3,296l123.1,0l0,1.1l-123.1,0l0,-1.1Z" class="g3_106" />
<path d="M382.7,266.3l105.6,0l0,1.1l-105.6,0l0,-1.1Z" class="g3_106" />
<path d="M382.7,296l105.6,0l0,1.1l-105.6,0l0,-1.1Z" class="g3_106" />
<path d="M298,266.3l84.7,0l0,1.1l-84.7,0l0,-1.1Z" class="g3_106" />
<path d="M298,296l84.7,0l0,1.1l-84.7,0l0,-1.1Z" class="g3_106" />
<path d="M268.3,718.5l84.7,0l0,46.2l-84.7,0l0,-46.2Z" class="g1_106" />
<path d="M353,718.5l60.5,0l0,46.2l-60.5,0l0,-46.2Z" class="g1_106" />
<path d="M413.5,718.5l105.6,0l0,46.2l-105.6,0l0,-46.2Z" class="g1_106" />
<path d="M519.1,718.5l123.1,0l0,46.2l-123.1,0l0,-46.2Z" class="g1_106" />
<path d="M268.3,810.9l84.7,0l0,46.2l-84.7,0l0,-46.2Z" class="g1_106" />
<path d="M353,810.9l60.5,0l0,46.2l-60.5,0l0,-46.2Z" class="g1_106" />
<path d="M413.5,810.9l105.6,0l0,46.2l-105.6,0l0,-46.2Z" class="g1_106" />
<path d="M519.1,810.9l123.1,0l0,46.2l-123.1,0l0,-46.2Z" class="g1_106" />
<path d="M519.1,810.9l123.1,0l0,1.1l-123.1,0l0,-1.1Z" class="g2_106" />
<path d="M519.1,857.1l123.1,0l0,1.1l-123.1,0l0,-1.1Z" class="g2_106" />
<path d="M413.5,810.9l105.6,0l0,1.1l-105.6,0l0,-1.1Z" class="g2_106" />
<path d="M413.5,857.1l105.6,0l0,1.1l-105.6,0l0,-1.1Z" class="g2_106" />
<path d="M353,810.9l60.5,0l0,1.1L353,812l0,-1.1Z" class="g2_106" />
<path d="M353,857.1l60.5,0l0,1.1l-60.5,0l0,-1.1Z" class="g2_106" />
<path d="M268.3,810.9l84.7,0l0,1.1l-84.7,0l0,-1.1Z" class="g2_106" />
<path d="M268.3,857.1l84.7,0l0,1.1l-84.7,0l0,-1.1Z" class="g2_106" />
<path d="M519.1,764.7l123.1,0l0,1.1l-123.1,0l0,-1.1Z" class="g2_106" />
<path d="M519.1,810.9l123.1,0l0,1.1l-123.1,0l0,-1.1Z" class="g2_106" />
<path d="M413.5,764.7l105.6,0l0,1.1l-105.6,0l0,-1.1Z" class="g2_106" />
<path d="M413.5,810.9l105.6,0l0,1.1l-105.6,0l0,-1.1Z" class="g2_106" />
<path d="M353,764.7l60.5,0l0,1.1l-60.5,0l0,-1.1Z" class="g2_106" />
<path d="M353,810.9l60.5,0l0,1.1L353,812l0,-1.1Z" class="g2_106" />
<path d="M268.3,764.7l84.7,0l0,1.1l-84.7,0l0,-1.1Z" class="g2_106" />
<path d="M268.3,810.9l84.7,0l0,1.1l-84.7,0l0,-1.1Z" class="g2_106" />
<path d="M519.1,718.5l123.1,0l0,1.1l-123.1,0l0,-1.1Z" class="g2_106" />
<path d="M519.1,764.7l123.1,0l0,1.1l-123.1,0l0,-1.1Z" class="g2_106" />
<path d="M413.5,718.5l105.6,0l0,1.1l-105.6,0l0,-1.1Z" class="g2_106" />
<path d="M413.5,764.7l105.6,0l0,1.1l-105.6,0l0,-1.1Z" class="g2_106" />
<path d="M353,718.5l60.5,0l0,1.1l-60.5,0l0,-1.1Z" class="g2_106" />
<path d="M353,764.7l60.5,0l0,1.1l-60.5,0l0,-1.1Z" class="g2_106" />
<path d="M268.3,718.5l84.7,0l0,1.1l-84.7,0l0,-1.1Z" class="g2_106" />
<path d="M268.3,764.7l84.7,0l0,1.1l-84.7,0l0,-1.1Z" class="g2_106" />
<path d="M519.1,672.3l123.1,0l0,1.1l-123.1,0l0,-1.1Z" class="g3_106" />
<path d="M519.1,718.5l123.1,0l0,1.1l-123.1,0l0,-1.1Z" class="g2_106" />
<path d="M413.5,672.3l105.6,0l0,1.1l-105.6,0l0,-1.1Z" class="g3_106" />
<path d="M413.5,718.5l105.6,0l0,1.1l-105.6,0l0,-1.1Z" class="g2_106" />
<path d="M353,672.3l60.5,0l0,1.1l-60.5,0l0,-1.1Z" class="g3_106" />
<path d="M353,718.5l60.5,0l0,1.1l-60.5,0l0,-1.1Z" class="g2_106" />
<path d="M268.3,672.3l84.7,0l0,1.1l-84.7,0l0,-1.1Z" class="g3_106" />
<path d="M268.3,718.5l84.7,0l0,1.1l-84.7,0l0,-1.1Z" class="g2_106" />
<path d="M519.1,642.6l123.1,0l0,1.1l-123.1,0l0,-1.1Z" class="g3_106" />
<path d="M519.1,672.3l123.1,0l0,1.1l-123.1,0l0,-1.1Z" class="g3_106" />
<path d="M413.5,642.6l105.6,0l0,1.1l-105.6,0l0,-1.1Z" class="g3_106" />
<path d="M413.5,672.3l105.6,0l0,1.1l-105.6,0l0,-1.1Z" class="g3_106" />
<path d="M353,642.6l60.5,0l0,1.1l-60.5,0l0,-1.1Z" class="g3_106" />
<path d="M353,672.3l60.5,0l0,1.1l-60.5,0l0,-1.1Z" class="g3_106" />
<path d="M268.3,642.6l84.7,0l0,1.1l-84.7,0l0,-1.1Z" class="g3_106" />
<path d="M268.3,672.3l84.7,0l0,1.1l-84.7,0l0,-1.1Z" class="g3_106" />
<text 
x="55" 
y="81" 
dx="0,0,0,0,0,0,0,0,-1.2,0,0,0,0,0,0,0,0" 
class="s1_106"
>Simpson’s Paradox</text>

<text 
x="55" 
y="122" 
dx="0,0,0,0,0,0,0,0,0,0,0,0,0,0,0,0,0,0,0,0,0,0,0,0,0,0,0,0,0,0,0,0,0,0,0,0,0,0,0,0,0,0,0,0,0,0,0,0,0,0,0,0,0,0,0,0,0,-1.2,0,0,0,0,0,0,0,0,0,0,0,0,0,0,0,0,0,0" 
class="s2_106"
>One not uncommon surprise when analyzing data is Simpson’s Paradox, in which</text>

<text 
x="55" 
y="149" 
class="s2_106"
>correlations can be misleading when</text>

<text 
x="381" 
y="149" 
class="s3_106"
>confounding</text>

<text 
x="497" 
y="149" 
class="s2_106"
>variables are ignored.</text>

<text 
x="55" 
y="188" 
class="s2_106"
>For example, imagine that you can identify all of your members as either East Coast data</text>

<text 
x="55" 
y="215" 
dx="0,0,0,0,0,0,0,0,0,0,0,0,0,0,0,-1.8,0,0,0,0,0,0,0,0,0,0,0,0,0,0,0,0,0,0,0,0,0,0,0,0,0,0,0,-2.2,0,0,0,0,0,0,0,0,0,0,0,0,0,0,0,0,0,0,0,0,0,0,0,0,0,0,0,0,0,0,0,0,-1.2,0,0,0,0,0" 
class="s2_106"
>scientists or West Coast data scientists. You decide to examine which coast’s data</text>

<text 
x="55" 
y="243" 
class="s2_106"
>scientists are friendlier:</text>

<text 
x="302" 
y="287" 
class="s4_106"
>coast</text>

<text 
x="387" 
y="287" 
dx="0,0,0,0,0,0,0,0,0,0,0,0,0,6.2,0,0,0,0,0,0,0,0,0,0,0,0,0,0,0,0" 
class="s4_106"
># of members avg. # of friends</text>

<text 
x="303" 
y="325" 
dx="0,-1.3,0,0,0,0,0,0,0,0,0,6.3,0,0" 
class="s5_106"
>West Coast 101</text>

<text 
x="493" 
y="325" 
class="s5_106"
>8.2</text>

<text 
x="303" 
y="371" 
class="s5_106"
>East Coast</text>

<text 
x="388" 
y="371" 
class="s5_106"
>103</text>

<text 
x="493" 
y="371" 
class="s5_106"
>6.5</text>

<text 
x="55" 
y="443" 
dx="0,0,0,0,0,0,0,0,0,0,0,0,0,0,0,0,0,0,0,0,0,0,0,0,0,0,0,0,0,-1.8,0,0,0,0,0,0,0,0,0,0,0,0,0,0,0,0,0,0,0,0,0,0,0,0,0,0,0,0,0,0,0,0,0,0,0,0,0,0,0,0,0,0,0,0,0,0,0,0,0,0,0,0,0,0,0,0,0,0,0,0,0,0,0,0" 
class="s2_106"
>It certainly looks like the West Coast data scientists are friendlier than the East Coast data</text>

<text 
x="55" 
y="470" 
dx="0,0,0,0,0,0,0,0,0,0,0,0,0,-2.2,0,0,0,0,0,0,0,0,0,0,0,0,0,0,0,0,0,0,0,0,0,0,0,0,0,0,0,0,0,0,0,0,0,0,0,0,0,0,0,0,0,0,0,0,0,0,0,0,0,0,0,0,0,0,0,0,0,0,0,0,0,0,0,0,0,0,0,0,0,0,0,0,0,0,0,0,0,-1.2" 
class="s2_106"
>scientists. Your coworkers advance all sorts of theories as to why this might be: maybe it’s</text>

<text 
x="55" 
y="498" 
dx="0,0,0,0,0,0,0,0,0,0,0,0,0,0,0,0,0,0,0,-0.4,0,0,0,0,0,0,0,0,0,0,0,0,0,-0.4,0,0,0,0,0,0,0,0,0,0,0,0,0,0,0,0,0,0,0,0,0,0,0,0,0,0,0,0,0,0,0,0,0,0,0,0,0,0,0,0,0,0,0,0" 
class="s2_106"
>the sun, or the coffee, or the organic produce, or the laid-back Pacific vibe?</text>

<text 
x="55" 
y="536" 
class="s2_106"
>When playing with the data you discover something very strange. If you only look at</text>

<text 
x="55" 
y="564" 
class="s2_106"
>people with PhDs, the East Coast data scientists have more friends on average. And if you</text>

<text 
x="55" 
y="591" 
class="s2_106"
>only look at people without PhDs, the East Coast data scientists also have more friends on</text>

<text 
x="55" 
y="619" 
class="s2_106"
>average!</text>

<text 
x="272" 
y="663" 
class="s4_106"
>coast</text>

<text 
x="357" 
y="663" 
dx="0,0,0,0,-0.3,0" 
class="s4_106"
>degree</text>

<text 
x="417" 
y="663" 
dx="0,0,0,0,0,0,0,0,0,0,0,0,0,6.2,0,0,0,0,0,0,0,0,0,0,0,0,0,0,0,0" 
class="s4_106"
># of members avg. # of friends</text>

<text 
x="272" 
y="701" 
dx="0,-1.3,0,0,0,0,0,0,0,0,0,6.3,0,0" 
class="s5_106"
>West Coast PhD</text>

<text 
x="417" 
y="701" 
class="s5_106"
>35</text>

<text 
x="523" 
y="701" 
class="s5_106"
>3.1</text>

<text 
x="272" 
y="748" 
class="s5_106"
>East Coast</text>

<text 
x="357" 
y="748" 
class="s5_106"
>PhD</text>

<text 
x="417" 
y="748" 
class="s5_106"
>70</text>

<text 
x="523" 
y="748" 
class="s5_106"
>3.2</text>

<text 
x="272" 
y="794" 
dx="0,-1.3,0,0,0,0,0,0,0,0,0,6.3,0,0,0,0,0,0,6.4,0" 
class="s5_106"
>West Coast no PhD 66</text>

<text 
x="523" 
y="794" 
class="s5_106"
>10.9</text>

<text 
x="272" 
y="840" 
class="s5_106"
>East Coast</text>

<text 
x="357" 
y="840" 
dx="0,0,0,0,0,0,0,6.4,0" 
class="s5_106"
>no PhD 33</text>

<text 
x="523" 
y="840" 
class="s5_106"
>13.4</text>

<text 
x="55" 
y="912" 
dx="0,0,0,0,0,0,0,0,0,0,0,0,0,0,0,0,0,0,0,0,0,0,0,0,0,0,0,0,0,0,0,0,-1.6,0,0,0,0,0,0,0,0,0,0,0,0,0,0,0,0,0,0,0,0,0,0,0,0,0,0,0,0,0,0,0,0,0,0,0,0,0,0,0,0,0,0,0,0,0,0,0,0,0,0,0,0,0,0,0" 
class="s2_106"
>Once you account for the users’ degrees, the correlation goes in the opposite direction!</text>

<text 
x="55" 
y="939" 
dx="0,0,0,0,0,0,0,0,0,0,0,0,0,0,0,0,0,0,0,0,0,0,0,0,0,0,0,0,0,0,0,0,0,0,-1.8,0,0,0,0,0,0,0,0,0,0,0,0,0,0,0,0,0,0,0,0,0,0,0,0,0,0,0,0,0,0,0,0,0,0,0,0,0,0,0,0,0,0,0,0,0,0,0,0,0,0,0,0" 
class="s2_106"
>Bucketing the data as East Coast/West Coast disguised the fact that the East Coast data</text>

<text 
x="55" 
y="967" 
class="s2_106"
>scientists skew much more heavily toward PhD types.</text>

<text 
x="55" 
y="1005" 
dx="0,0,0,0,0,0,0,0,0,0,0,0,0,0,0,0,0,0,0,0,0,0,0,0,0,0,0,0,0,0,0,0,0,0,0,0,0,0,0,0,0,0,0,0,0,0,0,0,0,0,0,0,0,0,0,0,0,0,0,0,0,0,0,-1.4,0,0,0,0,0,0,0,0,0,0,0,0,0,0,0,0,0,0,0,0,0,0" 
class="s2_106"
>This phenomenon crops up in the real world with some regularity. The key issue is that</text>

<text 
x="55" 
y="1033" 
class="s2_106"
>correlation is measuring the relationship between your two variables</text>

<text 
x="662" 
y="1033" 
class="s3_106"
>all else being equal</text>

<text 
x="833" 
y="1033" 
class="s2_106"
>.</text>

<text 
x="55" 
y="1060" 
class="s2_106"
>If your data classes are assigned at random, as they might be in a well-designed</text>

<text 
x="55" 
y="1088" 
class="s2_106"
>experiment, “all else being equal” might not be a terrible assumption. But when there is a</text>

<text 
x="55" 
y="1115" 
class="s2_106"
>deeper pattern to class assignments, “all else being equal” can be an awful assumption.</text>

<text 
x="55" 
y="1154" 
class="s2_106"
>The only real way to avoid this is by</text>

<text 
x="381" 
y="1154" 
class="s3_106"
>knowing your data</text>

<text 
x="552" 
y="1154" 
class="s2_106"
>and by doing what you can to</text>

<text 
x="55" 
y="1181" 
dx="0,0,0,0,0,0,0,0,0,0,0,0,0,0,0,0,0,0,0,0,0,0,0,0,0,0,0,0,0,0,0,0,0,0,0,0,0,0,0,0,0,0,0,0,0,0,0,0,0,0,0,0,0,0,0,0,0,0,0,0,0,0,0,0,0,0,0,0,-1.4,0,0,0,0,0,0,0,0,0,0,0,0,0,0,0,0,0,0,0" 
class="s2_106"
>make sure you’ve checked for possible confounding factors. Obviously, this is not always</text>

<text 
x="55" 
y="1209" 
dx="0,0,0,0,0,0,0,0,0,0,0,0,0,0,0,0,0,0,0,0,0,0,-0.4,0,0,0,0,0,0,0,0,0,0,0,0,0,0,0,0,0,0,0,0,0,0,0,0,0,0,0,0,0,0,0,0,0,0,0,0,0,0,0,0,0,0,0,0,0,0,0,0,0,0,0,0,0,0,0,0,0,0,0,0,0,0,0,0,0,0" 
class="s2_106"
>possible. If you didn’t have the educational attainment of these 200 data scientists, you</text>



<!-- Any embedded fonts defined here -->
<style type="text/css" ><![CDATA[

@font-face {
	font-family: LiberationSerif-Italic_l;
	src: url("fonts/LiberationSerif-Italic_l.woff") format("woff");
}

@font-face {
	font-family: LiberationSerif-Bold_b;
	src: url("fonts/LiberationSerif-Bold_b.woff") format("woff");
}

@font-face {
	font-family: LiberationSerif_e;
	src: url("fonts/LiberationSerif_e.woff") format("woff");
}

]]></style>

</svg>
