<?xml version="1.0" encoding="UTF-8" standalone="no"?>
<!DOCTYPE svg PUBLIC "-//W3C//DTD SVG 1.1//EN"
"http://www.w3.org/Graphics/SVG/1.1/DTD/svg11.dtd">


<!-- Page 116 -->
<svg x="0" y="0" width="909" height="1286" viewBox="0 0 909 1286" version="1.1" xmlns="http://www.w3.org/2000/svg" xmlns:xlink="http://www.w3.org/1999/xlink"
style="display: block;margin-left: auto;margin-right: auto;">
<defs>

<style type="text/css"><![CDATA[

.g1_116{
fill: #BEBEBE;
}

.s1_116{
font-size: 30.81px;
font-family: LiberationSerif-Bold_b;
fill: #8E0012;
}
.s2_116{
font-size: 22.01px;
font-family: LiberationSerif_e;
fill: #000000;
}
.s3_116{
font-size: 22.01px;
font-family: LiberationSerif-Italic_l;
fill: #000000;
}
.s4_116{
font-size: 22.01px;
font-family: LiberationSerif-Bold_b;
fill: #737373;
}
.s5_116{
font-size: 16.50px;
font-family: LiberationSerif_e;
fill: #000000;
}
.s6_116{
font-size: 16.50px;
font-family: LiberationSerif-Italic_l;
fill: #000000;
}

]]></style>

</defs>
<path d="M0,0
L0,1286
L909,1286
L909,0 Z " 
fill="#FFFFFF" stroke="none" />
<path fill-rule="evenodd" d="M93.5,1112.4l722.5,0c3,0,5.5,2.4,5.5,5.5l0,96.8c0,3,-2.5,5.5,-5.5,5.5l-722.5,0c-3,0,-5.5,-2.5,-5.5,-5.5l0,-96.8c0,-3.1,2.5,-5.5,5.5,-5.5m0,1.1l722.5,0c2.4,0,4.4,1.9,4.4,4.4l0,96.8c0,2.4,-2,4.4,-4.4,4.4l-722.5,0c-2.4,0,-4.4,-2,-4.4,-4.4l0,-96.8c0,-2.5,2,-4.4,4.4,-4.4Z" class="g1_116" />
<text 
x="55" 
y="81" 
dx="0,0,0,0,0,0,-1.2,0,0,0,0,0,0,-0.6,0" 
class="s1_116"
>Bayes’s Theorem</text>

<text 
x="55" 
y="122" 
dx="0,0,0,0,0,0,0,0,0,0,0,0,0,0,0,0,0,0,0,0,0,0,0,0,0,0,-1.2,0,0,0,0,0,0,0,0,0,0,0,0,0,0,0,0,0,0,0,0,0,0,0,-1.2,0,0,0,0,0,0,0,0,0,0,0,0,0,0,0,0,0,0,0,0,0,0,0,0,0,0,0,0,0,0,0,0,0,0,0,0,0,0,0" 
class="s2_116"
>One of the data scientist’s best friends is Bayes’s Theorem, which is a way of “reversing”</text>

<text 
x="55" 
y="149" 
dx="0,0,0,0,0,0,0,0,0,0,0,0,0,0,0,0,0,0,0,0,0,0,0,0,0,0,0,0,0,0,0,-1.2,0,0,0,0,0,0,0,0,0,0,0,0,0,0,0,0,0,0,0,0,0,0,0,0,0,0,0,0,0,0,0,0,0,0,0,0,0,0,0,0,0,0,0,0,0,0,0,0,0,0" 
class="s2_116"
>conditional probabilities. Let’s say we need to know the probability of some event</text>

<text 
x="782" 
y="149" 
class="s3_116"
>E</text>

<text 
x="55" 
y="177" 
class="s2_116"
>conditional on some other event</text>

<text 
x="342" 
y="177" 
class="s3_116"
>F</text>

<text 
x="361" 
y="177" 
class="s2_116"
>occurring. But we only have information about the</text>

<text 
x="55" 
y="204" 
class="s2_116"
>probability of</text>

<text 
x="180" 
y="204" 
class="s3_116"
>F</text>

<text 
x="199" 
y="204" 
class="s2_116"
>conditional on</text>

<text 
x="331" 
y="204" 
class="s3_116"
>E</text>

<text 
x="350" 
y="204" 
class="s2_116"
>occurring. Using the definition of conditional probability</text>

<text 
x="55" 
y="232" 
class="s2_116"
>twice tells us that:</text>

<image preserveAspectRatio="none" x="55" y="250" width="799" height="42" xlink:href="116/img/1.png" />
<text 
x="55" 
y="323" 
class="s2_116"
>The event</text>

<text 
x="147" 
y="323" 
class="s3_116"
>F</text>

<text 
x="166" 
y="323" 
class="s2_116"
>can be split into the two mutually exclusive events “</text>

<text 
x="626" 
y="323" 
class="s3_116"
>F</text>

<text 
x="645" 
y="323" 
class="s2_116"
>and</text>

<text 
x="682" 
y="323" 
class="s3_116"
>E</text>

<text 
x="696" 
y="323" 
class="s2_116"
>” and “</text>

<text 
x="758" 
y="323" 
class="s3_116"
>F</text>

<text 
x="777" 
y="323" 
class="s2_116"
>and not</text>

<text 
x="55" 
y="350" 
class="s3_116"
>E</text>

<text 
x="68" 
y="350" 
class="s2_116"
>.” If we write</text>

<image preserveAspectRatio="none" x="191" y="330" width="48" height="21" xlink:href="116/img/2.png" />
<text 
x="243" 
y="350" 
class="s2_116"
>for “not</text>

<text 
x="318" 
y="350" 
class="s3_116"
>E</text>

<text 
x="331" 
y="350" 
class="s2_116"
>” (i.e., “</text>

<text 
x="401" 
y="350" 
class="s3_116"
>E</text>

<text 
x="420" 
y="350" 
dx="0,0,0,0,0,0,-0.4,0,0,0,0,0,0,0,0,0,0,0,0,0,0,0,0" 
class="s2_116"
>doesn’t happen”), then:</text>

<image preserveAspectRatio="none" x="55" y="369" width="770" height="60" xlink:href="116/img/3.png" />
<text 
x="55" 
y="461" 
class="s2_116"
>so that:</text>

<image preserveAspectRatio="none" x="55" y="479" width="799" height="32" xlink:href="116/img/4.png" />
<text 
x="55" 
y="542" 
dx="0,0,0,0,0,0,0,0,0,0,0,0,0,0,0,0,0,0,0,-1.2,0,0,0,0,0,0,0,0,0,0,0,0,0,0,0,0,0,0,0,0,0,0,0,0,0" 
class="s2_116"
>which is how Bayes’s Theorem is often stated.</text>

<text 
x="55" 
y="580" 
class="s2_116"
>This theorem often gets used to demonstrate why data scientists are smarter than doctors.</text>

<text 
x="55" 
y="608" 
dx="0,0,0,0,0,0,0,0,0,0,0,0,0,0,0,0,0,0,0,0,0,0,0,0,0,0,0,0,0,0,0,0,0,-0.4,0,0,0,0,0,0,0,0,0,0,0,0,0,0,0,0,0,0,0,0,0,0,0,0,0,0,0,0,0,0,0,0,0,0,0,0,0,0,0,0,0,0,0,0,0,0,0,0,0,0,0,0,0,0,0,0,0,0" 
class="s2_116"
>Imagine a certain disease that affects 1 in every 10,000 people. And imagine that there is a</text>

<text 
x="55" 
y="635" 
class="s2_116"
>test for this disease that gives the correct result (“diseased” if you have the disease,</text>

<text 
x="55" 
y="663" 
dx="0,0,0,0,0,0,0,0,0,0,0,0,0,0,0,0,0,0,0,0,0,0,0,0,0,-0.4,0,0,0,0,0,0,0,0,0,0,0,0,0,0,0,0,0,0" 
class="s2_116"
>“nondiseased” if you don’t) 99% of the time.</text>

<text 
x="55" 
y="701" 
dx="0,0,0,0,0,0,0,0,0,0,0,0,0,0,0,0,0,0,0,0,0,0,0,0,0,0,0,0,0,0,0,0,0,0,0,0,-1.2,0,0,0,0" 
class="s2_116"
>What does a positive test mean? Let’s use</text>

<text 
x="427" 
y="701" 
class="s3_116"
>T</text>

<text 
x="445" 
y="701" 
class="s2_116"
>for the event “your test is positive” and</text>

<text 
x="795" 
y="701" 
class="s3_116"
>D</text>

<text 
x="816" 
y="701" 
class="s2_116"
>for</text>

<text 
x="55" 
y="729" 
dx="0,0,0,0,0,0,0,0,0,0,0,0,0,0,0,0,0,0,0,0,0,0,0,0,0,0,0,0,0,0,0,0,0,0,0,0,0,0,0,0,0,0,0,0,0,-1.2,0,0,0,0,0,0,0,0,0,0,0,0,0,0,0,0,0,0,0,0,0,0,0,0,0,0,0,0,0,0,0,0,0,0,0,0,0,0,0,0,0,0,0" 
class="s2_116"
>the event “you have the disease.” Then Bayes’s Theorem says that the probability that you</text>

<text 
x="55" 
y="756" 
class="s2_116"
>have the disease, conditional on testing positive, is:</text>

<image preserveAspectRatio="none" x="55" y="775" width="799" height="30" xlink:href="116/img/5.png" />
<text 
x="55" 
y="843" 
class="s2_116"
>Here we know that</text>

<image preserveAspectRatio="none" x="228" y="815" width="99" height="29" xlink:href="116/img/6.png" />
<text 
x="326" 
y="843" 
class="s2_116"
>, the probability that someone with the disease tests</text>

<text 
x="55" 
y="880" 
class="s2_116"
>positive, is 0.99.</text>

<image preserveAspectRatio="none" x="206" y="851" width="62" height="29" xlink:href="116/img/7.png" />
<text 
x="267" 
y="880" 
class="s2_116"
>, the probability that any given person has the disease, is 1/10,000</text>

<text 
x="55" 
y="915" 
class="s2_116"
>= 0.0001.</text>

<image preserveAspectRatio="none" x="144" y="887" width="134" height="28" xlink:href="116/img/8.png" />
<text 
x="278" 
y="915" 
class="s2_116"
>, the probability that someone without the disease tests positive,</text>

<text 
x="55" 
y="951" 
class="s2_116"
>is 0.01. And</text>

<image preserveAspectRatio="none" x="168" y="922" width="100" height="30" xlink:href="116/img/9.png" />
<text 
x="268" 
y="951" 
dx="0,0,0,0,0,0,0,0,0,0,0,0,0,0,0,0,0,0,0,0,0,0,0,0,0,0,0,0,0,0,0,0,0,0,0,0,0,0,0,0,0,0,0,0,0,0,-0.4,0,0,0,0,0,0,0,0,0,0,0,0,0,0,0,0,0,0,0,0,0" 
class="s2_116"
>, the probability that any given person doesn’t have the disease, is</text>

<text 
x="55" 
y="979" 
dx="0,0,0,0,0,0,0,0,0,0,0,0,0,0,0,0,0,0,0,0,0,0,0,0,0,0,0,0,0,0,0,0,0,0,0,0,0,0,0,0,0,0,0,0,0,0,0,0,0,0,0,-1.2,0,0,0,0,0,0,0,0,0,0,0,0,0,0,0,0,0" 
class="s2_116"
>0.9999. If you substitute these numbers into Bayes’s Theorem you find</text>

<image preserveAspectRatio="none" x="55" y="997" width="499" height="66" xlink:href="116/img/10.png" />
<text 
x="55" 
y="1094" 
class="s2_116"
>That is, less than 1% of the people who test positive actually have the disease.</text>

<text 
x="421" 
y="1137" 
dx="0,1.1,1.1,1.1" 
class="s4_116"
>NOTE</text>

<text 
x="97" 
y="1167" 
class="s5_116"
>This assumes that people take the test more or less at random. If only people with certain symptoms take</text>

<text 
x="97" 
y="1187" 
class="s5_116"
>the test we would instead have to condition on the event “positive test</text>

<text 
x="562" 
y="1187" 
class="s6_116"
>and</text>

<text 
x="591" 
y="1187" 
class="s5_116"
>symptoms” and the number</text>

<text 
x="97" 
y="1206" 
dx="0,0,0,0,0,0,0,0,0,0,0,0,0,0,0,0,0,0,0,0,0,0,0,0,0,0,0,0,-0.9" 
class="s5_116"
>would likely be a lot higher.</text>



<!-- Any embedded fonts defined here -->
<style type="text/css" ><![CDATA[

@font-face {
	font-family: LiberationSerif-Italic_l;
	src: url("fonts/LiberationSerif-Italic_l.woff") format("woff");
}

@font-face {
	font-family: LiberationSerif-Bold_b;
	src: url("fonts/LiberationSerif-Bold_b.woff") format("woff");
}

@font-face {
	font-family: LiberationSerif_e;
	src: url("fonts/LiberationSerif_e.woff") format("woff");
}

]]></style>

</svg>
