<?xml version="1.0" encoding="UTF-8" standalone="no"?>
<!DOCTYPE svg PUBLIC "-//W3C//DTD SVG 1.1//EN"
"http://www.w3.org/Graphics/SVG/1.1/DTD/svg11.dtd">


<!-- Page 12 -->
<svg x="0" y="0" width="909" height="1286" viewBox="0 0 909 1286" version="1.1" xmlns="http://www.w3.org/2000/svg" xmlns:xlink="http://www.w3.org/1999/xlink"
style="display: block;margin-left: auto;margin-right: auto;">
<defs>

<style type="text/css"><![CDATA[

.g1_12{
fill: #BEBEBE;
}
.g2_12{
fill: #BC8F8F;
}

.s1_12{
font-size: 30.81px;
font-family: LiberationSerif-Bold_b;
fill: #8E0012;
}
.s2_12{
font-size: 22.01px;
font-family: LiberationSerif_e;
fill: #000000;
}
.s3_12{
font-size: 22.01px;
font-family: LiberationSerif-Italic_l;
fill: #000000;
}
.s4_12{
font-size: 17.60px;
font-family: LiberationMono-Italic_10;
fill: #000000;
}
.s5_12{
font-size: 17.60px;
font-family: LiberationMono-BoldItalic_13;
fill: #000000;
}
.s6_12{
font-size: 22.01px;
font-family: LiberationSerif-Bold_b;
fill: #737373;
}
.s7_12{
font-size: 16.50px;
font-family: LiberationSerif_e;
fill: #000000;
}
.s8_12{
font-size: 22.01px;
font-family: LiberationSerif-Bold_b;
fill: #C67171;
}

]]></style>

</defs>
<path d="M0,0
L0,1286
L909,1286
L909,0 Z " 
fill="#FFFFFF" stroke="none" />
<path fill-rule="evenodd" d="M93.5,500.6l722.5,0c3,0,5.5,2.5,5.5,5.5l0,57.2c0,3.1,-2.5,5.5,-5.5,5.5l-722.5,0c-3,0,-5.5,-2.4,-5.5,-5.5l0,-57.2c0,-3,2.5,-5.5,5.5,-5.5m0,1.1l722.5,0c2.4,0,4.4,2,4.4,4.4l0,57.2c0,2.5,-2,4.4,-4.4,4.4l-722.5,0c-2.4,0,-4.4,-1.9,-4.4,-4.4l0,-57.2c0,-2.4,2,-4.4,4.4,-4.4Z" class="g1_12" />
<path fill-rule="evenodd" d="M93.5,579.8l722.5,0c3,0,5.5,2.5,5.5,5.5l0,57.3c0,3,-2.5,5.5,-5.5,5.5l-722.5,0c-3,0,-5.5,-2.5,-5.5,-5.5l0,-57.3c0,-3,2.5,-5.5,5.5,-5.5m0,1.1l722.5,0c2.4,0,4.4,2,4.4,4.4l0,57.3c0,2.4,-2,4.4,-4.4,4.4L93.5,647c-2.4,0,-4.4,-2,-4.4,-4.4l0,-57.3c0,-2.4,2,-4.4,4.4,-4.4Z" class="g1_12" />
<path fill-rule="evenodd" d="M93.5,659.1l722.5,0c3,0,5.5,2.4,5.5,5.5l0,57.2c0,3,-2.5,5.5,-5.5,5.5l-722.5,0c-3,0,-5.5,-2.5,-5.5,-5.5l0,-57.2c0,-3.1,2.5,-5.5,5.5,-5.5m0,1.1l722.5,0c2.4,0,4.4,1.9,4.4,4.4l0,57.2c0,2.4,-2,4.4,-4.4,4.4l-722.5,0c-2.4,0,-4.4,-2,-4.4,-4.4l0,-57.2c0,-2.5,2,-4.4,4.4,-4.4Z" class="g2_12" />
<text 
x="55" 
y="81" 
class="s1_12"
>Conventions Used in This Book</text>

<text 
x="55" 
y="122" 
class="s2_12"
>The following typographical conventions are used in this book:</text>

<text 
x="55" 
y="159" 
class="s3_12"
>Italic</text>

<text 
x="98" 
y="195" 
class="s2_12"
>Indicates new terms, URLs, email addresses, filenames, and file extensions.</text>

<text 
x="55" 
y="228" 
dx="0,0,0,0,0,0,0,0,0,6.1,0,0,0,0" 
class="s4_12"
>Constant width</text>

<text 
x="98" 
y="265" 
class="s2_12"
>Used for program listings, as well as within paragraphs to refer to program elements</text>

<text 
x="98" 
y="291" 
class="s2_12"
>such as variable or function names, databases, data types, environment variables,</text>

<text 
x="98" 
y="317" 
class="s2_12"
>statements, and keywords.</text>

<text 
x="55" 
y="350" 
dx="0,0,0,0,0,0,0,0,0,6.1,0,0,0,0,0,6.1,0,0,0" 
class="s5_12"
>Constant width bold</text>

<text 
x="98" 
y="387" 
dx="0,0,0,0,0,0,0,0,0,0,0,0,0,0,0,0,0,0,0,0,0,0,0,0,0,0,0,0,0,0,0,0,0,0,0,0,0,0,0,0,0,0,0,0,0,0,0,0,0,0,0,0,0,0,0,0,0,0,0,0,0,0,0,0,0,0,0,0,0,0,0,-1.2" 
class="s2_12"
>Shows commands or other text that should be typed literally by the user.</text>

<text 
x="55" 
y="420" 
dx="0,0,0,0,0,0,0,0,0,6.1,0,0,0,0,0,6.1,0,0,0,0,0" 
class="s4_12"
>Constant width italic</text>

<text 
x="98" 
y="456" 
dx="0,0,0,0,0,0,0,0,0,0,0,0,0,0,0,0,0,0,0,0,0,0,0,0,0,0,0,0,0,0,0,0,0,0,0,0,0,0,0,0,0,0,0,0,-0.5,0,0,0,0,0,0,0,0,0,0,0,0,0,0,0,0,0,0,0,0,0,0,0,0,0,0,0,0,0,0,0,0,0,0,0,0,0,0,0" 
class="s2_12"
>Shows text that should be replaced with user-supplied values or by values determined</text>

<text 
x="98" 
y="483" 
class="s2_12"
>by context.</text>

<text 
x="434" 
y="525" 
dx="0,1.1,1.1" 
class="s6_12"
>TIP</text>

<text 
x="97" 
y="555" 
class="s7_12"
>This element signifies a tip or suggestion.</text>

<text 
x="421" 
y="605" 
dx="0,1.1,1.1,1.1" 
class="s6_12"
>NOTE</text>

<text 
x="97" 
y="634" 
class="s7_12"
>This element signifies a general note.</text>

<text 
x="396" 
y="684" 
dx="0,-1.1,1.1,1.1,1.1,1.1,1.1" 
class="s8_12"
>WARNING</text>

<text 
x="97" 
y="714" 
class="s7_12"
>This element indicates a warning or caution.</text>



<!-- Any embedded fonts defined here -->
<style type="text/css" ><![CDATA[

@font-face {
	font-family: LiberationSerif-Italic_l;
	src: url("fonts/LiberationSerif-Italic_l.woff") format("woff");
}

@font-face {
	font-family: LiberationMono-Italic_10;
	src: url("fonts/LiberationMono-Italic_10.woff") format("woff");
}

@font-face {
	font-family: LiberationSerif-Bold_b;
	src: url("fonts/LiberationSerif-Bold_b.woff") format("woff");
}

@font-face {
	font-family: LiberationSerif_e;
	src: url("fonts/LiberationSerif_e.woff") format("woff");
}

@font-face {
	font-family: LiberationMono-BoldItalic_13;
	src: url("fonts/LiberationMono-BoldItalic_13.woff") format("woff");
}

]]></style>

</svg>
