<?xml version="1.0" encoding="UTF-8" standalone="no"?>
<!DOCTYPE svg PUBLIC "-//W3C//DTD SVG 1.1//EN"
"http://www.w3.org/Graphics/SVG/1.1/DTD/svg11.dtd">


<!-- Page 122 -->
<svg x="0" y="0" width="909" height="1286" viewBox="0 0 909 1286" version="1.1" xmlns="http://www.w3.org/2000/svg" xmlns:xlink="http://www.w3.org/1999/xlink"
style="display: block;margin-left: auto;margin-right: auto;">
<defs>

<style type="text/css"><![CDATA[


.s1_122{
font-size: 16.50px;
font-family: LiberationSerif-Italic_l;
fill: #000000;
}
.s2_122{
font-size: 22.01px;
font-family: LiberationSerif_e;
fill: #000000;
}
.s3_122{
font-size: 22.01px;
font-family: LiberationSerif-Italic_l;
fill: #000000;
}
.s4_122{
font-size: 22.01px;
font-family: LiberationSerif_e;
fill: #8E0012;
}
.s5_122{
font-size: 17.60px;
font-family: LiberationMono_1q;
fill: #8E0012;
}
.s6_122{
font-size: 13.20px;
font-family: LiberationMono-Bold_1w;
fill: #006699;
}
.s7_122{
font-size: 13.20px;
font-family: LiberationMono_1q;
fill: #CC00FF;
}
.s8_122{
font-size: 13.20px;
font-family: LiberationMono_1q;
fill: #000000;
}
.s9_122{
font-size: 13.20px;
font-family: LiberationMono_1q;
fill: #000088;
}
.s10_122{
font-size: 13.20px;
font-family: LiberationMono_1q;
fill: #FF6600;
}
.s11_122{
font-size: 13.20px;
font-family: LiberationMono-Bold_1w;
fill: #000000;
}
.s12_122{
font-size: 13.20px;
font-family: LiberationMono_1q;
fill: #336666;
}

]]></style>

</defs>
<path d="M0,0
L0,1286
L909,1286
L909,0 Z " 
fill="#FFFFFF" stroke="none" />
<image preserveAspectRatio="none" x="89" y="54" width="732" height="586" xlink:href="122/img/1.png" />
<text 
x="348" 
y="666" 
dx="0,0,0,0,0,-0.6,0,0,0,0,0,0,0,-1.8,0,0,0,0,0,0,0,0,0,0,0,0,0,0,0,0,0" 
class="s1_122"
>Figure 6-2. Various normal pdfs</text>

<text 
x="55" 
y="716" 
class="s2_122"
>When</text>

<image preserveAspectRatio="none" x="113" y="688" width="74" height="28" xlink:href="122/img/2.png" />
<text 
x="192" 
y="716" 
class="s2_122"
>and</text>

<image preserveAspectRatio="none" x="230" y="693" width="70" height="23" xlink:href="122/img/3.png" />
<text 
x="299" 
y="716" 
dx="0,0,0,0,0,-1.2,0,0,0,0,0,0,0,0,0,0,0" 
class="s2_122"
>, it’s called the</text>

<text 
x="433" 
y="716" 
dx="0,0,0,0,0,0,0,-0.8,0,0,0,0,0,0,0,0,0,0,0,0,0,0,0,0,0,0,0,0" 
class="s3_122"
>standard normal distribution</text>

<text 
x="687" 
y="716" 
class="s2_122"
>. If</text>

<text 
x="719" 
y="716" 
class="s3_122"
>Z</text>

<text 
x="736" 
y="716" 
class="s2_122"
>is a standard</text>

<text 
x="55" 
y="743" 
class="s2_122"
>normal random variable, then it turns out that:</text>

<image preserveAspectRatio="none" x="55" y="761" width="325" height="61" xlink:href="122/img/4.png" />
<text 
x="55" 
y="853" 
class="s2_122"
>is also normal but with mean</text>

<image preserveAspectRatio="none" x="316" y="833" width="16" height="21" xlink:href="122/img/5.png" />
<text 
x="337" 
y="853" 
class="s2_122"
>and standard deviation</text>

<image preserveAspectRatio="none" x="542" y="839" width="17" height="15" xlink:href="122/img/6.png" />
<text 
x="558" 
y="853" 
dx="0,0,0,0,0,0,0,0,0,0,0,0,-1.4,0,0,0" 
class="s2_122"
>. Conversely, if</text>

<text 
x="697" 
y="853" 
class="s3_122"
>X</text>

<text 
x="716" 
y="853" 
class="s2_122"
>is a normal</text>

<text 
x="55" 
y="881" 
class="s2_122"
>random variable with mean</text>

<image preserveAspectRatio="none" x="301" y="860" width="17" height="21" xlink:href="122/img/7.png" />
<text 
x="323" 
y="881" 
class="s2_122"
>and standard deviation</text>

<image preserveAspectRatio="none" x="528" y="867" width="16" height="14" xlink:href="122/img/8.png" />
<text 
x="544" 
y="881" 
class="s2_122"
>,</text>

<image preserveAspectRatio="none" x="55" y="899" width="417" height="67" xlink:href="122/img/9.png" />
<text 
x="55" 
y="997" 
class="s2_122"
>is a standard normal variable.</text>

<text 
x="55" 
y="1036" 
class="s2_122"
>The cumulative distribution function for the normal distribution cannot be written in an</text>

<text 
x="55" 
y="1063" 
dx="0,0,0,0,0,0,0,0,0,0,0,0,0,0,0,0,0,0,0,-0.9,0,0,0,0,0,0,0,0,0,0,0,0,0,0,0,0,0,0,0,0,0,0,0,0,0,0" 
class="s2_122"
>“elementary” manner, but we can write it using</text>

<text 
x="475" 
y="1063" 
dx="0,0,0,0,0,0,0,-1.2" 
class="s4_122"
>Python’s</text>

<text 
x="558" 
y="1063" 
class="s5_122"
>math.erf</text>

<text 
x="642" 
y="1063" 
class="s2_122"
>:</text>

<text 
x="76" 
y="1111" 
class="s6_122"
>def</text>

<text 
x="108" 
y="1111" 
class="s7_122"
>normal_cdf</text>

<text 
x="187" 
y="1111" 
class="s8_122"
>(</text>

<text 
x="195" 
y="1111" 
class="s9_122"
>x</text>

<text 
x="203" 
y="1111" 
class="s8_122"
>,</text>

<text 
x="219" 
y="1111" 
class="s9_122"
>mu</text>

<text 
x="235" 
y="1111" 
class="s8_122"
>=</text>

<text 
x="242" 
y="1111" 
class="s10_122"
>0</text>

<text 
x="250" 
y="1111" 
class="s8_122"
>,</text>

<text 
x="258" 
y="1111" 
class="s9_122"
>sigma</text>

<text 
x="298" 
y="1111" 
class="s8_122"
>=</text>

<text 
x="306" 
y="1111" 
class="s10_122"
>1</text>

<text 
x="314" 
y="1111" 
class="s8_122"
>):</text>

<text 
x="108" 
y="1126" 
class="s6_122"
>return</text>

<text 
x="163" 
y="1126" 
class="s8_122"
>(</text>

<text 
x="171" 
y="1126" 
class="s10_122"
>1</text>

<text 
x="187" 
y="1126" 
class="s8_122"
>+</text>

<text 
x="203" 
y="1126" 
class="s9_122"
>math</text>

<text 
x="235" 
y="1126" 
class="s8_122"
>.</text>

<text 
x="242" 
y="1126" 
class="s9_122"
>erf</text>

<text 
x="266" 
y="1126" 
class="s8_122"
>((</text>

<text 
x="282" 
y="1126" 
class="s9_122"
>x</text>

<text 
x="298" 
y="1126" 
class="s8_122"
>-</text>

<text 
x="314" 
y="1126" 
class="s9_122"
>mu</text>

<text 
x="329" 
y="1126" 
dx="0,0,4.6" 
class="s8_122"
>) /</text>

<text 
x="361" 
y="1126" 
class="s9_122"
>math</text>

<text 
x="393" 
y="1126" 
class="s8_122"
>.</text>

<text 
x="401" 
y="1126" 
class="s9_122"
>sqrt</text>

<text 
x="432" 
y="1126" 
class="s8_122"
>(</text>

<text 
x="440" 
y="1126" 
class="s10_122"
>2</text>

<text 
x="448" 
y="1126" 
dx="0,0,4.6" 
class="s8_122"
>) /</text>

<text 
x="480" 
y="1126" 
class="s9_122"
>sigma</text>

<text 
x="519" 
y="1126" 
dx="0,0,0,4.6" 
class="s8_122"
>)) /</text>

<text 
x="559" 
y="1126" 
class="s10_122"
>2</text>

<text 
x="55" 
y="1179" 
class="s2_122"
>Again, in</text>

<text 
x="142" 
y="1179" 
class="s4_122"
>Figure 6-3</text>

<text 
x="234" 
y="1179" 
class="s2_122"
>, we plot a few:</text>

<text 
x="76" 
y="1224" 
class="s9_122"
>xs</text>

<text 
x="100" 
y="1224" 
dx="0,0,4.6" 
class="s8_122"
>= [</text>

<text 
x="124" 
y="1224" 
class="s9_122"
>x</text>

<text 
x="140" 
y="1224" 
class="s8_122"
>/</text>

<text 
x="156" 
y="1224" 
class="s10_122"
>10.0</text>

<text 
x="195" 
y="1224" 
class="s6_122"
>for</text>

<text 
x="227" 
y="1224" 
class="s9_122"
>x</text>

<text 
x="242" 
y="1224" 
class="s11_122"
>in</text>

<text 
x="266" 
y="1224" 
class="s12_122"
>range</text>

<text 
x="306" 
y="1224" 
class="s8_122"
>(-</text>

<text 
x="322" 
y="1224" 
class="s10_122"
>50</text>

<text 
x="337" 
y="1224" 
class="s8_122"
>,</text>

<text 
x="353" 
y="1224" 
class="s10_122"
>50</text>

<text 
x="369" 
y="1224" 
class="s8_122"
>)]</text>



<!-- Any embedded fonts defined here -->
<style type="text/css" ><![CDATA[

@font-face {
	font-family: LiberationSerif-Italic_l;
	src: url("fonts/LiberationSerif-Italic_l.woff") format("woff");
}

@font-face {
	font-family: LiberationMono-Bold_1w;
	src: url("fonts/LiberationMono-Bold_1w.woff") format("woff");
}

@font-face {
	font-family: LiberationMono_1q;
	src: url("fonts/LiberationMono_1q.woff") format("woff");
}

@font-face {
	font-family: LiberationSerif_e;
	src: url("fonts/LiberationSerif_e.woff") format("woff");
}

]]></style>

</svg>
