<?xml version="1.0" encoding="UTF-8" standalone="no"?>
<!DOCTYPE svg PUBLIC "-//W3C//DTD SVG 1.1//EN"
"http://www.w3.org/Graphics/SVG/1.1/DTD/svg11.dtd">


<!-- Page 123 -->
<svg x="0" y="0" width="909" height="1286" viewBox="0 0 909 1286" version="1.1" xmlns="http://www.w3.org/2000/svg" xmlns:xlink="http://www.w3.org/1999/xlink"
style="display: block;margin-left: auto;margin-right: auto;">
<defs>

<style type="text/css"><![CDATA[


.s1_123{
font-size: 13.20px;
font-family: LiberationMono_1q;
fill: #000088;
}
.s2_123{
font-size: 13.20px;
font-family: LiberationMono_1q;
fill: #000000;
}
.s3_123{
font-size: 13.20px;
font-family: LiberationMono_1q;
fill: #FF6600;
}
.s4_123{
font-size: 13.20px;
font-family: LiberationMono-Bold_1w;
fill: #006699;
}
.s5_123{
font-size: 13.20px;
font-family: LiberationMono-Bold_1w;
fill: #000000;
}
.s6_123{
font-size: 13.20px;
font-family: LiberationMono_1q;
fill: #CC3300;
}
.s7_123{
font-size: 13.20px;
font-family: LiberationMono-Italic_10;
fill: #0099FF;
}
.s8_123{
font-size: 16.50px;
font-family: LiberationSerif-Italic_l;
fill: #000000;
}
.s9_123{
font-size: 22.01px;
font-family: LiberationSerif_e;
fill: #000000;
}
.s10_123{
font-size: 17.60px;
font-family: LiberationMono_1q;
fill: #000000;
}
.s11_123{
font-size: 22.01px;
font-family: LiberationSerif_e;
fill: #8E0012;
}
.s12_123{
font-size: 13.20px;
font-family: LiberationMono_1q;
fill: #CC00FF;
}
.s13_123{
font-size: 13.20px;
font-family: LiberationMono-Italic_10;
fill: #CC3300;
}

]]></style>

</defs>
<path d="M0,0
L0,1286
L909,1286
L909,0 Z " 
fill="#FFFFFF" stroke="none" />
<text 
x="76" 
y="64" 
class="s1_123"
>plt</text>

<text 
x="100" 
y="64" 
class="s2_123"
>.</text>

<text 
x="108" 
y="64" 
class="s1_123"
>plot</text>

<text 
x="140" 
y="64" 
class="s2_123"
>(</text>

<text 
x="148" 
y="64" 
class="s1_123"
>xs</text>

<text 
x="163" 
y="64" 
class="s2_123"
>,[</text>

<text 
x="179" 
y="64" 
class="s1_123"
>normal_cdf</text>

<text 
x="258" 
y="64" 
class="s2_123"
>(</text>

<text 
x="266" 
y="64" 
class="s1_123"
>x</text>

<text 
x="274" 
y="64" 
class="s2_123"
>,</text>

<text 
x="282" 
y="64" 
class="s1_123"
>sigma</text>

<text 
x="322" 
y="64" 
class="s2_123"
>=</text>

<text 
x="329" 
y="64" 
class="s3_123"
>1</text>

<text 
x="337" 
y="64" 
class="s2_123"
>)</text>

<text 
x="353" 
y="64" 
class="s4_123"
>for</text>

<text 
x="385" 
y="64" 
class="s1_123"
>x</text>

<text 
x="401" 
y="64" 
class="s5_123"
>in</text>

<text 
x="424" 
y="64" 
class="s1_123"
>xs</text>

<text 
x="440" 
y="64" 
class="s2_123"
>],</text>

<text 
x="456" 
y="64" 
class="s6_123"
>'-'</text>

<text 
x="480" 
y="64" 
class="s2_123"
>,</text>

<text 
x="487" 
y="64" 
class="s1_123"
>label</text>

<text 
x="527" 
y="64" 
class="s2_123"
>=</text>

<text 
x="535" 
y="64" 
class="s6_123"
>'mu=0,sigma=1'</text>

<text 
x="646" 
y="64" 
class="s2_123"
>)</text>

<text 
x="76" 
y="80" 
class="s1_123"
>plt</text>

<text 
x="100" 
y="80" 
class="s2_123"
>.</text>

<text 
x="108" 
y="80" 
class="s1_123"
>plot</text>

<text 
x="140" 
y="80" 
class="s2_123"
>(</text>

<text 
x="148" 
y="80" 
class="s1_123"
>xs</text>

<text 
x="163" 
y="80" 
class="s2_123"
>,[</text>

<text 
x="179" 
y="80" 
class="s1_123"
>normal_cdf</text>

<text 
x="258" 
y="80" 
class="s2_123"
>(</text>

<text 
x="266" 
y="80" 
class="s1_123"
>x</text>

<text 
x="274" 
y="80" 
class="s2_123"
>,</text>

<text 
x="282" 
y="80" 
class="s1_123"
>sigma</text>

<text 
x="322" 
y="80" 
class="s2_123"
>=</text>

<text 
x="329" 
y="80" 
class="s3_123"
>2</text>

<text 
x="337" 
y="80" 
class="s2_123"
>)</text>

<text 
x="353" 
y="80" 
class="s4_123"
>for</text>

<text 
x="385" 
y="80" 
class="s1_123"
>x</text>

<text 
x="401" 
y="80" 
class="s5_123"
>in</text>

<text 
x="424" 
y="80" 
class="s1_123"
>xs</text>

<text 
x="440" 
y="80" 
class="s2_123"
>],</text>

<text 
x="456" 
y="80" 
class="s6_123"
>'--'</text>

<text 
x="487" 
y="80" 
class="s2_123"
>,</text>

<text 
x="495" 
y="80" 
class="s1_123"
>label</text>

<text 
x="535" 
y="80" 
class="s2_123"
>=</text>

<text 
x="543" 
y="80" 
class="s6_123"
>'mu=0,sigma=2'</text>

<text 
x="653" 
y="80" 
class="s2_123"
>)</text>

<text 
x="76" 
y="95" 
class="s1_123"
>plt</text>

<text 
x="100" 
y="95" 
class="s2_123"
>.</text>

<text 
x="108" 
y="95" 
class="s1_123"
>plot</text>

<text 
x="140" 
y="95" 
class="s2_123"
>(</text>

<text 
x="148" 
y="95" 
class="s1_123"
>xs</text>

<text 
x="163" 
y="95" 
class="s2_123"
>,[</text>

<text 
x="179" 
y="95" 
class="s1_123"
>normal_cdf</text>

<text 
x="258" 
y="95" 
class="s2_123"
>(</text>

<text 
x="266" 
y="95" 
class="s1_123"
>x</text>

<text 
x="274" 
y="95" 
class="s2_123"
>,</text>

<text 
x="282" 
y="95" 
class="s1_123"
>sigma</text>

<text 
x="322" 
y="95" 
class="s2_123"
>=</text>

<text 
x="329" 
y="95" 
class="s3_123"
>0.5</text>

<text 
x="353" 
y="95" 
class="s2_123"
>)</text>

<text 
x="369" 
y="95" 
class="s4_123"
>for</text>

<text 
x="401" 
y="95" 
class="s1_123"
>x</text>

<text 
x="416" 
y="95" 
class="s5_123"
>in</text>

<text 
x="440" 
y="95" 
class="s1_123"
>xs</text>

<text 
x="456" 
y="95" 
class="s2_123"
>],</text>

<text 
x="472" 
y="95" 
class="s6_123"
>':'</text>

<text 
x="495" 
y="95" 
class="s2_123"
>,</text>

<text 
x="503" 
y="95" 
class="s1_123"
>label</text>

<text 
x="543" 
y="95" 
class="s2_123"
>=</text>

<text 
x="551" 
y="95" 
class="s6_123"
>'mu=0,sigma=0.5'</text>

<text 
x="677" 
y="95" 
class="s2_123"
>)</text>

<text 
x="76" 
y="111" 
class="s1_123"
>plt</text>

<text 
x="100" 
y="111" 
class="s2_123"
>.</text>

<text 
x="108" 
y="111" 
class="s1_123"
>plot</text>

<text 
x="140" 
y="111" 
class="s2_123"
>(</text>

<text 
x="148" 
y="111" 
class="s1_123"
>xs</text>

<text 
x="163" 
y="111" 
class="s2_123"
>,[</text>

<text 
x="179" 
y="111" 
class="s1_123"
>normal_cdf</text>

<text 
x="258" 
y="111" 
class="s2_123"
>(</text>

<text 
x="266" 
y="111" 
class="s1_123"
>x</text>

<text 
x="274" 
y="111" 
class="s2_123"
>,</text>

<text 
x="282" 
y="111" 
class="s1_123"
>mu</text>

<text 
x="298" 
y="111" 
class="s2_123"
>=-</text>

<text 
x="314" 
y="111" 
class="s3_123"
>1</text>

<text 
x="322" 
y="111" 
class="s2_123"
>)</text>

<text 
x="337" 
y="111" 
class="s4_123"
>for</text>

<text 
x="369" 
y="111" 
class="s1_123"
>x</text>

<text 
x="385" 
y="111" 
class="s5_123"
>in</text>

<text 
x="408" 
y="111" 
class="s1_123"
>xs</text>

<text 
x="424" 
y="111" 
class="s2_123"
>],</text>

<text 
x="440" 
y="111" 
class="s6_123"
>'-.'</text>

<text 
x="472" 
y="111" 
class="s2_123"
>,</text>

<text 
x="480" 
y="111" 
class="s1_123"
>label</text>

<text 
x="519" 
y="111" 
class="s2_123"
>=</text>

<text 
x="527" 
y="111" 
class="s6_123"
>'mu=-1,sigma=1'</text>

<text 
x="646" 
y="111" 
class="s2_123"
>)</text>

<text 
x="76" 
y="126" 
class="s1_123"
>plt</text>

<text 
x="100" 
y="126" 
class="s2_123"
>.</text>

<text 
x="108" 
y="126" 
class="s1_123"
>legend</text>

<text 
x="156" 
y="126" 
class="s2_123"
>(</text>

<text 
x="163" 
y="126" 
class="s1_123"
>loc</text>

<text 
x="187" 
y="126" 
class="s2_123"
>=</text>

<text 
x="195" 
y="126" 
class="s3_123"
>4</text>

<text 
x="203" 
y="126" 
class="s2_123"
>)</text>

<text 
x="219" 
y="126" 
dx="0,0,4.6,0,0,0,0,0,0,4.6,0,0,0,0" 
class="s7_123"
># bottom right</text>

<text 
x="76" 
y="141" 
class="s1_123"
>plt</text>

<text 
x="100" 
y="141" 
class="s2_123"
>.</text>

<text 
x="108" 
y="141" 
class="s1_123"
>title</text>

<text 
x="148" 
y="141" 
class="s2_123"
>(</text>

<text 
x="156" 
y="141" 
dx="0,0,0,0,0,0,0,0,0,4.6,0,0,0,0,0,0,4.6,0,0,0,0" 
class="s6_123"
>"Various Normal cdfs"</text>

<text 
x="322" 
y="141" 
class="s2_123"
>)</text>

<text 
x="76" 
y="157" 
class="s1_123"
>plt</text>

<text 
x="100" 
y="157" 
class="s2_123"
>.</text>

<text 
x="108" 
y="157" 
class="s1_123"
>show</text>

<text 
x="140" 
y="157" 
class="s2_123"
>()</text>

<image preserveAspectRatio="none" x="89" y="189" width="732" height="587" xlink:href="123/img/1.png" />
<text 
x="349" 
y="802" 
dx="0,0,0,0,0,-0.6,0,0,0,0,0,0,0,-1.8,0,0,0,0,0,0,0,0,0,0,0,0,0,0,0,0,0" 
class="s8_123"
>Figure 6-3. Various normal cdfs</text>

<text 
x="55" 
y="843" 
class="s9_123"
>Sometimes we’ll need to invert</text>

<text 
x="335" 
y="843" 
class="s10_123"
>normal_cdf</text>

<text 
x="446" 
y="843" 
class="s9_123"
>to find the value corresponding to a specified</text>

<text 
x="55" 
y="873" 
dx="0,0,0,0,0,0,0,0,0,0,0,-1.4,0,0,0,0,0,0,0,-1.2,0,0,0,0,0,0,0,0,0,0,0,0,0,0,0,0,0,0,0,0,0,0,0,0,0,0,0,0,0,0,0,0,0,0,0,0,0,0,0,0,0,0" 
class="s9_123"
>probability. There’s no simple way to compute its inverse, but</text>

<text 
x="604" 
y="873" 
class="s10_123"
>normal_cdf</text>

<text 
x="715" 
y="873" 
class="s9_123"
>is continuous</text>

<text 
x="55" 
y="903" 
class="s9_123"
>and strictly increasing, so we can use a</text>

<text 
x="402" 
y="903" 
class="s11_123"
>binary search</text>

<text 
x="520" 
y="903" 
class="s9_123"
>:</text>

<text 
x="76" 
y="948" 
class="s4_123"
>def</text>

<text 
x="108" 
y="948" 
class="s12_123"
>inverse_normal_cdf</text>

<text 
x="250" 
y="948" 
class="s2_123"
>(</text>

<text 
x="258" 
y="948" 
class="s1_123"
>p</text>

<text 
x="266" 
y="948" 
class="s2_123"
>,</text>

<text 
x="282" 
y="948" 
class="s1_123"
>mu</text>

<text 
x="298" 
y="948" 
class="s2_123"
>=</text>

<text 
x="306" 
y="948" 
class="s3_123"
>0</text>

<text 
x="314" 
y="948" 
class="s2_123"
>,</text>

<text 
x="329" 
y="948" 
class="s1_123"
>sigma</text>

<text 
x="369" 
y="948" 
class="s2_123"
>=</text>

<text 
x="377" 
y="948" 
class="s3_123"
>1</text>

<text 
x="385" 
y="948" 
class="s2_123"
>,</text>

<text 
x="401" 
y="948" 
class="s1_123"
>tolerance</text>

<text 
x="472" 
y="948" 
class="s2_123"
>=</text>

<text 
x="480" 
y="948" 
class="s3_123"
>0.00001</text>

<text 
x="535" 
y="948" 
class="s2_123"
>):</text>

<text 
x="108" 
y="963" 
dx="0,0,0,0,0,0,0,0,4.6,0,0,0,0,0,0,0,0,0,0,0,4.6,0,0,0,0,0,0,0,4.6,0,0,0,0,0,4.6,0,0,0,0,0,0,4.6,0,0,0,0,0,0,0,0" 
class="s13_123"
>"""find approximate inverse using binary search"""</text>

<text 
x="108" 
y="994" 
dx="0,0,4.6,0,0,4.6,0,0,0,4.6,0,0,0,0,0,0,0,0,0,4.6,0,0,0,0,0,0,0,4.6,0,0,0,0,0,0,0,0,4.6,0,0,0,4.6,0,0,0,0,0,0" 
class="s7_123"
># if not standard, compute standard and rescale</text>

<text 
x="108" 
y="1010" 
class="s4_123"
>if</text>

<text 
x="132" 
y="1010" 
class="s1_123"
>mu</text>

<text 
x="156" 
y="1010" 
class="s2_123"
>!=</text>

<text 
x="179" 
y="1010" 
class="s3_123"
>0</text>

<text 
x="195" 
y="1010" 
class="s5_123"
>or</text>

<text 
x="219" 
y="1010" 
class="s1_123"
>sigma</text>

<text 
x="266" 
y="1010" 
class="s2_123"
>!=</text>

<text 
x="290" 
y="1010" 
class="s3_123"
>1</text>

<text 
x="298" 
y="1010" 
class="s2_123"
>:</text>

<text 
x="140" 
y="1025" 
class="s4_123"
>return</text>

<text 
x="195" 
y="1025" 
class="s1_123"
>mu</text>

<text 
x="219" 
y="1025" 
class="s2_123"
>+</text>

<text 
x="235" 
y="1025" 
class="s1_123"
>sigma</text>

<text 
x="282" 
y="1025" 
class="s2_123"
>*</text>

<text 
x="298" 
y="1025" 
class="s1_123"
>inverse_normal_cdf</text>

<text 
x="440" 
y="1025" 
class="s2_123"
>(</text>

<text 
x="448" 
y="1025" 
class="s1_123"
>p</text>

<text 
x="456" 
y="1025" 
class="s2_123"
>,</text>

<text 
x="472" 
y="1025" 
class="s1_123"
>tolerance</text>

<text 
x="543" 
y="1025" 
class="s2_123"
>=</text>

<text 
x="551" 
y="1025" 
class="s1_123"
>tolerance</text>

<text 
x="622" 
y="1025" 
class="s2_123"
>)</text>

<text 
x="108" 
y="1056" 
class="s1_123"
>low_z</text>

<text 
x="148" 
y="1056" 
class="s2_123"
>,</text>

<text 
x="163" 
y="1056" 
class="s1_123"
>low_p</text>

<text 
x="211" 
y="1056" 
dx="0,0,4.6" 
class="s2_123"
>= -</text>

<text 
x="235" 
y="1056" 
class="s3_123"
>10.0</text>

<text 
x="266" 
y="1056" 
class="s2_123"
>,</text>

<text 
x="282" 
y="1056" 
class="s3_123"
>0</text>

<text 
x="385" 
y="1056" 
dx="0,0,4.6,0,0,0,0,0,0,0,0,0,0,0,0,0,0,0,4.6,0,0,4.6,0,0,0,0,0,4.6,0,0,0,0,0,4.6,0,0,0,4.6" 
class="s7_123"
># normal_cdf(-10) is (very close to) 0</text>

<text 
x="108" 
y="1071" 
class="s1_123"
>hi_z</text>

<text 
x="140" 
y="1071" 
class="s2_123"
>,</text>

<text 
x="163" 
y="1071" 
class="s1_123"
>hi_p</text>

<text 
x="211" 
y="1071" 
class="s2_123"
>=</text>

<text 
x="235" 
y="1071" 
class="s3_123"
>10.0</text>

<text 
x="266" 
y="1071" 
class="s2_123"
>,</text>

<text 
x="282" 
y="1071" 
class="s3_123"
>1</text>

<text 
x="385" 
y="1071" 
dx="0,0,4.6,0,0,0,0,0,0,0,0,0,0,0,0,0" 
class="s7_123"
># normal_cdf(10)</text>

<text 
x="527" 
y="1071" 
dx="0,0,0,4.6,0,0,0,0,0,4.6,0,0,0,0,0,4.6,0,0,0,4.6" 
class="s7_123"
>is (very close to) 1</text>

<text 
x="108" 
y="1087" 
class="s4_123"
>while</text>

<text 
x="156" 
y="1087" 
class="s1_123"
>hi_z</text>

<text 
x="195" 
y="1087" 
class="s2_123"
>-</text>

<text 
x="211" 
y="1087" 
class="s1_123"
>low_z</text>

<text 
x="258" 
y="1087" 
class="s2_123"
>&gt;</text>

<text 
x="274" 
y="1087" 
class="s1_123"
>tolerance</text>

<text 
x="345" 
y="1087" 
class="s2_123"
>:</text>

<text 
x="140" 
y="1102" 
class="s1_123"
>mid_z</text>

<text 
x="187" 
y="1102" 
dx="0,0,4.6" 
class="s2_123"
>= (</text>

<text 
x="211" 
y="1102" 
class="s1_123"
>low_z</text>

<text 
x="258" 
y="1102" 
class="s2_123"
>+</text>

<text 
x="274" 
y="1102" 
class="s1_123"
>hi_z</text>

<text 
x="306" 
y="1102" 
dx="0,0,4.6" 
class="s2_123"
>) /</text>

<text 
x="337" 
y="1102" 
class="s3_123"
>2</text>

<text 
x="385" 
y="1102" 
dx="0,0,4.6,0,0,0,0,0,0,0,0,4.6,0,0,0,4.6,0,0,0,0,0,0,0" 
class="s7_123"
># consider the midpoint</text>

<text 
x="140" 
y="1117" 
class="s1_123"
>mid_p</text>

<text 
x="187" 
y="1117" 
class="s2_123"
>=</text>

<text 
x="203" 
y="1117" 
class="s1_123"
>normal_cdf</text>

<text 
x="282" 
y="1117" 
class="s2_123"
>(</text>

<text 
x="290" 
y="1117" 
class="s1_123"
>mid_z</text>

<text 
x="329" 
y="1117" 
class="s2_123"
>)</text>

<text 
x="385" 
y="1117" 
dx="0,0,4.6,0,0,0,4.6,0,0,0,4.6,0,0,0,0,0,4.6,0,0,0,0,0,4.6,0,0,0,0" 
class="s7_123"
># and the cdf's value there</text>

<text 
x="140" 
y="1133" 
class="s4_123"
>if</text>

<text 
x="163" 
y="1133" 
class="s1_123"
>mid_p</text>

<text 
x="211" 
y="1133" 
class="s2_123"
>&lt;</text>

<text 
x="227" 
y="1133" 
class="s1_123"
>p</text>

<text 
x="235" 
y="1133" 
class="s2_123"
>:</text>

<text 
x="171" 
y="1148" 
dx="0,0,4.6,0,0,0,0,0,0,0,0,4.6,0,0,4.6,0,0,0,0,0,4.6,0,0,0,4.6,0,0,0,0,4.6,0,0,0,0,0,0,4.6,0,0,0,0,0,4.6,0" 
class="s7_123"
># midpoint is still too low, search above it</text>

<text 
x="171" 
y="1164" 
class="s1_123"
>low_z</text>

<text 
x="211" 
y="1164" 
class="s2_123"
>,</text>

<text 
x="227" 
y="1164" 
class="s1_123"
>low_p</text>

<text 
x="274" 
y="1164" 
class="s2_123"
>=</text>

<text 
x="290" 
y="1164" 
class="s1_123"
>mid_z</text>

<text 
x="329" 
y="1164" 
class="s2_123"
>,</text>

<text 
x="345" 
y="1164" 
class="s1_123"
>mid_p</text>

<text 
x="140" 
y="1179" 
class="s4_123"
>elif</text>

<text 
x="179" 
y="1179" 
class="s1_123"
>mid_p</text>

<text 
x="227" 
y="1179" 
class="s2_123"
>&gt;</text>

<text 
x="242" 
y="1179" 
class="s1_123"
>p</text>

<text 
x="250" 
y="1179" 
class="s2_123"
>:</text>

<text 
x="171" 
y="1194" 
dx="0,0,4.6,0,0,0,0,0,0,0,0,4.6,0,0,4.6,0,0,0,0,0,4.6,0,0,0,4.6,0,0,0,0,0,4.6,0,0,0,0,0,0,4.6,0,0,0,0,0,4.6,0" 
class="s7_123"
># midpoint is still too high, search below it</text>

<text 
x="171" 
y="1210" 
class="s1_123"
>hi_z</text>

<text 
x="203" 
y="1210" 
class="s2_123"
>,</text>

<text 
x="219" 
y="1210" 
class="s1_123"
>hi_p</text>

<text 
x="258" 
y="1210" 
class="s2_123"
>=</text>

<text 
x="274" 
y="1210" 
class="s1_123"
>mid_z</text>

<text 
x="314" 
y="1210" 
class="s2_123"
>,</text>

<text 
x="329" 
y="1210" 
class="s1_123"
>mid_p</text>

<text 
x="140" 
y="1225" 
class="s4_123"
>else</text>

<text 
x="171" 
y="1225" 
class="s2_123"
>:</text>



<!-- Any embedded fonts defined here -->
<style type="text/css" ><![CDATA[

@font-face {
	font-family: LiberationMono-Bold_1w;
	src: url("fonts/LiberationMono-Bold_1w.woff") format("woff");
}

@font-face {
	font-family: LiberationSerif-Italic_l;
	src: url("fonts/LiberationSerif-Italic_l.woff") format("woff");
}

@font-face {
	font-family: LiberationMono_1q;
	src: url("fonts/LiberationMono_1q.woff") format("woff");
}

@font-face {
	font-family: LiberationMono-Italic_10;
	src: url("fonts/LiberationMono-Italic_10.woff") format("woff");
}

@font-face {
	font-family: LiberationSerif_e;
	src: url("fonts/LiberationSerif_e.woff") format("woff");
}

]]></style>

</svg>
