<?xml version="1.0" encoding="UTF-8" standalone="no"?>
<!DOCTYPE svg PUBLIC "-//W3C//DTD SVG 1.1//EN"
"http://www.w3.org/Graphics/SVG/1.1/DTD/svg11.dtd">


<!-- Page 131 -->
<svg x="0" y="0" width="909" height="1286" viewBox="0 0 909 1286" version="1.1" xmlns="http://www.w3.org/2000/svg" xmlns:xlink="http://www.w3.org/1999/xlink"
style="display: block;margin-left: auto;margin-right: auto;">
<defs>

<style type="text/css"><![CDATA[


.s1_131{
font-size: 30.81px;
font-family: LiberationSerif-Bold_b;
fill: #8E0012;
}
.s2_131{
font-size: 22.01px;
font-family: LiberationSerif_e;
fill: #000000;
}
.s3_131{
font-size: 22.01px;
font-family: LiberationSerif-Italic_l;
fill: #000000;
}
.s4_131{
font-size: 22.01px;
font-family: LiberationSerif_e;
fill: #8E0012;
}
.s5_131{
font-size: 13.20px;
font-family: LiberationMono-Bold_1w;
fill: #006699;
}
.s6_131{
font-size: 13.20px;
font-family: LiberationMono_1q;
fill: #CC00FF;
}
.s7_131{
font-size: 13.20px;
font-family: LiberationMono_1q;
fill: #000000;
}
.s8_131{
font-size: 13.20px;
font-family: LiberationMono_1q;
fill: #000088;
}
.s9_131{
font-size: 13.20px;
font-family: LiberationMono-Italic_10;
fill: #CC3300;
}
.s10_131{
font-size: 13.20px;
font-family: LiberationMono_1q;
fill: #FF6600;
}
.s11_131{
font-size: 17.60px;
font-family: LiberationMono_1q;
fill: #000000;
}
.s12_131{
font-size: 13.20px;
font-family: LiberationMono-Italic_10;
fill: #0099FF;
}

]]></style>

</defs>
<path d="M0,0
L0,1286
L909,1286
L909,0 Z " 
fill="#FFFFFF" stroke="none" />
<text 
x="55" 
y="81" 
class="s1_131"
>Example: Flipping a Coin</text>

<text 
x="55" 
y="122" 
dx="0,0,0,0,0,0,0,0,0,0,0,0,0,0,0,0,0,0,0,0,0,0,0,0,0,0,0,0,0,0,0,0,0,0,0,0,0,0,0,0,0,0,0,0,0,0,0,0,0,0,0,0,0,0,-1.2,0,0,0,0,0,-1.2,0,0,-1.8,0,0,0,0,0,0,0,0,0,0,0,0,0,0,0,0,0,0,0,0,0,0,0" 
class="s2_131"
>Imagine we have a coin and we want to test whether it’s fair. We’ll make the assumption</text>

<text 
x="55" 
y="149" 
class="s2_131"
>that the coin has some probability</text>

<text 
x="357" 
y="149" 
class="s3_131"
>p</text>

<text 
x="374" 
y="149" 
class="s2_131"
>of landing heads, and so our null hypothesis is that the</text>

<text 
x="55" 
y="185" 
class="s2_131"
>coin is fair — that is, that</text>

<image preserveAspectRatio="none" x="285" y="156" width="95" height="30" xlink:href="131/img/1.png" />
<text 
x="380" 
y="185" 
dx="0,0,0,-1.8,0,0,0,0,0,0,0,0,0,0,0,0,0,0,0,0,0,0,0,0,0,0,0,0,0,0,0,0,0,0,0,0,0,0,0,0,0,0,0,0,0,0,0,0,0,0,0,0" 
class="s2_131"
>. We’ll test this against the alternative hypothesis</text>

<image preserveAspectRatio="none" x="55" y="193" width="96" height="29" xlink:href="131/img/2.png" />
<text 
x="150" 
y="222" 
class="s2_131"
>.</text>

<text 
x="55" 
y="260" 
dx="0,0,0,0,0,0,0,0,0,0,0,0,0,-0.9,0,0,0,0,0,0,0,0,0,0,0,0,0,0,0,0,0,0,0,0,0,0,0,0,0,0,0,0,0,0,0,0,0,0,0,0,0,0,0,0,0,0,0,0,0,0,0,0,0,0,0,0" 
class="s2_131"
>In particular, our test will involve flipping the coin some number</text>

<text 
x="630" 
y="260" 
class="s3_131"
>n</text>

<text 
x="646" 
y="260" 
class="s2_131"
>times and counting the</text>

<text 
x="55" 
y="288" 
class="s2_131"
>number of heads</text>

<text 
x="207" 
y="288" 
class="s3_131"
>X</text>

<text 
x="220" 
y="288" 
class="s2_131"
>. Each coin flip is a Bernoulli trial, which means that</text>

<text 
x="689" 
y="288" 
class="s3_131"
>X</text>

<text 
x="708" 
y="288" 
class="s2_131"
>is a</text>

<text 
x="55" 
y="315" 
class="s2_131"
>Binomial(n,p) random variable, which (as we saw in</text>

<text 
x="522" 
y="315" 
class="s4_131"
>Chapter 6</text>

<text 
x="608" 
y="315" 
class="s2_131"
>) we can approximate using</text>

<text 
x="55" 
y="343" 
class="s2_131"
>the normal distribution:</text>

<text 
x="76" 
y="388" 
class="s5_131"
>def</text>

<text 
x="108" 
y="388" 
class="s6_131"
>normal_approximation_to_binomial</text>

<text 
x="361" 
y="388" 
class="s7_131"
>(</text>

<text 
x="369" 
y="388" 
class="s8_131"
>n</text>

<text 
x="377" 
y="388" 
class="s7_131"
>,</text>

<text 
x="393" 
y="388" 
class="s8_131"
>p</text>

<text 
x="401" 
y="388" 
class="s7_131"
>):</text>

<text 
x="108" 
y="403" 
dx="0,0,0,0,0,0,0,0,0,4.6,0,0,4.6,0,0,0,4.6,0,0,0,0,0,4.6,0,0,0,0,0,0,0,0,0,0,0,0,0,4.6,0,0,4.6,0,4.6,0,0,0,0,0,0,0,0,0,0,0,4.6,0,0,0,0" 
class="s9_131"
>"""finds mu and sigma corresponding to a Binomial(n, p)"""</text>

<text 
x="108" 
y="419" 
class="s8_131"
>mu</text>

<text 
x="132" 
y="419" 
class="s7_131"
>=</text>

<text 
x="148" 
y="419" 
class="s8_131"
>p</text>

<text 
x="163" 
y="419" 
class="s7_131"
>*</text>

<text 
x="179" 
y="419" 
class="s8_131"
>n</text>

<text 
x="108" 
y="434" 
class="s8_131"
>sigma</text>

<text 
x="156" 
y="434" 
class="s7_131"
>=</text>

<text 
x="171" 
y="434" 
class="s8_131"
>math</text>

<text 
x="203" 
y="434" 
class="s7_131"
>.</text>

<text 
x="211" 
y="434" 
class="s8_131"
>sqrt</text>

<text 
x="242" 
y="434" 
class="s7_131"
>(</text>

<text 
x="250" 
y="434" 
class="s8_131"
>p</text>

<text 
x="266" 
y="434" 
dx="0,0,4.6" 
class="s7_131"
>* (</text>

<text 
x="290" 
y="434" 
class="s10_131"
>1</text>

<text 
x="306" 
y="434" 
class="s7_131"
>-</text>

<text 
x="322" 
y="434" 
class="s8_131"
>p</text>

<text 
x="329" 
y="434" 
dx="0,0,4.6" 
class="s7_131"
>) *</text>

<text 
x="361" 
y="434" 
class="s8_131"
>n</text>

<text 
x="369" 
y="434" 
class="s7_131"
>)</text>

<text 
x="108" 
y="450" 
class="s5_131"
>return</text>

<text 
x="163" 
y="450" 
class="s8_131"
>mu</text>

<text 
x="179" 
y="450" 
class="s7_131"
>,</text>

<text 
x="195" 
y="450" 
class="s8_131"
>sigma</text>

<text 
x="55" 
y="502" 
class="s2_131"
>Whenever a random variable follows a normal distribution, we can use</text>

<text 
x="683" 
y="502" 
class="s11_131"
>normal_cdf</text>

<text 
x="794" 
y="502" 
class="s2_131"
>to</text>

<text 
x="55" 
y="532" 
class="s2_131"
>figure out the probability that its realized value lies within (or outside) a particular</text>

<text 
x="55" 
y="560" 
class="s2_131"
>interval:</text>

<text 
x="76" 
y="605" 
dx="0,0,4.6,0,0,0,4.6,0,0,0,0,0,0,4.6,0,0,0,4.6,0,0,0,0,4.6,0,0,0,4.6,0,0,0,0,0,0,0,0,0,0,0,4.6,0,0,0,4.6,0,0,0,0,0,0,0,0,4.6,0,0,4.6,0,0,0,0,0,4.6,0,4.6,0,0,0,0,0,0,0,0" 
class="s12_131"
># the normal cdf _is_ the probability the variable is below a threshold</text>

<text 
x="76" 
y="620" 
class="s8_131"
>normal_probability_below</text>

<text 
x="274" 
y="620" 
class="s7_131"
>=</text>

<text 
x="290" 
y="620" 
class="s8_131"
>normal_cdf</text>

<text 
x="76" 
y="651" 
dx="0,0,4.6,0,0,0,0,4.6,0,0,0,0,0,4.6,0,0,0,4.6,0,0,0,0,0,0,0,0,0,4.6,0,0,4.6,0,0,0,0,4.6,0,0,0,4.6,0,0,0,0,0,4.6,0,0,0,4.6,0,0,0,0,0,0,0,0" 
class="s12_131"
># it's above the threshold if it's not below the threshold</text>

<text 
x="76" 
y="666" 
class="s5_131"
>def</text>

<text 
x="108" 
y="666" 
class="s6_131"
>normal_probability_above</text>

<text 
x="298" 
y="666" 
class="s7_131"
>(</text>

<text 
x="306" 
y="666" 
class="s8_131"
>lo</text>

<text 
x="322" 
y="666" 
class="s7_131"
>,</text>

<text 
x="337" 
y="666" 
class="s8_131"
>mu</text>

<text 
x="353" 
y="666" 
class="s7_131"
>=</text>

<text 
x="361" 
y="666" 
class="s10_131"
>0</text>

<text 
x="369" 
y="666" 
class="s7_131"
>,</text>

<text 
x="385" 
y="666" 
class="s8_131"
>sigma</text>

<text 
x="424" 
y="666" 
class="s7_131"
>=</text>

<text 
x="432" 
y="666" 
class="s10_131"
>1</text>

<text 
x="440" 
y="666" 
class="s7_131"
>):</text>

<text 
x="108" 
y="682" 
class="s5_131"
>return</text>

<text 
x="163" 
y="682" 
class="s10_131"
>1</text>

<text 
x="179" 
y="682" 
class="s7_131"
>-</text>

<text 
x="195" 
y="682" 
class="s8_131"
>normal_cdf</text>

<text 
x="274" 
y="682" 
class="s7_131"
>(</text>

<text 
x="282" 
y="682" 
class="s8_131"
>lo</text>

<text 
x="298" 
y="682" 
class="s7_131"
>,</text>

<text 
x="314" 
y="682" 
class="s8_131"
>mu</text>

<text 
x="329" 
y="682" 
class="s7_131"
>,</text>

<text 
x="345" 
y="682" 
class="s8_131"
>sigma</text>

<text 
x="385" 
y="682" 
class="s7_131"
>)</text>

<text 
x="76" 
y="712" 
dx="0,0,4.6,0,0,0,0,4.6,0,0,0,0,0,0,0,4.6,0,0,4.6,0,0,0,0,4.6,0,0,0,0,4.6,0,0,0,0,4.6,0,0,0,4.6,0,0,0,4.6,0,0,0,4.6,0,0,0,0,4.6,0,0,0,0,4.6,0" 
class="s12_131"
># it's between if it's less than hi, but not less than lo</text>

<text 
x="76" 
y="728" 
class="s5_131"
>def</text>

<text 
x="108" 
y="728" 
class="s6_131"
>normal_probability_between</text>

<text 
x="314" 
y="728" 
class="s7_131"
>(</text>

<text 
x="322" 
y="728" 
class="s8_131"
>lo</text>

<text 
x="337" 
y="728" 
class="s7_131"
>,</text>

<text 
x="353" 
y="728" 
class="s8_131"
>hi</text>

<text 
x="369" 
y="728" 
class="s7_131"
>,</text>

<text 
x="385" 
y="728" 
class="s8_131"
>mu</text>

<text 
x="401" 
y="728" 
class="s7_131"
>=</text>

<text 
x="408" 
y="728" 
class="s10_131"
>0</text>

<text 
x="416" 
y="728" 
class="s7_131"
>,</text>

<text 
x="432" 
y="728" 
class="s8_131"
>sigma</text>

<text 
x="472" 
y="728" 
class="s7_131"
>=</text>

<text 
x="480" 
y="728" 
class="s10_131"
>1</text>

<text 
x="487" 
y="728" 
class="s7_131"
>):</text>

<text 
x="108" 
y="743" 
class="s5_131"
>return</text>

<text 
x="163" 
y="743" 
class="s8_131"
>normal_cdf</text>

<text 
x="242" 
y="743" 
class="s7_131"
>(</text>

<text 
x="250" 
y="743" 
class="s8_131"
>hi</text>

<text 
x="266" 
y="743" 
class="s7_131"
>,</text>

<text 
x="282" 
y="743" 
class="s8_131"
>mu</text>

<text 
x="298" 
y="743" 
class="s7_131"
>,</text>

<text 
x="314" 
y="743" 
class="s8_131"
>sigma</text>

<text 
x="353" 
y="743" 
dx="0,0,4.6" 
class="s7_131"
>) -</text>

<text 
x="385" 
y="743" 
class="s8_131"
>normal_cdf</text>

<text 
x="464" 
y="743" 
class="s7_131"
>(</text>

<text 
x="472" 
y="743" 
class="s8_131"
>lo</text>

<text 
x="487" 
y="743" 
class="s7_131"
>,</text>

<text 
x="503" 
y="743" 
class="s8_131"
>mu</text>

<text 
x="519" 
y="743" 
class="s7_131"
>,</text>

<text 
x="535" 
y="743" 
class="s8_131"
>sigma</text>

<text 
x="574" 
y="743" 
class="s7_131"
>)</text>

<text 
x="76" 
y="774" 
dx="0,0,4.6,0,0,0,0,4.6,0,0,0,0,0,0,0,4.6,0,0,4.6,0,0,0,0,4.6,0,0,0,4.6,0,0,0,0,0,0" 
class="s12_131"
># it's outside if it's not between</text>

<text 
x="76" 
y="789" 
class="s5_131"
>def</text>

<text 
x="108" 
y="789" 
class="s6_131"
>normal_probability_outside</text>

<text 
x="314" 
y="789" 
class="s7_131"
>(</text>

<text 
x="322" 
y="789" 
class="s8_131"
>lo</text>

<text 
x="337" 
y="789" 
class="s7_131"
>,</text>

<text 
x="353" 
y="789" 
class="s8_131"
>hi</text>

<text 
x="369" 
y="789" 
class="s7_131"
>,</text>

<text 
x="385" 
y="789" 
class="s8_131"
>mu</text>

<text 
x="401" 
y="789" 
class="s7_131"
>=</text>

<text 
x="408" 
y="789" 
class="s10_131"
>0</text>

<text 
x="416" 
y="789" 
class="s7_131"
>,</text>

<text 
x="432" 
y="789" 
class="s8_131"
>sigma</text>

<text 
x="472" 
y="789" 
class="s7_131"
>=</text>

<text 
x="480" 
y="789" 
class="s10_131"
>1</text>

<text 
x="487" 
y="789" 
class="s7_131"
>):</text>

<text 
x="108" 
y="805" 
class="s5_131"
>return</text>

<text 
x="163" 
y="805" 
class="s10_131"
>1</text>

<text 
x="179" 
y="805" 
class="s7_131"
>-</text>

<text 
x="195" 
y="805" 
class="s8_131"
>normal_probability_between</text>

<text 
x="401" 
y="805" 
class="s7_131"
>(</text>

<text 
x="408" 
y="805" 
class="s8_131"
>lo</text>

<text 
x="424" 
y="805" 
class="s7_131"
>,</text>

<text 
x="440" 
y="805" 
class="s8_131"
>hi</text>

<text 
x="456" 
y="805" 
class="s7_131"
>,</text>

<text 
x="472" 
y="805" 
class="s8_131"
>mu</text>

<text 
x="487" 
y="805" 
class="s7_131"
>,</text>

<text 
x="503" 
y="805" 
class="s8_131"
>sigma</text>

<text 
x="543" 
y="805" 
class="s7_131"
>)</text>

<text 
x="55" 
y="858" 
dx="0,-1.8,0,0,0,0,0,0,0,0,0,0,0,0,0,0,0,0,0,0,0,0,0,0,0,0,0,0,0,0,0,0,0,0,0,0,0,0,0,0,0,0,0,0,0,0,0,0,0,0,0,0,0,0,0,0,0,0,0,0,0,0,0,0,0,0,0,0,0,0,0,0,0,0,0,0,0,0,0,0,0,0,0,0,0,0,0" 
class="s2_131"
>We can also do the reverse — find either the nontail region or the (symmetric) interval</text>

<text 
x="55" 
y="885" 
class="s2_131"
>around the mean that accounts for a certain level of likelihood. For example, if we want to</text>

<text 
x="55" 
y="913" 
dx="0,0,0,0,0,0,0,0,0,0,0,0,0,0,0,0,0,0,0,0,0,0,0,0,0,0,0,0,0,0,0,0,0,0,0,0,0,0,0,0,0,0,0,0,0,0,0,0,0,0,0,0,0,0,0,0,0,0,0,0,0,0,0,0,0,0,0,0,-1.4,0,0,0,0,0,0,0,0,0,0,0,0,0,0,0,0,0" 
class="s2_131"
>find an interval centered at the mean and containing 60% probability, then we find the</text>

<text 
x="55" 
y="940" 
dx="0,0,0,0,0,-0.4,0,0,0,0,0,0,0,0,0,0,0,0,0,0,0,0,0,0,0,0,0,0,0,0,0,0,0,0,0,0,0,0,0,0,0,0,0,0,0,0,0,0,0,0,0,0,0,0,0,0,0,0,0,0,0,0,0,0,0,0,0,0,0,0,0,0,0,0,0,0,0,0,0,0,0,0,0,0,0,0,0,0,0,0" 
class="s2_131"
>cutoffs where the upper and lower tails each contain 20% of the probability (leaving 60%):</text>

<text 
x="76" 
y="985" 
class="s5_131"
>def</text>

<text 
x="108" 
y="985" 
class="s6_131"
>normal_upper_bound</text>

<text 
x="250" 
y="985" 
class="s7_131"
>(</text>

<text 
x="258" 
y="985" 
class="s8_131"
>probability</text>

<text 
x="345" 
y="985" 
class="s7_131"
>,</text>

<text 
x="361" 
y="985" 
class="s8_131"
>mu</text>

<text 
x="377" 
y="985" 
class="s7_131"
>=</text>

<text 
x="385" 
y="985" 
class="s10_131"
>0</text>

<text 
x="393" 
y="985" 
class="s7_131"
>,</text>

<text 
x="408" 
y="985" 
class="s8_131"
>sigma</text>

<text 
x="448" 
y="985" 
class="s7_131"
>=</text>

<text 
x="456" 
y="985" 
class="s10_131"
>1</text>

<text 
x="464" 
y="985" 
class="s7_131"
>):</text>

<text 
x="108" 
y="1001" 
dx="0,0,0,0,0,0,0,0,0,0,0,4.6,0,0,0,4.6,0,4.6,0,0,0,4.6,0,0,0,0,0,4.6,0,0,0,4.6,0,0,4.6,0,0,4.6,0,4.6,0,0,0,0,0,0,0,0,0,0,0,0,0" 
class="s9_131"
>"""returns the z for which P(Z &lt;= z) = probability"""</text>

<text 
x="108" 
y="1016" 
class="s5_131"
>return</text>

<text 
x="163" 
y="1016" 
class="s8_131"
>inverse_normal_cdf</text>

<text 
x="306" 
y="1016" 
class="s7_131"
>(</text>

<text 
x="314" 
y="1016" 
class="s8_131"
>probability</text>

<text 
x="401" 
y="1016" 
class="s7_131"
>,</text>

<text 
x="416" 
y="1016" 
class="s8_131"
>mu</text>

<text 
x="432" 
y="1016" 
class="s7_131"
>,</text>

<text 
x="448" 
y="1016" 
class="s8_131"
>sigma</text>

<text 
x="487" 
y="1016" 
class="s7_131"
>)</text>

<text 
x="76" 
y="1047" 
class="s5_131"
>def</text>

<text 
x="108" 
y="1047" 
class="s6_131"
>normal_lower_bound</text>

<text 
x="250" 
y="1047" 
class="s7_131"
>(</text>

<text 
x="258" 
y="1047" 
class="s8_131"
>probability</text>

<text 
x="345" 
y="1047" 
class="s7_131"
>,</text>

<text 
x="361" 
y="1047" 
class="s8_131"
>mu</text>

<text 
x="377" 
y="1047" 
class="s7_131"
>=</text>

<text 
x="385" 
y="1047" 
class="s10_131"
>0</text>

<text 
x="393" 
y="1047" 
class="s7_131"
>,</text>

<text 
x="408" 
y="1047" 
class="s8_131"
>sigma</text>

<text 
x="448" 
y="1047" 
class="s7_131"
>=</text>

<text 
x="456" 
y="1047" 
class="s10_131"
>1</text>

<text 
x="464" 
y="1047" 
class="s7_131"
>):</text>

<text 
x="108" 
y="1062" 
dx="0,0,0,0,0,0,0,0,0,0,0,4.6,0,0,0,4.6,0,4.6,0,0,0,4.6,0,0,0,0,0,4.6,0,0,0,4.6,0,0,4.6,0,0,4.6,0,4.6,0,0,0,0,0,0,0,0,0,0,0,0,0" 
class="s9_131"
>"""returns the z for which P(Z &gt;= z) = probability"""</text>

<text 
x="108" 
y="1078" 
class="s5_131"
>return</text>

<text 
x="163" 
y="1078" 
class="s8_131"
>inverse_normal_cdf</text>

<text 
x="306" 
y="1078" 
class="s7_131"
>(</text>

<text 
x="314" 
y="1078" 
class="s10_131"
>1</text>

<text 
x="329" 
y="1078" 
class="s7_131"
>-</text>

<text 
x="345" 
y="1078" 
class="s8_131"
>probability</text>

<text 
x="432" 
y="1078" 
class="s7_131"
>,</text>

<text 
x="448" 
y="1078" 
class="s8_131"
>mu</text>

<text 
x="464" 
y="1078" 
class="s7_131"
>,</text>

<text 
x="480" 
y="1078" 
class="s8_131"
>sigma</text>

<text 
x="519" 
y="1078" 
class="s7_131"
>)</text>

<text 
x="76" 
y="1109" 
class="s5_131"
>def</text>

<text 
x="108" 
y="1109" 
class="s6_131"
>normal_two_sided_bounds</text>

<text 
x="290" 
y="1109" 
class="s7_131"
>(</text>

<text 
x="298" 
y="1109" 
class="s8_131"
>probability</text>

<text 
x="385" 
y="1109" 
class="s7_131"
>,</text>

<text 
x="401" 
y="1109" 
class="s8_131"
>mu</text>

<text 
x="416" 
y="1109" 
class="s7_131"
>=</text>

<text 
x="424" 
y="1109" 
class="s10_131"
>0</text>

<text 
x="432" 
y="1109" 
class="s7_131"
>,</text>

<text 
x="448" 
y="1109" 
class="s8_131"
>sigma</text>

<text 
x="487" 
y="1109" 
class="s7_131"
>=</text>

<text 
x="495" 
y="1109" 
class="s10_131"
>1</text>

<text 
x="503" 
y="1109" 
class="s7_131"
>):</text>

<text 
x="108" 
y="1124" 
dx="0,0,0,0,0,0,0,0,0,0,0,4.6,0,0,0,4.6,0,0,0,0,0,0,0,0,0,4.6,0,0,0,0,0,0,4.6,0,0,0,4.6,0,0,0,0,0,4.6,0,0,0,0,0" 
class="s9_131"
>"""returns the symmetric (about the mean) bounds</text>

<text 
x="108" 
y="1139" 
dx="0,0,0,0,0,4.6,0,0,0,0,0,0,0,4.6,0,0,0,4.6,0,0,0,0,0,0,0,0,0,4.6,0,0,0,0,0,0,0,0,0,0,0,0,0" 
class="s9_131"
>that contain the specified probability"""</text>

<text 
x="108" 
y="1155" 
class="s8_131"
>tail_probability</text>

<text 
x="242" 
y="1155" 
dx="0,0,4.6" 
class="s7_131"
>= (</text>

<text 
x="266" 
y="1155" 
class="s10_131"
>1</text>

<text 
x="282" 
y="1155" 
class="s7_131"
>-</text>

<text 
x="298" 
y="1155" 
class="s8_131"
>probability</text>

<text 
x="385" 
y="1155" 
dx="0,0,4.6" 
class="s7_131"
>) /</text>

<text 
x="416" 
y="1155" 
class="s10_131"
>2</text>

<text 
x="108" 
y="1186" 
dx="0,0,4.6,0,0,0,0,0,4.6,0,0,0,0,0,4.6,0,0,0,0,0,0,4.6,0,0,0,0,4.6,0,0,0,0,0,0,0,0,0,0,0,0,0,0,0,0,4.6,0,0,0,0,0,4.6,0" 
class="s12_131"
># upper bound should have tail_probability above it</text>

<text 
x="108" 
y="1201" 
class="s8_131"
>upper_bound</text>

<text 
x="203" 
y="1201" 
class="s7_131"
>=</text>

<text 
x="219" 
y="1201" 
class="s8_131"
>normal_lower_bound</text>

<text 
x="361" 
y="1201" 
class="s7_131"
>(</text>

<text 
x="369" 
y="1201" 
class="s8_131"
>tail_probability</text>

<text 
x="495" 
y="1201" 
class="s7_131"
>,</text>

<text 
x="511" 
y="1201" 
class="s8_131"
>mu</text>

<text 
x="527" 
y="1201" 
class="s7_131"
>,</text>

<text 
x="543" 
y="1201" 
class="s8_131"
>sigma</text>

<text 
x="582" 
y="1201" 
class="s7_131"
>)</text>



<!-- Any embedded fonts defined here -->
<style type="text/css" ><![CDATA[

@font-face {
	font-family: LiberationSerif-Italic_l;
	src: url("fonts/LiberationSerif-Italic_l.woff") format("woff");
}

@font-face {
	font-family: LiberationMono-Bold_1w;
	src: url("fonts/LiberationMono-Bold_1w.woff") format("woff");
}

@font-face {
	font-family: LiberationMono_1q;
	src: url("fonts/LiberationMono_1q.woff") format("woff");
}

@font-face {
	font-family: LiberationMono-Italic_10;
	src: url("fonts/LiberationMono-Italic_10.woff") format("woff");
}

@font-face {
	font-family: LiberationSerif-Bold_b;
	src: url("fonts/LiberationSerif-Bold_b.woff") format("woff");
}

@font-face {
	font-family: LiberationSerif_e;
	src: url("fonts/LiberationSerif_e.woff") format("woff");
}

]]></style>

</svg>
