<?xml version="1.0" encoding="UTF-8" standalone="no"?>
<!DOCTYPE svg PUBLIC "-//W3C//DTD SVG 1.1//EN"
"http://www.w3.org/Graphics/SVG/1.1/DTD/svg11.dtd">


<!-- Page 133 -->
<svg x="0" y="0" width="909" height="1286" viewBox="0 0 909 1286" version="1.1" xmlns="http://www.w3.org/2000/svg" xmlns:xlink="http://www.w3.org/1999/xlink"
style="display: block;margin-left: auto;margin-right: auto;">
<defs>

<style type="text/css"><![CDATA[

.g1_133{
fill: #BEBEBE;
}

.s1_133{
font-size: 13.20px;
font-family: LiberationMono_1q;
fill: #000088;
}
.s2_133{
font-size: 13.20px;
font-family: LiberationMono_1q;
fill: #000000;
}
.s3_133{
font-size: 13.20px;
font-family: LiberationMono_1q;
fill: #FF6600;
}
.s4_133{
font-size: 13.20px;
font-family: LiberationMono-Italic_10;
fill: #0099FF;
}
.s5_133{
font-size: 22.01px;
font-family: LiberationSerif_e;
fill: #000000;
}
.s6_133{
font-size: 22.01px;
font-family: LiberationSerif-Italic_l;
fill: #000000;
}
.s7_133{
font-size: 13.20px;
font-family: LiberationMono-Bold_1w;
fill: #006699;
}
.s8_133{
font-size: 13.20px;
font-family: LiberationMono_1q;
fill: #CC00FF;
}
.s9_133{
font-size: 22.01px;
font-family: LiberationSerif-Bold_b;
fill: #737373;
}
.s10_133{
font-size: 16.50px;
font-family: LiberationSerif_e;
fill: #000000;
}
.s11_133{
font-size: 16.50px;
font-family: LiberationSerif-Italic_l;
fill: #8E0012;
}
.s12_133{
font-size: 16.50px;
font-family: LiberationSerif_e;
fill: #8E0012;
}
.s13_133{
font-size: 13.20px;
font-family: LiberationMono-Bold_1w;
fill: #000000;
}
.s14_133{
font-size: 13.20px;
font-family: LiberationMono_1q;
fill: #336666;
}

]]></style>

</defs>
<path d="M0,0
L0,1286
L909,1286
L909,0 Z " 
fill="#FFFFFF" stroke="none" />
<path fill-rule="evenodd" d="M93.5,617.2l722.5,0c3,0,5.5,2.5,5.5,5.5l0,171.7c0,3,-2.5,5.5,-5.5,5.5l-722.5,0c-3,0,-5.5,-2.5,-5.5,-5.5L88,622.7c0,-3,2.5,-5.5,5.5,-5.5m0,1.1l722.5,0c2.4,0,4.4,2,4.4,4.4l0,171.7c0,2.4,-2,4.4,-4.4,4.4l-722.5,0c-2.4,0,-4.4,-2,-4.4,-4.4l0,-171.7c0,-2.4,2,-4.4,4.4,-4.4Z" class="g1_133" />
<text 
x="76" 
y="64" 
class="s1_133"
>power</text>

<text 
x="124" 
y="64" 
class="s2_133"
>=</text>

<text 
x="140" 
y="64" 
class="s3_133"
>1</text>

<text 
x="156" 
y="64" 
class="s2_133"
>-</text>

<text 
x="171" 
y="64" 
class="s1_133"
>type_2_probability</text>

<text 
x="361" 
y="64" 
dx="0,0,4.6,0,0,0,0" 
class="s4_133"
># 0.936</text>

<text 
x="55" 
y="122" 
class="s5_133"
>This is a more powerful test, since it no longer rejects</text>

<image preserveAspectRatio="none" x="532" y="97" width="30" height="25" xlink:href="133/img/1.png" />
<text 
x="567" 
y="122" 
class="s5_133"
>when</text>

<text 
x="620" 
y="122" 
class="s6_133"
>X</text>

<text 
x="639" 
y="122" 
class="s5_133"
>is below 469 (which is</text>

<text 
x="55" 
y="154" 
class="s5_133"
>very unlikely to happen if</text>

<image preserveAspectRatio="none" x="288" y="129" width="29" height="25" xlink:href="133/img/2.png" />
<text 
x="321" 
y="154" 
class="s5_133"
>is true) and instead rejects</text>

<image preserveAspectRatio="none" x="556" y="129" width="30" height="25" xlink:href="133/img/3.png" />
<text 
x="591" 
y="154" 
class="s5_133"
>when</text>

<text 
x="645" 
y="154" 
class="s6_133"
>X</text>

<text 
x="663" 
y="154" 
class="s5_133"
>is between 526 and</text>

<text 
x="55" 
y="185" 
class="s5_133"
>531 (which is somewhat likely to happen if</text>

<image preserveAspectRatio="none" x="441" y="161" width="29" height="25" xlink:href="133/img/4.png" />
<text 
x="474" 
y="185" 
class="s5_133"
>is true). === p-values</text>

<text 
x="55" 
y="224" 
class="s5_133"
>An alternative way of thinking about the preceding test involves</text>

<text 
x="625" 
y="224" 
class="s6_133"
>p-values</text>

<text 
x="699" 
y="224" 
class="s5_133"
>. Instead of</text>

<text 
x="55" 
y="251" 
dx="0,0,0,0,0,0,0,0,0,0,0,0,0,0,0,0,0,0,0,0,0,0,0,0,0,0,0,0,0,0,0,0,0,0,0,0,0,0,0,0,0,0,0,0,0,0,0,-0.4,0,0,0,0,0,0,0,0,0,0,0,0,0,0,0,0,0,0,0,0,0,0,0,0,0,0,0,0,0,0" 
class="s5_133"
>choosing bounds based on some probability cutoff, we compute the probability —</text>

<text 
x="55" 
y="283" 
class="s5_133"
>assuming</text>

<image preserveAspectRatio="none" x="144" y="259" width="30" height="25" xlink:href="133/img/5.png" />
<text 
x="178" 
y="283" 
class="s5_133"
>is true — that we would see a value at least as extreme as the one we</text>

<text 
x="55" 
y="311" 
class="s5_133"
>actually observed.</text>

<text 
x="55" 
y="349" 
dx="0,0,0,0,0,0,0,0,0,0,0,0,0,0,0,0,0,0,0,0,0,0,0,0,0,0,0,0,0,0,0,0,0,0,0,0,0,0,0,0,0,0,0,0,0,0,0,0,0,0,-0.9,0,0,0,0,0,0,0,0,0,0,0,0" 
class="s5_133"
>For our two-sided test of whether the coin is fair, we compute:</text>

<text 
x="76" 
y="394" 
class="s7_133"
>def</text>

<text 
x="108" 
y="394" 
class="s8_133"
>two_sided_p_value</text>

<text 
x="242" 
y="394" 
class="s2_133"
>(</text>

<text 
x="250" 
y="394" 
class="s1_133"
>x</text>

<text 
x="258" 
y="394" 
class="s2_133"
>,</text>

<text 
x="274" 
y="394" 
class="s1_133"
>mu</text>

<text 
x="290" 
y="394" 
class="s2_133"
>=</text>

<text 
x="298" 
y="394" 
class="s3_133"
>0</text>

<text 
x="306" 
y="394" 
class="s2_133"
>,</text>

<text 
x="322" 
y="394" 
class="s1_133"
>sigma</text>

<text 
x="361" 
y="394" 
class="s2_133"
>=</text>

<text 
x="369" 
y="394" 
class="s3_133"
>1</text>

<text 
x="377" 
y="394" 
class="s2_133"
>):</text>

<text 
x="108" 
y="410" 
class="s7_133"
>if</text>

<text 
x="132" 
y="410" 
class="s1_133"
>x</text>

<text 
x="148" 
y="410" 
class="s2_133"
>&gt;=</text>

<text 
x="171" 
y="410" 
class="s1_133"
>mu</text>

<text 
x="187" 
y="410" 
class="s2_133"
>:</text>

<text 
x="140" 
y="425" 
dx="0,0,4.6,0,0,4.6,0,4.6,0,0,4.6,0,0,0,0,0,0,0,4.6,0,0,0,0,4.6,0,0,0,4.6,0,0,0,0,0,4.6,0,0,0,4.6,0,0,0,0,4.6,0,0,4.6,0,0,0,0,0,0,4.6,0,0,0,0,0,0,0,4.6,0,0,0,0,4.6" 
class="s4_133"
># if x is greater than the mean, the tail is what's greater than x</text>

<text 
x="140" 
y="441" 
class="s7_133"
>return</text>

<text 
x="195" 
y="441" 
class="s3_133"
>2</text>

<text 
x="211" 
y="441" 
class="s2_133"
>*</text>

<text 
x="227" 
y="441" 
class="s1_133"
>normal_probability_above</text>

<text 
x="416" 
y="441" 
class="s2_133"
>(</text>

<text 
x="424" 
y="441" 
class="s1_133"
>x</text>

<text 
x="432" 
y="441" 
class="s2_133"
>,</text>

<text 
x="448" 
y="441" 
class="s1_133"
>mu</text>

<text 
x="464" 
y="441" 
class="s2_133"
>,</text>

<text 
x="480" 
y="441" 
class="s1_133"
>sigma</text>

<text 
x="519" 
y="441" 
class="s2_133"
>)</text>

<text 
x="108" 
y="456" 
class="s7_133"
>else</text>

<text 
x="140" 
y="456" 
class="s2_133"
>:</text>

<text 
x="140" 
y="472" 
dx="0,0,4.6,0,0,4.6,0,4.6,0,0,4.6,0,0,0,0,4.6,0,0,0,0,4.6,0,0,0,4.6,0,0,0,0,0,4.6,0,0,0,4.6,0,0,0,0,4.6,0,0,4.6,0,0,0,0,0,0,4.6,0,0,0,0,4.6,0,0,0,0,4.6" 
class="s4_133"
># if x is less than the mean, the tail is what's less than x</text>

<text 
x="140" 
y="487" 
class="s7_133"
>return</text>

<text 
x="195" 
y="487" 
class="s3_133"
>2</text>

<text 
x="211" 
y="487" 
class="s2_133"
>*</text>

<text 
x="227" 
y="487" 
class="s1_133"
>normal_probability_below</text>

<text 
x="416" 
y="487" 
class="s2_133"
>(</text>

<text 
x="424" 
y="487" 
class="s1_133"
>x</text>

<text 
x="432" 
y="487" 
class="s2_133"
>,</text>

<text 
x="448" 
y="487" 
class="s1_133"
>mu</text>

<text 
x="464" 
y="487" 
class="s2_133"
>,</text>

<text 
x="480" 
y="487" 
class="s1_133"
>sigma</text>

<text 
x="519" 
y="487" 
class="s2_133"
>)</text>

<text 
x="55" 
y="540" 
class="s5_133"
>If we were to see 530 heads, we would compute:</text>

<text 
x="76" 
y="585" 
class="s1_133"
>two_sided_p_value</text>

<text 
x="211" 
y="585" 
class="s2_133"
>(</text>

<text 
x="219" 
y="585" 
class="s3_133"
>529.5</text>

<text 
x="258" 
y="585" 
class="s2_133"
>,</text>

<text 
x="274" 
y="585" 
class="s1_133"
>mu_0</text>

<text 
x="306" 
y="585" 
class="s2_133"
>,</text>

<text 
x="322" 
y="585" 
class="s1_133"
>sigma_0</text>

<text 
x="377" 
y="585" 
class="s2_133"
>)</text>

<text 
x="408" 
y="585" 
dx="0,0,4.6,0,0,0,0" 
class="s4_133"
># 0.062</text>

<text 
x="421" 
y="642" 
dx="0,1.1,1.1,1.1" 
class="s9_133"
>NOTE</text>

<text 
x="97" 
y="672" 
dx="0,0,0,0,0,0,0,0,0,0,0,0,0,0,0,0,0,0,0,0,0,0,0,0,0,0,0,0,0,0,0,0,0,0,0,0,0,0,0,0,0,0,0,0,0,0,0,0,0,0,-0.9,0,0,0,0,0,0,0,0,0" 
class="s10_133"
>Why did we use 529.5 instead of 530? This is what’s called a</text>

<text 
x="505" 
y="672" 
dx="0,0,0,0,0,0,0,0,0,0,0,0,0,0,0,-0.6,0,0,0,0,0" 
class="s11_133"
>continuity correction</text>

<text 
x="643" 
y="672" 
class="s10_133"
>. It reflects the fact that</text>

<text 
x="97" 
y="692" 
dx="0,0,0,0,0,0,0,0,0,0,0,0,0,0,0,0,0,0,0,0,0,0,0,0,0,0,0,0,0,0,0,0,0,0,4.6,0,0,0,0,0,0,4.6,0,0,0,0,0,4.6,0,0,0,0,0,0,0" 
class="s2_133"
>normal_probability_between(529.5, 530.5, mu_0, sigma_0)</text>

<text 
x="536" 
y="692" 
class="s10_133"
>is a better estimate of the probability of</text>

<text 
x="97" 
y="714" 
class="s10_133"
>seeing 530 heads than</text>

<text 
x="247" 
y="714" 
dx="0,0,0,0,0,0,0,0,0,0,0,0,0,0,0,0,0,0,0,0,0,0,0,0,0,0,0,0,0,0,0,0,4.6,0,0,0,0,4.6,0,0,0,0,0,4.6,0,0,0,0,0,0,0" 
class="s2_133"
>normal_probability_between(530, 531, mu_0, sigma_0)</text>

<text 
x="654" 
y="714" 
class="s10_133"
>is.</text>

<text 
x="97" 
y="743" 
dx="0,0,0,0,0,0,0,0,0,0,0,0,0,0,0,-1.1" 
class="s10_133"
>Correspondingly,</text>

<text 
x="215" 
y="743" 
dx="0,0,0,0,0,0,0,0,0,0,0,0,0,0,0,0,0,0,0,0,0,0,0,0,0,0,0,0,0,0,0,0,4.6,0,0,0,0,0,4.6,0,0,0,0,0,0,0" 
class="s2_133"
>normal_probability_above(529.5, mu_0, sigma_0)</text>

<text 
x="583" 
y="743" 
class="s10_133"
>is a better estimate of the</text>

<text 
x="97" 
y="765" 
dx="0,0,0,0,0,0,0,0,0,0,0,0,0,0,0,0,0,0,0,0,0,0,0,0,0,0,0,0,0,0,0,0,0,0,0,0,0,0,0,0,0,0,0,-1.7,0,0,0,0,0,0,0,0,0,0,0,0,0,0,0,0,0,0,0,0,0,0,0,0,0,0,0,0,0,0,0,0,0,0,0,0,0,0,0,0,0,0,0,0,0,0,0,0,0,0,0,0,0,0,0,0,0,0" 
class="s10_133"
>probability of seeing at least 530 heads. You may have noticed that we also used this in the code that</text>

<text 
x="97" 
y="785" 
class="s10_133"
>produced</text>

<text 
x="163" 
y="785" 
class="s12_133"
>Figure 6-4</text>

<text 
x="232" 
y="785" 
class="s10_133"
>.</text>

<text 
x="55" 
y="831" 
class="s5_133"
>One way to convince yourself that this is a sensible estimate is with a simulation:</text>

<text 
x="76" 
y="876" 
class="s1_133"
>extreme_value_count</text>

<text 
x="235" 
y="876" 
class="s2_133"
>=</text>

<text 
x="250" 
y="876" 
class="s3_133"
>0</text>

<text 
x="76" 
y="892" 
class="s7_133"
>for</text>

<text 
x="108" 
y="892" 
class="s1_133"
>_</text>

<text 
x="124" 
y="892" 
class="s13_133"
>in</text>

<text 
x="148" 
y="892" 
class="s14_133"
>range</text>

<text 
x="187" 
y="892" 
class="s2_133"
>(</text>

<text 
x="195" 
y="892" 
class="s3_133"
>100000</text>

<text 
x="242" 
y="892" 
class="s2_133"
>):</text>

<text 
x="108" 
y="907" 
class="s1_133"
>num_heads</text>

<text 
x="187" 
y="907" 
class="s2_133"
>=</text>

<text 
x="203" 
y="907" 
class="s14_133"
>sum</text>

<text 
x="227" 
y="907" 
class="s2_133"
>(</text>

<text 
x="235" 
y="907" 
class="s3_133"
>1</text>

<text 
x="250" 
y="907" 
class="s7_133"
>if</text>

<text 
x="274" 
y="907" 
class="s1_133"
>random</text>

<text 
x="322" 
y="907" 
class="s2_133"
>.</text>

<text 
x="329" 
y="907" 
class="s1_133"
>random</text>

<text 
x="377" 
y="907" 
dx="0,0,0,4.6" 
class="s2_133"
>() &lt;</text>

<text 
x="416" 
y="907" 
class="s3_133"
>0.5</text>

<text 
x="448" 
y="907" 
class="s7_133"
>else</text>

<text 
x="487" 
y="907" 
class="s3_133"
>0</text>

<text 
x="527" 
y="907" 
dx="0,0,4.6,0,0,0,0,0,4.6,0,4.6,0,0,4.6,0,0,0,0" 
class="s4_133"
># count # of heads</text>

<text 
x="235" 
y="923" 
class="s7_133"
>for</text>

<text 
x="266" 
y="923" 
class="s1_133"
>_</text>

<text 
x="282" 
y="923" 
class="s13_133"
>in</text>

<text 
x="306" 
y="923" 
class="s14_133"
>range</text>

<text 
x="345" 
y="923" 
class="s2_133"
>(</text>

<text 
x="353" 
y="923" 
class="s3_133"
>1000</text>

<text 
x="385" 
y="923" 
class="s2_133"
>))</text>

<text 
x="527" 
y="923" 
dx="0,0,4.6,0,0,4.6,0,0,0,0,4.6,0,0,0,0" 
class="s4_133"
># in 1000 flips</text>

<text 
x="108" 
y="938" 
class="s7_133"
>if</text>

<text 
x="132" 
y="938" 
class="s1_133"
>num_heads</text>

<text 
x="211" 
y="938" 
class="s2_133"
>&gt;=</text>

<text 
x="235" 
y="938" 
class="s3_133"
>530</text>

<text 
x="266" 
y="938" 
class="s13_133"
>or</text>

<text 
x="290" 
y="938" 
class="s1_133"
>num_heads</text>

<text 
x="369" 
y="938" 
class="s2_133"
>&lt;=</text>

<text 
x="393" 
y="938" 
class="s3_133"
>470</text>

<text 
x="416" 
y="938" 
class="s2_133"
>:</text>

<text 
x="527" 
y="938" 
dx="0,0,4.6,0,0,0,4.6,0,0,0,0,0,4.6,0,0,0,4.6,0,0,0,0" 
class="s4_133"
># and count how often</text>

<text 
x="140" 
y="953" 
class="s1_133"
>extreme_value_count</text>

<text 
x="298" 
y="953" 
class="s2_133"
>+=</text>

<text 
x="322" 
y="953" 
class="s3_133"
>1</text>

<text 
x="527" 
y="953" 
dx="0,0,4.6,0,0,0,4.6,0,4.6,0,0,4.6,0,0,0,0,0,0,0,0" 
class="s4_133"
># the # is 'extreme'</text>

<text 
x="76" 
y="984" 
class="s7_133"
>print</text>

<text 
x="124" 
y="984" 
class="s1_133"
>extreme_value_count</text>

<text 
x="282" 
y="984" 
class="s2_133"
>/</text>

<text 
x="298" 
y="984" 
class="s3_133"
>100000</text>

<text 
x="369" 
y="984" 
dx="0,0,4.6,0,0,0,0" 
class="s4_133"
># 0.062</text>

<text 
x="55" 
y="1037" 
class="s5_133"
>Since the</text>

<text 
x="141" 
y="1037" 
class="s6_133"
>p</text>

<text 
x="152" 
y="1037" 
dx="0,0,0,0,0,0,0,0,0,0,0,0,0,0,0,0,0,0,0,0,0,0,0,0,0,0,0,0,0,0,0,0,0,0,0,0,0,0,0,0,0,0,0,0,0,0,0,0,0,0,0,-0.4,0,0,0,0,0,0,0,0,0,0,0,0,0,0,0,0,0,0,0,0,0,0,0" 
class="s5_133"
>-value is greater than our 5% significance, we don’t reject the null. If we</text>

<text 
x="55" 
y="1065" 
class="s5_133"
>instead saw 532 heads, the</text>

<text 
x="294" 
y="1065" 
class="s6_133"
>p</text>

<text 
x="305" 
y="1065" 
class="s5_133"
>-value would be:</text>

<text 
x="76" 
y="1110" 
class="s1_133"
>two_sided_p_value</text>

<text 
x="211" 
y="1110" 
class="s2_133"
>(</text>

<text 
x="219" 
y="1110" 
class="s3_133"
>531.5</text>

<text 
x="258" 
y="1110" 
class="s2_133"
>,</text>

<text 
x="274" 
y="1110" 
class="s1_133"
>mu_0</text>

<text 
x="306" 
y="1110" 
class="s2_133"
>,</text>

<text 
x="322" 
y="1110" 
class="s1_133"
>sigma_0</text>

<text 
x="377" 
y="1110" 
class="s2_133"
>)</text>

<text 
x="408" 
y="1110" 
dx="0,0,4.6,0,0,0,0,0" 
class="s4_133"
># 0.0463</text>

<text 
x="55" 
y="1162" 
dx="0,0,0,0,0,0,0,0,0,0,0,0,0,0,0,0,0,0,0,0,0,0,0,0,0,0,0,0,0,0,0,0,0,0,0,0,0,0,0,0,0,0,0,0,0,0,0,0,0,0,0,0,0,0,0,0,0,0,0,0,0,0,0,0,0,0,0,0,0,0,0,0,0,0,0,0,0,0,0,0,0,0,0,0,-1.2,0,0,0,0" 
class="s5_133"
>which is smaller than the 5% significance, which means we would reject the null. It’s the</text>

<text 
x="55" 
y="1190" 
dx="0,0,0,0,0,0,0,0,0,0,0,0,0,0,0,0,0,0,0,0,0,0,0,0,0,0,0,0,0,0,-1.2,0,0,0,0,0,0,0,0,0,0,0,-0.4,0,0,0,0,0,0,0,0,0,0,0,0,0,0,0,0,0,0,0,0,0,0,0,0,0,0,0,0,0,0,0,0,0,0,0,0,0,0,0,0" 
class="s5_133"
>exact same test as before. It’s just a different way of approaching the statistics.</text>



<!-- Any embedded fonts defined here -->
<style type="text/css" ><![CDATA[

@font-face {
	font-family: LiberationSerif-Italic_l;
	src: url("fonts/LiberationSerif-Italic_l.woff") format("woff");
}

@font-face {
	font-family: LiberationMono-Bold_1w;
	src: url("fonts/LiberationMono-Bold_1w.woff") format("woff");
}

@font-face {
	font-family: LiberationMono_1q;
	src: url("fonts/LiberationMono_1q.woff") format("woff");
}

@font-face {
	font-family: LiberationMono-Italic_10;
	src: url("fonts/LiberationMono-Italic_10.woff") format("woff");
}

@font-face {
	font-family: LiberationSerif_e;
	src: url("fonts/LiberationSerif_e.woff") format("woff");
}

@font-face {
	font-family: LiberationSerif-Bold_b;
	src: url("fonts/LiberationSerif-Bold_b.woff") format("woff");
}

]]></style>

</svg>
