<?xml version="1.0" encoding="UTF-8" standalone="no"?>
<!DOCTYPE svg PUBLIC "-//W3C//DTD SVG 1.1//EN"
"http://www.w3.org/Graphics/SVG/1.1/DTD/svg11.dtd">


<!-- Page 134 -->
<svg x="0" y="0" width="909" height="1286" viewBox="0 0 909 1286" version="1.1" xmlns="http://www.w3.org/2000/svg" xmlns:xlink="http://www.w3.org/1999/xlink"
style="display: block;margin-left: auto;margin-right: auto;">
<defs>

<style type="text/css"><![CDATA[

.g1_134{
fill: #BC8F8F;
}

.s1_134{
font-size: 22.01px;
font-family: LiberationSerif_e;
fill: #000000;
}
.s2_134{
font-size: 13.20px;
font-family: LiberationMono_1q;
fill: #000088;
}
.s3_134{
font-size: 13.20px;
font-family: LiberationMono_1q;
fill: #000000;
}
.s4_134{
font-size: 13.20px;
font-family: LiberationMono_1q;
fill: #FF6600;
}
.s5_134{
font-size: 13.20px;
font-family: LiberationMono-Italic_10;
fill: #0099FF;
}
.s6_134{
font-size: 22.01px;
font-family: LiberationSerif-Bold_b;
fill: #C67171;
}
.s7_134{
font-size: 16.50px;
font-family: LiberationSerif_e;
fill: #000000;
}

]]></style>

</defs>
<path d="M0,0
L0,1286
L909,1286
L909,0 Z " 
fill="#FFFFFF" stroke="none" />
<path fill-rule="evenodd" d="M93.5,401.6l722.5,0c3,0,5.5,2.5,5.5,5.5l0,147.4c0,3.1,-2.5,5.5,-5.5,5.5L93.5,560c-3,0,-5.5,-2.4,-5.5,-5.5L88,407.1c0,-3,2.5,-5.5,5.5,-5.5m0,1.1l722.5,0c2.4,0,4.4,2,4.4,4.4l0,147.4c0,2.5,-2,4.4,-4.4,4.4l-722.5,0c-2.4,0,-4.4,-1.9,-4.4,-4.4l0,-147.4c0,-2.4,2,-4.4,4.4,-4.4Z" class="g1_134" />
<text 
x="55" 
y="74" 
dx="0,0,0,0,0,0,0,0,0,-1.4,0,0,0,0,0,0,0,0,0,0,0,0,0,0,0" 
class="s1_134"
>Similarly, we would have:</text>

<text 
x="76" 
y="119" 
class="s2_134"
>upper_p_value</text>

<text 
x="187" 
y="119" 
class="s3_134"
>=</text>

<text 
x="203" 
y="119" 
class="s2_134"
>normal_probability_above</text>

<text 
x="76" 
y="135" 
class="s2_134"
>lower_p_value</text>

<text 
x="187" 
y="135" 
class="s3_134"
>=</text>

<text 
x="203" 
y="135" 
class="s2_134"
>normal_probability_below</text>

<text 
x="55" 
y="188" 
class="s1_134"
>For our one-sided test, if we saw 525 heads we would compute:</text>

<text 
x="76" 
y="233" 
class="s2_134"
>upper_p_value</text>

<text 
x="179" 
y="233" 
class="s3_134"
>(</text>

<text 
x="187" 
y="233" 
class="s4_134"
>524.5</text>

<text 
x="227" 
y="233" 
class="s3_134"
>,</text>

<text 
x="242" 
y="233" 
class="s2_134"
>mu_0</text>

<text 
x="274" 
y="233" 
class="s3_134"
>,</text>

<text 
x="290" 
y="233" 
class="s2_134"
>sigma_0</text>

<text 
x="345" 
y="233" 
class="s3_134"
>)</text>

<text 
x="361" 
y="233" 
dx="0,0,4.6,0,0,0,0" 
class="s5_134"
># 0.061</text>

<text 
x="55" 
y="286" 
dx="0,0,0,0,0,0,0,0,0,0,0,0,0,0,0,0,0,0,0,0,0,0,-0.4,0,0,0,0,0,0,0,0,0,0,0,0,0,0,0,0,0,0,0,0,0,0,0,0,0,0,0,0,0,0,0,0,0,0,0,0,0,0,0,0,0,0,0,0,0,0,0,0,0,0,0,0,0,0,0,0,0,0,0,0,0,0,0,0" 
class="s1_134"
>which means we wouldn’t reject the null. If we saw 527 heads, the computation would be:</text>

<text 
x="76" 
y="331" 
class="s2_134"
>upper_p_value</text>

<text 
x="179" 
y="331" 
class="s3_134"
>(</text>

<text 
x="187" 
y="331" 
class="s4_134"
>526.5</text>

<text 
x="227" 
y="331" 
class="s3_134"
>,</text>

<text 
x="242" 
y="331" 
class="s2_134"
>mu_0</text>

<text 
x="274" 
y="331" 
class="s3_134"
>,</text>

<text 
x="290" 
y="331" 
class="s2_134"
>sigma_0</text>

<text 
x="345" 
y="331" 
class="s3_134"
>)</text>

<text 
x="361" 
y="331" 
dx="0,0,4.6,0,0,0,0" 
class="s5_134"
># 0.047</text>

<text 
x="55" 
y="383" 
class="s1_134"
>and we would reject the null.</text>

<text 
x="396" 
y="426" 
dx="0,-1.1,1.1,1.1,1.1,1.1,1.1" 
class="s6_134"
>WARNING</text>

<text 
x="97" 
y="456" 
class="s7_134"
>Make sure your data is roughly normally distributed before using</text>

<text 
x="531" 
y="456" 
class="s3_134"
>normal_probability_above</text>

<text 
x="725" 
y="456" 
class="s7_134"
>to compute</text>

<text 
x="97" 
y="478" 
class="s7_134"
>p-values. The annals of bad data science are filled with examples of people opining that the chance of some</text>

<text 
x="97" 
y="498" 
class="s7_134"
>observed event occurring at random is one in a million, when what they really mean is “the chance,</text>

<text 
x="97" 
y="518" 
dx="0,0,0,0,0,0,0,0,0,0,0,0,0,0,0,0,0,0,0,0,0,0,0,0,0,0,0,0,0,0,0,0,0,0,0,0,0,0,0,0,0,-1.1,0,0,0,0,0,0,0,0,0,0,0,0,0,0,0,0,0,0,0,0,0,0,0,0,0,0,0,0,0,0,0,0,0,0,0,0,0,0,0,0,0,0,0,0,0,0,-0.3,0" 
class="s7_134"
>assuming the data is distributed normally,” which is pretty meaningless if the data isn’t.</text>

<text 
x="97" 
y="545" 
dx="0,0,0,0,0,0,0,0,0,0,0,0,0,0,0,0,0,0,0,0,0,0,0,0,0,0,0,0,0,0,0,0,0,0,0,0,0,0,0,0,0,0,0,0,0,0,0,0,0,-1.1,0,0,0,0,0,0,0,0,0,0,0,0,0,0,0,0,0,0,0,0,0,0,0,0,0,0,0,0,0,0,0,0,0,0,0,0,0,0,0,0,0,0,0,0" 
class="s7_134"
>There are various statistical tests for normality, but even plotting the data is a good start.</text>



<!-- Any embedded fonts defined here -->
<style type="text/css" ><![CDATA[

@font-face {
	font-family: LiberationMono_1q;
	src: url("fonts/LiberationMono_1q.woff") format("woff");
}

@font-face {
	font-family: LiberationMono-Italic_10;
	src: url("fonts/LiberationMono-Italic_10.woff") format("woff");
}

@font-face {
	font-family: LiberationSerif_e;
	src: url("fonts/LiberationSerif_e.woff") format("woff");
}

@font-face {
	font-family: LiberationSerif-Bold_b;
	src: url("fonts/LiberationSerif-Bold_b.woff") format("woff");
}

]]></style>

</svg>
