<?xml version="1.0" encoding="UTF-8" standalone="no"?>
<!DOCTYPE svg PUBLIC "-//W3C//DTD SVG 1.1//EN"
"http://www.w3.org/Graphics/SVG/1.1/DTD/svg11.dtd">


<!-- Page 137 -->
<svg x="0" y="0" width="909" height="1286" viewBox="0 0 909 1286" version="1.1" xmlns="http://www.w3.org/2000/svg" xmlns:xlink="http://www.w3.org/1999/xlink"
style="display: block;margin-left: auto;margin-right: auto;">
<defs>

<style type="text/css"><![CDATA[

.g1_137{
fill: #BEBEBE;
}

.s1_137{
font-size: 30.81px;
font-family: LiberationSerif-Bold_b;
fill: #8E0012;
}
.s2_137{
font-size: 22.01px;
font-family: LiberationSerif_e;
fill: #000000;
}
.s3_137{
font-size: 22.01px;
font-family: LiberationSerif-Italic_l;
fill: #000000;
}
.s4_137{
font-size: 13.20px;
font-family: LiberationMono-Bold_1w;
fill: #006699;
}
.s5_137{
font-size: 13.20px;
font-family: LiberationMono_1q;
fill: #CC00FF;
}
.s6_137{
font-size: 13.20px;
font-family: LiberationMono_1q;
fill: #000000;
}
.s7_137{
font-size: 13.20px;
font-family: LiberationMono_1q;
fill: #000088;
}
.s8_137{
font-size: 13.20px;
font-family: LiberationMono_1q;
fill: #FF6600;
}
.s9_137{
font-size: 22.01px;
font-family: LiberationSerif-Bold_b;
fill: #737373;
}
.s10_137{
font-size: 16.50px;
font-family: LiberationSerif_e;
fill: #000000;
}
.s11_137{
font-size: 16.50px;
font-family: LiberationSerif-Italic_l;
fill: #000000;
}

]]></style>

</defs>
<path d="M0,0
L0,1286
L909,1286
L909,0 Z " 
fill="#FFFFFF" stroke="none" />
<path fill-rule="evenodd" d="M93.5,839.5l722.5,0c3,0,5.5,2.5,5.5,5.5l0,96.8c0,3.1,-2.5,5.5,-5.5,5.5l-722.5,0c-3,0,-5.5,-2.4,-5.5,-5.5L88,845c0,-3,2.5,-5.5,5.5,-5.5m0,1.1l722.5,0c2.4,0,4.4,2,4.4,4.4l0,96.8c0,2.5,-2,4.4,-4.4,4.4l-722.5,0c-2.4,0,-4.4,-1.9,-4.4,-4.4l0,-96.8c0,-2.4,2,-4.4,4.4,-4.4Z" class="g1_137" />
<text 
x="55" 
y="81" 
dx="0,0,0,0,0,0,0,0,0,0,0,0,0,0,0,0,0,0,0,0,0,0,0,0,0,-2.8,0,0" 
class="s1_137"
>Example: Running an A/B Test</text>

<text 
x="55" 
y="122" 
class="s2_137"
>One of your primary responsibilities at DataSciencester is experience optimization, which</text>

<text 
x="55" 
y="149" 
class="s2_137"
>is a euphemism for trying to get people to click on advertisements. One of your advertisers</text>

<text 
x="55" 
y="177" 
dx="0,0,0,0,0,0,0,0,0,0,0,0,0,0,0,0,0,0,0,0,0,0,0,0,-0.4,0,0,0,0,0,0,0,0,0,0,0,-0.4,0,0,0,0,0,0,0,0,0,0,0,0,0,0,0,0,0,0,0,0,0,0,0,0,0,0,0,0,0,0,0,0,0,0,0,0,-0.8,0" 
class="s2_137"
>has developed a new energy drink targeted at data scientists, and the VP of</text>

<text 
x="55" 
y="204" 
dx="0,0,0,0,0,0,0,0,0,0,0,0,0,0,0,0,0,0,0,0,0,0,0,0,0,0,0,0,0,0,0,0,0,0,0,0,0,0,0,0,0,0,0,0,0,0,0,0,0,0,0,0,0,0,0,0,0,0,0,0,0,0,0,0,-1.2,0,0,0,0,0,0,0,0,0,0,0,0,0,0,0,0,0,0,0,0" 
class="s2_137"
>Advertisements wants your help choosing between advertisement A (“tastes great!”) and</text>

<text 
x="55" 
y="232" 
class="s2_137"
>advertisement B (“less bias!”).</text>

<text 
x="55" 
y="270" 
class="s2_137"
>Being a</text>

<text 
x="128" 
y="270" 
class="s3_137"
>scientist</text>

<text 
x="200" 
y="270" 
class="s2_137"
>, you decide to run an</text>

<text 
x="396" 
y="270" 
class="s3_137"
>experiment</text>

<text 
x="499" 
y="270" 
class="s2_137"
>by randomly showing site visitors one</text>

<text 
x="55" 
y="298" 
class="s2_137"
>of the two advertisements and tracking how many people click on each one.</text>

<text 
x="55" 
y="336" 
class="s2_137"
>If 990 out of 1,000 A-viewers click their ad while only 10 out of 1,000 B-viewers click</text>

<text 
x="55" 
y="364" 
dx="0,0,0,0,0,0,0,0,0,0,0,0,0,0,0,0,0,0,0,0,0,0,0,0,0,0,0,0,0,0,0,0,0,0,0,0,0,0,0,0,0,0,0,0,0,-1.2,0,0,0,0,0,0,0,0,0,0,0,0,0,0,0,0,0,0,0,0,0,0,0,0,0,0,0,0,0,0,0,0,0,0,0,0,-0.4,0,0,0,0,0,0,0,0,0,0,0" 
class="s2_137"
>their ad, you can be pretty confident that A is the better ad. But what if the differences are</text>

<text 
x="55" 
y="391" 
dx="0,0,0,0,0,0,0,0,0,0,0,0,0,0,0,0,0,0,0,-1.2,0,0,0,0,0,0,0,0,0,0,0,0,0,0,0,0,0,0,0,0,0,0,0,0,0,0,0,0,0,0,0,0,0,0,0,0,0,0,0" 
class="s2_137"
>not so stark? Here’s where you’d use statistical inference.</text>

<text 
x="55" 
y="434" 
dx="0,0,0,0,-1.2,0,0,0,0,0,0,0,0,0" 
class="s2_137"
>Let’s say that</text>

<image preserveAspectRatio="none" x="178" y="409" width="31" height="26" xlink:href="137/img/1.png" />
<text 
x="213" 
y="434" 
class="s2_137"
>people see ad A, and that</text>

<image preserveAspectRatio="none" x="441" y="415" width="25" height="20" xlink:href="137/img/2.png" />
<text 
x="471" 
y="434" 
dx="0,0,0,0,0,0,0,0,0,0,0,0,0,0,0,0,0,0,0,-1.8,0,0,0,0,0,0,0,0,0,0,0,0,0,0,0,0,0,0,0,0,0" 
class="s2_137"
>of them click it. We can think of each ad</text>

<text 
x="55" 
y="462" 
class="s2_137"
>view as a Bernoulli trial where</text>

<image preserveAspectRatio="none" x="331" y="441" width="25" height="21" xlink:href="137/img/3.png" />
<text 
x="361" 
y="462" 
class="s2_137"
>is the probability that someone clicks ad A. Then (if</text>

<image preserveAspectRatio="none" x="55" y="471" width="31" height="25" xlink:href="137/img/4.png" />
<text 
x="91" 
y="496" 
dx="0,0,0,0,0,0,-0.4,0,0,0,0,0,0,0,0,0,0,0,0,0,0,0,0,0,0,0,0,0,0,0,0,0,0,0,0,0,0,0,0,0" 
class="s2_137"
>is large, which it is here) we know that</text>

<image preserveAspectRatio="none" x="438" y="469" width="78" height="27" xlink:href="137/img/5.png" />
<text 
x="521" 
y="496" 
class="s2_137"
>is approximately a normal random</text>

<text 
x="55" 
y="532" 
class="s2_137"
>variable with mean</text>

<image preserveAspectRatio="none" x="229" y="512" width="25" height="21" xlink:href="137/img/6.png" />
<text 
x="259" 
y="532" 
class="s2_137"
>and standard deviation</text>

<image preserveAspectRatio="none" x="464" y="503" width="224" height="30" xlink:href="137/img/7.png" />
<text 
x="688" 
y="532" 
class="s2_137"
>.</text>

<text 
x="55" 
y="577" 
dx="0,0,0,0,0,0,0,0,0,-1.4" 
class="s2_137"
>Similarly,</text>

<image preserveAspectRatio="none" x="146" y="550" width="77" height="28" xlink:href="137/img/8.png" />
<text 
x="228" 
y="577" 
class="s2_137"
>is approximately a normal random variable with mean</text>

<image preserveAspectRatio="none" x="711" y="558" width="25" height="20" xlink:href="137/img/9.png" />
<text 
x="740" 
y="577" 
class="s2_137"
>and standard</text>

<text 
x="55" 
y="613" 
class="s2_137"
>deviation</text>

<image preserveAspectRatio="none" x="142" y="584" width="221" height="30" xlink:href="137/img/10.png" />
<text 
x="363" 
y="613" 
class="s2_137"
>:</text>

<text 
x="76" 
y="659" 
class="s4_137"
>def</text>

<text 
x="108" 
y="659" 
class="s5_137"
>estimated_parameters</text>

<text 
x="266" 
y="659" 
class="s6_137"
>(</text>

<text 
x="274" 
y="659" 
class="s7_137"
>N</text>

<text 
x="282" 
y="659" 
class="s6_137"
>,</text>

<text 
x="298" 
y="659" 
class="s7_137"
>n</text>

<text 
x="306" 
y="659" 
class="s6_137"
>):</text>

<text 
x="108" 
y="674" 
class="s7_137"
>p</text>

<text 
x="124" 
y="674" 
class="s6_137"
>=</text>

<text 
x="140" 
y="674" 
class="s7_137"
>n</text>

<text 
x="156" 
y="674" 
class="s6_137"
>/</text>

<text 
x="171" 
y="674" 
class="s7_137"
>N</text>

<text 
x="108" 
y="689" 
class="s7_137"
>sigma</text>

<text 
x="156" 
y="689" 
class="s6_137"
>=</text>

<text 
x="171" 
y="689" 
class="s7_137"
>math</text>

<text 
x="203" 
y="689" 
class="s6_137"
>.</text>

<text 
x="211" 
y="689" 
class="s7_137"
>sqrt</text>

<text 
x="242" 
y="689" 
class="s6_137"
>(</text>

<text 
x="250" 
y="689" 
class="s7_137"
>p</text>

<text 
x="266" 
y="689" 
dx="0,0,4.6" 
class="s6_137"
>* (</text>

<text 
x="290" 
y="689" 
class="s8_137"
>1</text>

<text 
x="306" 
y="689" 
class="s6_137"
>-</text>

<text 
x="322" 
y="689" 
class="s7_137"
>p</text>

<text 
x="329" 
y="689" 
dx="0,0,4.6" 
class="s6_137"
>) /</text>

<text 
x="361" 
y="689" 
class="s7_137"
>N</text>

<text 
x="369" 
y="689" 
class="s6_137"
>)</text>

<text 
x="108" 
y="705" 
class="s4_137"
>return</text>

<text 
x="163" 
y="705" 
class="s7_137"
>p</text>

<text 
x="171" 
y="705" 
class="s6_137"
>,</text>

<text 
x="187" 
y="705" 
class="s7_137"
>sigma</text>

<text 
x="55" 
y="758" 
class="s2_137"
>If we assume those two normals are independent (which seems reasonable, since the</text>

<text 
x="55" 
y="785" 
dx="0,0,0,0,0,0,0,0,0,0,0,0,0,0,0,0,0,0,0,0,0,0,0,0,0,0,0,0,0,0,0,0,0,0,0,0,0,0,0,0,0,0,0,0,0,0,0,0,0,0,0,0,0,0,0,0,-0.4,0,0,0,0,0,0,0,0,0,0,0,0,0,0,0,0,0,0,0,0,0,0,0,0,0,0,0,0,0,0,0,0,0" 
class="s2_137"
>individual Bernoulli trials ought to be), then their difference should also be normal with</text>

<text 
x="55" 
y="821" 
class="s2_137"
>mean</text>

<image preserveAspectRatio="none" x="108" y="801" width="80" height="21" xlink:href="137/img/11.png" />
<text 
x="193" 
y="821" 
class="s2_137"
>and standard deviation</text>

<image preserveAspectRatio="none" x="398" y="792" width="88" height="30" xlink:href="137/img/12.png" />
<text 
x="486" 
y="821" 
class="s2_137"
>.</text>

<text 
x="421" 
y="864" 
dx="0,1.1,1.1,1.1" 
class="s9_137"
>NOTE</text>

<text 
x="97" 
y="894" 
class="s10_137"
>This is sort of cheating. The math only works out exactly like this if you</text>

<text 
x="578" 
y="894" 
class="s11_137"
>know</text>

<text 
x="617" 
y="894" 
class="s10_137"
>the standard deviations. Here</text>

<text 
x="97" 
y="914" 
class="s10_137"
>we’re estimating them from the data, which means that we really should be using a</text>

<text 
x="649" 
y="914" 
class="s11_137"
>t</text>

<text 
x="653" 
y="914" 
class="s10_137"
>-distribution. But for</text>

<text 
x="97" 
y="934" 
dx="0,0,0,-0.3,0,0,0,0,0,0,0,0,0,0,0,0,0,0,0,0,0,0,0,0,0,0,0,-0.9,0,0,0,0,0,0,0,0,0,0,0,0,0,0,0,0,0,0,0,0,0,0,0,0,0,0,0,0,-0.3,0,0,0,0,0,0,0,0,0,0,0,0,0,0,0,0,0,0,0,-0.3,0,0,0,0,0,0,0" 
class="s10_137"
>large enough data sets, it’s close enough that it doesn’t make much of a difference.</text>

<text 
x="55" 
y="979" 
class="s2_137"
>This means we can test the</text>

<text 
x="296" 
y="979" 
class="s3_137"
>null hypothesis</text>

<text 
x="434" 
y="979" 
class="s2_137"
>that</text>

<image preserveAspectRatio="none" x="473" y="958" width="25" height="21" xlink:href="137/img/13.png" />
<text 
x="504" 
y="979" 
class="s2_137"
>and</text>

<image preserveAspectRatio="none" x="541" y="959" width="24" height="20" xlink:href="137/img/14.png" />
<text 
x="570" 
y="979" 
class="s2_137"
>are the same (that is, that</text>

<image preserveAspectRatio="none" x="55" y="986" width="80" height="21" xlink:href="137/img/15.png" />
<text 
x="140" 
y="1006" 
class="s2_137"
>is zero), using the statistic:</text>

<text 
x="76" 
y="1051" 
class="s4_137"
>def</text>

<text 
x="108" 
y="1051" 
class="s5_137"
>a_b_test_statistic</text>

<text 
x="250" 
y="1051" 
class="s6_137"
>(</text>

<text 
x="258" 
y="1051" 
class="s7_137"
>N_A</text>

<text 
x="282" 
y="1051" 
class="s6_137"
>,</text>

<text 
x="298" 
y="1051" 
class="s7_137"
>n_A</text>

<text 
x="322" 
y="1051" 
class="s6_137"
>,</text>

<text 
x="337" 
y="1051" 
class="s7_137"
>N_B</text>

<text 
x="361" 
y="1051" 
class="s6_137"
>,</text>

<text 
x="377" 
y="1051" 
class="s7_137"
>n_B</text>

<text 
x="401" 
y="1051" 
class="s6_137"
>):</text>

<text 
x="108" 
y="1067" 
class="s7_137"
>p_A</text>

<text 
x="132" 
y="1067" 
class="s6_137"
>,</text>

<text 
x="148" 
y="1067" 
class="s7_137"
>sigma_A</text>

<text 
x="211" 
y="1067" 
class="s6_137"
>=</text>

<text 
x="227" 
y="1067" 
class="s7_137"
>estimated_parameters</text>

<text 
x="385" 
y="1067" 
class="s6_137"
>(</text>

<text 
x="393" 
y="1067" 
class="s7_137"
>N_A</text>

<text 
x="416" 
y="1067" 
class="s6_137"
>,</text>

<text 
x="432" 
y="1067" 
class="s7_137"
>n_A</text>

<text 
x="456" 
y="1067" 
class="s6_137"
>)</text>

<text 
x="108" 
y="1082" 
class="s7_137"
>p_B</text>

<text 
x="132" 
y="1082" 
class="s6_137"
>,</text>

<text 
x="148" 
y="1082" 
class="s7_137"
>sigma_B</text>

<text 
x="211" 
y="1082" 
class="s6_137"
>=</text>

<text 
x="227" 
y="1082" 
class="s7_137"
>estimated_parameters</text>

<text 
x="385" 
y="1082" 
class="s6_137"
>(</text>

<text 
x="393" 
y="1082" 
class="s7_137"
>N_B</text>

<text 
x="416" 
y="1082" 
class="s6_137"
>,</text>

<text 
x="432" 
y="1082" 
class="s7_137"
>n_B</text>

<text 
x="456" 
y="1082" 
class="s6_137"
>)</text>

<text 
x="108" 
y="1098" 
class="s4_137"
>return</text>

<text 
x="163" 
y="1098" 
class="s6_137"
>(</text>

<text 
x="171" 
y="1098" 
class="s7_137"
>p_B</text>

<text 
x="203" 
y="1098" 
class="s6_137"
>-</text>

<text 
x="219" 
y="1098" 
class="s7_137"
>p_A</text>

<text 
x="242" 
y="1098" 
dx="0,0,4.6" 
class="s6_137"
>) /</text>

<text 
x="274" 
y="1098" 
class="s7_137"
>math</text>

<text 
x="306" 
y="1098" 
class="s6_137"
>.</text>

<text 
x="314" 
y="1098" 
class="s7_137"
>sqrt</text>

<text 
x="345" 
y="1098" 
class="s6_137"
>(</text>

<text 
x="353" 
y="1098" 
class="s7_137"
>sigma_A</text>

<text 
x="416" 
y="1098" 
class="s6_137"
>**</text>

<text 
x="440" 
y="1098" 
class="s8_137"
>2</text>

<text 
x="456" 
y="1098" 
class="s6_137"
>+</text>

<text 
x="472" 
y="1098" 
class="s7_137"
>sigma_B</text>

<text 
x="535" 
y="1098" 
class="s6_137"
>**</text>

<text 
x="559" 
y="1098" 
class="s8_137"
>2</text>

<text 
x="567" 
y="1098" 
class="s6_137"
>)</text>

<text 
x="55" 
y="1150" 
class="s2_137"
>which should approximately be a standard normal.</text>

<text 
x="55" 
y="1189" 
class="s2_137"
>For example, if “tastes great” gets 200 clicks out of 1,000 views and “less bias” gets 180</text>

<text 
x="55" 
y="1216" 
class="s2_137"
>clicks out of 1,000 views, the statistic equals:</text>



<!-- Any embedded fonts defined here -->
<style type="text/css" ><![CDATA[

@font-face {
	font-family: LiberationSerif-Italic_l;
	src: url("fonts/LiberationSerif-Italic_l.woff") format("woff");
}

@font-face {
	font-family: LiberationMono-Bold_1w;
	src: url("fonts/LiberationMono-Bold_1w.woff") format("woff");
}

@font-face {
	font-family: LiberationMono_1q;
	src: url("fonts/LiberationMono_1q.woff") format("woff");
}

@font-face {
	font-family: LiberationSerif-Bold_b;
	src: url("fonts/LiberationSerif-Bold_b.woff") format("woff");
}

@font-face {
	font-family: LiberationSerif_e;
	src: url("fonts/LiberationSerif_e.woff") format("woff");
}

]]></style>

</svg>
