<?xml version="1.0" encoding="UTF-8" standalone="no"?>
<!DOCTYPE svg PUBLIC "-//W3C//DTD SVG 1.1//EN"
"http://www.w3.org/Graphics/SVG/1.1/DTD/svg11.dtd">


<!-- Page 15 -->
<svg x="0" y="0" width="909" height="1286" viewBox="0 0 909 1286" version="1.1" xmlns="http://www.w3.org/2000/svg" xmlns:xlink="http://www.w3.org/1999/xlink"
style="display: block;margin-left: auto;margin-right: auto;">
<defs>

<style type="text/css"><![CDATA[

.g1_15{
stroke: #000000;
stroke-width: 1.0996486;
stroke-linecap: square;
stroke-linejoin: miter;
}

.s1_15{
font-size: 30.81px;
font-family: LiberationSerif-Bold_b;
fill: #8E0012;
}
.s2_15{
font-size: 22.01px;
font-family: LiberationSerif_e;
fill: #000000;
}
.s3_15{
font-size: 22.01px;
font-family: LiberationSerif-Italic_l;
fill: #8E0012;
}

]]></style>

</defs>
<path d="M0,0
L0,1286
L909,1286
L909,0 Z " 
fill="#FFFFFF" stroke="none" />
<text 
x="55" 
y="81" 
class="s1_15"
>How to Contact Us</text>

<text 
x="55" 
y="122" 
class="s2_15"
>Please address comments and questions concerning this book to the publisher:</text>

<path d="M61.6,149.6l6.6,0l0,6.6l-6.6,0l0,-6.6Z" class="g1_15" />
<text 
x="82" 
y="159" 
class="s2_15"
>O’Reilly Media, Inc.</text>

<path d="M61.6,196.9l6.6,0l0,6.6l-6.6,0l0,-6.6Z" class="g1_15" />
<text 
x="82" 
y="206" 
class="s2_15"
>1005 Gravenstein Highway North</text>

<path d="M61.6,244.3l6.6,0l0,6.6l-6.6,0l0,-6.6Z" class="g1_15" />
<text 
x="82" 
y="254" 
dx="0,0,0,0,0,0,0,0,0,0,0,0,0,0,0,-1.2,0,0,0,0" 
class="s2_15"
>Sebastopol, CA 95472</text>

<path d="M61.6,291.6l6.6,0l0,6.6l-6.6,0l0,-6.6Z" class="g1_15" />
<text 
x="82" 
y="301" 
class="s2_15"
>800-998-9938 (in the United States or Canada)</text>

<path d="M61.6,338.9l6.6,0l0,6.6l-6.6,0l0,-6.6Z" class="g1_15" />
<text 
x="82" 
y="348" 
class="s2_15"
>707-829-0515 (international or local)</text>

<path d="M61.6,386.2l6.6,0l0,6.6l-6.6,0l0,-6.6Z" class="g1_15" />
<text 
x="82" 
y="396" 
class="s2_15"
>707-829-0104 (fax)</text>

<text 
x="55" 
y="444" 
dx="0,-1.8,0,0,0,0,0,0,0,0,0,0,0,0,0,0,0,0,0,0,0,0,0,0,0,0,0,0,0,0,0,0,0,0,0,0,0,0,0,0,0,0,0,0,0,0,0,0,0,0,0,0,0,0,0,0,0,0,0,0,0,0,0,0,0,0,0,0,0,0,0,0,0,0,0,0,0,0,0,0,0,0,0,0" 
class="s2_15"
>We have a web page for this book, where we list errata, examples, and any additional</text>

<text 
x="55" 
y="472" 
dx="0,0,0,0,0,0,0,0,0,0,0,0,0,0,-2.2,0,0,0,0,0,0,0,0,0,0,0,0,0,0,0,0,0,0,0,0,0,0,0,0,0" 
class="s2_15"
>information. You can access this page at</text>

<text 
x="414" 
y="472" 
dx="0,0,0,0,0,0,0,0,0,0,0,0,0,0,0,0,0,0,0,0,0,0,0,0,0,0,0,0,0,-0.8,0,0,0,0,0,0,0,0,0" 
class="s3_15"
>http://bit.ly/data-science-from-scratch</text>

<text 
x="749" 
y="472" 
class="s2_15"
>.</text>

<text 
x="55" 
y="510" 
dx="0,-1.6,0,0,0,0,0,0,0,0,0,0,0,0,0,0,0,0,0,0,0,0,0,0,0,0,0,0,0,0,0,0,0,0,0,0,0,0,0,0,0,0,0,0,0,0,0,0,0,0,0,0,0,0,0,0,0,0,0,0,0,0,0,0,0,0,0,0" 
class="s2_15"
>To comment or ask technical questions about this book, send email to</text>

<text 
x="55" 
y="538" 
dx="0,0,0,0,0,0,0,0,0,0,0,0,0,0,0,0,-0.8,0,0,0,0,-1.2,0,0,0" 
class="s3_15"
>bookquestions@oreilly.com</text>

<text 
x="298" 
y="538" 
class="s2_15"
>.</text>

<text 
x="55" 
y="576" 
class="s2_15"
>For more information about our books, courses, conferences, and news, see our website at</text>

<text 
x="55" 
y="604" 
dx="0,0,0,0,0,0,0,0,0,0,-1.6,0,0,-0.8,0,0,0,0,-1.2,0,0,0" 
class="s3_15"
>http://www.oreilly.com</text>

<text 
x="254" 
y="604" 
class="s2_15"
>.</text>

<text 
x="55" 
y="642" 
class="s2_15"
>Find us on Facebook:</text>

<text 
x="250" 
y="642" 
dx="0,0,0,0,0,0,0,0,0,0,0,0,0,0,0,0,0,0,0,0,0,0,-0.8,0,0,0,0" 
class="s3_15"
>http://facebook.com/oreilly</text>

<text 
x="55" 
y="681" 
dx="0,0,0,0,0,0,0,0,0,0,0,0,0,0,-1.6,0,0,0,0,0,0" 
class="s2_15"
>Follow us on Twitter:</text>

<text 
x="250" 
y="681" 
dx="0,0,0,0,0,0,0,0,0,0,0,0,0,0,-2.4,0,0,0,0,0,0,-0.8,0,0,0,0,0,0,0,0,0" 
class="s3_15"
>http://twitter.com/oreillymedia</text>

<text 
x="55" 
y="719" 
dx="0,-1.8,0,0,0,0,0,0,0,0,0,0,0,-2.2,0,0,-0.8,0,0,0" 
class="s2_15"
>Watch us on YouTube:</text>

<text 
x="260" 
y="719" 
dx="0,0,0,0,0,0,0,0,0,0,-1.6,0,0,0,0,0,0,0,0,0,0,0,0,0,0,-0.8,0,0,0,0,0,0,0,0,0" 
class="s3_15"
>http://www.youtube.com/oreillymedia</text>



<!-- Any embedded fonts defined here -->
<style type="text/css" ><![CDATA[

@font-face {
	font-family: LiberationSerif-Italic_l;
	src: url("fonts/LiberationSerif-Italic_l.woff") format("woff");
}

@font-face {
	font-family: LiberationSerif-Bold_b;
	src: url("fonts/LiberationSerif-Bold_b.woff") format("woff");
}

@font-face {
	font-family: LiberationSerif_e;
	src: url("fonts/LiberationSerif_e.woff") format("woff");
}

]]></style>

</svg>
