<?xml version="1.0" encoding="UTF-8" standalone="no"?>
<!DOCTYPE svg PUBLIC "-//W3C//DTD SVG 1.1//EN"
"http://www.w3.org/Graphics/SVG/1.1/DTD/svg11.dtd">


<!-- Page 153 -->
<svg x="0" y="0" width="909" height="1286" viewBox="0 0 909 1286" version="1.1" xmlns="http://www.w3.org/2000/svg" xmlns:xlink="http://www.w3.org/1999/xlink"
style="display: block;margin-left: auto;margin-right: auto;">
<defs>

<style type="text/css"><![CDATA[


.s1_153{
font-size: 13.20px;
font-family: LiberationMono-Bold_1w;
fill: #006699;
}
.s2_153{
font-size: 13.20px;
font-family: LiberationMono_1q;
fill: #CC00FF;
}
.s3_153{
font-size: 13.20px;
font-family: LiberationMono_1q;
fill: #000000;
}
.s4_153{
font-size: 13.20px;
font-family: LiberationMono_1q;
fill: #000088;
}
.s5_153{
font-size: 13.20px;
font-family: LiberationMono_1q;
fill: #FF6600;
}

]]></style>

</defs>
<path d="M0,0
L0,1286
L909,1286
L909,0 Z " 
fill="#FFFFFF" stroke="none" />
<text 
x="76" 
y="64" 
class="s1_153"
>def</text>

<text 
x="108" 
y="64" 
class="s2_153"
>maximize_stochastic</text>

<text 
x="258" 
y="64" 
class="s3_153"
>(</text>

<text 
x="266" 
y="64" 
class="s4_153"
>target_fn</text>

<text 
x="337" 
y="64" 
class="s3_153"
>,</text>

<text 
x="353" 
y="64" 
class="s4_153"
>gradient_fn</text>

<text 
x="440" 
y="64" 
class="s3_153"
>,</text>

<text 
x="456" 
y="64" 
class="s4_153"
>x</text>

<text 
x="464" 
y="64" 
class="s3_153"
>,</text>

<text 
x="480" 
y="64" 
class="s4_153"
>y</text>

<text 
x="487" 
y="64" 
class="s3_153"
>,</text>

<text 
x="503" 
y="64" 
class="s4_153"
>theta_0</text>

<text 
x="559" 
y="64" 
class="s3_153"
>,</text>

<text 
x="574" 
y="64" 
class="s4_153"
>alpha_0</text>

<text 
x="630" 
y="64" 
class="s3_153"
>=</text>

<text 
x="638" 
y="64" 
class="s5_153"
>0.01</text>

<text 
x="669" 
y="64" 
class="s3_153"
>):</text>

<text 
x="108" 
y="80" 
class="s1_153"
>return</text>

<text 
x="163" 
y="80" 
class="s4_153"
>minimize_stochastic</text>

<text 
x="314" 
y="80" 
class="s3_153"
>(</text>

<text 
x="322" 
y="80" 
class="s4_153"
>negate</text>

<text 
x="369" 
y="80" 
class="s3_153"
>(</text>

<text 
x="377" 
y="80" 
class="s4_153"
>target_fn</text>

<text 
x="448" 
y="80" 
class="s3_153"
>),</text>

<text 
x="322" 
y="95" 
class="s4_153"
>negate_all</text>

<text 
x="401" 
y="95" 
class="s3_153"
>(</text>

<text 
x="408" 
y="95" 
class="s4_153"
>gradient_fn</text>

<text 
x="495" 
y="95" 
class="s3_153"
>),</text>

<text 
x="322" 
y="111" 
class="s4_153"
>x</text>

<text 
x="329" 
y="111" 
class="s3_153"
>,</text>

<text 
x="345" 
y="111" 
class="s4_153"
>y</text>

<text 
x="353" 
y="111" 
class="s3_153"
>,</text>

<text 
x="369" 
y="111" 
class="s4_153"
>theta_0</text>

<text 
x="424" 
y="111" 
class="s3_153"
>,</text>

<text 
x="440" 
y="111" 
class="s4_153"
>alpha_0</text>

<text 
x="495" 
y="111" 
class="s3_153"
>)</text>



<!-- Any embedded fonts defined here -->
<style type="text/css" ><![CDATA[

@font-face {
	font-family: LiberationMono-Bold_1w;
	src: url("fonts/LiberationMono-Bold_1w.woff") format("woff");
}

@font-face {
	font-family: LiberationMono_1q;
	src: url("fonts/LiberationMono_1q.woff") format("woff");
}

]]></style>

</svg>
