<?xml version="1.0" encoding="UTF-8" standalone="no"?>
<!DOCTYPE svg PUBLIC "-//W3C//DTD SVG 1.1//EN"
"http://www.w3.org/Graphics/SVG/1.1/DTD/svg11.dtd">


<!-- Page 162 -->
<svg x="0" y="0" width="909" height="1286" viewBox="0 0 909 1286" version="1.1" xmlns="http://www.w3.org/2000/svg" xmlns:xlink="http://www.w3.org/1999/xlink"
style="display: block;margin-left: auto;margin-right: auto;">
<defs>

<style type="text/css"><![CDATA[


.s1_162{
font-size: 22.01px;
font-family: LiberationSerif_e;
fill: #000000;
}
.s2_162{
font-size: 17.60px;
font-family: LiberationMono_1q;
fill: #000000;
}
.s3_162{
font-size: 13.20px;
font-family: LiberationMono_1q;
fill: #000088;
}
.s4_162{
font-size: 13.20px;
font-family: LiberationMono_1q;
fill: #000000;
}
.s5_162{
font-size: 13.20px;
font-family: LiberationMono_1q;
fill: #CC3300;
}
.s6_162{
font-size: 13.20px;
font-family: LiberationMono_1q;
fill: #FF6600;
}
.s7_162{
font-size: 13.20px;
font-family: LiberationMono-Bold_1w;
fill: #006699;
}
.s8_162{
font-size: 13.20px;
font-family: LiberationMono_1q;
fill: #336666;
}
.s9_162{
font-size: 13.20px;
font-family: LiberationMono-Bold_1w;
fill: #000000;
}
.s10_162{
font-size: 13.20px;
font-family: LiberationMono-Italic_10;
fill: #0099FF;
}
.s11_162{
font-size: 13.20px;
font-family: LiberationMono-Bold_1w;
fill: #CC3300;
}

]]></style>

</defs>
<path d="M0,0
L0,1286
L909,1286
L909,0 Z " 
fill="#FFFFFF" stroke="none" />
<text 
x="55" 
y="74" 
dx="0,0,0,0,0,0,0,0,0,0,0,0,0,0,0,0,0,0,0,0,0,0,0,0,-0.4,0,0,0,0,0,0,0,0,0,0,0,0,0,0,0,0,0,0,0,0,0,0,0,0,0,0,0,0,0,0,0" 
class="s1_162"
>Even if your file doesn’t have headers you can still use</text>

<text 
x="542" 
y="74" 
class="s2_162"
>DictReader</text>

<text 
x="653" 
y="74" 
class="s1_162"
>by passing it the keys</text>

<text 
x="55" 
y="104" 
class="s1_162"
>as a</text>

<text 
x="94" 
y="104" 
class="s2_162"
>fieldnames</text>

<text 
x="205" 
y="104" 
dx="0,0,0,0,0,0,0,0,0,-1.2" 
class="s1_162"
>parameter.</text>

<text 
x="55" 
y="145" 
dx="0,-2.2,0,0,0,0,0,0,0,0,0,0,0,0,0,0,0,0,0,0,0,0,0,0,0,0,0,0,0,0,0,0,0,0,0,0,0,0,0,0,0,0,0,0,0,0,0,0" 
class="s1_162"
>You can similarly write out delimited data using</text>

<text 
x="483" 
y="145" 
class="s2_162"
>csv.writer</text>

<text 
x="589" 
y="145" 
class="s1_162"
>:</text>

<text 
x="76" 
y="192" 
class="s3_162"
>today_prices</text>

<text 
x="179" 
y="192" 
dx="0,0,4.6" 
class="s4_162"
>= {</text>

<text 
x="211" 
y="192" 
class="s5_162"
>'AAPL'</text>

<text 
x="266" 
y="192" 
class="s4_162"
>:</text>

<text 
x="282" 
y="192" 
class="s6_162"
>90.91</text>

<text 
x="322" 
y="192" 
class="s4_162"
>,</text>

<text 
x="337" 
y="192" 
class="s5_162"
>'MSFT'</text>

<text 
x="393" 
y="192" 
class="s4_162"
>:</text>

<text 
x="408" 
y="192" 
class="s6_162"
>41.68</text>

<text 
x="448" 
y="192" 
class="s4_162"
>,</text>

<text 
x="464" 
y="192" 
class="s5_162"
>'FB'</text>

<text 
x="503" 
y="192" 
class="s4_162"
>:</text>

<text 
x="519" 
y="192" 
class="s6_162"
>64.5</text>

<text 
x="559" 
y="192" 
class="s4_162"
>}</text>

<text 
x="76" 
y="223" 
class="s7_162"
>with</text>

<text 
x="116" 
y="223" 
class="s8_162"
>open</text>

<text 
x="148" 
y="223" 
class="s4_162"
>(</text>

<text 
x="156" 
y="223" 
class="s5_162"
>'comma_delimited_stock_prices.txt'</text>

<text 
x="424" 
y="223" 
class="s4_162"
>,</text>

<text 
x="432" 
y="223" 
class="s5_162"
>'wb'</text>

<text 
x="464" 
y="223" 
class="s4_162"
>)</text>

<text 
x="480" 
y="223" 
class="s7_162"
>as</text>

<text 
x="503" 
y="223" 
class="s3_162"
>f</text>

<text 
x="511" 
y="223" 
class="s4_162"
>:</text>

<text 
x="108" 
y="238" 
class="s3_162"
>writer</text>

<text 
x="163" 
y="238" 
class="s4_162"
>=</text>

<text 
x="179" 
y="238" 
class="s3_162"
>csv</text>

<text 
x="203" 
y="238" 
class="s4_162"
>.</text>

<text 
x="211" 
y="238" 
class="s3_162"
>writer</text>

<text 
x="258" 
y="238" 
class="s4_162"
>(</text>

<text 
x="266" 
y="238" 
class="s3_162"
>f</text>

<text 
x="274" 
y="238" 
class="s4_162"
>,</text>

<text 
x="290" 
y="238" 
class="s3_162"
>delimiter</text>

<text 
x="361" 
y="238" 
class="s4_162"
>=</text>

<text 
x="369" 
y="238" 
class="s5_162"
>','</text>

<text 
x="393" 
y="238" 
class="s4_162"
>)</text>

<text 
x="108" 
y="254" 
class="s7_162"
>for</text>

<text 
x="140" 
y="254" 
class="s3_162"
>stock</text>

<text 
x="179" 
y="254" 
class="s4_162"
>,</text>

<text 
x="195" 
y="254" 
class="s3_162"
>price</text>

<text 
x="242" 
y="254" 
class="s9_162"
>in</text>

<text 
x="266" 
y="254" 
class="s3_162"
>today_prices</text>

<text 
x="361" 
y="254" 
class="s4_162"
>.</text>

<text 
x="369" 
y="254" 
class="s3_162"
>items</text>

<text 
x="408" 
y="254" 
class="s4_162"
>():</text>

<text 
x="140" 
y="269" 
class="s3_162"
>writer</text>

<text 
x="187" 
y="269" 
class="s4_162"
>.</text>

<text 
x="195" 
y="269" 
class="s3_162"
>writerow</text>

<text 
x="258" 
y="269" 
class="s4_162"
>([</text>

<text 
x="274" 
y="269" 
class="s3_162"
>stock</text>

<text 
x="314" 
y="269" 
class="s4_162"
>,</text>

<text 
x="329" 
y="269" 
class="s3_162"
>price</text>

<text 
x="369" 
y="269" 
class="s4_162"
>])</text>

<text 
x="55" 
y="322" 
class="s2_162"
>csv.writer</text>

<text 
x="165" 
y="322" 
dx="0,0,0,0,0,0,0,0,0,0,0,0,0,0,0,0,0,0,0,0,0,0,0,0,0,0,0,0,0,0,0,0,0,0,0,0,0,0,0,0,0,0,0,0,0,0,0,0,0,0,0,0,0,0,0,0,0,0,0,0,0,0,0,0,0,0,0,0,0,0,0,0,-2.2,0,0" 
class="s1_162"
>will do the right thing if your fields themselves have commas in them. Your</text>

<text 
x="55" 
y="352" 
dx="0,0,0,0,0,0,0,0,0,0,0,0,0,0,0,0,0,0,0,0,0,0,0,0,0,0,0,0,0,0,0,0,0,0,0,0,-0.4,0,0,0,0,0,0,0,0,0,0,0,0,0,0,0,0,0,0,0,0,0,0,0,0,0,0,0,0,0,0" 
class="s1_162"
>own hand-rolled writer probably won’t. For example, if you attempt:</text>

<text 
x="76" 
y="397" 
class="s3_162"
>results</text>

<text 
x="140" 
y="397" 
dx="0,0,4.6,0" 
class="s4_162"
>= [[</text>

<text 
x="171" 
y="397" 
class="s5_162"
>"test1"</text>

<text 
x="227" 
y="397" 
class="s4_162"
>,</text>

<text 
x="242" 
y="397" 
class="s5_162"
>"success"</text>

<text 
x="314" 
y="397" 
class="s4_162"
>,</text>

<text 
x="329" 
y="397" 
class="s5_162"
>"Monday"</text>

<text 
x="393" 
y="397" 
class="s4_162"
>],</text>

<text 
x="163" 
y="412" 
class="s4_162"
>[</text>

<text 
x="171" 
y="412" 
class="s5_162"
>"test2"</text>

<text 
x="227" 
y="412" 
class="s4_162"
>,</text>

<text 
x="242" 
y="412" 
dx="0,0,0,0,0,0,0,0,0,0,4.6,0,0,0,0,4.6,0,0" 
class="s5_162"
>"success, kind of"</text>

<text 
x="385" 
y="412" 
class="s4_162"
>,</text>

<text 
x="401" 
y="412" 
class="s5_162"
>"Tuesday"</text>

<text 
x="472" 
y="412" 
class="s4_162"
>],</text>

<text 
x="163" 
y="428" 
class="s4_162"
>[</text>

<text 
x="171" 
y="428" 
class="s5_162"
>"test3"</text>

<text 
x="227" 
y="428" 
class="s4_162"
>,</text>

<text 
x="242" 
y="428" 
dx="0,0,0,0,0,0,0,0,0,0,4.6,0,0,0,0,4.6,0,0" 
class="s5_162"
>"failure, kind of"</text>

<text 
x="385" 
y="428" 
class="s4_162"
>,</text>

<text 
x="401" 
y="428" 
class="s5_162"
>"Wednesday"</text>

<text 
x="487" 
y="428" 
class="s4_162"
>],</text>

<text 
x="163" 
y="443" 
class="s4_162"
>[</text>

<text 
x="171" 
y="443" 
class="s5_162"
>"test4"</text>

<text 
x="227" 
y="443" 
class="s4_162"
>,</text>

<text 
x="242" 
y="443" 
dx="0,0,0,0,0,0,0,0,0,0,4.6,0,0,0,0,0" 
class="s5_162"
>"failure, utter"</text>

<text 
x="369" 
y="443" 
class="s4_162"
>,</text>

<text 
x="385" 
y="443" 
class="s5_162"
>"Thursday"</text>

<text 
x="464" 
y="443" 
class="s4_162"
>]]</text>

<text 
x="76" 
y="474" 
dx="0,0,4.6,0,0,0,0,0,4.6,0,0,4.6,0,0,0,0" 
class="s10_162"
># don't do this!</text>

<text 
x="76" 
y="489" 
class="s7_162"
>with</text>

<text 
x="116" 
y="489" 
class="s8_162"
>open</text>

<text 
x="148" 
y="489" 
class="s4_162"
>(</text>

<text 
x="156" 
y="489" 
class="s5_162"
>'bad_csv.txt'</text>

<text 
x="258" 
y="489" 
class="s4_162"
>,</text>

<text 
x="274" 
y="489" 
class="s5_162"
>'wb'</text>

<text 
x="306" 
y="489" 
class="s4_162"
>)</text>

<text 
x="322" 
y="489" 
class="s7_162"
>as</text>

<text 
x="345" 
y="489" 
class="s3_162"
>f</text>

<text 
x="353" 
y="489" 
class="s4_162"
>:</text>

<text 
x="108" 
y="505" 
class="s7_162"
>for</text>

<text 
x="140" 
y="505" 
class="s3_162"
>row</text>

<text 
x="171" 
y="505" 
class="s9_162"
>in</text>

<text 
x="195" 
y="505" 
class="s3_162"
>results</text>

<text 
x="250" 
y="505" 
class="s4_162"
>:</text>

<text 
x="140" 
y="520" 
class="s3_162"
>f</text>

<text 
x="148" 
y="520" 
class="s4_162"
>.</text>

<text 
x="156" 
y="520" 
class="s3_162"
>write</text>

<text 
x="195" 
y="520" 
class="s4_162"
>(</text>

<text 
x="203" 
y="520" 
class="s5_162"
>","</text>

<text 
x="227" 
y="520" 
class="s4_162"
>.</text>

<text 
x="235" 
y="520" 
class="s3_162"
>join</text>

<text 
x="266" 
y="520" 
class="s4_162"
>(</text>

<text 
x="274" 
y="520" 
class="s8_162"
>map</text>

<text 
x="298" 
y="520" 
class="s4_162"
>(</text>

<text 
x="306" 
y="520" 
class="s8_162"
>str</text>

<text 
x="329" 
y="520" 
class="s4_162"
>,</text>

<text 
x="345" 
y="520" 
class="s3_162"
>row</text>

<text 
x="369" 
y="520" 
class="s4_162"
>)))</text>

<text 
x="401" 
y="520" 
dx="0,0,4.6,0,0,0,0,0,4.6,0,0,0,0,4.6,0,0,0,4.6,0,0,0,0,4.6,0,0,0,0,0,0,4.6,0,0,4.6,0,0" 
class="s10_162"
># might have too many commas in it!</text>

<text 
x="140" 
y="535" 
class="s3_162"
>f</text>

<text 
x="148" 
y="535" 
class="s4_162"
>.</text>

<text 
x="156" 
y="535" 
class="s3_162"
>write</text>

<text 
x="195" 
y="535" 
class="s4_162"
>(</text>

<text 
x="203" 
y="535" 
class="s5_162"
>"</text>

<text 
x="211" 
y="535" 
class="s11_162"
>\n</text>

<text 
x="227" 
y="535" 
class="s5_162"
>"</text>

<text 
x="235" 
y="535" 
class="s4_162"
>)</text>

<text 
x="401" 
y="535" 
dx="0,0,4.6,0,0,0,4.6,0,0,0,0,0,4.6,0,0,0,0,4.6,0,0,0,0,0,0,0,0,4.6,0,0,4.6,0,0,0,0" 
class="s10_162"
># row might have newlines as well!</text>

<text 
x="55" 
y="588" 
dx="0,-2.2,0,0,0,0,0,0,0,0,0,0,0,0,0,0,0,0,0,0,0,0" 
class="s1_162"
>You will end up with a</text>

<text 
x="260" 
y="588" 
class="s2_162"
>csv</text>

<text 
x="297" 
y="588" 
class="s1_162"
>file that looks like:</text>

<text 
x="76" 
y="635" 
class="s3_162"
>test1</text>

<text 
x="116" 
y="635" 
class="s4_162"
>,</text>

<text 
x="124" 
y="635" 
class="s3_162"
>success</text>

<text 
x="179" 
y="635" 
class="s4_162"
>,</text>

<text 
x="187" 
y="635" 
class="s3_162"
>Monday</text>

<text 
x="76" 
y="651" 
class="s3_162"
>test2</text>

<text 
x="116" 
y="651" 
class="s4_162"
>,</text>

<text 
x="124" 
y="651" 
class="s3_162"
>success</text>

<text 
x="179" 
y="651" 
class="s4_162"
>,</text>

<text 
x="195" 
y="651" 
dx="0,0,0,0,0,4.6,0" 
class="s3_162"
>kind of</text>

<text 
x="250" 
y="651" 
class="s4_162"
>,</text>

<text 
x="258" 
y="651" 
class="s3_162"
>Tuesday</text>

<text 
x="76" 
y="666" 
class="s3_162"
>test3</text>

<text 
x="116" 
y="666" 
class="s4_162"
>,</text>

<text 
x="124" 
y="666" 
class="s3_162"
>failure</text>

<text 
x="179" 
y="666" 
class="s4_162"
>,</text>

<text 
x="195" 
y="666" 
dx="0,0,0,0,0,4.6,0" 
class="s3_162"
>kind of</text>

<text 
x="250" 
y="666" 
class="s4_162"
>,</text>

<text 
x="258" 
y="666" 
class="s3_162"
>Wednesday</text>

<text 
x="76" 
y="682" 
class="s3_162"
>test4</text>

<text 
x="116" 
y="682" 
class="s4_162"
>,</text>

<text 
x="124" 
y="682" 
class="s3_162"
>failure</text>

<text 
x="179" 
y="682" 
class="s4_162"
>,</text>

<text 
x="195" 
y="682" 
class="s3_162"
>utter</text>

<text 
x="235" 
y="682" 
class="s4_162"
>,</text>

<text 
x="242" 
y="682" 
class="s3_162"
>Thursday</text>

<text 
x="55" 
y="734" 
class="s1_162"
>and that no one will ever be able to make sense of.</text>



<!-- Any embedded fonts defined here -->
<style type="text/css" ><![CDATA[

@font-face {
	font-family: LiberationMono-Bold_1w;
	src: url("fonts/LiberationMono-Bold_1w.woff") format("woff");
}

@font-face {
	font-family: LiberationMono_1q;
	src: url("fonts/LiberationMono_1q.woff") format("woff");
}

@font-face {
	font-family: LiberationMono-Italic_10;
	src: url("fonts/LiberationMono-Italic_10.woff") format("woff");
}

@font-face {
	font-family: LiberationSerif_e;
	src: url("fonts/LiberationSerif_e.woff") format("woff");
}

]]></style>

</svg>
