<?xml version="1.0" encoding="UTF-8" standalone="no"?>
<!DOCTYPE svg PUBLIC "-//W3C//DTD SVG 1.1//EN"
"http://www.w3.org/Graphics/SVG/1.1/DTD/svg11.dtd">


<!-- Page 167 -->
<svg x="0" y="0" width="909" height="1286" viewBox="0 0 909 1286" version="1.1" xmlns="http://www.w3.org/2000/svg" xmlns:xlink="http://www.w3.org/1999/xlink"
style="display: block;margin-left: auto;margin-right: auto;">
<defs>

<style type="text/css"><![CDATA[


.s1_167{
font-size: 13.20px;
font-family: LiberationMono-Bold_1w;
fill: #330099;
}
.s2_167{
font-size: 13.20px;
font-family: LiberationMono_1q;
fill: #330099;
}
.s3_167{
font-size: 13.20px;
font-family: LiberationMono_1q;
fill: #CC3300;
}
.s4_167{
font-size: 13.20px;
font-family: LiberationMono_1q;
fill: #000000;
}
.s5_167{
font-size: 13.20px;
font-family: LiberationMono-Bold_1w;
fill: #999999;
}
.s6_167{
font-size: 22.01px;
font-family: LiberationSerif_e;
fill: #000000;
}
.s7_167{
font-size: 17.60px;
font-family: LiberationMono_1q;
fill: #000000;
}
.s8_167{
font-size: 13.20px;
font-family: LiberationMono_1q;
fill: #000088;
}
.s9_167{
font-size: 13.20px;
font-family: LiberationMono-Bold_1w;
fill: #006699;
}
.s10_167{
font-size: 13.20px;
font-family: LiberationMono_1q;
fill: #336666;
}
.s11_167{
font-size: 13.20px;
font-family: LiberationMono-Italic_10;
fill: #0099FF;
}
.s12_167{
font-size: 13.20px;
font-family: LiberationMono_1q;
fill: #CC00FF;
}
.s13_167{
font-size: 13.20px;
font-family: LiberationMono-Italic_10;
fill: #CC3300;
}
.s14_167{
font-size: 13.20px;
font-family: LiberationMono_1q;
fill: #FF6600;
}
.s15_167{
font-size: 13.20px;
font-family: LiberationMono-Bold_1w;
fill: #000000;
}

]]></style>

</defs>
<path d="M0,0
L0,1286
L909,1286
L909,0 Z " 
fill="#FFFFFF" stroke="none" />
<text 
x="140" 
y="64" 
class="s1_167"
>&lt;img</text>

<text 
x="179" 
y="64" 
class="s2_167"
>src=</text>

<text 
x="211" 
y="64" 
class="s3_167"
>"..."</text>

<text 
x="250" 
y="64" 
class="s1_167"
>/&gt;</text>

<text 
x="124" 
y="80" 
class="s1_167"
>&lt;/a&gt;</text>

<text 
x="108" 
y="95" 
class="s1_167"
>&lt;/div&gt;</text>

<text 
x="92" 
y="111" 
class="s1_167"
>&lt;/div&gt;</text>

<text 
x="92" 
y="126" 
class="s1_167"
>&lt;div</text>

<text 
x="132" 
y="126" 
class="s2_167"
>class=</text>

<text 
x="179" 
y="126" 
class="s3_167"
>"widthchange"</text>

<text 
x="282" 
y="126" 
class="s1_167"
>&gt;</text>

<text 
x="108" 
y="141" 
class="s1_167"
>&lt;div</text>

<text 
x="148" 
y="141" 
class="s2_167"
>class=</text>

<text 
x="195" 
y="141" 
class="s3_167"
>"thumbheader"</text>

<text 
x="298" 
y="141" 
class="s1_167"
>&gt;</text>

<text 
x="124" 
y="157" 
class="s1_167"
>&lt;a</text>

<text 
x="148" 
y="157" 
class="s2_167"
>href=</text>

<text 
x="187" 
y="157" 
class="s3_167"
>"/product/9781118903407.do"</text>

<text 
x="401" 
y="157" 
class="s1_167"
>&gt;</text>

<text 
x="408" 
y="157" 
dx="0,0,0,0,0,0,0,0,4.6,0,4.6,0,0,0,4.6,0,0,0,0,4.6,0,0,0,4.6,0,0,0,4.6,0,0,0,0,0,0" 
class="s4_167"
>Getting a Big Data Job For Dummies</text>

<text 
x="677" 
y="157" 
class="s1_167"
>&lt;/a&gt;</text>

<text 
x="108" 
y="172" 
class="s1_167"
>&lt;/div&gt;</text>

<text 
x="108" 
y="188" 
class="s1_167"
>&lt;div</text>

<text 
x="148" 
y="188" 
class="s2_167"
>class=</text>

<text 
x="195" 
y="188" 
class="s3_167"
>"AuthorName"</text>

<text 
x="290" 
y="188" 
class="s1_167"
>&gt;</text>

<text 
x="298" 
y="188" 
dx="0,0,0,4.6,0,0,0,0,0,4.6,0,0,0,0,0,0,0,0,0" 
class="s4_167"
>By Jason Williamson</text>

<text 
x="448" 
y="188" 
class="s1_167"
>&lt;/div&gt;</text>

<text 
x="108" 
y="203" 
class="s1_167"
>&lt;span</text>

<text 
x="156" 
y="203" 
class="s2_167"
>class=</text>

<text 
x="203" 
y="203" 
class="s3_167"
>"directorydate"</text>

<text 
x="322" 
y="203" 
class="s1_167"
>&gt;</text>

<text 
x="393" 
y="203" 
dx="0,0,0,0,0,0,0,0,0,4.6,0,0,0" 
class="s4_167"
>December 2014</text>

<text 
x="527" 
y="203" 
class="s1_167"
>&lt;/span&gt;</text>

<text 
x="108" 
y="218" 
class="s1_167"
>&lt;div</text>

<text 
x="148" 
y="218" 
class="s2_167"
>style=</text>

<text 
x="195" 
y="218" 
class="s3_167"
>"clear:both;"</text>

<text 
x="298" 
y="218" 
class="s1_167"
>&gt;</text>

<text 
x="124" 
y="234" 
class="s1_167"
>&lt;div</text>

<text 
x="163" 
y="234" 
class="s2_167"
>id=</text>

<text 
x="187" 
y="234" 
class="s3_167"
>"146350"</text>

<text 
x="250" 
y="234" 
class="s1_167"
>&gt;</text>

<text 
x="140" 
y="249" 
class="s1_167"
>&lt;span</text>

<text 
x="187" 
y="249" 
class="s2_167"
>class=</text>

<text 
x="235" 
y="249" 
class="s3_167"
>"pricelabel"</text>

<text 
x="329" 
y="249" 
class="s1_167"
>&gt;</text>

<text 
x="298" 
y="265" 
class="s4_167"
>Ebook:</text>

<text 
x="298" 
y="295" 
class="s1_167"
>&lt;span</text>

<text 
x="345" 
y="295" 
class="s2_167"
>class=</text>

<text 
x="393" 
y="295" 
class="s3_167"
>"price"</text>

<text 
x="448" 
y="295" 
class="s1_167"
>&gt;</text>

<text 
x="456" 
y="295" 
class="s5_167"
>&amp;nbsp;</text>

<text 
x="503" 
y="295" 
class="s4_167"
>$29.99</text>

<text 
x="551" 
y="295" 
class="s1_167"
>&lt;/span&gt;</text>

<text 
x="140" 
y="311" 
class="s1_167"
>&lt;/span&gt;</text>

<text 
x="124" 
y="326" 
class="s1_167"
>&lt;/div&gt;</text>

<text 
x="108" 
y="342" 
class="s1_167"
>&lt;/div&gt;</text>

<text 
x="92" 
y="357" 
class="s1_167"
>&lt;/div&gt;</text>

<text 
x="76" 
y="372" 
class="s1_167"
>&lt;/td&gt;</text>

<text 
x="55" 
y="425" 
dx="0,0,-1.2,0,0,0,0,0,0,0,0,0,0,0,0,0,0,0,0,0,0,0,0,0,0,0,0,0,0,0,0,0,0,0,0,0,0,0,0" 
class="s6_167"
>A good first step is to find all of the</text>

<text 
x="373" 
y="425" 
dx="0,0,0,6.1,0,0,0,0,0,0,0,0" 
class="s7_167"
>td thumbtext</text>

<text 
x="505" 
y="425" 
class="s6_167"
>tag elements:</text>

<text 
x="76" 
y="473" 
class="s8_167"
>tds</text>

<text 
x="108" 
y="473" 
class="s4_167"
>=</text>

<text 
x="124" 
y="473" 
class="s8_167"
>soup</text>

<text 
x="156" 
y="473" 
class="s4_167"
>(</text>

<text 
x="163" 
y="473" 
class="s3_167"
>'td'</text>

<text 
x="195" 
y="473" 
class="s4_167"
>,</text>

<text 
x="211" 
y="473" 
class="s3_167"
>'thumbtext'</text>

<text 
x="298" 
y="473" 
class="s4_167"
>)</text>

<text 
x="76" 
y="488" 
class="s9_167"
>print</text>

<text 
x="124" 
y="488" 
class="s10_167"
>len</text>

<text 
x="148" 
y="488" 
class="s4_167"
>(</text>

<text 
x="156" 
y="488" 
class="s8_167"
>tds</text>

<text 
x="179" 
y="488" 
class="s4_167"
>)</text>

<text 
x="76" 
y="503" 
dx="0,0,4.6,0" 
class="s11_167"
># 30</text>

<text 
x="55" 
y="556" 
class="s6_167"
>Next we’d like to filter out the videos. (The would-be investor is only impressed by</text>

<text 
x="55" 
y="584" 
dx="0,0,0,0,0,0,0,0,0,0,0,0,0,0,0,0,0,0,0,0,0,0,0,0,0,0,0,0,0,0,0,-0.8,0,0,0,0,0,0,-0.9,0,0,0,0,0,0,0,0,0,0,0,0,0,0,0,0,0" 
class="s6_167"
>books.) If we inspect the HTML further, we see that each</text>

<text 
x="563" 
y="584" 
class="s7_167"
>td</text>

<text 
x="589" 
y="584" 
class="s6_167"
>contains one or more</text>

<text 
x="780" 
y="584" 
class="s7_167"
>span</text>

<text 
x="55" 
y="613" 
class="s6_167"
>elements whose</text>

<text 
x="200" 
y="613" 
class="s7_167"
>class</text>

<text 
x="258" 
y="613" 
class="s6_167"
>is</text>

<text 
x="278" 
y="613" 
class="s7_167"
>pricelabel</text>

<text 
x="384" 
y="613" 
class="s6_167"
>, and whose text looks like</text>

<text 
x="624" 
y="613" 
class="s7_167"
>Ebook:</text>

<text 
x="692" 
y="613" 
class="s6_167"
>or</text>

<text 
x="716" 
y="613" 
class="s7_167"
>Video:</text>

<text 
x="785" 
y="613" 
class="s6_167"
>or</text>

<text 
x="55" 
y="643" 
class="s7_167"
>Print:</text>

<text 
x="118" 
y="643" 
class="s6_167"
>. It appears that the videos contain only one</text>

<text 
x="506" 
y="643" 
class="s7_167"
>pricelabel</text>

<text 
x="612" 
y="643" 
class="s6_167"
>, whose</text>

<text 
x="684" 
y="643" 
class="s7_167"
>text</text>

<text 
x="732" 
y="643" 
class="s6_167"
>starts with</text>

<text 
x="55" 
y="673" 
class="s7_167"
>Video</text>

<text 
x="113" 
y="673" 
class="s6_167"
>(after removing leading spaces). This means we can test for videos with:</text>

<text 
x="76" 
y="720" 
class="s9_167"
>def</text>

<text 
x="108" 
y="720" 
class="s12_167"
>is_video</text>

<text 
x="171" 
y="720" 
class="s4_167"
>(</text>

<text 
x="179" 
y="720" 
class="s8_167"
>td</text>

<text 
x="195" 
y="720" 
class="s4_167"
>):</text>

<text 
x="108" 
y="736" 
dx="0,0,0,0,0,0,0,0,4.6,0,4.6,0,0,0,0,0,4.6,0,0,4.6,0,0,4.6,0,0,0,4.6,0,0,0,0,0,0,0,4.6,0,0,0,4.6,0,0,0,0,0,0,0,0,0,0,0,4.6,0,0,0,4.6,0" 
class="s13_167"
>"""it's a video if it has exactly one pricelabel, and if</text>

<text 
x="108" 
y="751" 
dx="0,0,0,0,4.6,0,0,0,0,0,0,0,0,4.6,0,0,0,0,4.6,0,0,0,0,0,0,4.6,0,0,0,0,4.6,0,0,0,0,0,0,0,0,0,0,4.6,0,0,0,0,0,0,4.6,0,0,0,0,4.6,0,0,0,0,0,0,0,0,0" 
class="s13_167"
>the stripped text inside that pricelabel starts with 'Video'"""</text>

<text 
x="108" 
y="766" 
class="s8_167"
>pricelabels</text>

<text 
x="203" 
y="766" 
class="s4_167"
>=</text>

<text 
x="219" 
y="766" 
class="s8_167"
>td</text>

<text 
x="235" 
y="766" 
class="s4_167"
>(</text>

<text 
x="242" 
y="766" 
class="s3_167"
>'span'</text>

<text 
x="290" 
y="766" 
class="s4_167"
>,</text>

<text 
x="306" 
y="766" 
class="s3_167"
>'pricelabel'</text>

<text 
x="401" 
y="766" 
class="s4_167"
>)</text>

<text 
x="108" 
y="782" 
class="s9_167"
>return</text>

<text 
x="163" 
y="782" 
class="s4_167"
>(</text>

<text 
x="171" 
y="782" 
class="s10_167"
>len</text>

<text 
x="195" 
y="782" 
class="s4_167"
>(</text>

<text 
x="203" 
y="782" 
class="s8_167"
>pricelabels</text>

<text 
x="290" 
y="782" 
dx="0,0,4.6,0" 
class="s4_167"
>) ==</text>

<text 
x="329" 
y="782" 
class="s14_167"
>1</text>

<text 
x="345" 
y="782" 
class="s15_167"
>and</text>

<text 
x="171" 
y="797" 
class="s8_167"
>pricelabels</text>

<text 
x="258" 
y="797" 
class="s4_167"
>[</text>

<text 
x="266" 
y="797" 
class="s14_167"
>0</text>

<text 
x="274" 
y="797" 
class="s4_167"
>].</text>

<text 
x="290" 
y="797" 
class="s8_167"
>text</text>

<text 
x="322" 
y="797" 
class="s4_167"
>.</text>

<text 
x="329" 
y="797" 
class="s8_167"
>strip</text>

<text 
x="369" 
y="797" 
class="s4_167"
>().</text>

<text 
x="393" 
y="797" 
class="s8_167"
>startswith</text>

<text 
x="472" 
y="797" 
class="s4_167"
>(</text>

<text 
x="480" 
y="797" 
class="s3_167"
>"Video"</text>

<text 
x="535" 
y="797" 
class="s4_167"
>))</text>

<text 
x="76" 
y="828" 
class="s9_167"
>print</text>

<text 
x="124" 
y="828" 
class="s10_167"
>len</text>

<text 
x="148" 
y="828" 
class="s4_167"
>([</text>

<text 
x="163" 
y="828" 
class="s8_167"
>td</text>

<text 
x="187" 
y="828" 
class="s9_167"
>for</text>

<text 
x="219" 
y="828" 
class="s8_167"
>td</text>

<text 
x="242" 
y="828" 
class="s15_167"
>in</text>

<text 
x="266" 
y="828" 
class="s8_167"
>tds</text>

<text 
x="298" 
y="828" 
class="s9_167"
>if</text>

<text 
x="322" 
y="828" 
class="s15_167"
>not</text>

<text 
x="353" 
y="828" 
class="s8_167"
>is_video</text>

<text 
x="416" 
y="828" 
class="s4_167"
>(</text>

<text 
x="424" 
y="828" 
class="s8_167"
>td</text>

<text 
x="440" 
y="828" 
class="s4_167"
>)])</text>

<text 
x="76" 
y="843" 
dx="0,0,4.6,0,0,4.6,0,0,0,4.6,0,0,0,4.6,0,0,0,0,0,4.6,0,0,4.6,0,0,0,0,0,0,0,0,0,4.6,0,0,0,4.6,0,0" 
class="s11_167"
># 21 for me, might be different for you</text>

<text 
x="55" 
y="896" 
class="s6_167"
>Now we’re ready to start pulling data out of the</text>

<text 
x="478" 
y="896" 
class="s7_167"
>td</text>

<text 
x="505" 
y="896" 
class="s6_167"
>elements. It looks like the book title is</text>

<text 
x="55" 
y="926" 
class="s6_167"
>the text inside the</text>

<text 
x="216" 
y="926" 
class="s7_167"
>&lt;a&gt;</text>

<text 
x="253" 
y="926" 
class="s6_167"
>tag inside the</text>

<text 
x="376" 
y="926" 
dx="0,0,0,0,0,6.1,0,0,0,0,0,0,0,0,0,0,0,0,0,0,0,0,0,0,0" 
class="s7_167"
>&lt;div class="thumbheader"&gt;</text>

<text 
x="639" 
y="926" 
class="s6_167"
>:</text>

<text 
x="76" 
y="973" 
class="s8_167"
>title</text>

<text 
x="124" 
y="973" 
class="s4_167"
>=</text>

<text 
x="140" 
y="973" 
class="s8_167"
>td</text>

<text 
x="156" 
y="973" 
class="s4_167"
>.</text>

<text 
x="163" 
y="973" 
class="s8_167"
>find</text>

<text 
x="195" 
y="973" 
class="s4_167"
>(</text>

<text 
x="203" 
y="973" 
class="s3_167"
>"div"</text>

<text 
x="242" 
y="973" 
class="s4_167"
>,</text>

<text 
x="258" 
y="973" 
class="s3_167"
>"thumbheader"</text>

<text 
x="361" 
y="973" 
class="s4_167"
>).</text>

<text 
x="377" 
y="973" 
class="s8_167"
>a</text>

<text 
x="385" 
y="973" 
class="s4_167"
>.</text>

<text 
x="393" 
y="973" 
class="s8_167"
>text</text>

<text 
x="55" 
y="1026" 
class="s6_167"
>The author(s) are in the text of the</text>

<text 
x="361" 
y="1026" 
dx="0,0,0,0,0,0,0,0,0,0,0,1.1,0,0,0,0" 
class="s7_167"
>AuthorName &lt;div&gt;</text>

<text 
x="525" 
y="1026" 
class="s6_167"
>. They are prefaced by a</text>

<text 
x="743" 
y="1026" 
class="s7_167"
>By</text>

<text 
x="769" 
y="1026" 
class="s6_167"
>(which</text>

<text 
x="55" 
y="1056" 
class="s6_167"
>we want to get rid of) and separated by commas (which we want to split out, after which</text>

<text 
x="55" 
y="1083" 
class="s6_167"
>we’ll need to get rid of spaces):</text>

<text 
x="76" 
y="1128" 
class="s8_167"
>author_name</text>

<text 
x="171" 
y="1128" 
class="s4_167"
>=</text>

<text 
x="187" 
y="1128" 
class="s8_167"
>td</text>

<text 
x="203" 
y="1128" 
class="s4_167"
>.</text>

<text 
x="211" 
y="1128" 
class="s8_167"
>find</text>

<text 
x="242" 
y="1128" 
class="s4_167"
>(</text>

<text 
x="250" 
y="1128" 
class="s3_167"
>'div'</text>

<text 
x="290" 
y="1128" 
class="s4_167"
>,</text>

<text 
x="306" 
y="1128" 
class="s3_167"
>'AuthorName'</text>

<text 
x="401" 
y="1128" 
class="s4_167"
>).</text>

<text 
x="416" 
y="1128" 
class="s8_167"
>text</text>

<text 
x="76" 
y="1144" 
class="s8_167"
>authors</text>

<text 
x="140" 
y="1144" 
dx="0,0,4.6" 
class="s4_167"
>= [</text>

<text 
x="163" 
y="1144" 
class="s8_167"
>x</text>

<text 
x="171" 
y="1144" 
class="s4_167"
>.</text>

<text 
x="179" 
y="1144" 
class="s8_167"
>strip</text>

<text 
x="219" 
y="1144" 
class="s4_167"
>()</text>

<text 
x="242" 
y="1144" 
class="s9_167"
>for</text>

<text 
x="274" 
y="1144" 
class="s8_167"
>x</text>

<text 
x="290" 
y="1144" 
class="s15_167"
>in</text>

<text 
x="314" 
y="1144" 
class="s8_167"
>re</text>

<text 
x="329" 
y="1144" 
class="s4_167"
>.</text>

<text 
x="337" 
y="1144" 
class="s8_167"
>sub</text>

<text 
x="361" 
y="1144" 
class="s4_167"
>(</text>

<text 
x="369" 
y="1144" 
dx="0,0,0,0,0,4.6" 
class="s3_167"
>"^By "</text>

<text 
x="416" 
y="1144" 
class="s4_167"
>,</text>

<text 
x="432" 
y="1144" 
class="s3_167"
>""</text>

<text 
x="448" 
y="1144" 
class="s4_167"
>,</text>

<text 
x="464" 
y="1144" 
class="s8_167"
>author_name</text>

<text 
x="551" 
y="1144" 
class="s4_167"
>).</text>

<text 
x="567" 
y="1144" 
class="s8_167"
>split</text>

<text 
x="606" 
y="1144" 
class="s4_167"
>(</text>

<text 
x="614" 
y="1144" 
class="s3_167"
>","</text>

<text 
x="638" 
y="1144" 
class="s4_167"
>)]</text>

<text 
x="55" 
y="1197" 
dx="0,0,0,0,0,0,0,0,0,0,0,0,0,0,0,0,0,0,0,0,0,0,0,0,0,0,0,0,0,0,0,0,0,0,0,0,0,0,0,0,0,0,0,0,0,0,0,0,-1.2,0,0,0,0,0,0,0" 
class="s6_167"
>The ISBN seems to be contained in the link that’s in the</text>

<text 
x="551" 
y="1197" 
dx="0,0,0,0,0,0,0,0,0,0,0,0,1.1,0,0,0,0" 
class="s7_167"
>thumbheader &lt;div&gt;</text>

<text 
x="726" 
y="1197" 
class="s6_167"
>:</text>



<!-- Any embedded fonts defined here -->
<style type="text/css" ><![CDATA[

@font-face {
	font-family: LiberationMono-Bold_1w;
	src: url("fonts/LiberationMono-Bold_1w.woff") format("woff");
}

@font-face {
	font-family: LiberationMono_1q;
	src: url("fonts/LiberationMono_1q.woff") format("woff");
}

@font-face {
	font-family: LiberationMono-Italic_10;
	src: url("fonts/LiberationMono-Italic_10.woff") format("woff");
}

@font-face {
	font-family: LiberationSerif_e;
	src: url("fonts/LiberationSerif_e.woff") format("woff");
}

]]></style>

</svg>
