<?xml version="1.0" encoding="UTF-8" standalone="no"?>
<!DOCTYPE svg PUBLIC "-//W3C//DTD SVG 1.1//EN"
"http://www.w3.org/Graphics/SVG/1.1/DTD/svg11.dtd">


<!-- Page 168 -->
<svg x="0" y="0" width="909" height="1286" viewBox="0 0 909 1286" version="1.1" xmlns="http://www.w3.org/2000/svg" xmlns:xlink="http://www.w3.org/1999/xlink"
style="display: block;margin-left: auto;margin-right: auto;">
<defs>

<style type="text/css"><![CDATA[

.g1_168{
fill: #BEBEBE;
}

.s1_168{
font-size: 13.20px;
font-family: LiberationMono_1q;
fill: #000088;
}
.s2_168{
font-size: 13.20px;
font-family: LiberationMono_1q;
fill: #000000;
}
.s3_168{
font-size: 13.20px;
font-family: LiberationMono_1q;
fill: #CC3300;
}
.s4_168{
font-size: 13.20px;
font-family: LiberationMono-Italic_10;
fill: #0099FF;
}
.s5_168{
font-size: 13.20px;
font-family: LiberationMono_1q;
fill: #FF6600;
}
.s6_168{
font-size: 22.01px;
font-family: LiberationSerif_e;
fill: #000000;
}
.s7_168{
font-size: 17.60px;
font-family: LiberationMono_1q;
fill: #000000;
}
.s8_168{
font-size: 13.20px;
font-family: LiberationMono-Bold_1w;
fill: #006699;
}
.s9_168{
font-size: 13.20px;
font-family: LiberationMono_1q;
fill: #CC00FF;
}
.s10_168{
font-size: 13.20px;
font-family: LiberationMono-Italic_10;
fill: #CC3300;
}
.s11_168{
font-size: 13.20px;
font-family: LiberationMono-Bold_1w;
fill: #000000;
}
.s12_168{
font-size: 13.20px;
font-family: LiberationMono-Bold_1w;
fill: #00CCFF;
}
.s13_168{
font-size: 13.20px;
font-family: LiberationMono_1q;
fill: #336666;
}
.s14_168{
font-size: 22.01px;
font-family: LiberationSerif-Bold_b;
fill: #737373;
}
.s15_168{
font-size: 16.50px;
font-family: LiberationSerif_e;
fill: #000000;
}
.s16_168{
font-size: 22.01px;
font-family: LiberationSerif_e;
fill: #8E0012;
}

]]></style>

</defs>
<path d="M0,0
L0,1286
L909,1286
L909,0 Z " 
fill="#FFFFFF" stroke="none" />
<path fill-rule="evenodd" d="M93.5,993.5l722.5,0c3,0,5.5,2.5,5.5,5.5l0,77.1c0,3,-2.5,5.5,-5.5,5.5l-722.5,0c-3,0,-5.5,-2.5,-5.5,-5.5L88,999c0,-3,2.5,-5.5,5.5,-5.5m0,1.1l722.5,0c2.4,0,4.4,2,4.4,4.4l0,77.1c0,2.4,-2,4.4,-4.4,4.4l-722.5,0c-2.4,0,-4.4,-2,-4.4,-4.4l0,-77.1c0,-2.4,2,-4.4,4.4,-4.4Z" class="g1_168" />
<text 
x="76" 
y="64" 
class="s1_168"
>isbn_link</text>

<text 
x="156" 
y="64" 
class="s2_168"
>=</text>

<text 
x="171" 
y="64" 
class="s1_168"
>td</text>

<text 
x="187" 
y="64" 
class="s2_168"
>.</text>

<text 
x="195" 
y="64" 
class="s1_168"
>find</text>

<text 
x="227" 
y="64" 
class="s2_168"
>(</text>

<text 
x="235" 
y="64" 
class="s3_168"
>"div"</text>

<text 
x="274" 
y="64" 
class="s2_168"
>,</text>

<text 
x="290" 
y="64" 
class="s3_168"
>"thumbheader"</text>

<text 
x="393" 
y="64" 
class="s2_168"
>).</text>

<text 
x="408" 
y="64" 
class="s1_168"
>a</text>

<text 
x="416" 
y="64" 
class="s2_168"
>.</text>

<text 
x="424" 
y="64" 
class="s1_168"
>get</text>

<text 
x="448" 
y="64" 
class="s2_168"
>(</text>

<text 
x="456" 
y="64" 
class="s3_168"
>"href"</text>

<text 
x="503" 
y="64" 
class="s2_168"
>)</text>

<text 
x="76" 
y="95" 
dx="0,0,4.6,0,0,0,0,0,0,0,0,4.6,0,0,0,0,0,0,0,0,4.6,0,0,0,4.6,0,0,0,0,4.6,0,0,4.6,0,0,0,4.6,0,0,0,0,0,4.6,0,0,4.6,0,0,0,0,0,0,0,0,0,0" 
class="s4_168"
># re.match captures the part of the regex in parentheses</text>

<text 
x="76" 
y="111" 
class="s1_168"
>isbn</text>

<text 
x="116" 
y="111" 
class="s2_168"
>=</text>

<text 
x="132" 
y="111" 
class="s1_168"
>re</text>

<text 
x="148" 
y="111" 
class="s2_168"
>.</text>

<text 
x="156" 
y="111" 
class="s1_168"
>match</text>

<text 
x="195" 
y="111" 
class="s2_168"
>(</text>

<text 
x="203" 
y="111" 
class="s3_168"
>"/product/(.*)\.do"</text>

<text 
x="353" 
y="111" 
class="s2_168"
>,</text>

<text 
x="369" 
y="111" 
class="s1_168"
>isbn_link</text>

<text 
x="440" 
y="111" 
class="s2_168"
>).</text>

<text 
x="456" 
y="111" 
class="s1_168"
>group</text>

<text 
x="495" 
y="111" 
class="s2_168"
>(</text>

<text 
x="503" 
y="111" 
class="s5_168"
>1</text>

<text 
x="511" 
y="111" 
class="s2_168"
>)</text>

<text 
x="55" 
y="163" 
class="s6_168"
>And the date is just the contents of the</text>

<text 
x="397" 
y="163" 
dx="0,0,0,0,0,0,6.1,0,0,0,0,0,0,0,0,0,0,0,0,0,0,0,0,0,0,0,0,0" 
class="s7_168"
>&lt;span class="directorydate"&gt;</text>

<text 
x="692" 
y="163" 
class="s6_168"
>:</text>

<text 
x="76" 
y="211" 
class="s1_168"
>date</text>

<text 
x="116" 
y="211" 
class="s2_168"
>=</text>

<text 
x="132" 
y="211" 
class="s1_168"
>td</text>

<text 
x="148" 
y="211" 
class="s2_168"
>.</text>

<text 
x="156" 
y="211" 
class="s1_168"
>find</text>

<text 
x="187" 
y="211" 
class="s2_168"
>(</text>

<text 
x="195" 
y="211" 
class="s3_168"
>"span"</text>

<text 
x="242" 
y="211" 
class="s2_168"
>,</text>

<text 
x="258" 
y="211" 
class="s3_168"
>"directorydate"</text>

<text 
x="377" 
y="211" 
class="s2_168"
>).</text>

<text 
x="393" 
y="211" 
class="s1_168"
>text</text>

<text 
x="424" 
y="211" 
class="s2_168"
>.</text>

<text 
x="432" 
y="211" 
class="s1_168"
>strip</text>

<text 
x="472" 
y="211" 
class="s2_168"
>()</text>

<text 
x="55" 
y="264" 
dx="0,0,0,0,-1.2,0,0,0,0,0,0,0,0,0,0,0,0,0,0,0,0,0,0,0,0,0,0,0,0,0,0,0,0,0,0,0,0,0,0,0,0,0,0,0" 
class="s6_168"
>Let’s put this all together into a function:</text>

<text 
x="76" 
y="309" 
class="s8_168"
>def</text>

<text 
x="108" 
y="309" 
class="s9_168"
>book_info</text>

<text 
x="179" 
y="309" 
class="s2_168"
>(</text>

<text 
x="187" 
y="309" 
class="s1_168"
>td</text>

<text 
x="203" 
y="309" 
class="s2_168"
>):</text>

<text 
x="108" 
y="324" 
dx="0,0,0,0,0,0,0,0,0,4.6,0,4.6,0,0,0,0,0,0,0,0,0,0,0,0,0,4.6,0,0,0,0,4.6,0,0,0,4.6,0,0,0,0,0,0,0,0,0,0,0,0,4.6,0,4.6,0,0,0,0" 
class="s10_168"
>"""given a BeautifulSoup &lt;td&gt; Tag representing a book,</text>

<text 
x="108" 
y="339" 
dx="0,0,0,0,0,0,0,0,4.6,0,0,0,4.6,0,0,0,0,0,0,4.6,0,0,0,0,0,0,0,4.6,0,0,0,4.6,0,0,0,0,0,0,4.6,0,4.6,0,0,0,0,0,0" 
class="s10_168"
>extract the book's details and return a dict"""</text>

<text 
x="108" 
y="370" 
class="s1_168"
>title</text>

<text 
x="156" 
y="370" 
class="s2_168"
>=</text>

<text 
x="171" 
y="370" 
class="s1_168"
>td</text>

<text 
x="187" 
y="370" 
class="s2_168"
>.</text>

<text 
x="195" 
y="370" 
class="s1_168"
>find</text>

<text 
x="227" 
y="370" 
class="s2_168"
>(</text>

<text 
x="235" 
y="370" 
class="s3_168"
>"div"</text>

<text 
x="274" 
y="370" 
class="s2_168"
>,</text>

<text 
x="290" 
y="370" 
class="s3_168"
>"thumbheader"</text>

<text 
x="393" 
y="370" 
class="s2_168"
>).</text>

<text 
x="408" 
y="370" 
class="s1_168"
>a</text>

<text 
x="416" 
y="370" 
class="s2_168"
>.</text>

<text 
x="424" 
y="370" 
class="s1_168"
>text</text>

<text 
x="108" 
y="386" 
class="s1_168"
>by_author</text>

<text 
x="187" 
y="386" 
class="s2_168"
>=</text>

<text 
x="203" 
y="386" 
class="s1_168"
>td</text>

<text 
x="219" 
y="386" 
class="s2_168"
>.</text>

<text 
x="227" 
y="386" 
class="s1_168"
>find</text>

<text 
x="258" 
y="386" 
class="s2_168"
>(</text>

<text 
x="266" 
y="386" 
class="s3_168"
>'div'</text>

<text 
x="306" 
y="386" 
class="s2_168"
>,</text>

<text 
x="322" 
y="386" 
class="s3_168"
>'AuthorName'</text>

<text 
x="416" 
y="386" 
class="s2_168"
>).</text>

<text 
x="432" 
y="386" 
class="s1_168"
>text</text>

<text 
x="108" 
y="401" 
class="s1_168"
>authors</text>

<text 
x="171" 
y="401" 
dx="0,0,4.6" 
class="s2_168"
>= [</text>

<text 
x="195" 
y="401" 
class="s1_168"
>x</text>

<text 
x="203" 
y="401" 
class="s2_168"
>.</text>

<text 
x="211" 
y="401" 
class="s1_168"
>strip</text>

<text 
x="250" 
y="401" 
class="s2_168"
>()</text>

<text 
x="274" 
y="401" 
class="s8_168"
>for</text>

<text 
x="306" 
y="401" 
class="s1_168"
>x</text>

<text 
x="322" 
y="401" 
class="s11_168"
>in</text>

<text 
x="345" 
y="401" 
class="s1_168"
>re</text>

<text 
x="361" 
y="401" 
class="s2_168"
>.</text>

<text 
x="369" 
y="401" 
class="s1_168"
>sub</text>

<text 
x="393" 
y="401" 
class="s2_168"
>(</text>

<text 
x="401" 
y="401" 
dx="0,0,0,0,0,4.6" 
class="s3_168"
>"^By "</text>

<text 
x="448" 
y="401" 
class="s2_168"
>,</text>

<text 
x="464" 
y="401" 
class="s3_168"
>""</text>

<text 
x="480" 
y="401" 
class="s2_168"
>,</text>

<text 
x="495" 
y="401" 
class="s1_168"
>by_author</text>

<text 
x="567" 
y="401" 
class="s2_168"
>).</text>

<text 
x="582" 
y="401" 
class="s1_168"
>split</text>

<text 
x="622" 
y="401" 
class="s2_168"
>(</text>

<text 
x="630" 
y="401" 
class="s3_168"
>","</text>

<text 
x="653" 
y="401" 
class="s2_168"
>)]</text>

<text 
x="108" 
y="416" 
class="s1_168"
>isbn_link</text>

<text 
x="187" 
y="416" 
class="s2_168"
>=</text>

<text 
x="203" 
y="416" 
class="s1_168"
>td</text>

<text 
x="219" 
y="416" 
class="s2_168"
>.</text>

<text 
x="227" 
y="416" 
class="s1_168"
>find</text>

<text 
x="258" 
y="416" 
class="s2_168"
>(</text>

<text 
x="266" 
y="416" 
class="s3_168"
>"div"</text>

<text 
x="306" 
y="416" 
class="s2_168"
>,</text>

<text 
x="322" 
y="416" 
class="s3_168"
>"thumbheader"</text>

<text 
x="424" 
y="416" 
class="s2_168"
>).</text>

<text 
x="440" 
y="416" 
class="s1_168"
>a</text>

<text 
x="448" 
y="416" 
class="s2_168"
>.</text>

<text 
x="456" 
y="416" 
class="s1_168"
>get</text>

<text 
x="480" 
y="416" 
class="s2_168"
>(</text>

<text 
x="487" 
y="416" 
class="s3_168"
>"href"</text>

<text 
x="535" 
y="416" 
class="s2_168"
>)</text>

<text 
x="108" 
y="432" 
class="s1_168"
>isbn</text>

<text 
x="148" 
y="432" 
class="s2_168"
>=</text>

<text 
x="163" 
y="432" 
class="s1_168"
>re</text>

<text 
x="179" 
y="432" 
class="s2_168"
>.</text>

<text 
x="187" 
y="432" 
class="s1_168"
>match</text>

<text 
x="227" 
y="432" 
class="s2_168"
>(</text>

<text 
x="235" 
y="432" 
class="s3_168"
>"/product/(.*)\.do"</text>

<text 
x="385" 
y="432" 
class="s2_168"
>,</text>

<text 
x="401" 
y="432" 
class="s1_168"
>isbn_link</text>

<text 
x="472" 
y="432" 
class="s2_168"
>).</text>

<text 
x="487" 
y="432" 
class="s1_168"
>groups</text>

<text 
x="535" 
y="432" 
class="s2_168"
>()[</text>

<text 
x="559" 
y="432" 
class="s5_168"
>0</text>

<text 
x="567" 
y="432" 
class="s2_168"
>]</text>

<text 
x="108" 
y="447" 
class="s1_168"
>date</text>

<text 
x="148" 
y="447" 
class="s2_168"
>=</text>

<text 
x="163" 
y="447" 
class="s1_168"
>td</text>

<text 
x="179" 
y="447" 
class="s2_168"
>.</text>

<text 
x="187" 
y="447" 
class="s1_168"
>find</text>

<text 
x="219" 
y="447" 
class="s2_168"
>(</text>

<text 
x="227" 
y="447" 
class="s3_168"
>"span"</text>

<text 
x="274" 
y="447" 
class="s2_168"
>,</text>

<text 
x="290" 
y="447" 
class="s3_168"
>"directorydate"</text>

<text 
x="408" 
y="447" 
class="s2_168"
>).</text>

<text 
x="424" 
y="447" 
class="s1_168"
>text</text>

<text 
x="456" 
y="447" 
class="s2_168"
>.</text>

<text 
x="464" 
y="447" 
class="s1_168"
>strip</text>

<text 
x="503" 
y="447" 
class="s2_168"
>()</text>

<text 
x="108" 
y="478" 
class="s8_168"
>return</text>

<text 
x="163" 
y="478" 
class="s2_168"
>{</text>

<text 
x="140" 
y="494" 
class="s3_168"
>"title"</text>

<text 
x="203" 
y="494" 
class="s2_168"
>:</text>

<text 
x="219" 
y="494" 
class="s1_168"
>title</text>

<text 
x="258" 
y="494" 
class="s2_168"
>,</text>

<text 
x="140" 
y="509" 
class="s3_168"
>"authors"</text>

<text 
x="219" 
y="509" 
class="s2_168"
>:</text>

<text 
x="235" 
y="509" 
class="s1_168"
>authors</text>

<text 
x="290" 
y="509" 
class="s2_168"
>,</text>

<text 
x="140" 
y="524" 
class="s3_168"
>"isbn"</text>

<text 
x="195" 
y="524" 
class="s2_168"
>:</text>

<text 
x="211" 
y="524" 
class="s1_168"
>isbn</text>

<text 
x="242" 
y="524" 
class="s2_168"
>,</text>

<text 
x="140" 
y="540" 
class="s3_168"
>"date"</text>

<text 
x="195" 
y="540" 
class="s2_168"
>:</text>

<text 
x="211" 
y="540" 
class="s1_168"
>date</text>

<text 
x="108" 
y="555" 
class="s2_168"
>}</text>

<text 
x="55" 
y="608" 
class="s6_168"
>And now we’re ready to scrape:</text>

<text 
x="76" 
y="653" 
class="s8_168"
>from</text>

<text 
x="116" 
y="653" 
class="s12_168"
>bs4</text>

<text 
x="148" 
y="653" 
class="s8_168"
>import</text>

<text 
x="203" 
y="653" 
class="s1_168"
>BeautifulSoup</text>

<text 
x="76" 
y="668" 
class="s8_168"
>import</text>

<text 
x="132" 
y="668" 
class="s12_168"
>requests</text>

<text 
x="76" 
y="684" 
class="s8_168"
>from</text>

<text 
x="116" 
y="684" 
class="s12_168"
>time</text>

<text 
x="156" 
y="684" 
class="s8_168"
>import</text>

<text 
x="211" 
y="684" 
class="s1_168"
>sleep</text>

<text 
x="76" 
y="699" 
class="s1_168"
>base_url</text>

<text 
x="148" 
y="699" 
class="s2_168"
>=</text>

<text 
x="163" 
y="699" 
class="s3_168"
>"http://shop.oreilly.com/category/browse-subjects/"</text>

<text 
x="574" 
y="699" 
dx="0,0,4.6" 
class="s2_168"
>+ \</text>

<text 
x="163" 
y="715" 
class="s3_168"
>"data.do?sortby=publicationDate&amp;page="</text>

<text 
x="76" 
y="745" 
class="s1_168"
>books</text>

<text 
x="124" 
y="745" 
dx="0,0,4.6,0" 
class="s2_168"
>= []</text>

<text 
x="76" 
y="776" 
class="s1_168"
>NUM_PAGES</text>

<text 
x="156" 
y="776" 
class="s2_168"
>=</text>

<text 
x="171" 
y="776" 
class="s5_168"
>31</text>

<text 
x="227" 
y="776" 
dx="0,0,4.6,0,0,4.6,0,0,0,4.6,0,0,0,0,4.6,0,0,4.6,0,0,0,0,0,0,0,0,4.6,0,0,0,0,0,0,0,0,4.6,0,0,0,0,4.6,0,0,4.6,0,0" 
class="s4_168"
># at the time of writing, probably more by now</text>

<text 
x="76" 
y="807" 
class="s8_168"
>for</text>

<text 
x="108" 
y="807" 
class="s1_168"
>page_num</text>

<text 
x="179" 
y="807" 
class="s11_168"
>in</text>

<text 
x="203" 
y="807" 
class="s13_168"
>range</text>

<text 
x="242" 
y="807" 
class="s2_168"
>(</text>

<text 
x="250" 
y="807" 
class="s5_168"
>1</text>

<text 
x="258" 
y="807" 
class="s2_168"
>,</text>

<text 
x="274" 
y="807" 
class="s1_168"
>NUM_PAGES</text>

<text 
x="353" 
y="807" 
class="s2_168"
>+</text>

<text 
x="369" 
y="807" 
class="s5_168"
>1</text>

<text 
x="377" 
y="807" 
class="s2_168"
>):</text>

<text 
x="108" 
y="822" 
class="s8_168"
>print</text>

<text 
x="156" 
y="822" 
dx="0,0,0,0,0,0,0,0,0,4.6,0,0,0,0" 
class="s3_168"
>"souping page"</text>

<text 
x="266" 
y="822" 
class="s2_168"
>,</text>

<text 
x="282" 
y="822" 
class="s1_168"
>page_num</text>

<text 
x="345" 
y="822" 
class="s2_168"
>,</text>

<text 
x="361" 
y="822" 
class="s3_168"
>","</text>

<text 
x="385" 
y="822" 
class="s2_168"
>,</text>

<text 
x="401" 
y="822" 
class="s13_168"
>len</text>

<text 
x="424" 
y="822" 
class="s2_168"
>(</text>

<text 
x="432" 
y="822" 
class="s1_168"
>books</text>

<text 
x="472" 
y="822" 
class="s2_168"
>),</text>

<text 
x="495" 
y="822" 
dx="0,0,4.6,0,0,0,0,0,4.6,0,0,4.6,0,0,0" 
class="s3_168"
>" found so far"</text>

<text 
x="108" 
y="838" 
class="s1_168"
>url</text>

<text 
x="140" 
y="838" 
class="s2_168"
>=</text>

<text 
x="156" 
y="838" 
class="s1_168"
>base_url</text>

<text 
x="227" 
y="838" 
class="s2_168"
>+</text>

<text 
x="242" 
y="838" 
class="s13_168"
>str</text>

<text 
x="266" 
y="838" 
class="s2_168"
>(</text>

<text 
x="274" 
y="838" 
class="s1_168"
>page_num</text>

<text 
x="337" 
y="838" 
class="s2_168"
>)</text>

<text 
x="108" 
y="853" 
class="s1_168"
>soup</text>

<text 
x="148" 
y="853" 
class="s2_168"
>=</text>

<text 
x="163" 
y="853" 
class="s1_168"
>BeautifulSoup</text>

<text 
x="266" 
y="853" 
class="s2_168"
>(</text>

<text 
x="274" 
y="853" 
class="s1_168"
>requests</text>

<text 
x="337" 
y="853" 
class="s2_168"
>.</text>

<text 
x="345" 
y="853" 
class="s1_168"
>get</text>

<text 
x="369" 
y="853" 
class="s2_168"
>(</text>

<text 
x="377" 
y="853" 
class="s1_168"
>url</text>

<text 
x="401" 
y="853" 
class="s2_168"
>).</text>

<text 
x="416" 
y="853" 
class="s1_168"
>text</text>

<text 
x="448" 
y="853" 
class="s2_168"
>,</text>

<text 
x="464" 
y="853" 
class="s3_168"
>'html5lib'</text>

<text 
x="543" 
y="853" 
class="s2_168"
>)</text>

<text 
x="108" 
y="884" 
class="s8_168"
>for</text>

<text 
x="140" 
y="884" 
class="s1_168"
>td</text>

<text 
x="163" 
y="884" 
class="s11_168"
>in</text>

<text 
x="187" 
y="884" 
class="s1_168"
>soup</text>

<text 
x="219" 
y="884" 
class="s2_168"
>(</text>

<text 
x="227" 
y="884" 
class="s3_168"
>'td'</text>

<text 
x="258" 
y="884" 
class="s2_168"
>,</text>

<text 
x="274" 
y="884" 
class="s3_168"
>'thumbtext'</text>

<text 
x="361" 
y="884" 
class="s2_168"
>):</text>

<text 
x="140" 
y="900" 
class="s8_168"
>if</text>

<text 
x="163" 
y="900" 
class="s11_168"
>not</text>

<text 
x="195" 
y="900" 
class="s1_168"
>is_video</text>

<text 
x="258" 
y="900" 
class="s2_168"
>(</text>

<text 
x="266" 
y="900" 
class="s1_168"
>td</text>

<text 
x="282" 
y="900" 
class="s2_168"
>):</text>

<text 
x="171" 
y="915" 
class="s1_168"
>books</text>

<text 
x="211" 
y="915" 
class="s2_168"
>.</text>

<text 
x="219" 
y="915" 
class="s1_168"
>append</text>

<text 
x="266" 
y="915" 
class="s2_168"
>(</text>

<text 
x="274" 
y="915" 
class="s1_168"
>book_info</text>

<text 
x="345" 
y="915" 
class="s2_168"
>(</text>

<text 
x="353" 
y="915" 
class="s1_168"
>td</text>

<text 
x="369" 
y="915" 
class="s2_168"
>))</text>

<text 
x="108" 
y="946" 
dx="0,0,4.6,0,0,0,4.6,0,0,4.6,0,4.6,0,0,0,0,4.6,0,0,0,0,0,0,0,4.6,0,0,0,4.6,0,0,0,0,0,0,0,4.6,0,0,0,4.6,0,0,0,0,0,0,0,0,0,0" 
class="s4_168"
># now be a good citizen and respect the robots.txt!</text>

<text 
x="108" 
y="961" 
class="s1_168"
>sleep</text>

<text 
x="148" 
y="961" 
class="s2_168"
>(</text>

<text 
x="156" 
y="961" 
class="s5_168"
>30</text>

<text 
x="171" 
y="961" 
class="s2_168"
>)</text>

<text 
x="421" 
y="1018" 
dx="0,1.1,1.1,1.1" 
class="s14_168"
>NOTE</text>

<text 
x="97" 
y="1048" 
dx="0,0,0,0,0,0,0,0,0,0,0,0,0,0,0,0,0,0,0,0,0,0,0,0,0,0,-0.6,0,0,0,0,0,0,0,0,0,0,0,0,0,0,0,0,0,0,0,0,0,0,0,0,0,0,0,0,0,0,0,0,0,0,0,0,0,0,0,0,0,0,0,0,0,0,0,0,0,0,0,0,0,0,0,0,0,0,0,0,0,0,0,0,0,0,0,0,0,0,0,0,0,0,0,0,0,0,0,0" 
class="s15_168"
>Extracting data from HTML like this is more data art than data science. There are countless other find-the-</text>

<text 
x="97" 
y="1068" 
class="s15_168"
>books and find-the-title logics that would have worked just as well.</text>

<text 
x="55" 
y="1113" 
class="s6_168"
>Now that we’ve collected the data, we can plot the number of books published each year</text>

<text 
x="55" 
y="1140" 
class="s6_168"
>(</text>

<text 
x="62" 
y="1140" 
class="s16_168"
>Figure 9-1</text>

<text 
x="154" 
y="1140" 
class="s6_168"
>):</text>

<text 
x="76" 
y="1186" 
class="s8_168"
>def</text>

<text 
x="108" 
y="1186" 
class="s9_168"
>get_year</text>

<text 
x="171" 
y="1186" 
class="s2_168"
>(</text>

<text 
x="179" 
y="1186" 
class="s1_168"
>book</text>

<text 
x="211" 
y="1186" 
class="s2_168"
>):</text>

<text 
x="108" 
y="1201" 
dx="0,0,0,0,0,0,0,0,0,0,0,0,0,0,0,0,4.6,0,0,0,0,0,4.6,0,0,0,0,4.6,0,0,0,0,0,0,0,0,0,4.6,0,0,0,0,0,4.6,0,0,4.6,0,0,4.6,0,0,0,0,4.6,0" 
class="s10_168"
>"""book["date"] looks like 'November 2014' so we need to</text>

<text 
x="108" 
y="1216" 
dx="0,0,0,0,0,0,4.6,0,0,4.6,0,0,0,4.6,0,0,0,0,0,4.6,0,0,0,4.6,0,0,0,0,4.6,0,0,0,0,4.6,0,0,0,4.6,0,0,0,0,0,0,4.6,0,0,0,0,0,0,0" 
class="s10_168"
>split on the space and then take the second piece"""</text>



<!-- Any embedded fonts defined here -->
<style type="text/css" ><![CDATA[

@font-face {
	font-family: LiberationMono-Bold_1w;
	src: url("fonts/LiberationMono-Bold_1w.woff") format("woff");
}

@font-face {
	font-family: LiberationMono_1q;
	src: url("fonts/LiberationMono_1q.woff") format("woff");
}

@font-face {
	font-family: LiberationMono-Italic_10;
	src: url("fonts/LiberationMono-Italic_10.woff") format("woff");
}

@font-face {
	font-family: LiberationSerif_e;
	src: url("fonts/LiberationSerif_e.woff") format("woff");
}

@font-face {
	font-family: LiberationSerif-Bold_b;
	src: url("fonts/LiberationSerif-Bold_b.woff") format("woff");
}

]]></style>

</svg>
