<?xml version="1.0" encoding="UTF-8" standalone="no"?>
<!DOCTYPE svg PUBLIC "-//W3C//DTD SVG 1.1//EN"
"http://www.w3.org/Graphics/SVG/1.1/DTD/svg11.dtd">


<!-- Page 185 -->
<svg x="0" y="0" width="909" height="1286" viewBox="0 0 909 1286" version="1.1" xmlns="http://www.w3.org/2000/svg" xmlns:xlink="http://www.w3.org/1999/xlink"
style="display: block;margin-left: auto;margin-right: auto;">
<defs>

<style type="text/css"><![CDATA[


.s1_185{
font-size: 25.31px;
font-family: LiberationSerif-Bold_b;
fill: #000000;
}
.s2_185{
font-size: 22.01px;
font-family: LiberationSerif_e;
fill: #000000;
}
.s3_185{
font-size: 13.20px;
font-family: LiberationMono-Bold_1w;
fill: #006699;
}
.s4_185{
font-size: 13.20px;
font-family: LiberationMono_1q;
fill: #CC00FF;
}
.s5_185{
font-size: 13.20px;
font-family: LiberationMono_1q;
fill: #000000;
}
.s6_185{
font-size: 13.20px;
font-family: LiberationMono-Italic_10;
fill: #CC3300;
}
.s7_185{
font-size: 13.20px;
font-family: LiberationMono_1q;
fill: #000088;
}
.s8_185{
font-size: 13.20px;
font-family: LiberationMono-Bold_1w;
fill: #000000;
}
.s9_185{
font-size: 13.20px;
font-family: LiberationMono_1q;
fill: #336666;
}
.s10_185{
font-size: 13.20px;
font-family: LiberationMono_1q;
fill: #FF6600;
}
.s11_185{
font-size: 17.60px;
font-family: LiberationMono_1q;
fill: #000000;
}
.s12_185{
font-size: 16.50px;
font-family: LiberationSerif-Italic_l;
fill: #000000;
}
.s13_185{
font-size: 13.20px;
font-family: LiberationMono-Italic_10;
fill: #000000;
}
.s14_185{
font-size: 22.01px;
font-family: LiberationSerif_e;
fill: #8E0012;
}
.s15_185{
font-size: 13.20px;
font-family: LiberationMono_1q;
fill: #CC3300;
}

]]></style>

</defs>
<path d="M0,0
L0,1286
L909,1286
L909,0 Z " 
fill="#FFFFFF" stroke="none" />
<text 
x="55" 
y="77" 
dx="0,-1.9,0,0,0,0,0,0,0,0,0,0,0,0" 
class="s1_185"
>Two Dimensions</text>

<text 
x="55" 
y="115" 
class="s2_185"
>Now imagine you have a data set with two dimensions. Maybe in addition to daily</text>

<text 
x="55" 
y="143" 
class="s2_185"
>minutes you have years of data science experience. Of course you’d want to understand</text>

<text 
x="55" 
y="170" 
dx="0,0,0,0,0,0,0,0,0,0,0,0,0,0,0,0,0,0,0,0,0,0,0,0,0,0,0,-1.4,0,0,0,0,0,0,0,0,0,0,0,0,0,0,0,0,0,0,0,0,0,0,0,0,0,0,0,0,0,0,0,0,0,0,0,0,0,0,0,0,0,0,0,0,0,0,0,0" 
class="s2_185"
>each dimension individually. But you probably also want to scatter the data.</text>

<text 
x="55" 
y="209" 
class="s2_185"
>For example, consider another fake data set:</text>

<text 
x="76" 
y="254" 
class="s3_185"
>def</text>

<text 
x="108" 
y="254" 
class="s4_185"
>random_normal</text>

<text 
x="211" 
y="254" 
class="s5_185"
>():</text>

<text 
x="108" 
y="269" 
dx="0,0,0,0,0,0,0,0,0,0,0,4.6,0,4.6,0,0,0,0,0,0,4.6,0,0,0,0,4.6,0,0,0,0,4.6,0,4.6,0,0,0,0,0,0,0,0,4.6,0,0,0,0,0,0,4.6,0,0,0,0,0,0,0,0,0,0,0,0,0,0" 
class="s6_185"
>"""returns a random draw from a standard normal distribution"""</text>

<text 
x="108" 
y="284" 
class="s3_185"
>return</text>

<text 
x="163" 
y="284" 
class="s7_185"
>inverse_normal_cdf</text>

<text 
x="306" 
y="284" 
class="s5_185"
>(</text>

<text 
x="314" 
y="284" 
class="s7_185"
>random</text>

<text 
x="361" 
y="284" 
class="s5_185"
>.</text>

<text 
x="369" 
y="284" 
class="s7_185"
>random</text>

<text 
x="416" 
y="284" 
class="s5_185"
>())</text>

<text 
x="76" 
y="315" 
class="s7_185"
>xs</text>

<text 
x="100" 
y="315" 
dx="0,0,4.6" 
class="s5_185"
>= [</text>

<text 
x="124" 
y="315" 
class="s7_185"
>random_normal</text>

<text 
x="227" 
y="315" 
class="s5_185"
>()</text>

<text 
x="250" 
y="315" 
class="s3_185"
>for</text>

<text 
x="282" 
y="315" 
class="s7_185"
>_</text>

<text 
x="298" 
y="315" 
class="s8_185"
>in</text>

<text 
x="322" 
y="315" 
class="s9_185"
>range</text>

<text 
x="361" 
y="315" 
class="s5_185"
>(</text>

<text 
x="369" 
y="315" 
class="s10_185"
>1000</text>

<text 
x="401" 
y="315" 
class="s5_185"
>)]</text>

<text 
x="76" 
y="331" 
class="s7_185"
>ys1</text>

<text 
x="108" 
y="331" 
dx="0,0,4.6" 
class="s5_185"
>= [</text>

<text 
x="140" 
y="331" 
class="s7_185"
>x</text>

<text 
x="156" 
y="331" 
class="s5_185"
>+</text>

<text 
x="171" 
y="331" 
class="s7_185"
>random_normal</text>

<text 
x="274" 
y="331" 
dx="0,0,0,4.6" 
class="s5_185"
>() /</text>

<text 
x="314" 
y="331" 
class="s10_185"
>2</text>

<text 
x="329" 
y="331" 
class="s3_185"
>for</text>

<text 
x="361" 
y="331" 
class="s7_185"
>x</text>

<text 
x="377" 
y="331" 
class="s8_185"
>in</text>

<text 
x="401" 
y="331" 
class="s7_185"
>xs</text>

<text 
x="416" 
y="331" 
class="s5_185"
>]</text>

<text 
x="76" 
y="346" 
class="s7_185"
>ys2</text>

<text 
x="108" 
y="346" 
dx="0,0,4.6,0" 
class="s5_185"
>= [-</text>

<text 
x="140" 
y="346" 
class="s7_185"
>x</text>

<text 
x="156" 
y="346" 
class="s5_185"
>+</text>

<text 
x="171" 
y="346" 
class="s7_185"
>random_normal</text>

<text 
x="274" 
y="346" 
dx="0,0,0,4.6" 
class="s5_185"
>() /</text>

<text 
x="314" 
y="346" 
class="s10_185"
>2</text>

<text 
x="329" 
y="346" 
class="s3_185"
>for</text>

<text 
x="361" 
y="346" 
class="s7_185"
>x</text>

<text 
x="377" 
y="346" 
class="s8_185"
>in</text>

<text 
x="401" 
y="346" 
class="s7_185"
>xs</text>

<text 
x="416" 
y="346" 
class="s5_185"
>]</text>

<text 
x="55" 
y="399" 
class="s2_185"
>If you were to run</text>

<text 
x="219" 
y="399" 
class="s11_185"
>plot_histogram</text>

<text 
x="372" 
y="399" 
class="s2_185"
>on</text>

<text 
x="399" 
y="399" 
class="s11_185"
>ys1</text>

<text 
x="437" 
y="399" 
class="s2_185"
>and</text>

<text 
x="474" 
y="399" 
class="s11_185"
>ys2</text>

<text 
x="511" 
y="399" 
class="s2_185"
>you’d get very similar looking plots</text>

<text 
x="55" 
y="429" 
class="s2_185"
>(indeed, both are normally distributed with the same mean and standard deviation).</text>

<image preserveAspectRatio="none" x="80" y="452" width="750" height="587" xlink:href="185/img/1.png" />
<text 
x="341" 
y="1065" 
dx="0,0,0,0,0,-0.6,0,0,0,0,0,0,0,0,0,0,0,0,0,0,0,0,0,0,0" 
class="s12_185"
>Figure 10-2. Histogram of</text>

<text 
x="520" 
y="1065" 
class="s13_185"
>normal</text>

<text 
x="55" 
y="1106" 
dx="0,0,0,0,0,0,0,0,0,0,0,0,0,0,0,0,0,0,0,0,0,0,0,-0.4,0,0,0,0,0,0,0,0,0,0,0,0,0,0,0,0,0,0,0,0,0,0,0,0,0,0,0,0,0" 
class="s2_185"
>But each has a very different joint distribution with</text>

<text 
x="510" 
y="1106" 
class="s11_185"
>xs</text>

<text 
x="531" 
y="1106" 
class="s2_185"
>, as shown in</text>

<text 
x="652" 
y="1106" 
class="s14_185"
>Figure 10-3</text>

<text 
x="755" 
y="1106" 
class="s2_185"
>:</text>

<text 
x="76" 
y="1154" 
class="s7_185"
>plt</text>

<text 
x="100" 
y="1154" 
class="s5_185"
>.</text>

<text 
x="108" 
y="1154" 
class="s7_185"
>scatter</text>

<text 
x="163" 
y="1154" 
class="s5_185"
>(</text>

<text 
x="171" 
y="1154" 
class="s7_185"
>xs</text>

<text 
x="187" 
y="1154" 
class="s5_185"
>,</text>

<text 
x="203" 
y="1154" 
class="s7_185"
>ys1</text>

<text 
x="227" 
y="1154" 
class="s5_185"
>,</text>

<text 
x="242" 
y="1154" 
class="s7_185"
>marker</text>

<text 
x="290" 
y="1154" 
class="s5_185"
>=</text>

<text 
x="298" 
y="1154" 
class="s15_185"
>'.'</text>

<text 
x="322" 
y="1154" 
class="s5_185"
>,</text>

<text 
x="337" 
y="1154" 
class="s7_185"
>color</text>

<text 
x="377" 
y="1154" 
class="s5_185"
>=</text>

<text 
x="385" 
y="1154" 
class="s15_185"
>'black'</text>

<text 
x="440" 
y="1154" 
class="s5_185"
>,</text>

<text 
x="456" 
y="1154" 
class="s7_185"
>label</text>

<text 
x="495" 
y="1154" 
class="s5_185"
>=</text>

<text 
x="503" 
y="1154" 
class="s15_185"
>'ys1'</text>

<text 
x="543" 
y="1154" 
class="s5_185"
>)</text>

<text 
x="76" 
y="1169" 
class="s7_185"
>plt</text>

<text 
x="100" 
y="1169" 
class="s5_185"
>.</text>

<text 
x="108" 
y="1169" 
class="s7_185"
>scatter</text>

<text 
x="163" 
y="1169" 
class="s5_185"
>(</text>

<text 
x="171" 
y="1169" 
class="s7_185"
>xs</text>

<text 
x="187" 
y="1169" 
class="s5_185"
>,</text>

<text 
x="203" 
y="1169" 
class="s7_185"
>ys2</text>

<text 
x="227" 
y="1169" 
class="s5_185"
>,</text>

<text 
x="242" 
y="1169" 
class="s7_185"
>marker</text>

<text 
x="290" 
y="1169" 
class="s5_185"
>=</text>

<text 
x="298" 
y="1169" 
class="s15_185"
>'.'</text>

<text 
x="322" 
y="1169" 
class="s5_185"
>,</text>

<text 
x="337" 
y="1169" 
class="s7_185"
>color</text>

<text 
x="377" 
y="1169" 
class="s5_185"
>=</text>

<text 
x="385" 
y="1169" 
class="s15_185"
>'gray'</text>

<text 
x="432" 
y="1169" 
class="s5_185"
>,</text>

<text 
x="456" 
y="1169" 
class="s7_185"
>label</text>

<text 
x="495" 
y="1169" 
class="s5_185"
>=</text>

<text 
x="503" 
y="1169" 
class="s15_185"
>'ys2'</text>

<text 
x="543" 
y="1169" 
class="s5_185"
>)</text>

<text 
x="76" 
y="1184" 
class="s7_185"
>plt</text>

<text 
x="100" 
y="1184" 
class="s5_185"
>.</text>

<text 
x="108" 
y="1184" 
class="s7_185"
>xlabel</text>

<text 
x="156" 
y="1184" 
class="s5_185"
>(</text>

<text 
x="163" 
y="1184" 
class="s15_185"
>'xs'</text>

<text 
x="195" 
y="1184" 
class="s5_185"
>)</text>

<text 
x="76" 
y="1200" 
class="s7_185"
>plt</text>

<text 
x="100" 
y="1200" 
class="s5_185"
>.</text>

<text 
x="108" 
y="1200" 
class="s7_185"
>ylabel</text>

<text 
x="156" 
y="1200" 
class="s5_185"
>(</text>

<text 
x="163" 
y="1200" 
class="s15_185"
>'ys'</text>

<text 
x="195" 
y="1200" 
class="s5_185"
>)</text>

<text 
x="76" 
y="1215" 
class="s7_185"
>plt</text>

<text 
x="100" 
y="1215" 
class="s5_185"
>.</text>

<text 
x="108" 
y="1215" 
class="s7_185"
>legend</text>

<text 
x="156" 
y="1215" 
class="s5_185"
>(</text>

<text 
x="163" 
y="1215" 
class="s7_185"
>loc</text>

<text 
x="187" 
y="1215" 
class="s5_185"
>=</text>

<text 
x="195" 
y="1215" 
class="s10_185"
>9</text>

<text 
x="203" 
y="1215" 
class="s5_185"
>)</text>



<!-- Any embedded fonts defined here -->
<style type="text/css" ><![CDATA[

@font-face {
	font-family: LiberationMono-Bold_1w;
	src: url("fonts/LiberationMono-Bold_1w.woff") format("woff");
}

@font-face {
	font-family: LiberationSerif-Italic_l;
	src: url("fonts/LiberationSerif-Italic_l.woff") format("woff");
}

@font-face {
	font-family: LiberationMono_1q;
	src: url("fonts/LiberationMono_1q.woff") format("woff");
}

@font-face {
	font-family: LiberationMono-Italic_10;
	src: url("fonts/LiberationMono-Italic_10.woff") format("woff");
}

@font-face {
	font-family: LiberationSerif-Bold_b;
	src: url("fonts/LiberationSerif-Bold_b.woff") format("woff");
}

@font-face {
	font-family: LiberationSerif_e;
	src: url("fonts/LiberationSerif_e.woff") format("woff");
}

]]></style>

</svg>
