<?xml version="1.0" encoding="UTF-8" standalone="no"?>
<!DOCTYPE svg PUBLIC "-//W3C//DTD SVG 1.1//EN"
"http://www.w3.org/Graphics/SVG/1.1/DTD/svg11.dtd">


<!-- Page 187 -->
<svg x="0" y="0" width="909" height="1286" viewBox="0 0 909 1286" version="1.1" xmlns="http://www.w3.org/2000/svg" xmlns:xlink="http://www.w3.org/1999/xlink"
style="display: block;margin-left: auto;margin-right: auto;">
<defs>

<style type="text/css"><![CDATA[


.s1_187{
font-size: 25.31px;
font-family: LiberationSerif-Bold_b;
fill: #000000;
}
.s2_187{
font-size: 22.01px;
font-family: LiberationSerif_e;
fill: #000000;
}
.s3_187{
font-size: 22.01px;
font-family: LiberationSerif-Italic_l;
fill: #000000;
}
.s4_187{
font-size: 13.20px;
font-family: LiberationMono-Bold_1w;
fill: #006699;
}
.s5_187{
font-size: 13.20px;
font-family: LiberationMono_1q;
fill: #CC00FF;
}
.s6_187{
font-size: 13.20px;
font-family: LiberationMono_1q;
fill: #000000;
}
.s7_187{
font-size: 13.20px;
font-family: LiberationMono_1q;
fill: #000088;
}
.s8_187{
font-size: 13.20px;
font-family: LiberationMono-Italic_10;
fill: #CC3300;
}
.s9_187{
font-size: 22.01px;
font-family: LiberationSerif_e;
fill: #8E0012;
}
.s10_187{
font-size: 17.60px;
font-family: LiberationMono_1q;
fill: #000000;
}
.s11_187{
font-size: 13.20px;
font-family: LiberationMono-Bold_1w;
fill: #00CCFF;
}
.s12_187{
font-size: 13.20px;
font-family: LiberationMono-Bold_1w;
fill: #000000;
}
.s13_187{
font-size: 13.20px;
font-family: LiberationMono_1q;
fill: #336666;
}
.s14_187{
font-size: 13.20px;
font-family: LiberationMono-Italic_10;
fill: #0099FF;
}
.s15_187{
font-size: 13.20px;
font-family: LiberationMono_1q;
fill: #CC3300;
}
.s16_187{
font-size: 13.20px;
font-family: LiberationMono_1q;
fill: #FF6600;
}

]]></style>

</defs>
<path d="M0,0
L0,1286
L909,1286
L909,0 Z " 
fill="#FFFFFF" stroke="none" />
<text 
x="55" 
y="77" 
class="s1_187"
>Many Dimensions</text>

<text 
x="55" 
y="115" 
dx="0,-0.9,0,0,0,0,0,0,0,0,0,0,0,0,0,0,0,0,0,0,0,0,0,0,0,0,0,0,0,0,0,0,0,0,0,0,0,0,0,0,0,0,0,0,0,0,0,0,0,0,0,0,0,0,0,0,0,0,0,0,0,0,0,0,0,0,0,0,0,0,0,0,0,0,0,0,0,0,0,0,0,0,0,0,0,-1.2" 
class="s2_187"
>With many dimensions, you’d like to know how all the dimensions relate to one another.</text>

<text 
x="55" 
y="143" 
dx="0,0,-1.2,0,0,0,0,0,0,0,0,0,0,0,0,0,0,0,0,0,0,0,0,0,0,0,0,0,0,0,0,0,0,0,0" 
class="s2_187"
>A simple approach is to look at the</text>

<text 
x="366" 
y="143" 
dx="0,0,0,0,-0.8,0,0,0,0,0,0,0,0,0,0,0,0,0" 
class="s3_187"
>correlation matrix</text>

<text 
x="527" 
y="143" 
class="s2_187"
>, in which the entry in row</text>

<text 
x="765" 
y="143" 
class="s3_187"
>i</text>

<text 
x="777" 
y="143" 
class="s2_187"
>and</text>

<text 
x="55" 
y="170" 
class="s2_187"
>column</text>

<text 
x="126" 
y="170" 
class="s3_187"
>j</text>

<text 
x="138" 
y="170" 
class="s2_187"
>is the correlation between the</text>

<text 
x="402" 
y="170" 
class="s3_187"
>i</text>

<text 
x="408" 
y="170" 
class="s2_187"
>th dimension and the</text>

<text 
x="597" 
y="170" 
class="s3_187"
>j</text>

<text 
x="603" 
y="170" 
class="s2_187"
>th dimension of the data:</text>

<text 
x="76" 
y="215" 
class="s4_187"
>def</text>

<text 
x="108" 
y="215" 
class="s5_187"
>correlation_matrix</text>

<text 
x="250" 
y="215" 
class="s6_187"
>(</text>

<text 
x="258" 
y="215" 
class="s7_187"
>data</text>

<text 
x="290" 
y="215" 
class="s6_187"
>):</text>

<text 
x="108" 
y="231" 
dx="0,0,0,0,0,0,0,0,0,0,0,4.6,0,0,0,4.6,0,0,0,0,0,0,0,0,0,0,0,4.6,0,4.6,0,0,0,0,0,0,0,0,0,0,0,4.6,0,0,0,0,0,0,4.6,0,0,0,0,0,4.6,0,0,0,4.6,0,0,0,0,4.6,0,0,0,0" 
class="s8_187"
>"""returns the num_columns x num_columns matrix whose (i, j)th entry</text>

<text 
x="108" 
y="246" 
dx="0,0,0,4.6,0,0,0,4.6,0,0,0,0,0,0,0,0,0,0,0,4.6,0,0,0,0,0,0,0,4.6,0,0,0,0,0,0,0,4.6,0,4.6,0,0,0,4.6,0,4.6,0,0,4.6,0,0,0,0,0,0" 
class="s8_187"
>is the correlation between columns i and j of data"""</text>

<text 
x="108" 
y="277" 
class="s7_187"
>_</text>

<text 
x="116" 
y="277" 
class="s6_187"
>,</text>

<text 
x="132" 
y="277" 
class="s7_187"
>num_columns</text>

<text 
x="227" 
y="277" 
class="s6_187"
>=</text>

<text 
x="242" 
y="277" 
class="s7_187"
>shape</text>

<text 
x="282" 
y="277" 
class="s6_187"
>(</text>

<text 
x="290" 
y="277" 
class="s7_187"
>data</text>

<text 
x="322" 
y="277" 
class="s6_187"
>)</text>

<text 
x="108" 
y="308" 
class="s4_187"
>def</text>

<text 
x="140" 
y="308" 
class="s5_187"
>matrix_entry</text>

<text 
x="235" 
y="308" 
class="s6_187"
>(</text>

<text 
x="242" 
y="308" 
class="s7_187"
>i</text>

<text 
x="250" 
y="308" 
class="s6_187"
>,</text>

<text 
x="266" 
y="308" 
class="s7_187"
>j</text>

<text 
x="274" 
y="308" 
class="s6_187"
>):</text>

<text 
x="140" 
y="323" 
class="s4_187"
>return</text>

<text 
x="195" 
y="323" 
class="s7_187"
>correlation</text>

<text 
x="282" 
y="323" 
class="s6_187"
>(</text>

<text 
x="290" 
y="323" 
class="s7_187"
>get_column</text>

<text 
x="369" 
y="323" 
class="s6_187"
>(</text>

<text 
x="377" 
y="323" 
class="s7_187"
>data</text>

<text 
x="408" 
y="323" 
class="s6_187"
>,</text>

<text 
x="424" 
y="323" 
class="s7_187"
>i</text>

<text 
x="432" 
y="323" 
class="s6_187"
>),</text>

<text 
x="456" 
y="323" 
class="s7_187"
>get_column</text>

<text 
x="535" 
y="323" 
class="s6_187"
>(</text>

<text 
x="543" 
y="323" 
class="s7_187"
>data</text>

<text 
x="574" 
y="323" 
class="s6_187"
>,</text>

<text 
x="590" 
y="323" 
class="s7_187"
>j</text>

<text 
x="598" 
y="323" 
class="s6_187"
>))</text>

<text 
x="108" 
y="354" 
class="s4_187"
>return</text>

<text 
x="163" 
y="354" 
class="s7_187"
>make_matrix</text>

<text 
x="250" 
y="354" 
class="s6_187"
>(</text>

<text 
x="258" 
y="354" 
class="s7_187"
>num_columns</text>

<text 
x="345" 
y="354" 
class="s6_187"
>,</text>

<text 
x="361" 
y="354" 
class="s7_187"
>num_columns</text>

<text 
x="448" 
y="354" 
class="s6_187"
>,</text>

<text 
x="464" 
y="354" 
class="s7_187"
>matrix_entry</text>

<text 
x="559" 
y="354" 
class="s6_187"
>)</text>

<text 
x="55" 
y="407" 
dx="0,0,-1.2,0,0,0,0,0,0,0,0,0,0,0,0,0,0,0,0,0,0,0,0,0,0,0,0,0,0,0,0,0,0,0,0,-0.4,0,0,0,0,0,0,0,0,0,0,0,0,0,0,0,0,0,0,0,0,0,0,0,0,0,0,0,0,0,0,0,0,0,0,0,0,0,0,0" 
class="s2_187"
>A more visual approach (if you don’t have too many dimensions) is to make a</text>

<text 
x="745" 
y="407" 
class="s3_187"
>scatterplot</text>

<text 
x="55" 
y="434" 
class="s3_187"
>matrix</text>

<text 
x="117" 
y="434" 
class="s2_187"
>(</text>

<text 
x="125" 
y="434" 
class="s9_187"
>Figure 10-4</text>

<text 
x="228" 
y="434" 
dx="0,0,0,0,0,0,0,0,0,0,0,0,0,0,0,0,0,0,0,0,0,0,0,0,0,0,0,0,0,0,0,0,0,0,0,0,0,0,0,0,0,0,-1.6,0,0,0,0,0,0,0,0,0,0,0,0,0,0,0,0,0,0" 
class="s2_187"
>) showing all the pairwise scatterplots. To do that we’ll use</text>

<text 
x="55" 
y="462" 
class="s10_187"
>plt.subplots()</text>

<text 
x="202" 
y="462" 
dx="0,0,0,0,0,0,0,0,0,0,0,0,0,0,0,0,0,0,0,0,0,0,0,0,0,0,0,0,0,0,0,0,0,0,0,0,0,0,0,0,0,0,0,0,0,0,0,0,0,0,0,0,-1.8,0,0,0,0,0,0,0,0,0,0,0,0,0,0,0,0,0,0,0,0,0,0" 
class="s2_187"
>, which allows us to create subplots of our chart. We give it the number of</text>

<text 
x="55" 
y="491" 
class="s2_187"
>rows and the number of columns, and it returns a</text>

<text 
x="491" 
y="491" 
class="s10_187"
>figure</text>

<text 
x="560" 
y="491" 
dx="0,0,0,0,0,0,0,0,0,0,0,0,0,0,0,0,0,0,0,0,0,-0.4,0,0,0,0,0,0,0,0,0" 
class="s2_187"
>object (which we won’t use) and</text>

<text 
x="55" 
y="521" 
class="s2_187"
>a two-dimensional array of</text>

<text 
x="297" 
y="521" 
class="s10_187"
>axes</text>

<text 
x="345" 
y="521" 
class="s2_187"
>objects (each of which we’ll plot to):</text>

<text 
x="76" 
y="568" 
class="s4_187"
>import</text>

<text 
x="132" 
y="568" 
class="s11_187"
>matplotlib.pyplot</text>

<text 
x="274" 
y="568" 
class="s4_187"
>as</text>

<text 
x="298" 
y="568" 
class="s11_187"
>plt</text>

<text 
x="76" 
y="599" 
class="s7_187"
>_</text>

<text 
x="84" 
y="599" 
class="s6_187"
>,</text>

<text 
x="100" 
y="599" 
class="s7_187"
>num_columns</text>

<text 
x="195" 
y="599" 
class="s6_187"
>=</text>

<text 
x="211" 
y="599" 
class="s7_187"
>shape</text>

<text 
x="250" 
y="599" 
class="s6_187"
>(</text>

<text 
x="258" 
y="599" 
class="s7_187"
>data</text>

<text 
x="290" 
y="599" 
class="s6_187"
>)</text>

<text 
x="76" 
y="615" 
class="s7_187"
>fig</text>

<text 
x="100" 
y="615" 
class="s6_187"
>,</text>

<text 
x="116" 
y="615" 
class="s7_187"
>ax</text>

<text 
x="140" 
y="615" 
class="s6_187"
>=</text>

<text 
x="156" 
y="615" 
class="s7_187"
>plt</text>

<text 
x="179" 
y="615" 
class="s6_187"
>.</text>

<text 
x="187" 
y="615" 
class="s7_187"
>subplots</text>

<text 
x="250" 
y="615" 
class="s6_187"
>(</text>

<text 
x="258" 
y="615" 
class="s7_187"
>num_columns</text>

<text 
x="345" 
y="615" 
class="s6_187"
>,</text>

<text 
x="361" 
y="615" 
class="s7_187"
>num_columns</text>

<text 
x="448" 
y="615" 
class="s6_187"
>)</text>

<text 
x="76" 
y="645" 
class="s4_187"
>for</text>

<text 
x="108" 
y="645" 
class="s7_187"
>i</text>

<text 
x="124" 
y="645" 
class="s12_187"
>in</text>

<text 
x="148" 
y="645" 
class="s13_187"
>range</text>

<text 
x="187" 
y="645" 
class="s6_187"
>(</text>

<text 
x="195" 
y="645" 
class="s7_187"
>num_columns</text>

<text 
x="282" 
y="645" 
class="s6_187"
>):</text>

<text 
x="108" 
y="661" 
class="s4_187"
>for</text>

<text 
x="140" 
y="661" 
class="s7_187"
>j</text>

<text 
x="156" 
y="661" 
class="s12_187"
>in</text>

<text 
x="179" 
y="661" 
class="s13_187"
>range</text>

<text 
x="219" 
y="661" 
class="s6_187"
>(</text>

<text 
x="227" 
y="661" 
class="s7_187"
>num_columns</text>

<text 
x="314" 
y="661" 
class="s6_187"
>):</text>

<text 
x="140" 
y="692" 
dx="0,0,4.6,0,0,0,0,0,0,0,4.6,0,0,0,0,0,0,0,0,4.6,0,0,4.6,0,0,0,4.6,0,0,0,0,0,0,4.6,0,0,4.6,0,0,0,0,0,0,0,0,4.6,0,0,4.6,0,0,0,4.6,0,0,0,0,0" 
class="s14_187"
># scatter column_j on the x-axis vs column_i on the y-axis</text>

<text 
x="140" 
y="707" 
class="s4_187"
>if</text>

<text 
x="163" 
y="707" 
class="s7_187"
>i</text>

<text 
x="179" 
y="707" 
class="s6_187"
>!=</text>

<text 
x="203" 
y="707" 
class="s7_187"
>j</text>

<text 
x="211" 
y="707" 
class="s6_187"
>:</text>

<text 
x="227" 
y="707" 
class="s7_187"
>ax</text>

<text 
x="242" 
y="707" 
class="s6_187"
>[</text>

<text 
x="250" 
y="707" 
class="s7_187"
>i</text>

<text 
x="258" 
y="707" 
class="s6_187"
>][</text>

<text 
x="274" 
y="707" 
class="s7_187"
>j</text>

<text 
x="282" 
y="707" 
class="s6_187"
>].</text>

<text 
x="298" 
y="707" 
class="s7_187"
>scatter</text>

<text 
x="353" 
y="707" 
class="s6_187"
>(</text>

<text 
x="361" 
y="707" 
class="s7_187"
>get_column</text>

<text 
x="440" 
y="707" 
class="s6_187"
>(</text>

<text 
x="448" 
y="707" 
class="s7_187"
>data</text>

<text 
x="480" 
y="707" 
class="s6_187"
>,</text>

<text 
x="495" 
y="707" 
class="s7_187"
>j</text>

<text 
x="503" 
y="707" 
class="s6_187"
>),</text>

<text 
x="527" 
y="707" 
class="s7_187"
>get_column</text>

<text 
x="606" 
y="707" 
class="s6_187"
>(</text>

<text 
x="614" 
y="707" 
class="s7_187"
>data</text>

<text 
x="646" 
y="707" 
class="s6_187"
>,</text>

<text 
x="661" 
y="707" 
class="s7_187"
>i</text>

<text 
x="669" 
y="707" 
class="s6_187"
>))</text>

<text 
x="140" 
y="738" 
dx="0,0,4.6,0,0,0,0,0,0,4.6,0,4.6,0,0,4.6,0,0,4.6,0,0,4.6,0,0,0,0,0,4.6,0,0,0,0,4.6,0,0,0,0,4.6,0,0,0,4.6,0,0,0,0,0,0,4.6,0,0,0" 
class="s14_187"
># unless i == j, in which case show the series name</text>

<text 
x="140" 
y="753" 
class="s4_187"
>else</text>

<text 
x="171" 
y="753" 
class="s6_187"
>:</text>

<text 
x="187" 
y="753" 
class="s7_187"
>ax</text>

<text 
x="203" 
y="753" 
class="s6_187"
>[</text>

<text 
x="211" 
y="753" 
class="s7_187"
>i</text>

<text 
x="219" 
y="753" 
class="s6_187"
>][</text>

<text 
x="235" 
y="753" 
class="s7_187"
>j</text>

<text 
x="242" 
y="753" 
class="s6_187"
>].</text>

<text 
x="258" 
y="753" 
class="s7_187"
>annotate</text>

<text 
x="322" 
y="753" 
class="s6_187"
>(</text>

<text 
x="329" 
y="753" 
dx="0,0,0,0,0,0,0,0,4.6" 
class="s15_187"
>"series "</text>

<text 
x="408" 
y="753" 
class="s6_187"
>+</text>

<text 
x="424" 
y="753" 
class="s13_187"
>str</text>

<text 
x="448" 
y="753" 
class="s6_187"
>(</text>

<text 
x="456" 
y="753" 
class="s7_187"
>i</text>

<text 
x="464" 
y="753" 
dx="0,0,0,4.6" 
class="s6_187"
>), (</text>

<text 
x="495" 
y="753" 
class="s16_187"
>0.5</text>

<text 
x="519" 
y="753" 
class="s6_187"
>,</text>

<text 
x="535" 
y="753" 
class="s16_187"
>0.5</text>

<text 
x="559" 
y="753" 
class="s6_187"
>),</text>

<text 
x="329" 
y="769" 
class="s7_187"
>xycoords</text>

<text 
x="393" 
y="769" 
class="s6_187"
>=</text>

<text 
x="401" 
y="769" 
dx="0,0,0,0,0,0,4.6,0,0,0,0,0,0,0,0" 
class="s15_187"
>'axes fraction'</text>

<text 
x="519" 
y="769" 
class="s6_187"
>,</text>

<text 
x="329" 
y="784" 
class="s7_187"
>ha</text>

<text 
x="345" 
y="784" 
class="s6_187"
>=</text>

<text 
x="353" 
y="784" 
class="s15_187"
>"center"</text>

<text 
x="416" 
y="784" 
class="s6_187"
>,</text>

<text 
x="432" 
y="784" 
class="s7_187"
>va</text>

<text 
x="448" 
y="784" 
class="s6_187"
>=</text>

<text 
x="456" 
y="784" 
class="s15_187"
>"center"</text>

<text 
x="519" 
y="784" 
class="s6_187"
>)</text>

<text 
x="140" 
y="815" 
dx="0,0,4.6,0,0,0,0,4.6,0,0,0,0,4.6,0,0,0,0,4.6,0,0,0,0,0,0,4.6,0,0,0,0,0,0,4.6,0,0,0,0,4.6,0,0,0,4.6,0,0,0,0,0,0,4.6,0,0,0,0,0" 
class="s14_187"
># then hide axis labels except left and bottom charts</text>

<text 
x="140" 
y="830" 
class="s4_187"
>if</text>

<text 
x="163" 
y="830" 
class="s7_187"
>i</text>

<text 
x="179" 
y="830" 
class="s6_187"
>&lt;</text>

<text 
x="195" 
y="830" 
class="s7_187"
>num_columns</text>

<text 
x="290" 
y="830" 
class="s6_187"
>-</text>

<text 
x="306" 
y="830" 
class="s16_187"
>1</text>

<text 
x="314" 
y="830" 
class="s6_187"
>:</text>

<text 
x="329" 
y="830" 
class="s7_187"
>ax</text>

<text 
x="345" 
y="830" 
class="s6_187"
>[</text>

<text 
x="353" 
y="830" 
class="s7_187"
>i</text>

<text 
x="361" 
y="830" 
class="s6_187"
>][</text>

<text 
x="377" 
y="830" 
class="s7_187"
>j</text>

<text 
x="385" 
y="830" 
class="s6_187"
>].</text>

<text 
x="401" 
y="830" 
class="s7_187"
>xaxis</text>

<text 
x="440" 
y="830" 
class="s6_187"
>.</text>

<text 
x="448" 
y="830" 
class="s7_187"
>set_visible</text>

<text 
x="535" 
y="830" 
class="s6_187"
>(</text>

<text 
x="543" 
y="830" 
class="s13_187"
>False</text>

<text 
x="582" 
y="830" 
class="s6_187"
>)</text>

<text 
x="140" 
y="846" 
class="s4_187"
>if</text>

<text 
x="163" 
y="846" 
class="s7_187"
>j</text>

<text 
x="179" 
y="846" 
class="s6_187"
>&gt;</text>

<text 
x="195" 
y="846" 
class="s16_187"
>0</text>

<text 
x="203" 
y="846" 
class="s6_187"
>:</text>

<text 
x="219" 
y="846" 
class="s7_187"
>ax</text>

<text 
x="235" 
y="846" 
class="s6_187"
>[</text>

<text 
x="242" 
y="846" 
class="s7_187"
>i</text>

<text 
x="250" 
y="846" 
class="s6_187"
>][</text>

<text 
x="266" 
y="846" 
class="s7_187"
>j</text>

<text 
x="274" 
y="846" 
class="s6_187"
>].</text>

<text 
x="290" 
y="846" 
class="s7_187"
>yaxis</text>

<text 
x="329" 
y="846" 
class="s6_187"
>.</text>

<text 
x="337" 
y="846" 
class="s7_187"
>set_visible</text>

<text 
x="424" 
y="846" 
class="s6_187"
>(</text>

<text 
x="432" 
y="846" 
class="s13_187"
>False</text>

<text 
x="472" 
y="846" 
class="s6_187"
>)</text>

<text 
x="76" 
y="876" 
dx="0,0,4.6,0,0,0,4.6,0,0,0,4.6,0,0,0,0,0,0,4.6,0,0,0,0,0,4.6,0,0,0,4.6,0,0,0,4.6,0,0,0,0,4.6,0,0,0,0,4.6,0,0,0,0,0,0,0,4.6,0,0,0,0,0,4.6,0,0,0,4.6,0,0,0,0,0,4.6,0,0,0,0,0,0" 
class="s14_187"
># fix the bottom right and top left axis labels, which are wrong because</text>

<text 
x="76" 
y="892" 
dx="0,0,4.6,0,0,0,0,0,4.6,0,0,0,0,0,0,4.6,0,0,0,0,4.6,0,0,0,0,4.6,0,0,0,0,4.6,0,0,4.6,0,0,0" 
class="s14_187"
># their charts only have text in them</text>

<text 
x="76" 
y="907" 
class="s7_187"
>ax</text>

<text 
x="92" 
y="907" 
class="s6_187"
>[-</text>

<text 
x="108" 
y="907" 
class="s16_187"
>1</text>

<text 
x="116" 
y="907" 
class="s6_187"
>][-</text>

<text 
x="140" 
y="907" 
class="s16_187"
>1</text>

<text 
x="148" 
y="907" 
class="s6_187"
>].</text>

<text 
x="163" 
y="907" 
class="s7_187"
>set_xlim</text>

<text 
x="227" 
y="907" 
class="s6_187"
>(</text>

<text 
x="235" 
y="907" 
class="s7_187"
>ax</text>

<text 
x="250" 
y="907" 
class="s6_187"
>[</text>

<text 
x="258" 
y="907" 
class="s16_187"
>0</text>

<text 
x="266" 
y="907" 
class="s6_187"
>][-</text>

<text 
x="290" 
y="907" 
class="s16_187"
>1</text>

<text 
x="298" 
y="907" 
class="s6_187"
>].</text>

<text 
x="314" 
y="907" 
class="s7_187"
>get_xlim</text>

<text 
x="377" 
y="907" 
class="s6_187"
>())</text>

<text 
x="76" 
y="923" 
class="s7_187"
>ax</text>

<text 
x="92" 
y="923" 
class="s6_187"
>[</text>

<text 
x="100" 
y="923" 
class="s16_187"
>0</text>

<text 
x="108" 
y="923" 
class="s6_187"
>][</text>

<text 
x="124" 
y="923" 
class="s16_187"
>0</text>

<text 
x="132" 
y="923" 
class="s6_187"
>].</text>

<text 
x="148" 
y="923" 
class="s7_187"
>set_ylim</text>

<text 
x="211" 
y="923" 
class="s6_187"
>(</text>

<text 
x="219" 
y="923" 
class="s7_187"
>ax</text>

<text 
x="235" 
y="923" 
class="s6_187"
>[</text>

<text 
x="242" 
y="923" 
class="s16_187"
>0</text>

<text 
x="250" 
y="923" 
class="s6_187"
>][</text>

<text 
x="266" 
y="923" 
class="s16_187"
>1</text>

<text 
x="274" 
y="923" 
class="s6_187"
>].</text>

<text 
x="290" 
y="923" 
class="s7_187"
>get_ylim</text>

<text 
x="353" 
y="923" 
class="s6_187"
>())</text>

<text 
x="76" 
y="953" 
class="s7_187"
>plt</text>

<text 
x="100" 
y="953" 
class="s6_187"
>.</text>

<text 
x="108" 
y="953" 
class="s7_187"
>show</text>

<text 
x="140" 
y="953" 
class="s6_187"
>()</text>



<!-- Any embedded fonts defined here -->
<style type="text/css" ><![CDATA[

@font-face {
	font-family: LiberationSerif-Italic_l;
	src: url("fonts/LiberationSerif-Italic_l.woff") format("woff");
}

@font-face {
	font-family: LiberationMono-Bold_1w;
	src: url("fonts/LiberationMono-Bold_1w.woff") format("woff");
}

@font-face {
	font-family: LiberationMono_1q;
	src: url("fonts/LiberationMono_1q.woff") format("woff");
}

@font-face {
	font-family: LiberationMono-Italic_10;
	src: url("fonts/LiberationMono-Italic_10.woff") format("woff");
}

@font-face {
	font-family: LiberationSerif-Bold_b;
	src: url("fonts/LiberationSerif-Bold_b.woff") format("woff");
}

@font-face {
	font-family: LiberationSerif_e;
	src: url("fonts/LiberationSerif_e.woff") format("woff");
}

]]></style>

</svg>
