<?xml version="1.0" encoding="UTF-8" standalone="no"?>
<!DOCTYPE svg PUBLIC "-//W3C//DTD SVG 1.1//EN"
"http://www.w3.org/Graphics/SVG/1.1/DTD/svg11.dtd">


<!-- Page 198 -->
<svg x="0" y="0" width="909" height="1286" viewBox="0 0 909 1286" version="1.1" xmlns="http://www.w3.org/2000/svg" xmlns:xlink="http://www.w3.org/1999/xlink"
style="display: block;margin-left: auto;margin-right: auto;">
<defs>

<style type="text/css"><![CDATA[


.s1_198{
font-size: 22.01px;
font-family: LiberationSerif_e;
fill: #000000;
}
.s2_198{
font-size: 13.20px;
font-family: LiberationMono-Bold_1w;
fill: #006699;
}
.s3_198{
font-size: 13.20px;
font-family: LiberationMono_1q;
fill: #CC00FF;
}
.s4_198{
font-size: 13.20px;
font-family: LiberationMono_1q;
fill: #000000;
}
.s5_198{
font-size: 13.20px;
font-family: LiberationMono_1q;
fill: #000088;
}
.s6_198{
font-size: 13.20px;
font-family: LiberationMono-Italic_10;
fill: #CC3300;
}
.s7_198{
font-size: 13.20px;
font-family: LiberationMono_1q;
fill: #FF6600;
}
.s8_198{
font-size: 13.20px;
font-family: LiberationMono-Bold_1w;
fill: #000000;
}
.s9_198{
font-size: 17.60px;
font-family: LiberationMono_1q;
fill: #000000;
}
.s10_198{
font-size: 13.20px;
font-family: LiberationMono-Italic_10;
fill: #0099FF;
}
.s11_198{
font-size: 13.20px;
font-family: LiberationMono_1q;
fill: #336666;
}
.s12_198{
font-size: 22.01px;
font-family: LiberationSerif_e;
fill: #8E0012;
}

]]></style>

</defs>
<path d="M0,0
L0,1286
L909,1286
L909,0 Z " 
fill="#FFFFFF" stroke="none" />
<text 
x="55" 
y="102" 
dx="0,-1.8,0,0,0,0,0,0,0,0,0,0,0,0,0,0,0,0,0,0,0,0,0,0,0,0,0,0,0,0,0,0,0,0,0,0,0,0,0,0,0,0,0,0,0,0,0,0,0,0,0,0,0,0,0,0,0,0,0,0,0,0,0,-1.8,0,0,0,0,0,0,0,0,0,0,0,0,0,0,0,0,0,0,0,0,0,0,0,0,0,0,0" 
class="s1_198"
>We’d like to find the direction that maximizes this variance. We can do this using gradient</text>

<text 
x="55" 
y="129" 
class="s1_198"
>descent, as soon as we have the gradient function:</text>

<text 
x="76" 
y="174" 
class="s2_198"
>def</text>

<text 
x="108" 
y="174" 
class="s3_198"
>directional_variance_gradient_i</text>

<text 
x="353" 
y="174" 
class="s4_198"
>(</text>

<text 
x="361" 
y="174" 
class="s5_198"
>x_i</text>

<text 
x="385" 
y="174" 
class="s4_198"
>,</text>

<text 
x="401" 
y="174" 
class="s5_198"
>w</text>

<text 
x="408" 
y="174" 
class="s4_198"
>):</text>

<text 
x="108" 
y="190" 
dx="0,0,0,0,0,0,0,4.6,0,0,0,0,0,0,0,0,0,0,0,0,4.6,0,0,4.6,0,0,0,4.6,0,0,0,4.6,0,0,4.6,0,0,0,4.6,0,0,0,0,0,0,0,0,4.6,0" 
class="s6_198"
>"""the contribution of row x_i to the gradient of</text>

<text 
x="108" 
y="205" 
dx="0,0,0,0,4.6,0,0,0,0,0,0,0,0,0,0,0,4.6,0,0,0,0,0,0,0,0,0,0" 
class="s6_198"
>the direction-w variance"""</text>

<text 
x="108" 
y="221" 
class="s5_198"
>projection_length</text>

<text 
x="250" 
y="221" 
class="s4_198"
>=</text>

<text 
x="266" 
y="221" 
class="s5_198"
>dot</text>

<text 
x="290" 
y="221" 
class="s4_198"
>(</text>

<text 
x="298" 
y="221" 
class="s5_198"
>x_i</text>

<text 
x="322" 
y="221" 
class="s4_198"
>,</text>

<text 
x="337" 
y="221" 
class="s5_198"
>direction</text>

<text 
x="408" 
y="221" 
class="s4_198"
>(</text>

<text 
x="416" 
y="221" 
class="s5_198"
>w</text>

<text 
x="424" 
y="221" 
class="s4_198"
>))</text>

<text 
x="108" 
y="236" 
class="s2_198"
>return</text>

<text 
x="163" 
y="236" 
class="s4_198"
>[</text>

<text 
x="171" 
y="236" 
class="s7_198"
>2</text>

<text 
x="187" 
y="236" 
class="s4_198"
>*</text>

<text 
x="203" 
y="236" 
class="s5_198"
>projection_length</text>

<text 
x="345" 
y="236" 
class="s4_198"
>*</text>

<text 
x="361" 
y="236" 
class="s5_198"
>x_ij</text>

<text 
x="401" 
y="236" 
class="s2_198"
>for</text>

<text 
x="432" 
y="236" 
class="s5_198"
>x_ij</text>

<text 
x="472" 
y="236" 
class="s8_198"
>in</text>

<text 
x="495" 
y="236" 
class="s5_198"
>x_i</text>

<text 
x="519" 
y="236" 
class="s4_198"
>]</text>

<text 
x="76" 
y="267" 
class="s2_198"
>def</text>

<text 
x="108" 
y="267" 
class="s3_198"
>directional_variance_gradient</text>

<text 
x="337" 
y="267" 
class="s4_198"
>(</text>

<text 
x="345" 
y="267" 
class="s5_198"
>X</text>

<text 
x="353" 
y="267" 
class="s4_198"
>,</text>

<text 
x="369" 
y="267" 
class="s5_198"
>w</text>

<text 
x="377" 
y="267" 
class="s4_198"
>):</text>

<text 
x="108" 
y="282" 
class="s2_198"
>return</text>

<text 
x="163" 
y="282" 
class="s5_198"
>vector_sum</text>

<text 
x="242" 
y="282" 
class="s4_198"
>(</text>

<text 
x="250" 
y="282" 
class="s5_198"
>directional_variance_gradient_i</text>

<text 
x="495" 
y="282" 
class="s4_198"
>(</text>

<text 
x="503" 
y="282" 
class="s5_198"
>x_i</text>

<text 
x="527" 
y="282" 
class="s4_198"
>,</text>

<text 
x="535" 
y="282" 
class="s5_198"
>w</text>

<text 
x="543" 
y="282" 
class="s4_198"
>)</text>

<text 
x="250" 
y="298" 
class="s2_198"
>for</text>

<text 
x="282" 
y="298" 
class="s5_198"
>x_i</text>

<text 
x="314" 
y="298" 
class="s8_198"
>in</text>

<text 
x="337" 
y="298" 
class="s5_198"
>X</text>

<text 
x="345" 
y="298" 
class="s4_198"
>)</text>

<text 
x="55" 
y="350" 
class="s1_198"
>The first principal component is just the direction that maximizes the</text>

<text 
x="55" 
y="378" 
class="s9_198"
>directional_variance</text>

<text 
x="271" 
y="378" 
class="s1_198"
>function:</text>

<text 
x="76" 
y="425" 
class="s2_198"
>def</text>

<text 
x="108" 
y="425" 
class="s3_198"
>first_principal_component</text>

<text 
x="306" 
y="425" 
class="s4_198"
>(</text>

<text 
x="314" 
y="425" 
class="s5_198"
>X</text>

<text 
x="322" 
y="425" 
class="s4_198"
>):</text>

<text 
x="108" 
y="441" 
class="s5_198"
>guess</text>

<text 
x="156" 
y="441" 
dx="0,0,4.6" 
class="s4_198"
>= [</text>

<text 
x="179" 
y="441" 
class="s7_198"
>1</text>

<text 
x="195" 
y="441" 
class="s2_198"
>for</text>

<text 
x="227" 
y="441" 
class="s5_198"
>_</text>

<text 
x="242" 
y="441" 
class="s8_198"
>in</text>

<text 
x="266" 
y="441" 
class="s5_198"
>X</text>

<text 
x="274" 
y="441" 
class="s4_198"
>[</text>

<text 
x="282" 
y="441" 
class="s7_198"
>0</text>

<text 
x="290" 
y="441" 
class="s4_198"
>]]</text>

<text 
x="108" 
y="456" 
class="s5_198"
>unscaled_maximizer</text>

<text 
x="258" 
y="456" 
class="s4_198"
>=</text>

<text 
x="274" 
y="456" 
class="s5_198"
>maximize_batch</text>

<text 
x="385" 
y="456" 
class="s4_198"
>(</text>

<text 
x="140" 
y="472" 
class="s5_198"
>partial</text>

<text 
x="195" 
y="472" 
class="s4_198"
>(</text>

<text 
x="203" 
y="472" 
class="s5_198"
>directional_variance</text>

<text 
x="361" 
y="472" 
class="s4_198"
>,</text>

<text 
x="377" 
y="472" 
class="s5_198"
>X</text>

<text 
x="385" 
y="472" 
class="s4_198"
>),</text>

<text 
x="487" 
y="472" 
dx="0,0,4.6,0,0,4.6,0,0,0,4.6,0,4.6,0,0,0,0,0,0,0,0,4.6,0,0,4.6" 
class="s10_198"
># is now a function of w</text>

<text 
x="140" 
y="487" 
class="s5_198"
>partial</text>

<text 
x="195" 
y="487" 
class="s4_198"
>(</text>

<text 
x="203" 
y="487" 
class="s5_198"
>directional_variance_gradient</text>

<text 
x="432" 
y="487" 
class="s4_198"
>,</text>

<text 
x="448" 
y="487" 
class="s5_198"
>X</text>

<text 
x="456" 
y="487" 
class="s4_198"
>),</text>

<text 
x="487" 
y="487" 
dx="0,0,4.6,0,0,4.6,0,0,0,4.6,0,4.6,0,0,0,0,0,0,0,0,4.6,0,0,4.6" 
class="s10_198"
># is now a function of w</text>

<text 
x="140" 
y="502" 
class="s5_198"
>guess</text>

<text 
x="179" 
y="502" 
class="s4_198"
>)</text>

<text 
x="108" 
y="518" 
class="s2_198"
>return</text>

<text 
x="163" 
y="518" 
class="s5_198"
>direction</text>

<text 
x="235" 
y="518" 
class="s4_198"
>(</text>

<text 
x="242" 
y="518" 
class="s5_198"
>unscaled_maximizer</text>

<text 
x="385" 
y="518" 
class="s4_198"
>)</text>

<text 
x="55" 
y="571" 
dx="0,0,-0.9,0,0,0,0,0,0,0,0,0,0,0,0,0,0,0,0,0,0,0,0,0,0,0,0,0,0,0,0,0,0,0,0,0,0,0,0,0,0,0,0,0,0,0,0,0,0,0,0,0" 
class="s1_198"
>Or, if you’d rather use stochastic gradient descent:</text>

<text 
x="76" 
y="616" 
dx="0,0,4.6,0,0,0,0,4.6,0,0,0,0,0,4.6,0,0,4.6,0,0,4.6,0,0,0,0,4.6,0,0,4.6,0,0,4.6,0,0,0,0,4.6,0,0,0,0,4.6,0,0,4.6,0,4.6,0,0,0,0,0,0,4.6,0,0,4.6,0,0,0,0" 
class="s10_198"
># here there is no "y", so we just pass in a vector of Nones</text>

<text 
x="76" 
y="631" 
dx="0,0,4.6,0,0,0,4.6,0,0,0,0,0,0,0,0,0,4.6,0,0,0,0,4.6,0,0,0,0,0,0,4.6,0,0,0,0,4.6,0,0,0,0" 
class="s10_198"
># and functions that ignore that input</text>

<text 
x="76" 
y="646" 
class="s2_198"
>def</text>

<text 
x="108" 
y="646" 
class="s3_198"
>first_principal_component_sgd</text>

<text 
x="337" 
y="646" 
class="s4_198"
>(</text>

<text 
x="345" 
y="646" 
class="s5_198"
>X</text>

<text 
x="353" 
y="646" 
class="s4_198"
>):</text>

<text 
x="108" 
y="662" 
class="s5_198"
>guess</text>

<text 
x="156" 
y="662" 
dx="0,0,4.6" 
class="s4_198"
>= [</text>

<text 
x="179" 
y="662" 
class="s7_198"
>1</text>

<text 
x="195" 
y="662" 
class="s2_198"
>for</text>

<text 
x="227" 
y="662" 
class="s5_198"
>_</text>

<text 
x="242" 
y="662" 
class="s8_198"
>in</text>

<text 
x="266" 
y="662" 
class="s5_198"
>X</text>

<text 
x="274" 
y="662" 
class="s4_198"
>[</text>

<text 
x="282" 
y="662" 
class="s7_198"
>0</text>

<text 
x="290" 
y="662" 
class="s4_198"
>]]</text>

<text 
x="108" 
y="677" 
class="s5_198"
>unscaled_maximizer</text>

<text 
x="258" 
y="677" 
class="s4_198"
>=</text>

<text 
x="274" 
y="677" 
class="s5_198"
>maximize_stochastic</text>

<text 
x="424" 
y="677" 
class="s4_198"
>(</text>

<text 
x="140" 
y="693" 
class="s2_198"
>lambda</text>

<text 
x="195" 
y="693" 
class="s5_198"
>x</text>

<text 
x="203" 
y="693" 
class="s4_198"
>,</text>

<text 
x="219" 
y="693" 
class="s5_198"
>_</text>

<text 
x="227" 
y="693" 
class="s4_198"
>,</text>

<text 
x="242" 
y="693" 
class="s5_198"
>w</text>

<text 
x="250" 
y="693" 
class="s4_198"
>:</text>

<text 
x="266" 
y="693" 
class="s5_198"
>directional_variance_i</text>

<text 
x="440" 
y="693" 
class="s4_198"
>(</text>

<text 
x="448" 
y="693" 
class="s5_198"
>x</text>

<text 
x="456" 
y="693" 
class="s4_198"
>,</text>

<text 
x="472" 
y="693" 
class="s5_198"
>w</text>

<text 
x="480" 
y="693" 
class="s4_198"
>),</text>

<text 
x="140" 
y="708" 
class="s2_198"
>lambda</text>

<text 
x="195" 
y="708" 
class="s5_198"
>x</text>

<text 
x="203" 
y="708" 
class="s4_198"
>,</text>

<text 
x="219" 
y="708" 
class="s5_198"
>_</text>

<text 
x="227" 
y="708" 
class="s4_198"
>,</text>

<text 
x="242" 
y="708" 
class="s5_198"
>w</text>

<text 
x="250" 
y="708" 
class="s4_198"
>:</text>

<text 
x="266" 
y="708" 
class="s5_198"
>directional_variance_gradient_i</text>

<text 
x="511" 
y="708" 
class="s4_198"
>(</text>

<text 
x="519" 
y="708" 
class="s5_198"
>x</text>

<text 
x="527" 
y="708" 
class="s4_198"
>,</text>

<text 
x="543" 
y="708" 
class="s5_198"
>w</text>

<text 
x="551" 
y="708" 
class="s4_198"
>),</text>

<text 
x="140" 
y="723" 
class="s5_198"
>X</text>

<text 
x="148" 
y="723" 
class="s4_198"
>,</text>

<text 
x="140" 
y="739" 
class="s4_198"
>[</text>

<text 
x="148" 
y="739" 
class="s11_198"
>None</text>

<text 
x="187" 
y="739" 
class="s2_198"
>for</text>

<text 
x="219" 
y="739" 
class="s5_198"
>_</text>

<text 
x="235" 
y="739" 
class="s8_198"
>in</text>

<text 
x="258" 
y="739" 
class="s5_198"
>X</text>

<text 
x="266" 
y="739" 
class="s4_198"
>],</text>

<text 
x="306" 
y="739" 
dx="0,0,4.6,0,0,0,4.6,0,0,0,0,4.6,0,0" 
class="s10_198"
># the fake "y"</text>

<text 
x="140" 
y="754" 
class="s5_198"
>guess</text>

<text 
x="179" 
y="754" 
class="s4_198"
>)</text>

<text 
x="108" 
y="770" 
class="s2_198"
>return</text>

<text 
x="163" 
y="770" 
class="s5_198"
>direction</text>

<text 
x="235" 
y="770" 
class="s4_198"
>(</text>

<text 
x="242" 
y="770" 
class="s5_198"
>unscaled_maximizer</text>

<text 
x="385" 
y="770" 
class="s4_198"
>)</text>

<text 
x="55" 
y="822" 
class="s1_198"
>On the de-meaned data set, this returns the direction</text>

<text 
x="518" 
y="822" 
dx="0,0,0,0,0,0,0,0,6.1,0,0,0,0,0" 
class="s9_198"
>[0.924, 0.383]</text>

<text 
x="666" 
y="822" 
class="s1_198"
>, which does appear</text>

<text 
x="55" 
y="852" 
class="s1_198"
>to capture the primary axis along which our data varies (</text>

<text 
x="551" 
y="852" 
class="s12_198"
>Figure 10-7</text>

<text 
x="655" 
y="852" 
class="s1_198"
>).</text>



<!-- Any embedded fonts defined here -->
<style type="text/css" ><![CDATA[

@font-face {
	font-family: LiberationMono-Bold_1w;
	src: url("fonts/LiberationMono-Bold_1w.woff") format("woff");
}

@font-face {
	font-family: LiberationMono_1q;
	src: url("fonts/LiberationMono_1q.woff") format("woff");
}

@font-face {
	font-family: LiberationMono-Italic_10;
	src: url("fonts/LiberationMono-Italic_10.woff") format("woff");
}

@font-face {
	font-family: LiberationSerif_e;
	src: url("fonts/LiberationSerif_e.woff") format("woff");
}

]]></style>

</svg>
