<?xml version="1.0" encoding="UTF-8" standalone="no"?>
<!DOCTYPE svg PUBLIC "-//W3C//DTD SVG 1.1//EN"
"http://www.w3.org/Graphics/SVG/1.1/DTD/svg11.dtd">


<!-- Page 210 -->
<svg x="0" y="0" width="909" height="1286" viewBox="0 0 909 1286" version="1.1" xmlns="http://www.w3.org/2000/svg" xmlns:xlink="http://www.w3.org/1999/xlink"
style="display: block;margin-left: auto;margin-right: auto;">
<defs>

<style type="text/css"><![CDATA[

.g1_210{
fill: #F1F6FC;
}
.g2_210{
fill: #C3C3C3;
}
.g3_210{
fill: #9D9D9D;
}
.g4_210{
stroke: #000000;
stroke-width: 1.0996486;
stroke-linecap: square;
stroke-linejoin: miter;
}

.s1_210{
font-size: 30.81px;
font-family: LiberationSerif-Bold_b;
fill: #8E0012;
}
.s2_210{
font-size: 22.01px;
font-family: LiberationSerif_e;
fill: #000000;
}
.s3_210{
font-size: 22.01px;
font-family: LiberationSerif-Italic_l;
fill: #000000;
}
.s4_210{
font-size: 16.50px;
font-family: LiberationSerif-Bold_b;
fill: #000000;
}
.s5_210{
font-size: 16.50px;
font-family: LiberationSerif_e;
fill: #000000;
}
.s6_210{
font-size: 22.01px;
font-family: LiberationSerif_e;
fill: #8E0012;
}

]]></style>

</defs>
<path d="M0,0
L0,1286
L909,1286
L909,0 Z " 
fill="#FFFFFF" stroke="none" />
<path d="M277.1,812L419,812l0,46.2l-141.9,0l0,-46.2Z" class="g1_210" />
<path d="M419,812l108.8,0l0,46.2l-108.8,0L419,812Z" class="g1_210" />
<path d="M527.8,812l104.5,0l0,46.2l-104.5,0l0,-46.2Z" class="g1_210" />
<path d="M527.8,812l104.5,0l0,1.1l-104.5,0l0,-1.1Z" class="g2_210" />
<path d="M527.8,858.2l104.5,0l0,1.1l-104.5,0l0,-1.1Z" class="g2_210" />
<path d="M419,812l108.8,0l0,1.1l-108.8,0l0,-1.1Z" class="g2_210" />
<path d="M419,858.2l108.8,0l0,1.1l-108.8,0l0,-1.1Z" class="g2_210" />
<path d="M277.1,812L419,812l0,1.1l-141.9,0l0,-1.1Z" class="g2_210" />
<path d="M277.1,858.2l141.9,0l0,1.1l-141.9,0l0,-1.1Z" class="g2_210" />
<path d="M527.8,765.8l104.5,0l0,1.1l-104.5,0l0,-1.1Z" class="g3_210" />
<path d="M527.8,812l104.5,0l0,1.1l-104.5,0l0,-1.1Z" class="g2_210" />
<path d="M419,765.8l108.8,0l0,1.1l-108.8,0l0,-1.1Z" class="g3_210" />
<path d="M419,812l108.8,0l0,1.1l-108.8,0l0,-1.1Z" class="g2_210" />
<path d="M277.1,765.8l141.9,0l0,1.1l-141.9,0l0,-1.1Z" class="g3_210" />
<path d="M277.1,812L419,812l0,1.1l-141.9,0l0,-1.1Z" class="g2_210" />
<path d="M527.8,736.1l104.5,0l0,1.1l-104.5,0l0,-1.1Z" class="g3_210" />
<path d="M527.8,765.8l104.5,0l0,1.1l-104.5,0l0,-1.1Z" class="g3_210" />
<path d="M419,736.1l108.8,0l0,1.1l-108.8,0l0,-1.1Z" class="g3_210" />
<path d="M419,765.8l108.8,0l0,1.1l-108.8,0l0,-1.1Z" class="g3_210" />
<path d="M277.1,736.1l141.9,0l0,1.1l-141.9,0l0,-1.1Z" class="g3_210" />
<path d="M277.1,765.8l141.9,0l0,1.1l-141.9,0l0,-1.1Z" class="g3_210" />
<path d="M289.2,1133.3l84.7,0l0,46.2l-84.7,0l0,-46.2Z" class="g1_210" />
<path d="M373.9,1133.3l74.8,0l0,46.2l-74.8,0l0,-46.2Z" class="g1_210" />
<path d="M448.7,1133.3l95.6,0l0,46.2l-95.6,0l0,-46.2Z" class="g1_210" />
<path d="M544.3,1133.3l75.9,0l0,46.2l-75.9,0l0,-46.2Z" class="g1_210" />
<path d="M544.3,1179.5l75.9,0l0,1.1l-75.9,0l0,-1.1Z" class="g2_210" />
<path d="M544.3,1225.7l75.9,0l0,1.1l-75.9,0l0,-1.1Z" class="g2_210" />
<path d="M448.7,1179.5l95.6,0l0,1.1l-95.6,0l0,-1.1Z" class="g2_210" />
<path d="M448.7,1225.7l95.6,0l0,1.1l-95.6,0l0,-1.1Z" class="g2_210" />
<path d="M373.9,1179.5l74.8,0l0,1.1l-74.8,0l0,-1.1Z" class="g2_210" />
<path d="M373.9,1225.7l74.8,0l0,1.1l-74.8,0l0,-1.1Z" class="g2_210" />
<path d="M289.2,1179.5l84.7,0l0,1.1l-84.7,0l0,-1.1Z" class="g2_210" />
<path d="M289.2,1225.7l84.7,0l0,1.1l-84.7,0l0,-1.1Z" class="g2_210" />
<path d="M544.3,1133.3l75.9,0l0,1.1l-75.9,0l0,-1.1Z" class="g2_210" />
<path d="M544.3,1179.5l75.9,0l0,1.1l-75.9,0l0,-1.1Z" class="g2_210" />
<path d="M448.7,1133.3l95.6,0l0,1.1l-95.6,0l0,-1.1Z" class="g2_210" />
<path d="M448.7,1179.5l95.6,0l0,1.1l-95.6,0l0,-1.1Z" class="g2_210" />
<path d="M373.9,1133.3l74.8,0l0,1.1l-74.8,0l0,-1.1Z" class="g2_210" />
<path d="M373.9,1179.5l74.8,0l0,1.1l-74.8,0l0,-1.1Z" class="g2_210" />
<path d="M289.2,1133.3l84.7,0l0,1.1l-84.7,0l0,-1.1Z" class="g2_210" />
<path d="M289.2,1179.5l84.7,0l0,1.1l-84.7,0l0,-1.1Z" class="g2_210" />
<path d="M544.3,1087.1l75.9,0l0,1.1l-75.9,0l0,-1.1Z" class="g3_210" />
<path d="M544.3,1133.3l75.9,0l0,1.1l-75.9,0l0,-1.1Z" class="g2_210" />
<path d="M448.7,1087.1l95.6,0l0,1.1l-95.6,0l0,-1.1Z" class="g3_210" />
<path d="M448.7,1133.3l95.6,0l0,1.1l-95.6,0l0,-1.1Z" class="g2_210" />
<path d="M373.9,1087.1l74.8,0l0,1.1l-74.8,0l0,-1.1Z" class="g3_210" />
<path d="M373.9,1133.3l74.8,0l0,1.1l-74.8,0l0,-1.1Z" class="g2_210" />
<path d="M289.2,1087.1l84.7,0l0,1.1l-84.7,0l0,-1.1Z" class="g3_210" />
<path d="M289.2,1133.3l84.7,0l0,1.1l-84.7,0l0,-1.1Z" class="g2_210" />
<path d="M544.3,1057.3l75.9,0l0,1.1l-75.9,0l0,-1.1Z" class="g3_210" />
<path d="M544.3,1087.1l75.9,0l0,1.1l-75.9,0l0,-1.1Z" class="g3_210" />
<path d="M448.7,1057.3l95.6,0l0,1.1l-95.6,0l0,-1.1Z" class="g3_210" />
<path d="M448.7,1087.1l95.6,0l0,1.1l-95.6,0l0,-1.1Z" class="g3_210" />
<path d="M373.9,1057.3l74.8,0l0,1.1l-74.8,0l0,-1.1Z" class="g3_210" />
<path d="M373.9,1087.1l74.8,0l0,1.1l-74.8,0l0,-1.1Z" class="g3_210" />
<path d="M289.2,1057.3l84.7,0l0,1.1l-84.7,0l0,-1.1Z" class="g3_210" />
<path d="M289.2,1087.1l84.7,0l0,1.1l-84.7,0l0,-1.1Z" class="g3_210" />
<text 
x="55" 
y="81" 
dx="0,0,0,0,-0.6,0,0,0,0,0,0" 
class="s1_210"
>Correctness</text>

<text 
x="55" 
y="122" 
class="s2_210"
>When I’m not doing data science, I dabble in medicine. And in my spare time I’ve come</text>

<text 
x="55" 
y="149" 
class="s2_210"
>up with a cheap, noninvasive test that can be given to a newborn baby that predicts —</text>

<text 
x="55" 
y="177" 
dx="0,0,0,0,0,0,0,0,0,0,0,0,0,0,0,0,0,0,0,0,0,0,0,0,0,0,0,0,0,0,0,4.4,0,4.4,0,0,0,0,0,0,0,0,0,0,0,0,0,0,0,0,0,0,0,0,0,0,0,0,0,0,0,0,0,0,0,0,0,0,0,0,0,0,0,0,0,0,0,0,0,0,0,0,0" 
class="s2_210"
>with greater than 98% accuracy — whether the newborn will ever develop leukemia. My</text>

<text 
x="55" 
y="204" 
class="s2_210"
>lawyer has convinced me the test is unpatentable, so I’ll share with you the details here:</text>

<text 
x="55" 
y="232" 
class="s2_210"
>predict leukemia if and only if the baby is named Luke (which sounds sort of like</text>

<text 
x="55" 
y="259" 
class="s2_210"
>“leukemia”).</text>

<text 
x="55" 
y="298" 
dx="0,0,0,0,0,0,0,0,0,0,0,0,0,0,0,0,0,0,-1.4,0,0,0,0,0,0,0,0,0,0,0,0,0,0,0,0,0,0,0,0,0,0,0,0,0,0,0,0,0,0,0,0,0,0,0,0,0,0,0,0,0,0,0,0,0,0,0,0,0,0,0,0,0,0,0,0,0,0,0,0,0,-1.2,0,0,0" 
class="s2_210"
>As we’ll see below, this test is indeed more than 98% accurate. Nonetheless, it’s an</text>

<text 
x="55" 
y="325" 
dx="0,0,0,0,0,0,0,0,0,0,0,0,0,0,0,0,0,0,0,0,0,0,0,0,0,0,0,0,0,0,0,0,0,0,0,0,0,0,0,0,0,0,0,0,0,0,0,0,0,0,0,0,0,0,0,0,0,0,0,0,0,0,-0.4,0,0,0,0,0,0,0,0,0,0,0,0,0,0,0,0,0,0,0,0,0,0,0,0,0,0,0,0" 
class="s2_210"
>incredibly stupid test, and a good illustration of why we don’t typically use “accuracy” to</text>

<text 
x="55" 
y="353" 
class="s2_210"
>measure how good a model is.</text>

<text 
x="55" 
y="391" 
class="s2_210"
>Imagine building a model to make a</text>

<text 
x="377" 
y="391" 
class="s3_210"
>binary</text>

<text 
x="440" 
y="391" 
class="s2_210"
>judgment. Is this email spam? Should we hire</text>

<text 
x="55" 
y="419" 
class="s2_210"
>this candidate? Is this air traveler secretly a terrorist?</text>

<text 
x="55" 
y="457" 
class="s2_210"
>Given a set of labeled data and such a predictive model, every data point lies in one of</text>

<text 
x="55" 
y="485" 
class="s2_210"
>four categories:</text>

<path d="M61.6,512.7l6.6,0l0,6.6l-6.6,0l0,-6.6Z" class="g4_210" />
<text 
x="82" 
y="522" 
dx="0,-0.8,0,0,0,0,0,0,0,0,0,0,0,0,0,0,0,0,0,0,0,0,0,0,0,0,0,0,0,0,0,0,0,0,0,0,0,0,0,0,0,0,0,0,0,0,0,0,0,0,0,0,0,0,0,0,0,0,0,0,0,0,0,0,0,0,0,0,0,0,0" 
class="s2_210"
>True positive: “This message is spam, and we correctly predicted spam.”</text>

<path d="M61.6,560l6.6,0l0,6.6l-6.6,0l0,-6.6Z" class="g4_210" />
<text 
x="82" 
y="569" 
dx="0,0,0,0,0,0,0,0,0,0,0,0,0,0,0,0,0,-1.6,0,0,0,0,0,0,0,0,0,0,0,0,0,0,0,0,0,0,0,0,0,0,0,0,0,0,0,0,0,0,0,0,0,0,0,0,0,0,0,0,0,0,0,0,0,0,0,0,0,0,0,0,0,0,0,0,0,0,0,0,0,0,0" 
class="s2_210"
>False positive (Type 1 Error): “This message is not spam, but we predicted spam.”</text>

<path d="M61.6,607.3l6.6,0l0,6.6l-6.6,0l0,-6.6Z" class="g4_210" />
<text 
x="82" 
y="617" 
dx="0,0,0,0,0,0,0,0,0,0,0,0,0,0,0,0,0,-1.6,0,0,0,0,0,0,0,0,0,0,0,0,0,0,0,0,0,0,0,0,0,0,0,0,0,0,0,0,0,0,0,0,0,0,0,0,0,0,0,0,0,0,0,0,0,0,0,0,0,0,0,0,0,0,0,0,0,0,0,0,0,0,0" 
class="s2_210"
>False negative (Type 2 Error): “This message is spam, but we predicted not spam.”</text>

<path d="M61.6,654.7l6.6,0l0,6.6l-6.6,0l0,-6.6Z" class="g4_210" />
<text 
x="82" 
y="664" 
dx="0,-0.8,0,0,0,0,0,0,0,0,0,0,0,0,0,0,0,0,0,0,0,0,0,0,0,0,0,0,0,0,0,0,0,0,0,0,0,0,0,0,0,0,0,0,0,0,0,0,0,0,0,0,0,0,0,0,0,0,0,0,0,0,0,0,0,0,0,0,0,0,0,0,0,0,0,0,0,0,0" 
class="s2_210"
>True negative: “This message is not spam, and we correctly predicted not spam.”</text>

<text 
x="55" 
y="712" 
dx="0,-1.8,0,0,0,0,0,0,0,0,0,0,0,0,0,0,0,0,0,0,0,0,0,0,0,0,0,0,0,0,0,0,0,0,0,0,0,0,0" 
class="s2_210"
>We often represent these as counts in a</text>

<text 
x="401" 
y="712" 
class="s3_210"
>confusion matrix</text>

<text 
x="549" 
y="712" 
class="s2_210"
>:</text>

<text 
x="423" 
y="756" 
class="s4_210"
>Spam</text>

<text 
x="532" 
y="756" 
class="s4_210"
>not Spam</text>

<text 
x="282" 
y="795" 
class="s5_210"
>predict “Spam”</text>

<text 
x="424" 
y="795" 
dx="0,-0.6,0,0,0,0,0,0,0,0,0,0,0" 
class="s5_210"
>True Positive</text>

<text 
x="533" 
y="795" 
class="s5_210"
>False Positive</text>

<text 
x="282" 
y="841" 
class="s5_210"
>predict “Not Spam”</text>

<text 
x="424" 
y="841" 
dx="0,0,0,0,0,0,0,0,0,0,0,0,0,0,0,6.3,-0.6,0,0,0,0,0,0,0,0,0,0,0" 
class="s5_210"
>False Negative True Negative</text>

<text 
x="55" 
y="913" 
dx="0,0,0,0,-1.2,0,0,0,0,0,0,0,0,0,0,0,0,0,0,0,0,0,0,0,0,0,0,0,0,0,0,0,0,0,0,0,0,0,0,0,0,0,0,0,0,0,0,0,0,0,0,0,0,0,0,0,0,0,0,0,0,0,0,0,0,0,0,0,0,0,0,0,0,0,0,0,0,0,0,0,0" 
class="s2_210"
>Let’s see how my leukemia test fits into this framework. These days approximately</text>

<text 
x="791" 
y="913" 
class="s6_210"
>5</text>

<text 
x="55" 
y="940" 
class="s6_210"
>babies out of 1,000 are named Luke</text>

<text 
x="370" 
y="940" 
class="s2_210"
>. And the lifetime prevalence of leukemia is about</text>

<text 
x="55" 
y="968" 
class="s2_210"
>1.4%, or</text>

<text 
x="135" 
y="968" 
class="s6_210"
>14 out of every 1,000 people</text>

<text 
x="388" 
y="968" 
class="s2_210"
>.</text>

<text 
x="55" 
y="1006" 
class="s2_210"
>If we believe these two factors are independent and apply my “Luke is for leukemia” test</text>

<text 
x="55" 
y="1034" 
class="s2_210"
>to 1 million people, we’d expect to see a confusion matrix like:</text>

<text 
x="378" 
y="1078" 
class="s4_210"
>leukemia</text>

<text 
x="453" 
y="1078" 
dx="0,0,0,0,0,0,0,0,0,0,0,0,5.9,0,0,0,0" 
class="s4_210"
>no leukemia total</text>

<text 
x="294" 
y="1116" 
class="s5_210"
>“Luke”</text>

<text 
x="379" 
y="1116" 
class="s5_210"
>70</text>

<text 
x="454" 
y="1116" 
class="s5_210"
>4,930</text>

<text 
x="549" 
y="1116" 
class="s5_210"
>5,000</text>

<text 
x="294" 
y="1162" 
class="s5_210"
>not “Luke”</text>

<text 
x="379" 
y="1162" 
class="s5_210"
>13,930</text>

<text 
x="454" 
y="1162" 
class="s5_210"
>981,070</text>

<text 
x="549" 
y="1162" 
class="s5_210"
>995,000</text>

<text 
x="294" 
y="1209" 
class="s5_210"
>total</text>

<text 
x="379" 
y="1209" 
class="s5_210"
>14,000</text>

<text 
x="454" 
y="1209" 
class="s5_210"
>986,000</text>

<text 
x="549" 
y="1209" 
class="s5_210"
>1,000,000</text>



<!-- Any embedded fonts defined here -->
<style type="text/css" ><![CDATA[

@font-face {
	font-family: LiberationSerif-Italic_l;
	src: url("fonts/LiberationSerif-Italic_l.woff") format("woff");
}

@font-face {
	font-family: LiberationSerif-Bold_b;
	src: url("fonts/LiberationSerif-Bold_b.woff") format("woff");
}

@font-face {
	font-family: LiberationSerif_e;
	src: url("fonts/LiberationSerif_e.woff") format("woff");
}

]]></style>

</svg>
