<?xml version="1.0" encoding="UTF-8" standalone="no"?>
<!DOCTYPE svg PUBLIC "-//W3C//DTD SVG 1.1//EN"
"http://www.w3.org/Graphics/SVG/1.1/DTD/svg11.dtd">


<!-- Page 251 -->
<svg x="0" y="0" width="909" height="1286" viewBox="0 0 909 1286" version="1.1" xmlns="http://www.w3.org/2000/svg" xmlns:xlink="http://www.w3.org/1999/xlink"
style="display: block;margin-left: auto;margin-right: auto;">
<defs>

<style type="text/css"><![CDATA[


.s1_251{
font-size: 30.81px;
font-family: LiberationSerif-Bold_b;
fill: #8E0012;
}
.s2_251{
font-size: 22.01px;
font-family: LiberationSerif_e;
fill: #000000;
}
.s3_251{
font-size: 17.60px;
font-family: LiberationMono_1q;
fill: #000000;
}
.s4_251{
font-size: 13.20px;
font-family: LiberationMono-Bold_1w;
fill: #006699;
}
.s5_251{
font-size: 13.20px;
font-family: LiberationMono_1q;
fill: #CC00FF;
}
.s6_251{
font-size: 13.20px;
font-family: LiberationMono_1q;
fill: #000000;
}
.s7_251{
font-size: 13.20px;
font-family: LiberationMono_1q;
fill: #000088;
}
.s8_251{
font-size: 13.20px;
font-family: LiberationMono_1q;
fill: #FF6600;
}
.s9_251{
font-size: 13.20px;
font-family: LiberationMono-Italic_10;
fill: #0099FF;
}

]]></style>

</defs>
<path d="M0,0
L0,1286
L909,1286
L909,0 Z " 
fill="#FFFFFF" stroke="none" />
<text 
x="55" 
y="81" 
class="s1_251"
>Using Gradient Descent</text>

<text 
x="55" 
y="122" 
class="s2_251"
>If we write</text>

<text 
x="156" 
y="122" 
dx="0,0,0,0,0,0,6.1,0,6.1,0,0,0,0,0,0,0,6.1,0,0,0,0" 
class="s3_251"
>theta = [alpha, beta]</text>

<text 
x="378" 
y="122" 
class="s2_251"
>, then we can also solve this using gradient descent:</text>

<text 
x="76" 
y="169" 
class="s4_251"
>def</text>

<text 
x="108" 
y="169" 
class="s5_251"
>squared_error</text>

<text 
x="211" 
y="169" 
class="s6_251"
>(</text>

<text 
x="219" 
y="169" 
class="s7_251"
>x_i</text>

<text 
x="242" 
y="169" 
class="s6_251"
>,</text>

<text 
x="258" 
y="169" 
class="s7_251"
>y_i</text>

<text 
x="282" 
y="169" 
class="s6_251"
>,</text>

<text 
x="298" 
y="169" 
class="s7_251"
>theta</text>

<text 
x="337" 
y="169" 
class="s6_251"
>):</text>

<text 
x="108" 
y="184" 
class="s7_251"
>alpha</text>

<text 
x="148" 
y="184" 
class="s6_251"
>,</text>

<text 
x="163" 
y="184" 
class="s7_251"
>beta</text>

<text 
x="203" 
y="184" 
class="s6_251"
>=</text>

<text 
x="219" 
y="184" 
class="s7_251"
>theta</text>

<text 
x="108" 
y="200" 
class="s4_251"
>return</text>

<text 
x="163" 
y="200" 
class="s7_251"
>error</text>

<text 
x="203" 
y="200" 
class="s6_251"
>(</text>

<text 
x="211" 
y="200" 
class="s7_251"
>alpha</text>

<text 
x="250" 
y="200" 
class="s6_251"
>,</text>

<text 
x="266" 
y="200" 
class="s7_251"
>beta</text>

<text 
x="298" 
y="200" 
class="s6_251"
>,</text>

<text 
x="314" 
y="200" 
class="s7_251"
>x_i</text>

<text 
x="337" 
y="200" 
class="s6_251"
>,</text>

<text 
x="353" 
y="200" 
class="s7_251"
>y_i</text>

<text 
x="377" 
y="200" 
dx="0,0,4.6,0" 
class="s6_251"
>) **</text>

<text 
x="416" 
y="200" 
class="s8_251"
>2</text>

<text 
x="76" 
y="231" 
class="s4_251"
>def</text>

<text 
x="108" 
y="231" 
class="s5_251"
>squared_error_gradient</text>

<text 
x="282" 
y="231" 
class="s6_251"
>(</text>

<text 
x="290" 
y="231" 
class="s7_251"
>x_i</text>

<text 
x="314" 
y="231" 
class="s6_251"
>,</text>

<text 
x="329" 
y="231" 
class="s7_251"
>y_i</text>

<text 
x="353" 
y="231" 
class="s6_251"
>,</text>

<text 
x="369" 
y="231" 
class="s7_251"
>theta</text>

<text 
x="408" 
y="231" 
class="s6_251"
>):</text>

<text 
x="108" 
y="246" 
class="s7_251"
>alpha</text>

<text 
x="148" 
y="246" 
class="s6_251"
>,</text>

<text 
x="163" 
y="246" 
class="s7_251"
>beta</text>

<text 
x="203" 
y="246" 
class="s6_251"
>=</text>

<text 
x="219" 
y="246" 
class="s7_251"
>theta</text>

<text 
x="108" 
y="261" 
class="s4_251"
>return</text>

<text 
x="163" 
y="261" 
class="s6_251"
>[-</text>

<text 
x="179" 
y="261" 
class="s8_251"
>2</text>

<text 
x="195" 
y="261" 
class="s6_251"
>*</text>

<text 
x="211" 
y="261" 
class="s7_251"
>error</text>

<text 
x="250" 
y="261" 
class="s6_251"
>(</text>

<text 
x="258" 
y="261" 
class="s7_251"
>alpha</text>

<text 
x="298" 
y="261" 
class="s6_251"
>,</text>

<text 
x="314" 
y="261" 
class="s7_251"
>beta</text>

<text 
x="345" 
y="261" 
class="s6_251"
>,</text>

<text 
x="361" 
y="261" 
class="s7_251"
>x_i</text>

<text 
x="385" 
y="261" 
class="s6_251"
>,</text>

<text 
x="401" 
y="261" 
class="s7_251"
>y_i</text>

<text 
x="424" 
y="261" 
class="s6_251"
>),</text>

<text 
x="495" 
y="261" 
dx="0,0,4.6,0,0,0,0,0,4.6,0,0,0,0,0,0,0,4.6,0,0,0,0,0,0,0,0,0" 
class="s9_251"
># alpha partial derivative</text>

<text 
x="171" 
y="277" 
class="s6_251"
>-</text>

<text 
x="179" 
y="277" 
class="s8_251"
>2</text>

<text 
x="195" 
y="277" 
class="s6_251"
>*</text>

<text 
x="211" 
y="277" 
class="s7_251"
>error</text>

<text 
x="250" 
y="277" 
class="s6_251"
>(</text>

<text 
x="258" 
y="277" 
class="s7_251"
>alpha</text>

<text 
x="298" 
y="277" 
class="s6_251"
>,</text>

<text 
x="314" 
y="277" 
class="s7_251"
>beta</text>

<text 
x="345" 
y="277" 
class="s6_251"
>,</text>

<text 
x="361" 
y="277" 
class="s7_251"
>x_i</text>

<text 
x="385" 
y="277" 
class="s6_251"
>,</text>

<text 
x="401" 
y="277" 
class="s7_251"
>y_i</text>

<text 
x="424" 
y="277" 
dx="0,0,4.6" 
class="s6_251"
>) *</text>

<text 
x="456" 
y="277" 
class="s7_251"
>x_i</text>

<text 
x="480" 
y="277" 
class="s6_251"
>]</text>

<text 
x="495" 
y="277" 
dx="0,0,4.6,0,0,0,0,4.6,0,0,0,0,0,0,0,4.6,0,0,0,0,0,0,0,0,0" 
class="s9_251"
># beta partial derivative</text>

<text 
x="76" 
y="308" 
dx="0,0,4.6,0,0,0,0,0,0,4.6,0,0,0,0,0,0,4.6,0,0,0,0,0,4.6,0,0,4.6,0,0,0,0" 
class="s9_251"
># choose random value to start</text>

<text 
x="76" 
y="323" 
class="s7_251"
>random</text>

<text 
x="124" 
y="323" 
class="s6_251"
>.</text>

<text 
x="132" 
y="323" 
class="s7_251"
>seed</text>

<text 
x="163" 
y="323" 
class="s6_251"
>(</text>

<text 
x="171" 
y="323" 
class="s8_251"
>0</text>

<text 
x="179" 
y="323" 
class="s6_251"
>)</text>

<text 
x="76" 
y="338" 
class="s7_251"
>theta</text>

<text 
x="124" 
y="338" 
dx="0,0,4.6" 
class="s6_251"
>= [</text>

<text 
x="148" 
y="338" 
class="s7_251"
>random</text>

<text 
x="195" 
y="338" 
class="s6_251"
>.</text>

<text 
x="203" 
y="338" 
class="s7_251"
>random</text>

<text 
x="250" 
y="338" 
class="s6_251"
>(),</text>

<text 
x="282" 
y="338" 
class="s7_251"
>random</text>

<text 
x="329" 
y="338" 
class="s6_251"
>.</text>

<text 
x="337" 
y="338" 
class="s7_251"
>random</text>

<text 
x="385" 
y="338" 
class="s6_251"
>()]</text>

<text 
x="76" 
y="354" 
class="s7_251"
>alpha</text>

<text 
x="116" 
y="354" 
class="s6_251"
>,</text>

<text 
x="132" 
y="354" 
class="s7_251"
>beta</text>

<text 
x="171" 
y="354" 
class="s6_251"
>=</text>

<text 
x="187" 
y="354" 
class="s7_251"
>minimize_stochastic</text>

<text 
x="337" 
y="354" 
class="s6_251"
>(</text>

<text 
x="345" 
y="354" 
class="s7_251"
>squared_error</text>

<text 
x="448" 
y="354" 
class="s6_251"
>,</text>

<text 
x="345" 
y="369" 
class="s7_251"
>squared_error_gradient</text>

<text 
x="519" 
y="369" 
class="s6_251"
>,</text>

<text 
x="345" 
y="385" 
class="s7_251"
>num_friends_good</text>

<text 
x="472" 
y="385" 
class="s6_251"
>,</text>

<text 
x="345" 
y="400" 
class="s7_251"
>daily_minutes_good</text>

<text 
x="487" 
y="400" 
class="s6_251"
>,</text>

<text 
x="345" 
y="415" 
class="s7_251"
>theta</text>

<text 
x="385" 
y="415" 
class="s6_251"
>,</text>

<text 
x="345" 
y="431" 
class="s8_251"
>0.0001</text>

<text 
x="393" 
y="431" 
class="s6_251"
>)</text>

<text 
x="76" 
y="446" 
class="s4_251"
>print</text>

<text 
x="124" 
y="446" 
class="s7_251"
>alpha</text>

<text 
x="163" 
y="446" 
class="s6_251"
>,</text>

<text 
x="179" 
y="446" 
class="s7_251"
>beta</text>

<text 
x="55" 
y="499" 
class="s2_251"
>Using the same data we get alpha = 22.93, beta = 0.905, which are very close to the exact</text>

<text 
x="55" 
y="527" 
class="s2_251"
>answers.</text>



<!-- Any embedded fonts defined here -->
<style type="text/css" ><![CDATA[

@font-face {
	font-family: LiberationMono-Bold_1w;
	src: url("fonts/LiberationMono-Bold_1w.woff") format("woff");
}

@font-face {
	font-family: LiberationMono_1q;
	src: url("fonts/LiberationMono_1q.woff") format("woff");
}

@font-face {
	font-family: LiberationMono-Italic_10;
	src: url("fonts/LiberationMono-Italic_10.woff") format("woff");
}

@font-face {
	font-family: LiberationSerif-Bold_b;
	src: url("fonts/LiberationSerif-Bold_b.woff") format("woff");
}

@font-face {
	font-family: LiberationSerif_e;
	src: url("fonts/LiberationSerif_e.woff") format("woff");
}

]]></style>

</svg>
