<?xml version="1.0" encoding="UTF-8" standalone="no"?>
<!DOCTYPE svg PUBLIC "-//W3C//DTD SVG 1.1//EN"
"http://www.w3.org/Graphics/SVG/1.1/DTD/svg11.dtd">


<!-- Page 267 -->
<svg x="0" y="0" width="909" height="1286" viewBox="0 0 909 1286" version="1.1" xmlns="http://www.w3.org/2000/svg" xmlns:xlink="http://www.w3.org/1999/xlink"
style="display: block;margin-left: auto;margin-right: auto;">
<defs>

<style type="text/css"><![CDATA[

.g1_267{
fill: #BEBEBE;
}

.s1_267{
font-size: 13.20px;
font-family: LiberationMono_1q;
fill: #000088;
}
.s2_267{
font-size: 13.20px;
font-family: LiberationMono_1q;
fill: #000000;
}
.s3_267{
font-size: 13.20px;
font-family: LiberationMono_1q;
fill: #FF6600;
}
.s4_267{
font-size: 13.20px;
font-family: LiberationMono-Italic_10;
fill: #0099FF;
}
.s5_267{
font-size: 22.01px;
font-family: LiberationSerif_e;
fill: #000000;
}
.s6_267{
font-size: 22.01px;
font-family: LiberationSerif-Bold_b;
fill: #737373;
}
.s7_267{
font-size: 16.50px;
font-family: LiberationSerif_e;
fill: #000000;
}
.s8_267{
font-size: 22.01px;
font-family: LiberationSerif-Italic_l;
fill: #000000;
}
.s9_267{
font-size: 13.20px;
font-family: LiberationMono-Bold_1w;
fill: #006699;
}
.s10_267{
font-size: 13.20px;
font-family: LiberationMono_1q;
fill: #CC00FF;
}
.s11_267{
font-size: 13.20px;
font-family: LiberationMono_1q;
fill: #336666;
}
.s12_267{
font-size: 13.20px;
font-family: LiberationMono-Bold_1w;
fill: #000000;
}

]]></style>

</defs>
<path d="M0,0
L0,1286
L909,1286
L909,0 Z " 
fill="#FFFFFF" stroke="none" />
<path fill-rule="evenodd" d="M93.5,440.1l722.5,0c3,0,5.5,2.5,5.5,5.5l0,99c0,3.1,-2.5,5.5,-5.5,5.5l-722.5,0c-3,0,-5.5,-2.4,-5.5,-5.5l0,-99c0,-3,2.5,-5.5,5.5,-5.5m0,1.1l722.5,0c2.4,0,4.4,2,4.4,4.4l0,99c0,2.5,-2,4.4,-4.4,4.4L93.5,549c-2.4,0,-4.4,-1.9,-4.4,-4.4l0,-99c0,-2.4,2,-4.4,4.4,-4.4Z" class="g1_267" />
<text 
x="76" 
y="64" 
class="s1_267"
>beta_0_01</text>

<text 
x="156" 
y="64" 
class="s2_267"
>=</text>

<text 
x="171" 
y="64" 
class="s1_267"
>estimate_beta_ridge</text>

<text 
x="322" 
y="64" 
class="s2_267"
>(</text>

<text 
x="329" 
y="64" 
class="s1_267"
>x</text>

<text 
x="337" 
y="64" 
class="s2_267"
>,</text>

<text 
x="353" 
y="64" 
class="s1_267"
>daily_minutes_good</text>

<text 
x="495" 
y="64" 
class="s2_267"
>,</text>

<text 
x="511" 
y="64" 
class="s1_267"
>alpha</text>

<text 
x="551" 
y="64" 
class="s2_267"
>=</text>

<text 
x="559" 
y="64" 
class="s3_267"
>0.01</text>

<text 
x="590" 
y="64" 
class="s2_267"
>)</text>

<text 
x="76" 
y="80" 
dx="0,0,4.6,0,0,0,0,0,0,4.6,0,0,0,0,0,4.6,0,0,0,0,0,0,4.6,0,0,0,0" 
class="s4_267"
># [30.6, 0.97, -1.86, 0.89]</text>

<text 
x="76" 
y="95" 
class="s1_267"
>dot</text>

<text 
x="100" 
y="95" 
class="s2_267"
>(</text>

<text 
x="108" 
y="95" 
class="s1_267"
>beta_0_01</text>

<text 
x="179" 
y="95" 
class="s2_267"
>[</text>

<text 
x="187" 
y="95" 
class="s3_267"
>1</text>

<text 
x="195" 
y="95" 
class="s2_267"
>:],</text>

<text 
x="227" 
y="95" 
class="s1_267"
>beta_0_01</text>

<text 
x="298" 
y="95" 
class="s2_267"
>[</text>

<text 
x="306" 
y="95" 
class="s3_267"
>1</text>

<text 
x="314" 
y="95" 
class="s2_267"
>:])</text>

<text 
x="353" 
y="95" 
dx="0,0,4.6,0,0,0" 
class="s4_267"
># 5.19</text>

<text 
x="76" 
y="111" 
class="s1_267"
>multiple_r_squared</text>

<text 
x="219" 
y="111" 
class="s2_267"
>(</text>

<text 
x="227" 
y="111" 
class="s1_267"
>x</text>

<text 
x="235" 
y="111" 
class="s2_267"
>,</text>

<text 
x="250" 
y="111" 
class="s1_267"
>daily_minutes_good</text>

<text 
x="393" 
y="111" 
class="s2_267"
>,</text>

<text 
x="408" 
y="111" 
class="s1_267"
>beta_0_01</text>

<text 
x="480" 
y="111" 
class="s2_267"
>)</text>

<text 
x="503" 
y="111" 
dx="0,0,4.6,0,0,0,0" 
class="s4_267"
># 0.680</text>

<text 
x="76" 
y="141" 
class="s1_267"
>beta_0_1</text>

<text 
x="148" 
y="141" 
class="s2_267"
>=</text>

<text 
x="163" 
y="141" 
class="s1_267"
>estimate_beta_ridge</text>

<text 
x="314" 
y="141" 
class="s2_267"
>(</text>

<text 
x="322" 
y="141" 
class="s1_267"
>x</text>

<text 
x="329" 
y="141" 
class="s2_267"
>,</text>

<text 
x="345" 
y="141" 
class="s1_267"
>daily_minutes_good</text>

<text 
x="487" 
y="141" 
class="s2_267"
>,</text>

<text 
x="503" 
y="141" 
class="s1_267"
>alpha</text>

<text 
x="543" 
y="141" 
class="s2_267"
>=</text>

<text 
x="551" 
y="141" 
class="s3_267"
>0.1</text>

<text 
x="574" 
y="141" 
class="s2_267"
>)</text>

<text 
x="76" 
y="157" 
dx="0,0,4.6,0,0,0,0,0,0,4.6,0,0,0,0,0,4.6,0,0,0,0,0,0,4.6,0,0,0,0" 
class="s4_267"
># [30.8, 0.95, -1.84, 0.54]</text>

<text 
x="76" 
y="172" 
class="s1_267"
>dot</text>

<text 
x="100" 
y="172" 
class="s2_267"
>(</text>

<text 
x="108" 
y="172" 
class="s1_267"
>beta_0_1</text>

<text 
x="171" 
y="172" 
class="s2_267"
>[</text>

<text 
x="179" 
y="172" 
class="s3_267"
>1</text>

<text 
x="187" 
y="172" 
class="s2_267"
>:],</text>

<text 
x="219" 
y="172" 
class="s1_267"
>beta_0_1</text>

<text 
x="282" 
y="172" 
class="s2_267"
>[</text>

<text 
x="290" 
y="172" 
class="s3_267"
>1</text>

<text 
x="298" 
y="172" 
class="s2_267"
>:])</text>

<text 
x="337" 
y="172" 
dx="0,0,4.6,0,0,0" 
class="s4_267"
># 4.60</text>

<text 
x="76" 
y="188" 
class="s1_267"
>multiple_r_squared</text>

<text 
x="219" 
y="188" 
class="s2_267"
>(</text>

<text 
x="227" 
y="188" 
class="s1_267"
>x</text>

<text 
x="235" 
y="188" 
class="s2_267"
>,</text>

<text 
x="250" 
y="188" 
class="s1_267"
>daily_minutes_good</text>

<text 
x="393" 
y="188" 
class="s2_267"
>,</text>

<text 
x="408" 
y="188" 
class="s1_267"
>beta_0_1</text>

<text 
x="472" 
y="188" 
class="s2_267"
>)</text>

<text 
x="495" 
y="188" 
dx="0,0,4.6,0,0,0,0" 
class="s4_267"
># 0.680</text>

<text 
x="76" 
y="218" 
class="s1_267"
>beta_1</text>

<text 
x="132" 
y="218" 
class="s2_267"
>=</text>

<text 
x="148" 
y="218" 
class="s1_267"
>estimate_beta_ridge</text>

<text 
x="298" 
y="218" 
class="s2_267"
>(</text>

<text 
x="306" 
y="218" 
class="s1_267"
>x</text>

<text 
x="314" 
y="218" 
class="s2_267"
>,</text>

<text 
x="329" 
y="218" 
class="s1_267"
>daily_minutes_good</text>

<text 
x="472" 
y="218" 
class="s2_267"
>,</text>

<text 
x="487" 
y="218" 
class="s1_267"
>alpha</text>

<text 
x="527" 
y="218" 
class="s2_267"
>=</text>

<text 
x="535" 
y="218" 
class="s3_267"
>1</text>

<text 
x="543" 
y="218" 
class="s2_267"
>)</text>

<text 
x="76" 
y="234" 
dx="0,0,4.6,0,0,0,0,0,0,4.6,0,0,0,0,0,4.6,0,0,0,0,0,0,4.6,0,0,0,0,0" 
class="s4_267"
># [30.7, 0.90, -1.69, 0.085]</text>

<text 
x="76" 
y="249" 
class="s1_267"
>dot</text>

<text 
x="100" 
y="249" 
class="s2_267"
>(</text>

<text 
x="108" 
y="249" 
class="s1_267"
>beta_1</text>

<text 
x="156" 
y="249" 
class="s2_267"
>[</text>

<text 
x="163" 
y="249" 
class="s3_267"
>1</text>

<text 
x="171" 
y="249" 
class="s2_267"
>:],</text>

<text 
x="203" 
y="249" 
class="s1_267"
>beta_1</text>

<text 
x="250" 
y="249" 
class="s2_267"
>[</text>

<text 
x="258" 
y="249" 
class="s3_267"
>1</text>

<text 
x="266" 
y="249" 
class="s2_267"
>:])</text>

<text 
x="306" 
y="249" 
dx="0,0,4.6,0,0,0" 
class="s4_267"
># 3.69</text>

<text 
x="76" 
y="265" 
class="s1_267"
>multiple_r_squared</text>

<text 
x="219" 
y="265" 
class="s2_267"
>(</text>

<text 
x="227" 
y="265" 
class="s1_267"
>x</text>

<text 
x="235" 
y="265" 
class="s2_267"
>,</text>

<text 
x="250" 
y="265" 
class="s1_267"
>daily_minutes_good</text>

<text 
x="393" 
y="265" 
class="s2_267"
>,</text>

<text 
x="408" 
y="265" 
class="s1_267"
>beta_1</text>

<text 
x="456" 
y="265" 
class="s2_267"
>)</text>

<text 
x="480" 
y="265" 
dx="0,0,4.6,0,0,0,0" 
class="s4_267"
># 0.676</text>

<text 
x="76" 
y="295" 
class="s1_267"
>beta_10</text>

<text 
x="140" 
y="295" 
class="s2_267"
>=</text>

<text 
x="156" 
y="295" 
class="s1_267"
>estimate_beta_ridge</text>

<text 
x="306" 
y="295" 
class="s2_267"
>(</text>

<text 
x="314" 
y="295" 
class="s1_267"
>x</text>

<text 
x="322" 
y="295" 
class="s2_267"
>,</text>

<text 
x="337" 
y="295" 
class="s1_267"
>daily_minutes_good</text>

<text 
x="480" 
y="295" 
class="s2_267"
>,</text>

<text 
x="495" 
y="295" 
class="s1_267"
>alpha</text>

<text 
x="535" 
y="295" 
class="s2_267"
>=</text>

<text 
x="543" 
y="295" 
class="s3_267"
>10</text>

<text 
x="559" 
y="295" 
class="s2_267"
>)</text>

<text 
x="76" 
y="311" 
dx="0,0,4.6,0,0,0,0,0,0,4.6,0,0,0,0,0,4.6,0,0,0,0,0,0,4.6,0,0,0,0,0,0" 
class="s4_267"
># [28.3, 0.72, -0.91, -0.017]</text>

<text 
x="76" 
y="326" 
class="s1_267"
>dot</text>

<text 
x="100" 
y="326" 
class="s2_267"
>(</text>

<text 
x="108" 
y="326" 
class="s1_267"
>beta_10</text>

<text 
x="163" 
y="326" 
class="s2_267"
>[</text>

<text 
x="171" 
y="326" 
class="s3_267"
>1</text>

<text 
x="179" 
y="326" 
class="s2_267"
>:],</text>

<text 
x="211" 
y="326" 
class="s1_267"
>beta_10</text>

<text 
x="266" 
y="326" 
class="s2_267"
>[</text>

<text 
x="274" 
y="326" 
class="s3_267"
>1</text>

<text 
x="282" 
y="326" 
class="s2_267"
>:])</text>

<text 
x="322" 
y="326" 
dx="0,0,4.6,0,0,0" 
class="s4_267"
># 1.36</text>

<text 
x="76" 
y="342" 
class="s1_267"
>multiple_r_squared</text>

<text 
x="219" 
y="342" 
class="s2_267"
>(</text>

<text 
x="227" 
y="342" 
class="s1_267"
>x</text>

<text 
x="235" 
y="342" 
class="s2_267"
>,</text>

<text 
x="250" 
y="342" 
class="s1_267"
>daily_minutes_good</text>

<text 
x="393" 
y="342" 
class="s2_267"
>,</text>

<text 
x="408" 
y="342" 
class="s1_267"
>beta_10</text>

<text 
x="464" 
y="342" 
class="s2_267"
>)</text>

<text 
x="487" 
y="342" 
dx="0,0,4.6,0,0,0,0" 
class="s4_267"
># 0.573</text>

<text 
x="55" 
y="394" 
dx="0,0,0,0,0,0,0,0,0,0,0,0,0,-0.9,0,0,0,0,0,0,0,0,0,-0.4,0,0,0,0,0,0,0,0,0,0,0,0,0,0,0,0,0,0,0,0,0,0,0,0,0,0,0,0,0,0,0,0,0,0,0,0,0,0,0,0,0,0,0,0,0,0,0,0,0,0,0,-1.4,0,0,0,0,0,0,0,0,0,0,0,0,0,0" 
class="s5_267"
>In particular, the coefficient on “PhD” vanishes as we increase the penalty, which accords</text>

<text 
x="55" 
y="422" 
dx="0,0,0,0,0,0,0,0,0,0,0,0,0,0,0,0,0,0,0,0,0,0,0,0,0,0,0,0,0,0,0,0,0,0,0,0,0,0,-0.4,0,0,0,0,0,0,0,0,0,0,0,0,0,0,0,0,0,0,-0.4,0,0,0,0,0,0,0,0,0,0,0,0,0,0,0,0" 
class="s5_267"
>with our previous result that it wasn’t significantly different from zero.</text>

<text 
x="421" 
y="465" 
dx="0,1.1,1.1,1.1" 
class="s6_267"
>NOTE</text>

<text 
x="97" 
y="495" 
class="s7_267"
>Usually you’d want to</text>

<text 
x="248" 
y="495" 
class="s2_267"
>rescale</text>

<text 
x="308" 
y="495" 
class="s7_267"
>your data before using this approach. After all, if you changed years of</text>

<text 
x="97" 
y="517" 
dx="0,0,0,0,0,0,0,0,0,0,0,0,0,0,0,0,0,0,0,0,0,0,0,0,0,0,0,0,0,0,0,0,0,0,0,0,0,0,0,0,0,0,0,0,0,0,0,0,0,0,0,0,0,0,0,0,0,0,0,0,0,-0.3,0,0,0,0,0,0,0,0,0,0,0,0,0,0,0,0,0,0,0,0,0,0,0,0,0,0,0,0,0,0,0,0,0,0,0,0,0,0,0,0,0,0,0,0" 
class="s7_267"
>experience to centuries of experience, its least squares coefficient would increase by a factor of 100 and</text>

<text 
x="97" 
y="536" 
dx="0,0,0,0,0,0,0,0,0,0,0,0,0,0,0,0,0,0,0,0,0,0,0,0,0,0,0,0,0,0,0,0,0,0,0,0,0,0,0,0,0,0,0,0,0,0,0,0,0,-0.9,0,0,0,0,0,0,0,0,0,0,0,0,0,0,0,0" 
class="s7_267"
>suddenly get penalized much more, even though it’s the same model.</text>

<text 
x="55" 
y="582" 
class="s5_267"
>Another approach is</text>

<text 
x="238" 
y="582" 
class="s8_267"
>lasso</text>

<text 
x="289" 
y="582" 
class="s5_267"
>regression, which uses the penalty:</text>

<text 
x="76" 
y="627" 
class="s9_267"
>def</text>

<text 
x="108" 
y="627" 
class="s10_267"
>lasso_penalty</text>

<text 
x="211" 
y="627" 
class="s2_267"
>(</text>

<text 
x="219" 
y="627" 
class="s1_267"
>beta</text>

<text 
x="250" 
y="627" 
class="s2_267"
>,</text>

<text 
x="266" 
y="627" 
class="s1_267"
>alpha</text>

<text 
x="306" 
y="627" 
class="s2_267"
>):</text>

<text 
x="108" 
y="642" 
class="s9_267"
>return</text>

<text 
x="163" 
y="642" 
class="s1_267"
>alpha</text>

<text 
x="211" 
y="642" 
class="s2_267"
>*</text>

<text 
x="227" 
y="642" 
class="s11_267"
>sum</text>

<text 
x="250" 
y="642" 
class="s2_267"
>(</text>

<text 
x="258" 
y="642" 
class="s11_267"
>abs</text>

<text 
x="282" 
y="642" 
class="s2_267"
>(</text>

<text 
x="290" 
y="642" 
class="s1_267"
>beta_i</text>

<text 
x="337" 
y="642" 
class="s2_267"
>)</text>

<text 
x="353" 
y="642" 
class="s9_267"
>for</text>

<text 
x="385" 
y="642" 
class="s1_267"
>beta_i</text>

<text 
x="440" 
y="642" 
class="s12_267"
>in</text>

<text 
x="464" 
y="642" 
class="s1_267"
>beta</text>

<text 
x="495" 
y="642" 
class="s2_267"
>[</text>

<text 
x="503" 
y="642" 
class="s3_267"
>1</text>

<text 
x="511" 
y="642" 
class="s2_267"
>:])</text>

<text 
x="55" 
y="695" 
dx="0,0,0,0,0,0,0,0,0,0,0,0,0,0,0,0,0,0,0,0,0,0,0,0,0,0,0,0,0,0,0,0,0,0,0,0,0,0,0,0,0,-0.4,0,0,0,0,0,0,0,0,0,0,0,0,0,0,0,0,0,0,0,0,0,0,0,0,0,0,0,0,0,0,0,0,0,0,0,0,0,0,0,0,0,0,0,0,0,0,0,0,0" 
class="s5_267"
>Whereas the ridge penalty shrank the coefficients overall, the lasso penalty tends to force</text>

<text 
x="55" 
y="722" 
dx="0,0,0,0,-0.4,0,0,0,0,0,0,0,0,0,0,0,0,0,0,0,0,0,0,0,0,0,0,0,0,0,0,0,0,0,0,0,0,0,0,0,0,0,0,0,0,0,0,0,0,0,0,0,0,0,0,0,0,0,0,0,0,0,0,0,0,0,0,0,0,0,0,0,0,0,0,0,0,0,0,0,0,0,0,0,0,0,-1.4,0,0,0,0,-1.2" 
class="s5_267"
>coefficients to be zero, which makes it good for learning sparse models. Unfortunately, it’s</text>

<text 
x="55" 
y="750" 
dx="0,0,0,0,0,0,0,0,0,0,0,0,0,0,0,0,0,0,0,0,0,0,0,0,0,0,0,0,0,0,0,0,0,0,0,0,0,0,0,0,0,0,0,0,0,0,0,0,0,0,0,0,0,0,0,0,0,0,-0.4,0,0,0,0,0,0,0,0,0,0,0,0,0,0,0,0,0,0,0,0,0,0,0,0,0" 
class="s5_267"
>not amenable to gradient descent, which means that we won’t be able to solve it from</text>

<text 
x="55" 
y="777" 
class="s5_267"
>scratch.</text>



<!-- Any embedded fonts defined here -->
<style type="text/css" ><![CDATA[

@font-face {
	font-family: LiberationSerif-Italic_l;
	src: url("fonts/LiberationSerif-Italic_l.woff") format("woff");
}

@font-face {
	font-family: LiberationMono-Bold_1w;
	src: url("fonts/LiberationMono-Bold_1w.woff") format("woff");
}

@font-face {
	font-family: LiberationMono_1q;
	src: url("fonts/LiberationMono_1q.woff") format("woff");
}

@font-face {
	font-family: LiberationMono-Italic_10;
	src: url("fonts/LiberationMono-Italic_10.woff") format("woff");
}

@font-face {
	font-family: LiberationSerif_e;
	src: url("fonts/LiberationSerif_e.woff") format("woff");
}

@font-face {
	font-family: LiberationSerif-Bold_b;
	src: url("fonts/LiberationSerif-Bold_b.woff") format("woff");
}

]]></style>

</svg>
