<?xml version="1.0" encoding="UTF-8" standalone="no"?>
<!DOCTYPE svg PUBLIC "-//W3C//DTD SVG 1.1//EN"
"http://www.w3.org/Graphics/SVG/1.1/DTD/svg11.dtd">


<!-- Page 278 -->
<svg x="0" y="0" width="909" height="1286" viewBox="0 0 909 1286" version="1.1" xmlns="http://www.w3.org/2000/svg" xmlns:xlink="http://www.w3.org/1999/xlink"
style="display: block;margin-left: auto;margin-right: auto;">
<defs>

<style type="text/css"><![CDATA[


.s1_278{
font-size: 30.81px;
font-family: LiberationSerif-Bold_b;
fill: #8E0012;
}
.s2_278{
font-size: 22.01px;
font-family: LiberationSerif_e;
fill: #000000;
}
.s3_278{
font-size: 22.01px;
font-family: LiberationSerif-Italic_l;
fill: #000000;
}
.s4_278{
font-size: 13.20px;
font-family: LiberationMono_1q;
fill: #000088;
}
.s5_278{
font-size: 13.20px;
font-family: LiberationMono_1q;
fill: #000000;
}
.s6_278{
font-size: 13.20px;
font-family: LiberationMono_1q;
fill: #FF6600;
}
.s7_278{
font-size: 13.20px;
font-family: LiberationMono-Bold_1w;
fill: #006699;
}
.s8_278{
font-size: 13.20px;
font-family: LiberationMono-Bold_1w;
fill: #000000;
}
.s9_278{
font-size: 13.20px;
font-family: LiberationMono_1q;
fill: #336666;
}
.s10_278{
font-size: 13.20px;
font-family: LiberationMono-Italic_10;
fill: #0099FF;
}
.s11_278{
font-size: 22.01px;
font-family: LiberationSerif_e;
fill: #8E0012;
}
.s12_278{
font-size: 13.20px;
font-family: LiberationMono_1q;
fill: #CC3300;
}

]]></style>

</defs>
<path d="M0,0
L0,1286
L909,1286
L909,0 Z " 
fill="#FFFFFF" stroke="none" />
<text 
x="55" 
y="81" 
class="s1_278"
>Goodness of Fit</text>

<text 
x="55" 
y="122" 
dx="0,-1.8,0,0,0,0,0,0,0,-0.4,0,0,0,0,0,0,0,0,0,0,0,0,0,0,0,0,0,0,0,0,0,0,0,0,0,0,0,0,0,0,0,0,0,0,0,0,0,0,0,0,0,0,0,0,0,0,-1.2,0,0,0,0,0,0,0,0,0,0,0,0,0,0,0,0,0,0,0,0,0,0,0,0,0,0,0,0,0,0,0" 
class="s2_278"
>We haven’t yet used the test data that we held out. Let’s see what happens if we predict</text>

<text 
x="55" 
y="149" 
class="s3_278"
>paid account</text>

<text 
x="174" 
y="149" 
class="s2_278"
>whenever the probability exceeds 0.5:</text>

<text 
x="76" 
y="194" 
class="s4_278"
>true_positives</text>

<text 
x="195" 
y="194" 
class="s5_278"
>=</text>

<text 
x="211" 
y="194" 
class="s4_278"
>false_positives</text>

<text 
x="337" 
y="194" 
class="s5_278"
>=</text>

<text 
x="353" 
y="194" 
class="s4_278"
>true_negatives</text>

<text 
x="472" 
y="194" 
class="s5_278"
>=</text>

<text 
x="487" 
y="194" 
class="s4_278"
>false_negatives</text>

<text 
x="614" 
y="194" 
class="s5_278"
>=</text>

<text 
x="630" 
y="194" 
class="s6_278"
>0</text>

<text 
x="76" 
y="225" 
class="s7_278"
>for</text>

<text 
x="108" 
y="225" 
class="s4_278"
>x_i</text>

<text 
x="132" 
y="225" 
class="s5_278"
>,</text>

<text 
x="148" 
y="225" 
class="s4_278"
>y_i</text>

<text 
x="179" 
y="225" 
class="s8_278"
>in</text>

<text 
x="203" 
y="225" 
class="s9_278"
>zip</text>

<text 
x="227" 
y="225" 
class="s5_278"
>(</text>

<text 
x="235" 
y="225" 
class="s4_278"
>x_test</text>

<text 
x="282" 
y="225" 
class="s5_278"
>,</text>

<text 
x="298" 
y="225" 
class="s4_278"
>y_test</text>

<text 
x="345" 
y="225" 
class="s5_278"
>):</text>

<text 
x="108" 
y="240" 
class="s4_278"
>predict</text>

<text 
x="171" 
y="240" 
class="s5_278"
>=</text>

<text 
x="187" 
y="240" 
class="s4_278"
>logistic</text>

<text 
x="250" 
y="240" 
class="s5_278"
>(</text>

<text 
x="258" 
y="240" 
class="s4_278"
>dot</text>

<text 
x="282" 
y="240" 
class="s5_278"
>(</text>

<text 
x="290" 
y="240" 
class="s4_278"
>beta_hat</text>

<text 
x="353" 
y="240" 
class="s5_278"
>,</text>

<text 
x="369" 
y="240" 
class="s4_278"
>x_i</text>

<text 
x="393" 
y="240" 
class="s5_278"
>))</text>

<text 
x="108" 
y="271" 
class="s7_278"
>if</text>

<text 
x="132" 
y="271" 
class="s4_278"
>y_i</text>

<text 
x="163" 
y="271" 
class="s5_278"
>==</text>

<text 
x="187" 
y="271" 
class="s6_278"
>1</text>

<text 
x="203" 
y="271" 
class="s8_278"
>and</text>

<text 
x="235" 
y="271" 
class="s4_278"
>predict</text>

<text 
x="298" 
y="271" 
class="s5_278"
>&gt;=</text>

<text 
x="322" 
y="271" 
class="s6_278"
>0.5</text>

<text 
x="345" 
y="271" 
class="s5_278"
>:</text>

<text 
x="369" 
y="271" 
dx="0,0,4.6,0,0,0,4.6,0,0,0,0,4.6,0,0,0,4.6,0,0,4.6,0,0,0,0,0,0,0,4.6,0,0,0" 
class="s10_278"
># TP: paid and we predict paid</text>

<text 
x="140" 
y="287" 
class="s4_278"
>true_positives</text>

<text 
x="258" 
y="287" 
class="s5_278"
>+=</text>

<text 
x="282" 
y="287" 
class="s6_278"
>1</text>

<text 
x="108" 
y="302" 
class="s7_278"
>elif</text>

<text 
x="148" 
y="302" 
class="s4_278"
>y_i</text>

<text 
x="179" 
y="302" 
class="s5_278"
>==</text>

<text 
x="203" 
y="302" 
class="s6_278"
>1</text>

<text 
x="211" 
y="302" 
class="s5_278"
>:</text>

<text 
x="369" 
y="302" 
dx="0,0,4.6,0,0,0,4.6,0,0,0,0,4.6,0,0,0,4.6,0,0,4.6,0,0,0,0,0,0,0,4.6,0,0,0,0,0" 
class="s10_278"
># FN: paid and we predict unpaid</text>

<text 
x="140" 
y="317" 
class="s4_278"
>false_negatives</text>

<text 
x="266" 
y="317" 
class="s5_278"
>+=</text>

<text 
x="290" 
y="317" 
class="s6_278"
>1</text>

<text 
x="108" 
y="333" 
class="s7_278"
>elif</text>

<text 
x="148" 
y="333" 
class="s4_278"
>predict</text>

<text 
x="211" 
y="333" 
class="s5_278"
>&gt;=</text>

<text 
x="235" 
y="333" 
class="s6_278"
>0.5</text>

<text 
x="258" 
y="333" 
class="s5_278"
>:</text>

<text 
x="369" 
y="333" 
dx="0,0,4.6,0,0,0,4.6,0,0,0,0,0,0,4.6,0,0,0,4.6,0,0,4.6,0,0,0,0,0,0,0,4.6,0,0,0" 
class="s10_278"
># FP: unpaid and we predict paid</text>

<text 
x="140" 
y="348" 
class="s4_278"
>false_positives</text>

<text 
x="266" 
y="348" 
class="s5_278"
>+=</text>

<text 
x="290" 
y="348" 
class="s6_278"
>1</text>

<text 
x="108" 
y="364" 
class="s7_278"
>else</text>

<text 
x="140" 
y="364" 
class="s5_278"
>:</text>

<text 
x="369" 
y="364" 
dx="0,0,4.6,0,0,0,4.6,0,0,0,0,0,0,4.6,0,0,0,4.6,0,0,4.6,0,0,0,0,0,0,0,4.6,0,0,0,0,0" 
class="s10_278"
># TN: unpaid and we predict unpaid</text>

<text 
x="140" 
y="379" 
class="s4_278"
>true_negatives</text>

<text 
x="258" 
y="379" 
class="s5_278"
>+=</text>

<text 
x="282" 
y="379" 
class="s6_278"
>1</text>

<text 
x="76" 
y="410" 
class="s4_278"
>precision</text>

<text 
x="156" 
y="410" 
class="s5_278"
>=</text>

<text 
x="171" 
y="410" 
class="s4_278"
>true_positives</text>

<text 
x="290" 
y="410" 
dx="0,0,4.6" 
class="s5_278"
>/ (</text>

<text 
x="314" 
y="410" 
class="s4_278"
>true_positives</text>

<text 
x="432" 
y="410" 
class="s5_278"
>+</text>

<text 
x="448" 
y="410" 
class="s4_278"
>false_positives</text>

<text 
x="567" 
y="410" 
class="s5_278"
>)</text>

<text 
x="76" 
y="425" 
class="s4_278"
>recall</text>

<text 
x="132" 
y="425" 
class="s5_278"
>=</text>

<text 
x="148" 
y="425" 
class="s4_278"
>true_positives</text>

<text 
x="266" 
y="425" 
dx="0,0,4.6" 
class="s5_278"
>/ (</text>

<text 
x="290" 
y="425" 
class="s4_278"
>true_positives</text>

<text 
x="408" 
y="425" 
class="s5_278"
>+</text>

<text 
x="424" 
y="425" 
class="s4_278"
>false_negatives</text>

<text 
x="543" 
y="425" 
class="s5_278"
>)</text>

<text 
x="55" 
y="478" 
class="s2_278"
>This gives a precision of 93% (“when we predict</text>

<text 
x="490" 
y="478" 
class="s3_278"
>paid account</text>

<text 
x="609" 
y="478" 
class="s2_278"
>we’re right 93% of the</text>

<text 
x="55" 
y="506" 
class="s2_278"
>time”) and a recall of 82% (“when a user has a paid account we predict</text>

<text 
x="685" 
y="506" 
class="s3_278"
>paid account</text>

<text 
x="805" 
y="506" 
class="s2_278"
>82%</text>

<text 
x="55" 
y="533" 
class="s2_278"
>of the time”), both of which are pretty respectable numbers.</text>

<text 
x="55" 
y="572" 
dx="0,-1.8,0,0,0,0,0,0,0,0,0,0,0,0,0,0,0,0,0,0,0,0,0,0,0,0,0,0,0,0,0,0,0,0,0,0,0,0,0,0,0,0,0,0,0,0,0,0,0,0,0,0,0" 
class="s2_278"
>We can also plot the predictions versus the actuals (</text>

<text 
x="509" 
y="572" 
class="s11_278"
>Figure 16-4</text>

<text 
x="612" 
y="572" 
class="s2_278"
>), which also shows that</text>

<text 
x="55" 
y="599" 
class="s2_278"
>the model performs well:</text>

<text 
x="76" 
y="644" 
class="s4_278"
>predictions</text>

<text 
x="171" 
y="644" 
dx="0,0,4.6" 
class="s5_278"
>= [</text>

<text 
x="195" 
y="644" 
class="s4_278"
>logistic</text>

<text 
x="258" 
y="644" 
class="s5_278"
>(</text>

<text 
x="266" 
y="644" 
class="s4_278"
>dot</text>

<text 
x="290" 
y="644" 
class="s5_278"
>(</text>

<text 
x="298" 
y="644" 
class="s4_278"
>beta_hat</text>

<text 
x="361" 
y="644" 
class="s5_278"
>,</text>

<text 
x="377" 
y="644" 
class="s4_278"
>x_i</text>

<text 
x="401" 
y="644" 
class="s5_278"
>))</text>

<text 
x="424" 
y="644" 
class="s7_278"
>for</text>

<text 
x="456" 
y="644" 
class="s4_278"
>x_i</text>

<text 
x="487" 
y="644" 
class="s8_278"
>in</text>

<text 
x="511" 
y="644" 
class="s4_278"
>x_test</text>

<text 
x="559" 
y="644" 
class="s5_278"
>]</text>

<text 
x="76" 
y="660" 
class="s4_278"
>plt</text>

<text 
x="100" 
y="660" 
class="s5_278"
>.</text>

<text 
x="108" 
y="660" 
class="s4_278"
>scatter</text>

<text 
x="163" 
y="660" 
class="s5_278"
>(</text>

<text 
x="171" 
y="660" 
class="s4_278"
>predictions</text>

<text 
x="258" 
y="660" 
class="s5_278"
>,</text>

<text 
x="274" 
y="660" 
class="s4_278"
>y_test</text>

<text 
x="322" 
y="660" 
class="s5_278"
>)</text>

<text 
x="76" 
y="675" 
class="s4_278"
>plt</text>

<text 
x="100" 
y="675" 
class="s5_278"
>.</text>

<text 
x="108" 
y="675" 
class="s4_278"
>xlabel</text>

<text 
x="156" 
y="675" 
class="s5_278"
>(</text>

<text 
x="163" 
y="675" 
dx="0,0,0,0,0,0,0,0,0,0,0,4.6,0,0,0,0,0,0,0,0,0,0,0" 
class="s12_278"
>"predicted probability"</text>

<text 
x="345" 
y="675" 
class="s5_278"
>)</text>

<text 
x="76" 
y="690" 
class="s4_278"
>plt</text>

<text 
x="100" 
y="690" 
class="s5_278"
>.</text>

<text 
x="108" 
y="690" 
class="s4_278"
>ylabel</text>

<text 
x="156" 
y="690" 
class="s5_278"
>(</text>

<text 
x="163" 
y="690" 
dx="0,0,0,0,0,0,0,0,4.6,0,0,0,0,0,0,0" 
class="s12_278"
>"actual outcome"</text>

<text 
x="290" 
y="690" 
class="s5_278"
>)</text>

<text 
x="76" 
y="706" 
class="s4_278"
>plt</text>

<text 
x="100" 
y="706" 
class="s5_278"
>.</text>

<text 
x="108" 
y="706" 
class="s4_278"
>title</text>

<text 
x="148" 
y="706" 
class="s5_278"
>(</text>

<text 
x="156" 
y="706" 
dx="0,0,0,0,0,0,0,0,0,0,4.6,0,0,0,0,0,0,0,0,0,0,4.6,0,0,0,0,0,0,0,0,0,4.6,0,0,0,4.6,0,0,0,0,0,0" 
class="s12_278"
>"Logistic Regression Predicted vs. Actual"</text>

<text 
x="487" 
y="706" 
class="s5_278"
>)</text>

<text 
x="76" 
y="721" 
class="s4_278"
>plt</text>

<text 
x="100" 
y="721" 
class="s5_278"
>.</text>

<text 
x="108" 
y="721" 
class="s4_278"
>show</text>

<text 
x="140" 
y="721" 
class="s5_278"
>()</text>



<!-- Any embedded fonts defined here -->
<style type="text/css" ><![CDATA[

@font-face {
	font-family: LiberationSerif-Italic_l;
	src: url("fonts/LiberationSerif-Italic_l.woff") format("woff");
}

@font-face {
	font-family: LiberationMono-Bold_1w;
	src: url("fonts/LiberationMono-Bold_1w.woff") format("woff");
}

@font-face {
	font-family: LiberationMono_1q;
	src: url("fonts/LiberationMono_1q.woff") format("woff");
}

@font-face {
	font-family: LiberationMono-Italic_10;
	src: url("fonts/LiberationMono-Italic_10.woff") format("woff");
}

@font-face {
	font-family: LiberationSerif-Bold_b;
	src: url("fonts/LiberationSerif-Bold_b.woff") format("woff");
}

@font-face {
	font-family: LiberationSerif_e;
	src: url("fonts/LiberationSerif_e.woff") format("woff");
}

]]></style>

</svg>
