<?xml version="1.0" encoding="UTF-8" standalone="no"?>
<!DOCTYPE svg PUBLIC "-//W3C//DTD SVG 1.1//EN"
"http://www.w3.org/Graphics/SVG/1.1/DTD/svg11.dtd">


<!-- Page 313 -->
<svg x="0" y="0" width="909" height="1286" viewBox="0 0 909 1286" version="1.1" xmlns="http://www.w3.org/2000/svg" xmlns:xlink="http://www.w3.org/1999/xlink"
style="display: block;margin-left: auto;margin-right: auto;">
<defs>

<style type="text/css"><![CDATA[

.g1_313{
stroke: #000000;
stroke-width: 1.0996486;
stroke-linecap: square;
stroke-linejoin: miter;
}

.s1_313{
font-size: 30.81px;
font-family: LiberationSerif-Bold_b;
fill: #8E0012;
}
.s2_313{
font-size: 22.01px;
font-family: LiberationSerif_e;
fill: #000000;
}
.s3_313{
font-size: 22.01px;
font-family: LiberationSerif_e;
fill: #8E0012;
}

]]></style>

</defs>
<path d="M0,0
L0,1286
L909,1286
L909,0 Z " 
fill="#FFFFFF" stroke="none" />
<text 
x="55" 
y="81" 
dx="0,0,0,0,-0.6,0,0,0,0,0,0,0,-0.6,0,0,0,0,0,0,0,0,0,0" 
class="s1_313"
>For Further Exploration</text>

<path d="M61.6,108.9l6.6,0l0,6.6l-6.6,0l0,-6.6Z" class="g1_313" />
<text 
x="82" 
y="118" 
class="s2_313"
>Coursera has a free course on</text>

<text 
x="347" 
y="118" 
class="s3_313"
>Neural Networks for Machine Learning</text>

<text 
x="696" 
y="118" 
class="s2_313"
>. As I write this it</text>

<text 
x="82" 
y="144" 
class="s2_313"
>was last run in 2012, but the course materials are still available.</text>

<path d="M61.6,181.5l6.6,0l0,6.6l-6.6,0l0,-6.6Z" class="g1_313" />
<text 
x="82" 
y="191" 
class="s2_313"
>Michael Nielsen is writing a free online book on</text>

<text 
x="514" 
y="191" 
class="s3_313"
>Neural Networks and Deep Learning</text>

<text 
x="838" 
y="191" 
class="s2_313"
>.</text>

<text 
x="82" 
y="216" 
class="s2_313"
>By the time you read this it might be finished.</text>

<path d="M61.6,254.2l6.6,0l0,6.6l-6.6,0l0,-6.6Z" class="g1_313" />
<text 
x="82" 
y="264" 
class="s3_313"
>PyBrain</text>

<text 
x="160" 
y="264" 
dx="0,0,0,0,0,0,0,0,0,0,0,0,0,0,0,0,0,0,0,0,0,0,0,0,0,0,0,0,0,0,0,0,0,0,0,0,0,0,0,0,0,0,0,0,0,0,0,0,-1.4" 
class="s2_313"
>is a pretty simple Python neural network library.</text>

<path d="M61.6,301.5l6.6,0l0,6.6l-6.6,0l0,-6.6Z" class="g1_313" />
<text 
x="82" 
y="311" 
class="s3_313"
>Pylearn2</text>

<text 
x="166" 
y="311" 
dx="0,0,0,0,0,0,0,0,0,0,0,0,0,0,0,0,0,0,0,0,0,0,0,0,0,0,0,0,0,0,0,0,0,0,0,0,0,0,0,0,0,0,0,0,0,0,0,0,0,0,0,0,0,0,0,0,0,0,0,0,0,0,0,0,0,0,0,0,0,0,0,-1.4" 
class="s2_313"
>is a much more advanced (and much harder to use) neural network library.</text>



<!-- Any embedded fonts defined here -->
<style type="text/css" ><![CDATA[

@font-face {
	font-family: LiberationSerif-Bold_b;
	src: url("fonts/LiberationSerif-Bold_b.woff") format("woff");
}

@font-face {
	font-family: LiberationSerif_e;
	src: url("fonts/LiberationSerif_e.woff") format("woff");
}

]]></style>

</svg>
