<?xml version="1.0" encoding="UTF-8" standalone="no"?>
<!DOCTYPE svg PUBLIC "-//W3C//DTD SVG 1.1//EN"
"http://www.w3.org/Graphics/SVG/1.1/DTD/svg11.dtd">


<!-- Page 32 -->
<svg x="0" y="0" width="909" height="1286" viewBox="0 0 909 1286" version="1.1" xmlns="http://www.w3.org/2000/svg" xmlns:xlink="http://www.w3.org/1999/xlink"
style="display: block;margin-left: auto;margin-right: auto;">
<defs>

<style type="text/css"><![CDATA[


.s1_32{
font-size: 25.31px;
font-family: LiberationSerif-Bold_b;
fill: #000000;
}
.s2_32{
font-size: 22.01px;
font-family: LiberationSerif_e;
fill: #000000;
}
.s3_32{
font-size: 13.20px;
font-family: LiberationMono_1q;
fill: #000088;
}
.s4_32{
font-size: 13.20px;
font-family: LiberationMono_1q;
fill: #000000;
}
.s5_32{
font-size: 13.20px;
font-family: LiberationMono_1q;
fill: #FF6600;
}
.s6_32{
font-size: 13.20px;
font-family: LiberationMono_1q;
fill: #CC3300;
}
.s7_32{
font-size: 13.20px;
font-family: LiberationMono-Bold_1w;
fill: #006699;
}
.s8_32{
font-size: 13.20px;
font-family: LiberationMono-Bold_1w;
fill: #000000;
}

]]></style>

</defs>
<path d="M0,0
L0,1286
L909,1286
L909,0 Z " 
fill="#FFFFFF" stroke="none" />
<text 
x="55" 
y="77" 
dx="0,-2.3,0,0,0,0,0,0,0,0,0,0,0,0,0,-0.5,0,0" 
class="s1_32"
>Topics of Interest</text>

<text 
x="55" 
y="115" 
dx="0,0,0,0,0,0,0,0,0,0,0,0,0,0,0,0,0,0,0,0,0,0,0,0,0,0,0,0,0,0,0,0,0,0,0,0,-1.4,0,0,0,0,0,0,0,0,-0.8,0,0,0,0,0,0,0,0,0,0,0,0,0,0,0,0,0,0,0,0,0,0,0,0,0,0,0,0,0,0,0,0,0,0,0,0,0,0,0,0,0,0" 
class="s2_32"
>As you’re wrapping up your first day, the VP of Content Strategy asks you for data about</text>

<text 
x="55" 
y="143" 
class="s2_32"
>what topics users are most interested in, so that she can plan out her blog calendar</text>

<text 
x="55" 
y="170" 
dx="0,0,0,0,0,0,0,0,0,0,0,-1.4,0,0,-2.2,0,0,0,0,0,0,0,0,0,0,0,0,0,0,0,0,0,0,0,0,0,0,0,0,0,0,0,0,0,0,0,0,0,0,0,0,0,0,0,0,0,0,0,0,0,0,0,0,0,0,0,0,0,0,0,0,0,0,0,0,0,0" 
class="s2_32"
>accordingly. You already have the raw data from the friend-suggester project:</text>

<text 
x="76" 
y="215" 
class="s3_32"
>interests</text>

<text 
x="156" 
y="215" 
dx="0,0,4.6" 
class="s4_32"
>= [</text>

<text 
x="108" 
y="231" 
class="s4_32"
>(</text>

<text 
x="116" 
y="231" 
class="s5_32"
>0</text>

<text 
x="124" 
y="231" 
class="s4_32"
>,</text>

<text 
x="140" 
y="231" 
class="s6_32"
>"Hadoop"</text>

<text 
x="203" 
y="231" 
dx="0,0,0,4.6" 
class="s4_32"
>), (</text>

<text 
x="235" 
y="231" 
class="s5_32"
>0</text>

<text 
x="242" 
y="231" 
class="s4_32"
>,</text>

<text 
x="258" 
y="231" 
dx="0,0,0,0,0,4.6,0,0,0,0" 
class="s6_32"
>"Big Data"</text>

<text 
x="337" 
y="231" 
dx="0,0,0,4.6" 
class="s4_32"
>), (</text>

<text 
x="369" 
y="231" 
class="s5_32"
>0</text>

<text 
x="377" 
y="231" 
class="s4_32"
>,</text>

<text 
x="393" 
y="231" 
class="s6_32"
>"HBase"</text>

<text 
x="448" 
y="231" 
dx="0,0,0,4.6" 
class="s4_32"
>), (</text>

<text 
x="480" 
y="231" 
class="s5_32"
>0</text>

<text 
x="487" 
y="231" 
class="s4_32"
>,</text>

<text 
x="503" 
y="231" 
class="s6_32"
>"Java"</text>

<text 
x="551" 
y="231" 
class="s4_32"
>),</text>

<text 
x="108" 
y="246" 
class="s4_32"
>(</text>

<text 
x="116" 
y="246" 
class="s5_32"
>0</text>

<text 
x="124" 
y="246" 
class="s4_32"
>,</text>

<text 
x="140" 
y="246" 
class="s6_32"
>"Spark"</text>

<text 
x="195" 
y="246" 
dx="0,0,0,4.6" 
class="s4_32"
>), (</text>

<text 
x="227" 
y="246" 
class="s5_32"
>0</text>

<text 
x="235" 
y="246" 
class="s4_32"
>,</text>

<text 
x="250" 
y="246" 
class="s6_32"
>"Storm"</text>

<text 
x="306" 
y="246" 
dx="0,0,0,4.6" 
class="s4_32"
>), (</text>

<text 
x="337" 
y="246" 
class="s5_32"
>0</text>

<text 
x="345" 
y="246" 
class="s4_32"
>,</text>

<text 
x="361" 
y="246" 
class="s6_32"
>"Cassandra"</text>

<text 
x="448" 
y="246" 
class="s4_32"
>),</text>

<text 
x="108" 
y="261" 
class="s4_32"
>(</text>

<text 
x="116" 
y="261" 
class="s5_32"
>1</text>

<text 
x="124" 
y="261" 
class="s4_32"
>,</text>

<text 
x="140" 
y="261" 
class="s6_32"
>"NoSQL"</text>

<text 
x="195" 
y="261" 
dx="0,0,0,4.6" 
class="s4_32"
>), (</text>

<text 
x="227" 
y="261" 
class="s5_32"
>1</text>

<text 
x="235" 
y="261" 
class="s4_32"
>,</text>

<text 
x="250" 
y="261" 
class="s6_32"
>"MongoDB"</text>

<text 
x="322" 
y="261" 
dx="0,0,0,4.6" 
class="s4_32"
>), (</text>

<text 
x="353" 
y="261" 
class="s5_32"
>1</text>

<text 
x="361" 
y="261" 
class="s4_32"
>,</text>

<text 
x="377" 
y="261" 
class="s6_32"
>"Cassandra"</text>

<text 
x="464" 
y="261" 
dx="0,0,0,4.6" 
class="s4_32"
>), (</text>

<text 
x="495" 
y="261" 
class="s5_32"
>1</text>

<text 
x="503" 
y="261" 
class="s4_32"
>,</text>

<text 
x="519" 
y="261" 
class="s6_32"
>"HBase"</text>

<text 
x="574" 
y="261" 
class="s4_32"
>),</text>

<text 
x="108" 
y="277" 
class="s4_32"
>(</text>

<text 
x="116" 
y="277" 
class="s5_32"
>1</text>

<text 
x="124" 
y="277" 
class="s4_32"
>,</text>

<text 
x="140" 
y="277" 
class="s6_32"
>"Postgres"</text>

<text 
x="219" 
y="277" 
dx="0,0,0,4.6" 
class="s4_32"
>), (</text>

<text 
x="250" 
y="277" 
class="s5_32"
>2</text>

<text 
x="258" 
y="277" 
class="s4_32"
>,</text>

<text 
x="274" 
y="277" 
class="s6_32"
>"Python"</text>

<text 
x="337" 
y="277" 
dx="0,0,0,4.6" 
class="s4_32"
>), (</text>

<text 
x="369" 
y="277" 
class="s5_32"
>2</text>

<text 
x="377" 
y="277" 
class="s4_32"
>,</text>

<text 
x="393" 
y="277" 
class="s6_32"
>"scikit-learn"</text>

<text 
x="503" 
y="277" 
dx="0,0,0,4.6" 
class="s4_32"
>), (</text>

<text 
x="535" 
y="277" 
class="s5_32"
>2</text>

<text 
x="543" 
y="277" 
class="s4_32"
>,</text>

<text 
x="559" 
y="277" 
class="s6_32"
>"scipy"</text>

<text 
x="614" 
y="277" 
class="s4_32"
>),</text>

<text 
x="108" 
y="292" 
class="s4_32"
>(</text>

<text 
x="116" 
y="292" 
class="s5_32"
>2</text>

<text 
x="124" 
y="292" 
class="s4_32"
>,</text>

<text 
x="140" 
y="292" 
class="s6_32"
>"numpy"</text>

<text 
x="195" 
y="292" 
dx="0,0,0,4.6" 
class="s4_32"
>), (</text>

<text 
x="227" 
y="292" 
class="s5_32"
>2</text>

<text 
x="235" 
y="292" 
class="s4_32"
>,</text>

<text 
x="250" 
y="292" 
class="s6_32"
>"statsmodels"</text>

<text 
x="353" 
y="292" 
dx="0,0,0,4.6" 
class="s4_32"
>), (</text>

<text 
x="385" 
y="292" 
class="s5_32"
>2</text>

<text 
x="393" 
y="292" 
class="s4_32"
>,</text>

<text 
x="408" 
y="292" 
class="s6_32"
>"pandas"</text>

<text 
x="472" 
y="292" 
dx="0,0,0,4.6" 
class="s4_32"
>), (</text>

<text 
x="503" 
y="292" 
class="s5_32"
>3</text>

<text 
x="511" 
y="292" 
class="s4_32"
>,</text>

<text 
x="527" 
y="292" 
class="s6_32"
>"R"</text>

<text 
x="551" 
y="292" 
dx="0,0,0,4.6" 
class="s4_32"
>), (</text>

<text 
x="582" 
y="292" 
class="s5_32"
>3</text>

<text 
x="590" 
y="292" 
class="s4_32"
>,</text>

<text 
x="606" 
y="292" 
class="s6_32"
>"Python"</text>

<text 
x="669" 
y="292" 
class="s4_32"
>),</text>

<text 
x="108" 
y="308" 
class="s4_32"
>(</text>

<text 
x="116" 
y="308" 
class="s5_32"
>3</text>

<text 
x="124" 
y="308" 
class="s4_32"
>,</text>

<text 
x="140" 
y="308" 
class="s6_32"
>"statistics"</text>

<text 
x="235" 
y="308" 
dx="0,0,0,4.6" 
class="s4_32"
>), (</text>

<text 
x="266" 
y="308" 
class="s5_32"
>3</text>

<text 
x="274" 
y="308" 
class="s4_32"
>,</text>

<text 
x="290" 
y="308" 
class="s6_32"
>"regression"</text>

<text 
x="385" 
y="308" 
dx="0,0,0,4.6" 
class="s4_32"
>), (</text>

<text 
x="416" 
y="308" 
class="s5_32"
>3</text>

<text 
x="424" 
y="308" 
class="s4_32"
>,</text>

<text 
x="440" 
y="308" 
class="s6_32"
>"probability"</text>

<text 
x="543" 
y="308" 
class="s4_32"
>),</text>

<text 
x="108" 
y="323" 
class="s4_32"
>(</text>

<text 
x="116" 
y="323" 
class="s5_32"
>4</text>

<text 
x="124" 
y="323" 
class="s4_32"
>,</text>

<text 
x="140" 
y="323" 
dx="0,0,0,0,0,0,0,0,0,4.6,0,0,0,0,0,0,0,0" 
class="s6_32"
>"machine learning"</text>

<text 
x="282" 
y="323" 
dx="0,0,0,4.6" 
class="s4_32"
>), (</text>

<text 
x="314" 
y="323" 
class="s5_32"
>4</text>

<text 
x="322" 
y="323" 
class="s4_32"
>,</text>

<text 
x="337" 
y="323" 
class="s6_32"
>"regression"</text>

<text 
x="432" 
y="323" 
dx="0,0,0,4.6" 
class="s4_32"
>), (</text>

<text 
x="464" 
y="323" 
class="s5_32"
>4</text>

<text 
x="472" 
y="323" 
class="s4_32"
>,</text>

<text 
x="487" 
y="323" 
dx="0,0,0,0,0,0,0,0,0,0,4.6,0,0,0,0,0" 
class="s6_32"
>"decision trees"</text>

<text 
x="614" 
y="323" 
class="s4_32"
>),</text>

<text 
x="108" 
y="338" 
class="s4_32"
>(</text>

<text 
x="116" 
y="338" 
class="s5_32"
>4</text>

<text 
x="124" 
y="338" 
class="s4_32"
>,</text>

<text 
x="140" 
y="338" 
class="s6_32"
>"libsvm"</text>

<text 
x="203" 
y="338" 
dx="0,0,0,4.6" 
class="s4_32"
>), (</text>

<text 
x="235" 
y="338" 
class="s5_32"
>5</text>

<text 
x="242" 
y="338" 
class="s4_32"
>,</text>

<text 
x="258" 
y="338" 
class="s6_32"
>"Python"</text>

<text 
x="322" 
y="338" 
dx="0,0,0,4.6" 
class="s4_32"
>), (</text>

<text 
x="353" 
y="338" 
class="s5_32"
>5</text>

<text 
x="361" 
y="338" 
class="s4_32"
>,</text>

<text 
x="377" 
y="338" 
class="s6_32"
>"R"</text>

<text 
x="401" 
y="338" 
dx="0,0,0,4.6" 
class="s4_32"
>), (</text>

<text 
x="432" 
y="338" 
class="s5_32"
>5</text>

<text 
x="440" 
y="338" 
class="s4_32"
>,</text>

<text 
x="456" 
y="338" 
class="s6_32"
>"Java"</text>

<text 
x="503" 
y="338" 
dx="0,0,0,4.6" 
class="s4_32"
>), (</text>

<text 
x="535" 
y="338" 
class="s5_32"
>5</text>

<text 
x="543" 
y="338" 
class="s4_32"
>,</text>

<text 
x="559" 
y="338" 
class="s6_32"
>"C++"</text>

<text 
x="598" 
y="338" 
class="s4_32"
>),</text>

<text 
x="108" 
y="354" 
class="s4_32"
>(</text>

<text 
x="116" 
y="354" 
class="s5_32"
>5</text>

<text 
x="124" 
y="354" 
class="s4_32"
>,</text>

<text 
x="140" 
y="354" 
class="s6_32"
>"Haskell"</text>

<text 
x="211" 
y="354" 
dx="0,0,0,4.6" 
class="s4_32"
>), (</text>

<text 
x="242" 
y="354" 
class="s5_32"
>5</text>

<text 
x="250" 
y="354" 
class="s4_32"
>,</text>

<text 
x="266" 
y="354" 
dx="0,0,0,0,0,0,0,0,0,0,0,0,0,4.6,0,0,0,0,0,0,0,0,0" 
class="s6_32"
>"programming languages"</text>

<text 
x="448" 
y="354" 
dx="0,0,0,4.6" 
class="s4_32"
>), (</text>

<text 
x="480" 
y="354" 
class="s5_32"
>6</text>

<text 
x="487" 
y="354" 
class="s4_32"
>,</text>

<text 
x="503" 
y="354" 
class="s6_32"
>"statistics"</text>

<text 
x="598" 
y="354" 
class="s4_32"
>),</text>

<text 
x="108" 
y="369" 
class="s4_32"
>(</text>

<text 
x="116" 
y="369" 
class="s5_32"
>6</text>

<text 
x="124" 
y="369" 
class="s4_32"
>,</text>

<text 
x="140" 
y="369" 
class="s6_32"
>"probability"</text>

<text 
x="242" 
y="369" 
dx="0,0,0,4.6" 
class="s4_32"
>), (</text>

<text 
x="274" 
y="369" 
class="s5_32"
>6</text>

<text 
x="282" 
y="369" 
class="s4_32"
>,</text>

<text 
x="298" 
y="369" 
class="s6_32"
>"mathematics"</text>

<text 
x="401" 
y="369" 
dx="0,0,0,4.6" 
class="s4_32"
>), (</text>

<text 
x="432" 
y="369" 
class="s5_32"
>6</text>

<text 
x="440" 
y="369" 
class="s4_32"
>,</text>

<text 
x="456" 
y="369" 
class="s6_32"
>"theory"</text>

<text 
x="519" 
y="369" 
class="s4_32"
>),</text>

<text 
x="108" 
y="385" 
class="s4_32"
>(</text>

<text 
x="116" 
y="385" 
class="s5_32"
>7</text>

<text 
x="124" 
y="385" 
class="s4_32"
>,</text>

<text 
x="140" 
y="385" 
dx="0,0,0,0,0,0,0,0,0,4.6,0,0,0,0,0,0,0,0" 
class="s6_32"
>"machine learning"</text>

<text 
x="282" 
y="385" 
dx="0,0,0,4.6" 
class="s4_32"
>), (</text>

<text 
x="314" 
y="385" 
class="s5_32"
>7</text>

<text 
x="322" 
y="385" 
class="s4_32"
>,</text>

<text 
x="337" 
y="385" 
class="s6_32"
>"scikit-learn"</text>

<text 
x="448" 
y="385" 
dx="0,0,0,4.6" 
class="s4_32"
>), (</text>

<text 
x="480" 
y="385" 
class="s5_32"
>7</text>

<text 
x="487" 
y="385" 
class="s4_32"
>,</text>

<text 
x="503" 
y="385" 
class="s6_32"
>"Mahout"</text>

<text 
x="567" 
y="385" 
class="s4_32"
>),</text>

<text 
x="108" 
y="400" 
class="s4_32"
>(</text>

<text 
x="116" 
y="400" 
class="s5_32"
>7</text>

<text 
x="124" 
y="400" 
class="s4_32"
>,</text>

<text 
x="140" 
y="400" 
dx="0,0,0,0,0,0,0,0,4.6,0,0,0,0,0,0,0,0" 
class="s6_32"
>"neural networks"</text>

<text 
x="274" 
y="400" 
dx="0,0,0,4.6" 
class="s4_32"
>), (</text>

<text 
x="306" 
y="400" 
class="s5_32"
>8</text>

<text 
x="314" 
y="400" 
class="s4_32"
>,</text>

<text 
x="329" 
y="400" 
dx="0,0,0,0,0,0,0,0,4.6,0,0,0,0,0,0,0,0" 
class="s6_32"
>"neural networks"</text>

<text 
x="464" 
y="400" 
dx="0,0,0,4.6" 
class="s4_32"
>), (</text>

<text 
x="495" 
y="400" 
class="s5_32"
>8</text>

<text 
x="503" 
y="400" 
class="s4_32"
>,</text>

<text 
x="519" 
y="400" 
dx="0,0,0,0,0,0,4.6,0,0,0,0,0,0,0,0" 
class="s6_32"
>"deep learning"</text>

<text 
x="638" 
y="400" 
class="s4_32"
>),</text>

<text 
x="108" 
y="415" 
class="s4_32"
>(</text>

<text 
x="116" 
y="415" 
class="s5_32"
>8</text>

<text 
x="124" 
y="415" 
class="s4_32"
>,</text>

<text 
x="140" 
y="415" 
dx="0,0,0,0,0,4.6,0,0,0,0" 
class="s6_32"
>"Big Data"</text>

<text 
x="219" 
y="415" 
dx="0,0,0,4.6" 
class="s4_32"
>), (</text>

<text 
x="250" 
y="415" 
class="s5_32"
>8</text>

<text 
x="258" 
y="415" 
class="s4_32"
>,</text>

<text 
x="274" 
y="415" 
dx="0,0,0,0,0,0,0,0,0,0,0,0,4.6,0,0,0,0,0,0,0,0,0,0,0,0" 
class="s6_32"
>"artificial intelligence"</text>

<text 
x="472" 
y="415" 
dx="0,0,0,4.6" 
class="s4_32"
>), (</text>

<text 
x="503" 
y="415" 
class="s5_32"
>9</text>

<text 
x="511" 
y="415" 
class="s4_32"
>,</text>

<text 
x="527" 
y="415" 
class="s6_32"
>"Hadoop"</text>

<text 
x="590" 
y="415" 
class="s4_32"
>),</text>

<text 
x="108" 
y="431" 
class="s4_32"
>(</text>

<text 
x="116" 
y="431" 
class="s5_32"
>9</text>

<text 
x="124" 
y="431" 
class="s4_32"
>,</text>

<text 
x="140" 
y="431" 
class="s6_32"
>"Java"</text>

<text 
x="187" 
y="431" 
dx="0,0,0,4.6" 
class="s4_32"
>), (</text>

<text 
x="219" 
y="431" 
class="s5_32"
>9</text>

<text 
x="227" 
y="431" 
class="s4_32"
>,</text>

<text 
x="242" 
y="431" 
class="s6_32"
>"MapReduce"</text>

<text 
x="329" 
y="431" 
dx="0,0,0,4.6" 
class="s4_32"
>), (</text>

<text 
x="361" 
y="431" 
class="s5_32"
>9</text>

<text 
x="369" 
y="431" 
class="s4_32"
>,</text>

<text 
x="385" 
y="431" 
dx="0,0,0,0,0,4.6,0,0,0,0" 
class="s6_32"
>"Big Data"</text>

<text 
x="464" 
y="431" 
class="s4_32"
>)</text>

<text 
x="76" 
y="446" 
class="s4_32"
>]</text>

<text 
x="55" 
y="499" 
class="s2_32"
>One simple (if not particularly exciting) way to find the most popular interests is simply to</text>

<text 
x="55" 
y="527" 
class="s2_32"
>count the words:</text>

<text 
x="75" 
y="564" 
dx="0,0,0,6.6,0,0,0,0,0,0,0,0,0,0,0,0,0,0,0,0,0,0,0,0,0,0,0,0,0,0,0,0,0,0,0,0,0,-0.4,0,0,0,0,0,0,0,0,0,0,0,0,0,0,0,0,0,0,0,0,0,0,0,0,0,0,0,0,0,0,0,0,0,0,0,0,0,0,0,0,0,0,0" 
class="s2_32"
>1. Lowercase each interest (since different users may or may not capitalize their</text>

<text 
x="104" 
y="589" 
class="s2_32"
>interests).</text>

<text 
x="75" 
y="637" 
dx="0,0,0,6.6,0,0,0,0,0,0,0,0,0,0,0,0,0,0,0,0,0,0,0" 
class="s2_32"
>2. Split it into words.</text>

<text 
x="75" 
y="684" 
dx="0,0,0,6.6,0,0,0,0,0,0,0,0,0,0,0,0,0,0,0,0,0" 
class="s2_32"
>3. Count the results.</text>

<text 
x="55" 
y="732" 
class="s2_32"
>In code:</text>

<text 
x="76" 
y="777" 
class="s3_32"
>words_and_counts</text>

<text 
x="211" 
y="777" 
class="s4_32"
>=</text>

<text 
x="227" 
y="777" 
class="s3_32"
>Counter</text>

<text 
x="282" 
y="777" 
class="s4_32"
>(</text>

<text 
x="290" 
y="777" 
class="s3_32"
>word</text>

<text 
x="290" 
y="793" 
class="s7_32"
>for</text>

<text 
x="322" 
y="793" 
class="s3_32"
>user</text>

<text 
x="353" 
y="793" 
class="s4_32"
>,</text>

<text 
x="369" 
y="793" 
class="s3_32"
>interest</text>

<text 
x="440" 
y="793" 
class="s8_32"
>in</text>

<text 
x="464" 
y="793" 
class="s3_32"
>interests</text>

<text 
x="290" 
y="808" 
class="s7_32"
>for</text>

<text 
x="322" 
y="808" 
class="s3_32"
>word</text>

<text 
x="361" 
y="808" 
class="s8_32"
>in</text>

<text 
x="385" 
y="808" 
class="s3_32"
>interest</text>

<text 
x="448" 
y="808" 
class="s4_32"
>.</text>

<text 
x="456" 
y="808" 
class="s3_32"
>lower</text>

<text 
x="495" 
y="808" 
class="s4_32"
>().</text>

<text 
x="519" 
y="808" 
class="s3_32"
>split</text>

<text 
x="559" 
y="808" 
class="s4_32"
>())</text>

<text 
x="55" 
y="861" 
class="s2_32"
>This makes it easy to list out the words that occur more than once:</text>

<text 
x="76" 
y="906" 
class="s7_32"
>for</text>

<text 
x="108" 
y="906" 
class="s3_32"
>word</text>

<text 
x="140" 
y="906" 
class="s4_32"
>,</text>

<text 
x="156" 
y="906" 
class="s3_32"
>count</text>

<text 
x="203" 
y="906" 
class="s8_32"
>in</text>

<text 
x="227" 
y="906" 
class="s3_32"
>words_and_counts</text>

<text 
x="353" 
y="906" 
class="s4_32"
>.</text>

<text 
x="361" 
y="906" 
class="s3_32"
>most_common</text>

<text 
x="448" 
y="906" 
class="s4_32"
>():</text>

<text 
x="108" 
y="922" 
class="s7_32"
>if</text>

<text 
x="132" 
y="922" 
class="s3_32"
>count</text>

<text 
x="179" 
y="922" 
class="s4_32"
>&gt;</text>

<text 
x="195" 
y="922" 
class="s5_32"
>1</text>

<text 
x="203" 
y="922" 
class="s4_32"
>:</text>

<text 
x="140" 
y="937" 
class="s7_32"
>print</text>

<text 
x="187" 
y="937" 
class="s3_32"
>word</text>

<text 
x="219" 
y="937" 
class="s4_32"
>,</text>

<text 
x="235" 
y="937" 
class="s3_32"
>count</text>

<text 
x="55" 
y="990" 
class="s2_32"
>which gives the results you’d expect (unless you expect “scikit-learn” to get split into two</text>

<text 
x="55" 
y="1017" 
dx="0,0,0,0,0,0,0,0,0,0,0,0,0,0,0,0,0,0,0,0,0,0,0,0,0,0,0,0,0,0,-0.4,0,0,0,0,0,0,0,0,0,0,0,0,0,0,0,0,0,0,0,0,0,0,0,0,0,0,0,0,0,0" 
class="s2_32"
>words, in which case it doesn’t give the results you expect):</text>

<text 
x="76" 
y="1062" 
dx="0,0,0,0,0,0,0,0,0,4.6" 
class="s4_32"
>learning 3</text>

<text 
x="76" 
y="1078" 
dx="0,0,0,0,0,4.6" 
class="s4_32"
>java 3</text>

<text 
x="76" 
y="1093" 
dx="0,0,0,0,0,0,0,4.6" 
class="s4_32"
>python 3</text>

<text 
x="76" 
y="1109" 
dx="0,0,0,0,4.6" 
class="s4_32"
>big 3</text>

<text 
x="76" 
y="1124" 
dx="0,0,0,0,0,4.6" 
class="s4_32"
>data 3</text>

<text 
x="76" 
y="1139" 
dx="0,0,0,0,0,0,4.6" 
class="s4_32"
>hbase 2</text>

<text 
x="76" 
y="1155" 
dx="0,0,0,0,0,0,0,0,0,0,0,4.6" 
class="s4_32"
>regression 2</text>

<text 
x="76" 
y="1170" 
dx="0,0,0,0,0,0,0,0,0,0,4.6" 
class="s4_32"
>cassandra 2</text>

<text 
x="76" 
y="1186" 
dx="0,0,0,0,0,0,0,0,0,0,0,4.6" 
class="s4_32"
>statistics 2</text>

<text 
x="76" 
y="1201" 
dx="0,0,0,0,0,0,0,0,0,0,0,0,4.6" 
class="s4_32"
>probability 2</text>

<text 
x="76" 
y="1216" 
dx="0,0,0,0,0,0,0,4.6" 
class="s4_32"
>hadoop 2</text>



<!-- Any embedded fonts defined here -->
<style type="text/css" ><![CDATA[

@font-face {
	font-family: LiberationMono-Bold_1w;
	src: url("fonts/LiberationMono-Bold_1w.woff") format("woff");
}

@font-face {
	font-family: LiberationMono_1q;
	src: url("fonts/LiberationMono_1q.woff") format("woff");
}

@font-face {
	font-family: LiberationSerif-Bold_b;
	src: url("fonts/LiberationSerif-Bold_b.woff") format("woff");
}

@font-face {
	font-family: LiberationSerif_e;
	src: url("fonts/LiberationSerif_e.woff") format("woff");
}

]]></style>

</svg>
