<?xml version="1.0" encoding="UTF-8" standalone="no"?>
<!DOCTYPE svg PUBLIC "-//W3C//DTD SVG 1.1//EN"
"http://www.w3.org/Graphics/SVG/1.1/DTD/svg11.dtd">


<!-- Page 329 -->
<svg x="0" y="0" width="909" height="1286" viewBox="0 0 909 1286" version="1.1" xmlns="http://www.w3.org/2000/svg" xmlns:xlink="http://www.w3.org/1999/xlink"
style="display: block;margin-left: auto;margin-right: auto;">
<defs>

<style type="text/css"><![CDATA[

.g1_329{
fill: #BEBEBE;
}

.s1_329{
font-size: 13.20px;
font-family: LiberationMono_1q;
fill: #000088;
}
.s2_329{
font-size: 13.20px;
font-family: LiberationMono_1q;
fill: #000000;
}
.s3_329{
font-size: 13.20px;
font-family: LiberationMono_1q;
fill: #CC3300;
}
.s4_329{
font-size: 13.20px;
font-family: LiberationMono_1q;
fill: #336666;
}
.s5_329{
font-size: 22.01px;
font-family: LiberationSerif_e;
fill: #000000;
}
.s6_329{
font-size: 22.01px;
font-family: LiberationSerif_e;
fill: #8E0012;
}
.s7_329{
font-size: 16.50px;
font-family: LiberationSerif-Italic_l;
fill: #000000;
}
.s8_329{
font-size: 17.60px;
font-family: LiberationMono_1q;
fill: #000000;
}
.s9_329{
font-size: 22.01px;
font-family: LiberationSerif-Bold_b;
fill: #737373;
}
.s10_329{
font-size: 16.50px;
font-family: LiberationSerif_e;
fill: #000000;
}

]]></style>

</defs>
<path d="M0,0
L0,1286
L909,1286
L909,0 Z " 
fill="#FFFFFF" stroke="none" />
<path fill-rule="evenodd" d="M93.5,981.4l722.5,0c3,0,5.5,2.5,5.5,5.5l0,140.9c0,3,-2.5,5.5,-5.5,5.5l-722.5,0c-3,0,-5.5,-2.5,-5.5,-5.5L88,986.9c0,-3,2.5,-5.5,5.5,-5.5m0,1.1l722.5,0c2.4,0,4.4,2,4.4,4.4l0,140.9c0,2.4,-2,4.4,-4.4,4.4l-722.5,0c-2.4,0,-4.4,-2,-4.4,-4.4l0,-140.9c0,-2.4,2,-4.4,4.4,-4.4Z" class="g1_329" />
<text 
x="108" 
y="64" 
class="s1_329"
>plt</text>

<text 
x="132" 
y="64" 
class="s2_329"
>.</text>

<text 
x="140" 
y="64" 
class="s1_329"
>plot</text>

<text 
x="171" 
y="64" 
class="s2_329"
>(</text>

<text 
x="179" 
y="64" 
class="s1_329"
>x</text>

<text 
x="187" 
y="64" 
class="s2_329"
>,</text>

<text 
x="203" 
y="64" 
class="s1_329"
>y</text>

<text 
x="211" 
y="64" 
class="s2_329"
>,</text>

<text 
x="227" 
y="64" 
class="s1_329"
>marker</text>

<text 
x="274" 
y="64" 
class="s2_329"
>=</text>

<text 
x="282" 
y="64" 
class="s3_329"
>'$'</text>

<text 
x="314" 
y="64" 
class="s2_329"
>+</text>

<text 
x="329" 
y="64" 
class="s4_329"
>str</text>

<text 
x="353" 
y="64" 
class="s2_329"
>(</text>

<text 
x="361" 
y="64" 
class="s1_329"
>i</text>

<text 
x="369" 
y="64" 
dx="0,0,4.6" 
class="s2_329"
>) +</text>

<text 
x="401" 
y="64" 
class="s3_329"
>'$'</text>

<text 
x="424" 
y="64" 
class="s2_329"
>,</text>

<text 
x="440" 
y="64" 
class="s1_329"
>color</text>

<text 
x="480" 
y="64" 
class="s2_329"
>=</text>

<text 
x="487" 
y="64" 
class="s3_329"
>'black'</text>

<text 
x="543" 
y="64" 
class="s2_329"
>)</text>

<text 
x="76" 
y="95" 
class="s1_329"
>plt</text>

<text 
x="100" 
y="95" 
class="s2_329"
>.</text>

<text 
x="108" 
y="95" 
class="s1_329"
>title</text>

<text 
x="148" 
y="95" 
class="s2_329"
>(</text>

<text 
x="156" 
y="95" 
dx="0,0,0,0,0,0,4.6,0,0,0,0,0,0,0,0,0,0,0,4.6,0,0,0,0,0,0,0,0,0,4.6,0,0,0,0,0,0,0,0,0,4.6,0,0,0" 
class="s3_329"
>"User Locations—3 Bottom-Up Clusters, Min"</text>

<text 
x="487" 
y="95" 
class="s2_329"
>)</text>

<text 
x="76" 
y="111" 
class="s1_329"
>plt</text>

<text 
x="100" 
y="111" 
class="s2_329"
>.</text>

<text 
x="108" 
y="111" 
class="s1_329"
>xlabel</text>

<text 
x="156" 
y="111" 
class="s2_329"
>(</text>

<text 
x="163" 
y="111" 
dx="0,0,0,0,0,0,0,0,4.6,0,0,0,0,4.6,0,0,4.6,0,0,0,0,4.6,0,0,0,0,0,0" 
class="s3_329"
>"blocks east of city center"</text>

<text 
x="385" 
y="111" 
class="s2_329"
>)</text>

<text 
x="76" 
y="126" 
class="s1_329"
>plt</text>

<text 
x="100" 
y="126" 
class="s2_329"
>.</text>

<text 
x="108" 
y="126" 
class="s1_329"
>ylabel</text>

<text 
x="156" 
y="126" 
class="s2_329"
>(</text>

<text 
x="163" 
y="126" 
dx="0,0,0,0,0,0,0,0,4.6,0,0,0,0,0,4.6,0,0,4.6,0,0,0,0,4.6,0,0,0,0,0,0" 
class="s3_329"
>"blocks north of city center"</text>

<text 
x="393" 
y="126" 
class="s2_329"
>)</text>

<text 
x="76" 
y="141" 
class="s1_329"
>plt</text>

<text 
x="100" 
y="141" 
class="s2_329"
>.</text>

<text 
x="108" 
y="141" 
class="s1_329"
>show</text>

<text 
x="140" 
y="141" 
class="s2_329"
>()</text>

<text 
x="55" 
y="194" 
dx="0,0,0,0,0,0,0,0,0,0,0,0,0,0,0,0,0,0,0,-0.4,0,0,0,0,0,0,0,0,0,0,0,0,0,0,0,0,0,0,0,0,0,0,0,0,0,0,0,0,0,0,0,0,0,0,0,0,0,0,0,0,0,0,0" 
class="s5_329"
>This gives very different results than k-means did, as shown in</text>

<text 
x="611" 
y="194" 
class="s6_329"
>Figure 19-6</text>

<text 
x="714" 
y="194" 
class="s5_329"
>.</text>

<image preserveAspectRatio="none" x="67" y="218" width="776" height="618" xlink:href="329/img/1.png" />
<text 
x="264" 
y="862" 
dx="0,0,0,0,0,-0.6,0,0,0,0,0,0,0,0,0,0,-0.6,0,0,0,0,0,0,0,0,0,0,0,0,0,0,0,0,0,0,0,0,0,0,0,0,0,0,0,0,0,0,0,0,0,0,0,0,0,0,0" 
class="s7_329"
>Figure 19-6. Three bottom-up clusters using min distance</text>

<text 
x="55" 
y="904" 
class="s5_329"
>As we mentioned above, this is because using</text>

<text 
x="463" 
y="904" 
class="s8_329"
>min</text>

<text 
x="500" 
y="904" 
class="s5_329"
>in</text>

<text 
x="523" 
y="904" 
class="s8_329"
>cluster_distance</text>

<text 
x="697" 
y="904" 
class="s5_329"
>tends to give</text>

<text 
x="55" 
y="934" 
class="s5_329"
>chain-like clusters. If we instead use</text>

<text 
x="380" 
y="934" 
class="s8_329"
>max</text>

<text 
x="417" 
y="934" 
class="s5_329"
>(which gives tight clusters) it looks the same as</text>

<text 
x="55" 
y="963" 
class="s5_329"
>the 3-means result (</text>

<text 
x="228" 
y="963" 
class="s6_329"
>Figure 19-7</text>

<text 
x="332" 
y="963" 
class="s5_329"
>).</text>

<text 
x="421" 
y="1006" 
dx="0,1.1,1.1,1.1" 
class="s9_329"
>NOTE</text>

<text 
x="97" 
y="1036" 
class="s10_329"
>The</text>

<text 
x="127" 
y="1036" 
class="s2_329"
>bottom_up_clustering</text>

<text 
x="289" 
y="1036" 
dx="0,0,0,0,0,0,0,0,0,0,0,0,0,0,0,0,0,0,0,0,0,0,0,0,0,0,0,0,0,0,0,0,0,0,0,0,0,0,0,0,0,0,0,0,0,0,0,0,0,0,-0.9,0,0,0,0,0,0,0,0,0,0,0,0,0,0,0,0,0,0,0,0,0,-0.3,0,0,0,0,0,0,0" 
class="s10_329"
>implementation above is relatively simple, but it’s also shockingly inefficient.</text>

<text 
x="97" 
y="1058" 
dx="0,0,0,0,0,0,0,0,0,0,0,0,0,-0.7,0,0,0,0,0,0,0,0,0,0,0,0,0,0,0,0,0,0,0,0,0,0,0,0,0,0,0,0,0,0,0,0,0,0,0,0,0,0,0,0,0,0,0,0,0,0,0,0,0,0,0,0,0,0,0,0,0,0,0,0,0,0,0,0,0,0,0,0,0,0,0,0,0,-0.9,0,0,0,0,0,0,-0.3,0,0,0,0,0,0" 
class="s10_329"
>In particular, it recomputes the distance between each pair of inputs at every step. A more efficient</text>

<text 
x="97" 
y="1078" 
class="s10_329"
>implementation might precompute the distances between each pair of inputs and then perform a lookup</text>

<text 
x="97" 
y="1098" 
class="s10_329"
>inside cluster_distance. A</text>

<text 
x="270" 
y="1098" 
dx="0,-0.6,0,0,0,0" 
class="s7_329"
>really</text>

<text 
x="312" 
y="1098" 
dx="0,0,-0.3,0,0,0,0,0,0,0,0,0,0,0,0,0,0,0,0,0,0,0,0,0,0,0,0,0,0,0,0,0,0,0,0,0,0,0,0,0,0,0,0,0,0,0,0,0,0,0,0,0,0,0,0" 
class="s10_329"
>efficient implementation would likely also remember the</text>

<text 
x="97" 
y="1117" 
class="s2_329"
>cluster_distance</text>

<text 
x="224" 
y="1117" 
class="s10_329"
>s from the previous step.</text>



<!-- Any embedded fonts defined here -->
<style type="text/css" ><![CDATA[

@font-face {
	font-family: LiberationSerif-Italic_l;
	src: url("fonts/LiberationSerif-Italic_l.woff") format("woff");
}

@font-face {
	font-family: LiberationMono_1q;
	src: url("fonts/LiberationMono_1q.woff") format("woff");
}

@font-face {
	font-family: LiberationSerif_e;
	src: url("fonts/LiberationSerif_e.woff") format("woff");
}

@font-face {
	font-family: LiberationSerif-Bold_b;
	src: url("fonts/LiberationSerif-Bold_b.woff") format("woff");
}

]]></style>

</svg>
