<?xml version="1.0" encoding="UTF-8" standalone="no"?>
<!DOCTYPE svg PUBLIC "-//W3C//DTD SVG 1.1//EN"
"http://www.w3.org/Graphics/SVG/1.1/DTD/svg11.dtd">


<!-- Page 334 -->
<svg x="0" y="0" width="909" height="1286" viewBox="0 0 909 1286" version="1.1" xmlns="http://www.w3.org/2000/svg" xmlns:xlink="http://www.w3.org/1999/xlink"
style="display: block;margin-left: auto;margin-right: auto;">
<defs>

<style type="text/css"><![CDATA[


.s1_334{
font-size: 30.81px;
font-family: LiberationSerif-Bold_b;
fill: #8E0012;
}
.s2_334{
font-size: 22.01px;
font-family: LiberationSerif_e;
fill: #000000;
}
.s3_334{
font-size: 22.01px;
font-family: LiberationSerif_e;
fill: #8E0012;
}
.s4_334{
font-size: 13.20px;
font-family: LiberationMono_1q;
fill: #000088;
}
.s5_334{
font-size: 13.20px;
font-family: LiberationMono_1q;
fill: #000000;
}
.s6_334{
font-size: 13.20px;
font-family: LiberationMono_1q;
fill: #CC3300;
}
.s7_334{
font-size: 13.20px;
font-family: LiberationMono_1q;
fill: #FF6600;
}

]]></style>

</defs>
<path d="M0,0
L0,1286
L909,1286
L909,0 Z " 
fill="#FFFFFF" stroke="none" />
<text 
x="55" 
y="81" 
dx="0,-1.7,0,0,0,0,0,0,0,0,0" 
class="s1_334"
>Word Clouds</text>

<text 
x="55" 
y="122" 
class="s2_334"
>In</text>

<text 
x="78" 
y="122" 
class="s3_334"
>Chapter 1</text>

<text 
x="164" 
y="122" 
dx="0,0,0,0,0,0,0,0,0,0,0,0,0,0,0,0,0,0,0,0,0,0,0,0,0,0,0,0,0,0,0,0,0,0,0,0,-1.6,0,0,0,0,0,0,0,0,0,0,0,0,0,0,0,0,0,0,0,0,0,0,0,0,0,0,0,0,0,0,0,0,0,0,0,0,0" 
class="s2_334"
>, we computed word counts of users’ interests. One approach to visualizing</text>

<text 
x="55" 
y="149" 
class="s2_334"
>words and counts is word clouds, which artistically lay out the words with sizes</text>

<text 
x="55" 
y="177" 
class="s2_334"
>proportional to their counts.</text>

<text 
x="55" 
y="215" 
dx="0,0,0,0,0,0,0,0,0,-1.4,0,0,0,0,0,0,0,0,0,0,0,0,0,0,0,0,0,0,0,0,0,0,0,0,0,0,0,0,0,-0.4,0,0,0,0,0,0,0,0,0,0,0,0,0,0,0,0,0,0,0,0,0,0,0,0,0,0,0,0,0,0,0,0,0,0,-0.4,0,0,0,0,0,0,0,0,0,0,0,0,0,0" 
class="s2_334"
>Generally, though, data scientists don’t think much of word clouds, in large part because</text>

<text 
x="55" 
y="243" 
dx="0,0,0,0,0,0,0,0,0,0,0,0,0,0,0,0,0,0,0,0,0,0,0,0,0,0,0,0,0,0,0,0,0,-0.4,0,0,0,0,0,0,0,0,0,0,0,0,0,0,0,0,0,0,0,0,0,0,0,0,0,0,0,0,0,0,0,0,-1.2,0,0,0,0,0,0,0,0,0,0,0,0,0,0,0,0,0,0,0" 
class="s2_334"
>the placement of the words doesn’t mean anything other than “here’s some space where I</text>

<text 
x="55" 
y="270" 
class="s2_334"
>was able to fit a word.”</text>

<text 
x="55" 
y="309" 
class="s2_334"
>If you ever are forced to create a word cloud, think about whether you can make the axes</text>

<text 
x="55" 
y="336" 
class="s2_334"
>convey something. For example, imagine that, for each of some collection of data</text>

<text 
x="55" 
y="364" 
class="s2_334"
>science–related buzzwords, you have two numbers between 0 and 100 — the first</text>

<text 
x="55" 
y="391" 
class="s2_334"
>representing how frequently it appears in job postings, the second how frequently it</text>

<text 
x="55" 
y="419" 
class="s2_334"
>appears on resumes:</text>

<text 
x="76" 
y="464" 
class="s4_334"
>data</text>

<text 
x="116" 
y="464" 
dx="0,0,4.6,0,4.6" 
class="s5_334"
>= [ (</text>

<text 
x="156" 
y="464" 
dx="0,0,0,0,0,4.6,0,0,0,0" 
class="s6_334"
>"big data"</text>

<text 
x="235" 
y="464" 
class="s5_334"
>,</text>

<text 
x="250" 
y="464" 
class="s7_334"
>100</text>

<text 
x="274" 
y="464" 
class="s5_334"
>,</text>

<text 
x="290" 
y="464" 
class="s7_334"
>15</text>

<text 
x="306" 
y="464" 
dx="0,0,0,4.6" 
class="s5_334"
>), (</text>

<text 
x="337" 
y="464" 
class="s6_334"
>"Hadoop"</text>

<text 
x="401" 
y="464" 
class="s5_334"
>,</text>

<text 
x="416" 
y="464" 
class="s7_334"
>95</text>

<text 
x="432" 
y="464" 
class="s5_334"
>,</text>

<text 
x="448" 
y="464" 
class="s7_334"
>25</text>

<text 
x="464" 
y="464" 
dx="0,0,0,4.6" 
class="s5_334"
>), (</text>

<text 
x="495" 
y="464" 
class="s6_334"
>"Python"</text>

<text 
x="559" 
y="464" 
class="s5_334"
>,</text>

<text 
x="574" 
y="464" 
class="s7_334"
>75</text>

<text 
x="590" 
y="464" 
class="s5_334"
>,</text>

<text 
x="606" 
y="464" 
class="s7_334"
>50</text>

<text 
x="622" 
y="464" 
class="s5_334"
>),</text>

<text 
x="148" 
y="479" 
class="s5_334"
>(</text>

<text 
x="156" 
y="479" 
class="s6_334"
>"R"</text>

<text 
x="179" 
y="479" 
class="s5_334"
>,</text>

<text 
x="195" 
y="479" 
class="s7_334"
>50</text>

<text 
x="211" 
y="479" 
class="s5_334"
>,</text>

<text 
x="227" 
y="479" 
class="s7_334"
>40</text>

<text 
x="242" 
y="479" 
dx="0,0,0,4.6" 
class="s5_334"
>), (</text>

<text 
x="274" 
y="479" 
dx="0,0,0,0,0,0,0,0,0,4.6,0,0,0,0,0,0,0,0" 
class="s6_334"
>"machine learning"</text>

<text 
x="416" 
y="479" 
class="s5_334"
>,</text>

<text 
x="432" 
y="479" 
class="s7_334"
>80</text>

<text 
x="448" 
y="479" 
class="s5_334"
>,</text>

<text 
x="464" 
y="479" 
class="s7_334"
>20</text>

<text 
x="480" 
y="479" 
dx="0,0,0,4.6" 
class="s5_334"
>), (</text>

<text 
x="511" 
y="479" 
class="s6_334"
>"statistics"</text>

<text 
x="606" 
y="479" 
class="s5_334"
>,</text>

<text 
x="622" 
y="479" 
class="s7_334"
>20</text>

<text 
x="638" 
y="479" 
class="s5_334"
>,</text>

<text 
x="653" 
y="479" 
class="s7_334"
>60</text>

<text 
x="669" 
y="479" 
class="s5_334"
>),</text>

<text 
x="148" 
y="495" 
class="s5_334"
>(</text>

<text 
x="156" 
y="495" 
dx="0,0,0,0,0,0,4.6,0,0,0,0,0,0,0" 
class="s6_334"
>"data science"</text>

<text 
x="266" 
y="495" 
class="s5_334"
>,</text>

<text 
x="282" 
y="495" 
class="s7_334"
>60</text>

<text 
x="298" 
y="495" 
class="s5_334"
>,</text>

<text 
x="314" 
y="495" 
class="s7_334"
>70</text>

<text 
x="329" 
y="495" 
dx="0,0,0,4.6" 
class="s5_334"
>), (</text>

<text 
x="361" 
y="495" 
class="s6_334"
>"analytics"</text>

<text 
x="448" 
y="495" 
class="s5_334"
>,</text>

<text 
x="464" 
y="495" 
class="s7_334"
>90</text>

<text 
x="480" 
y="495" 
class="s5_334"
>,</text>

<text 
x="495" 
y="495" 
class="s7_334"
>3</text>

<text 
x="503" 
y="495" 
class="s5_334"
>),</text>

<text 
x="148" 
y="510" 
class="s5_334"
>(</text>

<text 
x="156" 
y="510" 
dx="0,0,0,0,0,0,4.6,0,0,0,0,0,0" 
class="s6_334"
>"team player"</text>

<text 
x="258" 
y="510" 
class="s5_334"
>,</text>

<text 
x="274" 
y="510" 
class="s7_334"
>85</text>

<text 
x="290" 
y="510" 
class="s5_334"
>,</text>

<text 
x="306" 
y="510" 
class="s7_334"
>85</text>

<text 
x="322" 
y="510" 
dx="0,0,0,4.6" 
class="s5_334"
>), (</text>

<text 
x="353" 
y="510" 
class="s6_334"
>"dynamic"</text>

<text 
x="424" 
y="510" 
class="s5_334"
>,</text>

<text 
x="440" 
y="510" 
class="s7_334"
>2</text>

<text 
x="448" 
y="510" 
class="s5_334"
>,</text>

<text 
x="464" 
y="510" 
class="s7_334"
>90</text>

<text 
x="480" 
y="510" 
dx="0,0,0,4.6" 
class="s5_334"
>), (</text>

<text 
x="511" 
y="510" 
class="s6_334"
>"synergies"</text>

<text 
x="598" 
y="510" 
class="s5_334"
>,</text>

<text 
x="614" 
y="510" 
class="s7_334"
>70</text>

<text 
x="630" 
y="510" 
class="s5_334"
>,</text>

<text 
x="646" 
y="510" 
class="s7_334"
>0</text>

<text 
x="653" 
y="510" 
class="s5_334"
>),</text>

<text 
x="148" 
y="525" 
class="s5_334"
>(</text>

<text 
x="156" 
y="525" 
dx="0,0,0,0,0,0,0,0,0,0,0,0,4.6,0,0,0,0,0,0,0,0" 
class="s6_334"
>"actionable insights"</text>

<text 
x="322" 
y="525" 
class="s5_334"
>,</text>

<text 
x="337" 
y="525" 
class="s7_334"
>40</text>

<text 
x="353" 
y="525" 
class="s5_334"
>,</text>

<text 
x="369" 
y="525" 
class="s7_334"
>30</text>

<text 
x="385" 
y="525" 
dx="0,0,0,4.6" 
class="s5_334"
>), (</text>

<text 
x="416" 
y="525" 
dx="0,0,0,0,0,0,0,4.6,0,0,0,4.6,0,0,4.6,0,0,0,4.6,0,0,0" 
class="s6_334"
>"think out of the box"</text>

<text 
x="590" 
y="525" 
class="s5_334"
>,</text>

<text 
x="606" 
y="525" 
class="s7_334"
>45</text>

<text 
x="622" 
y="525" 
class="s5_334"
>,</text>

<text 
x="638" 
y="525" 
class="s7_334"
>10</text>

<text 
x="653" 
y="525" 
class="s5_334"
>),</text>

<text 
x="148" 
y="541" 
class="s5_334"
>(</text>

<text 
x="156" 
y="541" 
class="s6_334"
>"self-starter"</text>

<text 
x="266" 
y="541" 
class="s5_334"
>,</text>

<text 
x="282" 
y="541" 
class="s7_334"
>30</text>

<text 
x="298" 
y="541" 
class="s5_334"
>,</text>

<text 
x="314" 
y="541" 
class="s7_334"
>50</text>

<text 
x="329" 
y="541" 
dx="0,0,0,4.6" 
class="s5_334"
>), (</text>

<text 
x="361" 
y="541" 
dx="0,0,0,0,0,0,0,0,0,0,4.6,0,0,0,0,0" 
class="s6_334"
>"customer focus"</text>

<text 
x="487" 
y="541" 
class="s5_334"
>,</text>

<text 
x="503" 
y="541" 
class="s7_334"
>65</text>

<text 
x="519" 
y="541" 
class="s5_334"
>,</text>

<text 
x="535" 
y="541" 
class="s7_334"
>15</text>

<text 
x="551" 
y="541" 
class="s5_334"
>),</text>

<text 
x="148" 
y="556" 
class="s5_334"
>(</text>

<text 
x="156" 
y="556" 
dx="0,0,0,0,0,0,0,0,0,4.6,0,0,0,0,0,0,0,0,0,0" 
class="s6_334"
>"thought leadership"</text>

<text 
x="314" 
y="556" 
class="s5_334"
>,</text>

<text 
x="329" 
y="556" 
class="s7_334"
>35</text>

<text 
x="345" 
y="556" 
class="s5_334"
>,</text>

<text 
x="361" 
y="556" 
class="s7_334"
>35</text>

<text 
x="377" 
y="556" 
class="s5_334"
>)]</text>

<text 
x="55" 
y="609" 
class="s2_334"
>The word cloud approach is just to arrange the words on a page in a cool-looking font</text>

<text 
x="55" 
y="637" 
class="s2_334"
>(</text>

<text 
x="62" 
y="637" 
class="s3_334"
>Figure 20-1</text>

<text 
x="165" 
y="637" 
class="s2_334"
>).</text>



<!-- Any embedded fonts defined here -->
<style type="text/css" ><![CDATA[

@font-face {
	font-family: LiberationMono_1q;
	src: url("fonts/LiberationMono_1q.woff") format("woff");
}

@font-face {
	font-family: LiberationSerif-Bold_b;
	src: url("fonts/LiberationSerif-Bold_b.woff") format("woff");
}

@font-face {
	font-family: LiberationSerif_e;
	src: url("fonts/LiberationSerif_e.woff") format("woff");
}

]]></style>

</svg>
