<?xml version="1.0" encoding="UTF-8" standalone="no"?>
<!DOCTYPE svg PUBLIC "-//W3C//DTD SVG 1.1//EN"
"http://www.w3.org/Graphics/SVG/1.1/DTD/svg11.dtd">


<!-- Page 342 -->
<svg x="0" y="0" width="909" height="1286" viewBox="0 0 909 1286" version="1.1" xmlns="http://www.w3.org/2000/svg" xmlns:xlink="http://www.w3.org/1999/xlink"
style="display: block;margin-left: auto;margin-right: auto;">
<defs>

<style type="text/css"><![CDATA[


.s1_342{
font-size: 30.81px;
font-family: LiberationSerif-Bold_b;
fill: #8E0012;
}
.s2_342{
font-size: 22.01px;
font-family: LiberationSerif_e;
fill: #000000;
}
.s3_342{
font-size: 13.20px;
font-family: LiberationMono_1q;
fill: #000088;
}
.s4_342{
font-size: 13.20px;
font-family: LiberationMono_1q;
fill: #000000;
}
.s5_342{
font-size: 22.01px;
font-family: LiberationSerif-Italic_l;
fill: #000000;
}
.s6_342{
font-size: 13.20px;
font-family: LiberationMono-Bold_1w;
fill: #006699;
}
.s7_342{
font-size: 13.20px;
font-family: LiberationMono_1q;
fill: #CC00FF;
}
.s8_342{
font-size: 13.20px;
font-family: LiberationMono_1q;
fill: #FF6600;
}
.s9_342{
font-size: 13.20px;
font-family: LiberationMono-Italic_10;
fill: #CC3300;
}
.s10_342{
font-size: 13.20px;
font-family: LiberationMono-Italic_10;
fill: #0099FF;
}

]]></style>

</defs>
<path d="M0,0
L0,1286
L909,1286
L909,0 Z " 
fill="#FFFFFF" stroke="none" />
<text 
x="55" 
y="81" 
class="s1_342"
>An Aside: Gibbs Sampling</text>

<text 
x="55" 
y="122" 
dx="0,0,0,0,0,0,0,0,0,0,0,0,0,0,0,0,0,0,0,0,0,0,0,0,0,0,0,0,0,0,0,0,0,0,0,0,0,0,0,0,0,0,0,0,0,0,0,0,0,0,-1.4,0,0,-1.8,0,0,0,0,0,0,0,0,0,0,0,0,0,0,0,0,0,0,0,0,0,0,0,0,0,0,0,0,0,0,0,0,0" 
class="s2_342"
>Generating samples from some distributions is easy. We can get uniform random variables</text>

<text 
x="55" 
y="149" 
class="s2_342"
>with:</text>

<text 
x="76" 
y="194" 
class="s3_342"
>random</text>

<text 
x="124" 
y="194" 
class="s4_342"
>.</text>

<text 
x="132" 
y="194" 
class="s3_342"
>random</text>

<text 
x="179" 
y="194" 
class="s4_342"
>()</text>

<text 
x="55" 
y="247" 
class="s2_342"
>and normal random variables with:</text>

<text 
x="76" 
y="292" 
class="s3_342"
>inverse_normal_cdf</text>

<text 
x="219" 
y="292" 
class="s4_342"
>(</text>

<text 
x="227" 
y="292" 
class="s3_342"
>random</text>

<text 
x="274" 
y="292" 
class="s4_342"
>.</text>

<text 
x="282" 
y="292" 
class="s3_342"
>random</text>

<text 
x="329" 
y="292" 
class="s4_342"
>())</text>

<text 
x="55" 
y="345" 
class="s2_342"
>But some distributions are harder to sample from.</text>

<text 
x="497" 
y="345" 
class="s5_342"
>Gibbs sampling</text>

<text 
x="641" 
y="345" 
class="s2_342"
>is a technique for</text>

<text 
x="55" 
y="372" 
class="s2_342"
>generating samples from multidimensional distributions when we only know some of the</text>

<text 
x="55" 
y="400" 
class="s2_342"
>conditional distributions.</text>

<text 
x="55" 
y="439" 
class="s2_342"
>For example, imagine rolling two dice. Let</text>

<text 
x="437" 
y="439" 
class="s5_342"
>x</text>

<text 
x="453" 
y="439" 
class="s2_342"
>be the value of the first die and</text>

<text 
x="731" 
y="439" 
class="s5_342"
>y</text>

<text 
x="746" 
y="439" 
class="s2_342"
>be the sum</text>

<text 
x="55" 
y="466" 
dx="0,0,0,0,0,0,0,0,0,0,0,0,0,0,0,0,0,0,0,0,0,0,0,0,0,0,0,0,0,0,0,0,0,0,0,0,0,0,0,0,0,0,0,0,0,0,0,0,0,0,0,0,0,0,0,0,0,0,0,0,0,0,0,0,0,0,0,0,0,0,0,0,0,0,0,0,0,0,0,0,0,0,0,0,0,0,-1.2,0,0,0,0,0,0,0,0" 
class="s2_342"
>of the dice, and imagine you wanted to generate lots of (x, y) pairs. In this case it’s easy to</text>

<text 
x="55" 
y="494" 
class="s2_342"
>generate the samples directly:</text>

<text 
x="76" 
y="539" 
class="s6_342"
>def</text>

<text 
x="108" 
y="539" 
class="s7_342"
>roll_a_die</text>

<text 
x="187" 
y="539" 
class="s4_342"
>():</text>

<text 
x="108" 
y="554" 
class="s6_342"
>return</text>

<text 
x="163" 
y="554" 
class="s3_342"
>random</text>

<text 
x="211" 
y="554" 
class="s4_342"
>.</text>

<text 
x="219" 
y="554" 
class="s3_342"
>choice</text>

<text 
x="266" 
y="554" 
class="s4_342"
>([</text>

<text 
x="282" 
y="554" 
class="s8_342"
>1</text>

<text 
x="290" 
y="554" 
class="s4_342"
>,</text>

<text 
x="298" 
y="554" 
class="s8_342"
>2</text>

<text 
x="306" 
y="554" 
class="s4_342"
>,</text>

<text 
x="314" 
y="554" 
class="s8_342"
>3</text>

<text 
x="322" 
y="554" 
class="s4_342"
>,</text>

<text 
x="329" 
y="554" 
class="s8_342"
>4</text>

<text 
x="337" 
y="554" 
class="s4_342"
>,</text>

<text 
x="345" 
y="554" 
class="s8_342"
>5</text>

<text 
x="353" 
y="554" 
class="s4_342"
>,</text>

<text 
x="361" 
y="554" 
class="s8_342"
>6</text>

<text 
x="369" 
y="554" 
class="s4_342"
>])</text>

<text 
x="76" 
y="585" 
class="s6_342"
>def</text>

<text 
x="108" 
y="585" 
class="s7_342"
>direct_sample</text>

<text 
x="211" 
y="585" 
class="s4_342"
>():</text>

<text 
x="108" 
y="600" 
class="s3_342"
>d1</text>

<text 
x="132" 
y="600" 
class="s4_342"
>=</text>

<text 
x="148" 
y="600" 
class="s3_342"
>roll_a_die</text>

<text 
x="227" 
y="600" 
class="s4_342"
>()</text>

<text 
x="108" 
y="616" 
class="s3_342"
>d2</text>

<text 
x="132" 
y="616" 
class="s4_342"
>=</text>

<text 
x="148" 
y="616" 
class="s3_342"
>roll_a_die</text>

<text 
x="227" 
y="616" 
class="s4_342"
>()</text>

<text 
x="108" 
y="631" 
class="s6_342"
>return</text>

<text 
x="163" 
y="631" 
class="s3_342"
>d1</text>

<text 
x="179" 
y="631" 
class="s4_342"
>,</text>

<text 
x="195" 
y="631" 
class="s3_342"
>d1</text>

<text 
x="219" 
y="631" 
class="s4_342"
>+</text>

<text 
x="235" 
y="631" 
class="s3_342"
>d2</text>

<text 
x="55" 
y="684" 
class="s2_342"
>But imagine that you only knew the conditional distributions. The distribution of</text>

<text 
x="771" 
y="684" 
class="s5_342"
>y</text>

<text 
x="55" 
y="711" 
class="s2_342"
>conditional on</text>

<text 
x="186" 
y="711" 
class="s5_342"
>x</text>

<text 
x="202" 
y="711" 
class="s2_342"
>is easy — if you know the value of</text>

<text 
x="515" 
y="711" 
class="s5_342"
>x</text>

<text 
x="525" 
y="711" 
class="s2_342"
>,</text>

<text 
x="536" 
y="711" 
class="s5_342"
>y</text>

<text 
x="551" 
y="711" 
class="s2_342"
>is equally likely to be</text>

<text 
x="746" 
y="711" 
class="s5_342"
>x</text>

<text 
x="761" 
y="711" 
class="s2_342"
>+ 1,</text>

<text 
x="801" 
y="711" 
class="s5_342"
>x</text>

<text 
x="816" 
y="711" 
class="s2_342"
>+ 2,</text>

<text 
x="55" 
y="739" 
class="s5_342"
>x</text>

<text 
x="70" 
y="739" 
class="s2_342"
>+ 3,</text>

<text 
x="110" 
y="739" 
class="s5_342"
>x</text>

<text 
x="125" 
y="739" 
class="s2_342"
>+ 4,</text>

<text 
x="165" 
y="739" 
class="s5_342"
>x</text>

<text 
x="180" 
y="739" 
class="s2_342"
>+ 5, or</text>

<text 
x="244" 
y="739" 
class="s5_342"
>x</text>

<text 
x="259" 
y="739" 
class="s2_342"
>+ 6:</text>

<text 
x="76" 
y="784" 
class="s6_342"
>def</text>

<text 
x="108" 
y="784" 
class="s7_342"
>random_y_given_x</text>

<text 
x="235" 
y="784" 
class="s4_342"
>(</text>

<text 
x="242" 
y="784" 
class="s3_342"
>x</text>

<text 
x="250" 
y="784" 
class="s4_342"
>):</text>

<text 
x="108" 
y="799" 
dx="0,0,0,0,0,0,0,0,0,0,0,4.6,0,0,0,0,0,0,4.6,0,0,4.6,0,0,4.6,0,4.6,0,4.6,0,0,4.6,0,4.6,0,4.6,0,0,4.6,0,0,0,4.6,0,4.6,0,4.6,0,4.6,0,0,0" 
class="s9_342"
>"""equally likely to be x + 1, x + 2, ... , x + 6"""</text>

<text 
x="108" 
y="815" 
class="s6_342"
>return</text>

<text 
x="163" 
y="815" 
class="s3_342"
>x</text>

<text 
x="179" 
y="815" 
class="s4_342"
>+</text>

<text 
x="195" 
y="815" 
class="s3_342"
>roll_a_die</text>

<text 
x="274" 
y="815" 
class="s4_342"
>()</text>

<text 
x="55" 
y="868" 
class="s2_342"
>The other direction is more complicated. For example, if you know that</text>

<text 
x="689" 
y="868" 
class="s5_342"
>y</text>

<text 
x="705" 
y="868" 
class="s2_342"
>is 2, then</text>

<text 
x="55" 
y="895" 
class="s2_342"
>necessarily</text>

<text 
x="158" 
y="895" 
class="s5_342"
>x</text>

<text 
x="173" 
y="895" 
class="s2_342"
>is 1 (since the only way two dice can sum to 2 is if both of them are 1). If</text>

<text 
x="55" 
y="923" 
class="s2_342"
>you know</text>

<text 
x="147" 
y="923" 
class="s5_342"
>y</text>

<text 
x="163" 
y="923" 
class="s2_342"
>is 3, then</text>

<text 
x="248" 
y="923" 
class="s5_342"
>x</text>

<text 
x="263" 
y="923" 
dx="0,0,0,0,0,0,0,0,0,0,0,0,0,0,0,0,0,0,0,0,0,0,0,0,0,0,0,0,0,0,0,0,0,0,0,0,0,0,0,0,0,-1.4,0,0,0" 
class="s2_342"
>is equally likely to be 1 or 2. Similarly, if</text>

<text 
x="631" 
y="923" 
class="s5_342"
>y</text>

<text 
x="646" 
y="923" 
dx="0,0,0,0,-0.8,0,0,0,0,0,0" 
class="s2_342"
>is 11, then</text>

<text 
x="742" 
y="923" 
class="s5_342"
>x</text>

<text 
x="757" 
y="923" 
class="s2_342"
>has to be</text>

<text 
x="55" 
y="950" 
class="s2_342"
>either 5 or 6:</text>

<text 
x="76" 
y="995" 
class="s6_342"
>def</text>

<text 
x="108" 
y="995" 
class="s7_342"
>random_x_given_y</text>

<text 
x="235" 
y="995" 
class="s4_342"
>(</text>

<text 
x="242" 
y="995" 
class="s3_342"
>y</text>

<text 
x="250" 
y="995" 
class="s4_342"
>):</text>

<text 
x="108" 
y="1011" 
class="s6_342"
>if</text>

<text 
x="132" 
y="1011" 
class="s3_342"
>y</text>

<text 
x="148" 
y="1011" 
class="s4_342"
>&lt;=</text>

<text 
x="171" 
y="1011" 
class="s8_342"
>7</text>

<text 
x="179" 
y="1011" 
class="s4_342"
>:</text>

<text 
x="140" 
y="1026" 
dx="0,0,4.6,0,0,4.6,0,0,0,4.6,0,0,0,0,0,4.6,0,0,4.6,0,4.6,0,0,4.6,0,0,0,0,0,4.6,0,0,0,4.6,0,0,0,0,0,4.6,0,0,0,4.6,0,0,4.6,0,0,0,0,0,0,0,4.6,0,0,0,0,0,0,4.6,0,0,4.6,0" 
class="s10_342"
># if the total is 7 or less, the first die is equally likely to be</text>

<text 
x="140" 
y="1041" 
dx="0,0,4.6,0,0,4.6,0,0,4.6,0,0,0,0,4.6,0,0,0,0,0,0,4.6,0,4.6,0" 
class="s10_342"
># 1, 2, ..., (total - 1)</text>

<text 
x="140" 
y="1057" 
class="s6_342"
>return</text>

<text 
x="195" 
y="1057" 
class="s3_342"
>random</text>

<text 
x="242" 
y="1057" 
class="s4_342"
>.</text>

<text 
x="250" 
y="1057" 
class="s3_342"
>randrange</text>

<text 
x="322" 
y="1057" 
class="s4_342"
>(</text>

<text 
x="329" 
y="1057" 
class="s8_342"
>1</text>

<text 
x="337" 
y="1057" 
class="s4_342"
>,</text>

<text 
x="353" 
y="1057" 
class="s3_342"
>y</text>

<text 
x="361" 
y="1057" 
class="s4_342"
>)</text>

<text 
x="108" 
y="1072" 
class="s6_342"
>else</text>

<text 
x="140" 
y="1072" 
class="s4_342"
>:</text>

<text 
x="140" 
y="1088" 
dx="0,0,4.6,0,0,4.6,0,0,0,4.6,0,0,0,0,0,4.6,0,0,4.6,0,4.6,0,0,4.6,0,0,0,0,0,4.6,0,0,0,4.6,0,0,0,0,0,4.6,0,0,0,4.6,0,0,4.6,0,0,0,0,0,0,0,4.6,0,0,0,0,0,0,4.6,0,0,4.6,0" 
class="s10_342"
># if the total is 7 or more, the first die is equally likely to be</text>

<text 
x="140" 
y="1103" 
dx="0,0,4.6,0,0,0,0,0,0,4.6,0,4.6,0,0,0,4.6,0,0,0,0,0,0,4.6,0,4.6,0,0,0,4.6,0,0,0,0,4.6" 
class="s10_342"
># (total - 6), (total - 5), ..., 6</text>

<text 
x="140" 
y="1118" 
class="s6_342"
>return</text>

<text 
x="195" 
y="1118" 
class="s3_342"
>random</text>

<text 
x="242" 
y="1118" 
class="s4_342"
>.</text>

<text 
x="250" 
y="1118" 
class="s3_342"
>randrange</text>

<text 
x="322" 
y="1118" 
class="s4_342"
>(</text>

<text 
x="329" 
y="1118" 
class="s3_342"
>y</text>

<text 
x="345" 
y="1118" 
class="s4_342"
>-</text>

<text 
x="361" 
y="1118" 
class="s8_342"
>6</text>

<text 
x="369" 
y="1118" 
class="s4_342"
>,</text>

<text 
x="385" 
y="1118" 
class="s8_342"
>7</text>

<text 
x="393" 
y="1118" 
class="s4_342"
>)</text>

<text 
x="55" 
y="1171" 
class="s2_342"
>The way Gibbs sampling works is that we start with any (valid) value for</text>

<text 
x="703" 
y="1171" 
class="s5_342"
>x</text>

<text 
x="718" 
y="1171" 
class="s2_342"
>and</text>

<text 
x="755" 
y="1171" 
class="s5_342"
>y</text>

<text 
x="771" 
y="1171" 
class="s2_342"
>and then</text>

<text 
x="55" 
y="1199" 
class="s2_342"
>repeatedly alternate replacing</text>

<text 
x="320" 
y="1199" 
class="s5_342"
>x</text>

<text 
x="335" 
y="1199" 
class="s2_342"
>with a random value picked conditional on</text>

<text 
x="717" 
y="1199" 
class="s5_342"
>y</text>

<text 
x="732" 
y="1199" 
class="s2_342"
>and replacing</text>



<!-- Any embedded fonts defined here -->
<style type="text/css" ><![CDATA[

@font-face {
	font-family: LiberationSerif-Italic_l;
	src: url("fonts/LiberationSerif-Italic_l.woff") format("woff");
}

@font-face {
	font-family: LiberationMono-Bold_1w;
	src: url("fonts/LiberationMono-Bold_1w.woff") format("woff");
}

@font-face {
	font-family: LiberationMono_1q;
	src: url("fonts/LiberationMono_1q.woff") format("woff");
}

@font-face {
	font-family: LiberationMono-Italic_10;
	src: url("fonts/LiberationMono-Italic_10.woff") format("woff");
}

@font-face {
	font-family: LiberationSerif-Bold_b;
	src: url("fonts/LiberationSerif-Bold_b.woff") format("woff");
}

@font-face {
	font-family: LiberationSerif_e;
	src: url("fonts/LiberationSerif_e.woff") format("woff");
}

]]></style>

</svg>
