<?xml version="1.0" encoding="UTF-8" standalone="no"?>
<!DOCTYPE svg PUBLIC "-//W3C//DTD SVG 1.1//EN"
"http://www.w3.org/Graphics/SVG/1.1/DTD/svg11.dtd">


<!-- Page 346 -->
<svg x="0" y="0" width="909" height="1286" viewBox="0 0 909 1286" version="1.1" xmlns="http://www.w3.org/2000/svg" xmlns:xlink="http://www.w3.org/1999/xlink"
style="display: block;margin-left: auto;margin-right: auto;">
<defs>

<style type="text/css"><![CDATA[


.s1_346{
font-size: 13.20px;
font-family: LiberationMono_1q;
fill: #000088;
}
.s2_346{
font-size: 13.20px;
font-family: LiberationMono_1q;
fill: #000000;
}
.s3_346{
font-size: 13.20px;
font-family: LiberationMono-Bold_1w;
fill: #006699;
}
.s4_346{
font-size: 13.20px;
font-family: LiberationMono-Bold_1w;
fill: #000000;
}
.s5_346{
font-size: 13.20px;
font-family: LiberationMono_1q;
fill: #336666;
}
.s6_346{
font-size: 22.01px;
font-family: LiberationSerif_e;
fill: #000000;
}
.s7_346{
font-size: 13.20px;
font-family: LiberationMono-Italic_10;
fill: #0099FF;
}
.s8_346{
font-size: 13.20px;
font-family: LiberationMono_1q;
fill: #FF6600;
}
.s9_346{
font-size: 17.60px;
font-family: LiberationMono_1q;
fill: #000000;
}
.s10_346{
font-size: 22.01px;
font-family: LiberationSerif-Italic_l;
fill: #000000;
}
.s11_346{
font-size: 13.20px;
font-family: LiberationMono_1q;
fill: #CC3300;
}
.s12_346{
font-size: 22.01px;
font-family: LiberationSerif_e;
fill: #8E0012;
}
.s13_346{
font-size: 13.20px;
font-family: LiberationMono_1q;
fill: #CC00FF;
}
.s14_346{
font-size: 13.20px;
font-family: LiberationMono-Italic_10;
fill: #CC3300;
}

]]></style>

</defs>
<path d="M0,0
L0,1286
L909,1286
L909,0 Z " 
fill="#FFFFFF" stroke="none" />
<text 
x="76" 
y="64" 
class="s1_346"
>topic_word_counts</text>

<text 
x="219" 
y="64" 
dx="0,0,4.6" 
class="s2_346"
>= [</text>

<text 
x="242" 
y="64" 
class="s1_346"
>Counter</text>

<text 
x="298" 
y="64" 
class="s2_346"
>()</text>

<text 
x="322" 
y="64" 
class="s3_346"
>for</text>

<text 
x="353" 
y="64" 
class="s1_346"
>_</text>

<text 
x="369" 
y="64" 
class="s4_346"
>in</text>

<text 
x="393" 
y="64" 
class="s5_346"
>range</text>

<text 
x="432" 
y="64" 
class="s2_346"
>(</text>

<text 
x="440" 
y="64" 
class="s1_346"
>K</text>

<text 
x="448" 
y="64" 
class="s2_346"
>)]</text>

<text 
x="55" 
y="117" 
class="s6_346"
>The total number of words assigned to each topic:</text>

<text 
x="76" 
y="162" 
dx="0,0,4.6,0,4.6,0,0,0,0,4.6,0,0,4.6,0,0,0,0,0,0,0,0,4.6,0,0,0,4.6,0,0,0,4.6,0,0,0,0,4.6,0,0,0,0" 
class="s7_346"
># a list of numbers, one for each topic</text>

<text 
x="76" 
y="178" 
class="s1_346"
>topic_counts</text>

<text 
x="179" 
y="178" 
dx="0,0,4.6" 
class="s2_346"
>= [</text>

<text 
x="203" 
y="178" 
class="s8_346"
>0</text>

<text 
x="219" 
y="178" 
class="s3_346"
>for</text>

<text 
x="250" 
y="178" 
class="s1_346"
>_</text>

<text 
x="266" 
y="178" 
class="s4_346"
>in</text>

<text 
x="290" 
y="178" 
class="s5_346"
>range</text>

<text 
x="329" 
y="178" 
class="s2_346"
>(</text>

<text 
x="337" 
y="178" 
class="s1_346"
>K</text>

<text 
x="345" 
y="178" 
class="s2_346"
>)]</text>

<text 
x="55" 
y="231" 
class="s6_346"
>The total number of words contained in each document:</text>

<text 
x="76" 
y="276" 
dx="0,0,4.6,0,4.6,0,0,0,0,4.6,0,0,4.6,0,0,0,0,0,0,0,0,4.6,0,0,0,4.6,0,0,0,4.6,0,0,0,0,4.6,0,0,0,0,0,0,0" 
class="s7_346"
># a list of numbers, one for each document</text>

<text 
x="76" 
y="291" 
class="s1_346"
>document_lengths</text>

<text 
x="211" 
y="291" 
class="s2_346"
>=</text>

<text 
x="227" 
y="291" 
class="s5_346"
>map</text>

<text 
x="250" 
y="291" 
class="s2_346"
>(</text>

<text 
x="258" 
y="291" 
class="s5_346"
>len</text>

<text 
x="282" 
y="291" 
class="s2_346"
>,</text>

<text 
x="298" 
y="291" 
class="s1_346"
>documents</text>

<text 
x="369" 
y="291" 
class="s2_346"
>)</text>

<text 
x="55" 
y="344" 
class="s6_346"
>The number of distinct words:</text>

<text 
x="76" 
y="389" 
class="s1_346"
>distinct_words</text>

<text 
x="195" 
y="389" 
class="s2_346"
>=</text>

<text 
x="211" 
y="389" 
class="s5_346"
>set</text>

<text 
x="235" 
y="389" 
class="s2_346"
>(</text>

<text 
x="242" 
y="389" 
class="s1_346"
>word</text>

<text 
x="282" 
y="389" 
class="s3_346"
>for</text>

<text 
x="314" 
y="389" 
class="s1_346"
>document</text>

<text 
x="385" 
y="389" 
class="s4_346"
>in</text>

<text 
x="408" 
y="389" 
class="s1_346"
>documents</text>

<text 
x="487" 
y="389" 
class="s3_346"
>for</text>

<text 
x="519" 
y="389" 
class="s1_346"
>word</text>

<text 
x="559" 
y="389" 
class="s4_346"
>in</text>

<text 
x="582" 
y="389" 
class="s1_346"
>document</text>

<text 
x="646" 
y="389" 
class="s2_346"
>)</text>

<text 
x="76" 
y="404" 
class="s1_346"
>W</text>

<text 
x="92" 
y="404" 
class="s2_346"
>=</text>

<text 
x="108" 
y="404" 
class="s5_346"
>len</text>

<text 
x="132" 
y="404" 
class="s2_346"
>(</text>

<text 
x="140" 
y="404" 
class="s1_346"
>distinct_words</text>

<text 
x="250" 
y="404" 
class="s2_346"
>)</text>

<text 
x="55" 
y="457" 
class="s6_346"
>And the number of documents:</text>

<text 
x="76" 
y="502" 
class="s1_346"
>D</text>

<text 
x="92" 
y="502" 
class="s2_346"
>=</text>

<text 
x="108" 
y="502" 
class="s5_346"
>len</text>

<text 
x="132" 
y="502" 
class="s2_346"
>(</text>

<text 
x="140" 
y="502" 
class="s1_346"
>documents</text>

<text 
x="211" 
y="502" 
class="s2_346"
>)</text>

<text 
x="55" 
y="555" 
class="s6_346"
>For example, once we populate these, we can find, for example, the number of words in</text>

<text 
x="55" 
y="583" 
class="s9_346"
>documents[3]</text>

<text 
x="187" 
y="583" 
class="s6_346"
>associated with topic 1 as:</text>

<text 
x="76" 
y="630" 
class="s1_346"
>document_topic_counts</text>

<text 
x="242" 
y="630" 
class="s2_346"
>[</text>

<text 
x="250" 
y="630" 
class="s8_346"
>3</text>

<text 
x="258" 
y="630" 
class="s2_346"
>][</text>

<text 
x="274" 
y="630" 
class="s8_346"
>1</text>

<text 
x="282" 
y="630" 
class="s2_346"
>]</text>

<text 
x="55" 
y="683" 
class="s6_346"
>And we can find the number of times</text>

<text 
x="388" 
y="683" 
class="s10_346"
>nlp</text>

<text 
x="421" 
y="683" 
class="s6_346"
>is associated with topic 2 as:</text>

<text 
x="76" 
y="728" 
class="s1_346"
>topic_word_counts</text>

<text 
x="211" 
y="728" 
class="s2_346"
>[</text>

<text 
x="219" 
y="728" 
class="s8_346"
>2</text>

<text 
x="227" 
y="728" 
class="s2_346"
>][</text>

<text 
x="242" 
y="728" 
class="s11_346"
>"nlp"</text>

<text 
x="282" 
y="728" 
class="s2_346"
>]</text>

<text 
x="55" 
y="781" 
class="s6_346"
>Now we’re ready to define our conditional probability functions. As in</text>

<text 
x="682" 
y="781" 
class="s12_346"
>Chapter 13</text>

<text 
x="779" 
y="781" 
class="s6_346"
>, each</text>

<text 
x="55" 
y="808" 
class="s6_346"
>has a smoothing term that ensures every topic has a nonzero chance of being chosen in</text>

<text 
x="55" 
y="836" 
class="s6_346"
>any document and that every word has a nonzero chance of being chosen for any topic:</text>

<text 
x="76" 
y="881" 
class="s3_346"
>def</text>

<text 
x="108" 
y="881" 
class="s13_346"
>p_topic_given_document</text>

<text 
x="282" 
y="881" 
class="s2_346"
>(</text>

<text 
x="290" 
y="881" 
class="s1_346"
>topic</text>

<text 
x="329" 
y="881" 
class="s2_346"
>,</text>

<text 
x="345" 
y="881" 
class="s1_346"
>d</text>

<text 
x="353" 
y="881" 
class="s2_346"
>,</text>

<text 
x="369" 
y="881" 
class="s1_346"
>alpha</text>

<text 
x="408" 
y="881" 
class="s2_346"
>=</text>

<text 
x="416" 
y="881" 
class="s8_346"
>0.1</text>

<text 
x="440" 
y="881" 
class="s2_346"
>):</text>

<text 
x="108" 
y="896" 
dx="0,0,0,0,0,0,0,4.6,0,0,0,0,0,0,0,0,4.6,0,0,4.6,0,0,0,0,0,4.6,0,0,4.6,0,0,0,0,0,0,0,0,4.6,0,0" 
class="s14_346"
>"""the fraction of words in document _d_</text>

<text 
x="108" 
y="912" 
dx="0,0,0,0,0,4.6,0,0,0,4.6,0,0,0,0,0,0,0,0,4.6,0,0,4.6,0,0,0,0,0,0,0,4.6,0,0,0,0,0,4.6,0,0,0,0,4.6,0,0,0,0,0,0,0,0,0,0,0,0" 
class="s14_346"
>that are assigned to _topic_ (plus some smoothing)"""</text>

<text 
x="108" 
y="942" 
class="s3_346"
>return</text>

<text 
x="163" 
y="942" 
class="s2_346"
>((</text>

<text 
x="179" 
y="942" 
class="s1_346"
>document_topic_counts</text>

<text 
x="345" 
y="942" 
class="s2_346"
>[</text>

<text 
x="353" 
y="942" 
class="s1_346"
>d</text>

<text 
x="361" 
y="942" 
class="s2_346"
>][</text>

<text 
x="377" 
y="942" 
class="s1_346"
>topic</text>

<text 
x="416" 
y="942" 
dx="0,0,4.6" 
class="s2_346"
>] +</text>

<text 
x="448" 
y="942" 
class="s1_346"
>alpha</text>

<text 
x="487" 
y="942" 
dx="0,0,4.6" 
class="s2_346"
>) /</text>

<text 
x="171" 
y="958" 
class="s2_346"
>(</text>

<text 
x="179" 
y="958" 
class="s1_346"
>document_lengths</text>

<text 
x="306" 
y="958" 
class="s2_346"
>[</text>

<text 
x="314" 
y="958" 
class="s1_346"
>d</text>

<text 
x="322" 
y="958" 
dx="0,0,4.6" 
class="s2_346"
>] +</text>

<text 
x="353" 
y="958" 
class="s1_346"
>K</text>

<text 
x="369" 
y="958" 
class="s2_346"
>*</text>

<text 
x="385" 
y="958" 
class="s1_346"
>alpha</text>

<text 
x="424" 
y="958" 
class="s2_346"
>))</text>

<text 
x="76" 
y="989" 
class="s3_346"
>def</text>

<text 
x="108" 
y="989" 
class="s13_346"
>p_word_given_topic</text>

<text 
x="250" 
y="989" 
class="s2_346"
>(</text>

<text 
x="258" 
y="989" 
class="s1_346"
>word</text>

<text 
x="290" 
y="989" 
class="s2_346"
>,</text>

<text 
x="306" 
y="989" 
class="s1_346"
>topic</text>

<text 
x="345" 
y="989" 
class="s2_346"
>,</text>

<text 
x="361" 
y="989" 
class="s1_346"
>beta</text>

<text 
x="393" 
y="989" 
class="s2_346"
>=</text>

<text 
x="401" 
y="989" 
class="s8_346"
>0.1</text>

<text 
x="424" 
y="989" 
class="s2_346"
>):</text>

<text 
x="108" 
y="1004" 
dx="0,0,0,0,0,0,0,4.6,0,0,0,0,0,0,0,0,4.6,0,0,4.6,0,0,0,0,0,4.6,0,0,0,0,0,0,0,0,4.6,0,0,4.6,0,0,0,0,0,0" 
class="s14_346"
>"""the fraction of words assigned to _topic_</text>

<text 
x="108" 
y="1019" 
dx="0,0,0,0,0,4.6,0,0,0,0,0,4.6,0,0,0,0,0,0,4.6,0,0,0,0,0,4.6,0,0,0,0,4.6,0,0,0,0,0,0,0,0,0,0,0,0" 
class="s14_346"
>that equal _word_ (plus some smoothing)"""</text>

<text 
x="108" 
y="1050" 
class="s3_346"
>return</text>

<text 
x="163" 
y="1050" 
class="s2_346"
>((</text>

<text 
x="179" 
y="1050" 
class="s1_346"
>topic_word_counts</text>

<text 
x="314" 
y="1050" 
class="s2_346"
>[</text>

<text 
x="322" 
y="1050" 
class="s1_346"
>topic</text>

<text 
x="361" 
y="1050" 
class="s2_346"
>][</text>

<text 
x="377" 
y="1050" 
class="s1_346"
>word</text>

<text 
x="408" 
y="1050" 
dx="0,0,4.6" 
class="s2_346"
>] +</text>

<text 
x="440" 
y="1050" 
class="s1_346"
>beta</text>

<text 
x="472" 
y="1050" 
dx="0,0,4.6" 
class="s2_346"
>) /</text>

<text 
x="171" 
y="1066" 
class="s2_346"
>(</text>

<text 
x="179" 
y="1066" 
class="s1_346"
>topic_counts</text>

<text 
x="274" 
y="1066" 
class="s2_346"
>[</text>

<text 
x="282" 
y="1066" 
class="s1_346"
>topic</text>

<text 
x="322" 
y="1066" 
dx="0,0,4.6" 
class="s2_346"
>] +</text>

<text 
x="353" 
y="1066" 
class="s1_346"
>W</text>

<text 
x="369" 
y="1066" 
class="s2_346"
>*</text>

<text 
x="385" 
y="1066" 
class="s1_346"
>beta</text>

<text 
x="416" 
y="1066" 
class="s2_346"
>))</text>

<text 
x="55" 
y="1118" 
dx="0,-1.8,0,0,0,0,0,0,0,0,0,0,0,0,0,0,0,0,0,0,0,0,0,0,0,0,0,0,0,0,0,0,0,0,0,0,0,0,0,0,0,0,0,0,0,0,0,0,0,0,0,0,0,0,0,0,0,0" 
class="s6_346"
>We’ll use these to create the weights for updating topics:</text>

<text 
x="76" 
y="1164" 
class="s3_346"
>def</text>

<text 
x="108" 
y="1164" 
class="s13_346"
>topic_weight</text>

<text 
x="203" 
y="1164" 
class="s2_346"
>(</text>

<text 
x="211" 
y="1164" 
class="s1_346"
>d</text>

<text 
x="219" 
y="1164" 
class="s2_346"
>,</text>

<text 
x="235" 
y="1164" 
class="s1_346"
>word</text>

<text 
x="266" 
y="1164" 
class="s2_346"
>,</text>

<text 
x="282" 
y="1164" 
class="s1_346"
>k</text>

<text 
x="290" 
y="1164" 
class="s2_346"
>):</text>

<text 
x="108" 
y="1179" 
dx="0,0,0,0,0,0,0,0,0,4.6,0,4.6,0,0,0,0,0,0,0,0,4.6,0,0,0,4.6,0,4.6,0,0,0,0,4.6,0,0,4.6,0,0,0,0,4.6,0,0,0,0,0,0,0,0" 
class="s14_346"
>"""given a document and a word in that document,</text>

<text 
x="108" 
y="1194" 
dx="0,0,0,0,0,0,0,4.6,0,0,0,4.6,0,0,0,0,0,0,4.6,0,0,0,4.6,0,0,0,4.6,0,0,0,4.6,0,0,0,0,0,0,0" 
class="s14_346"
>return the weight for the kth topic"""</text>

<text 
x="108" 
y="1225" 
class="s3_346"
>return</text>

<text 
x="163" 
y="1225" 
class="s1_346"
>p_word_given_topic</text>

<text 
x="306" 
y="1225" 
class="s2_346"
>(</text>

<text 
x="314" 
y="1225" 
class="s1_346"
>word</text>

<text 
x="345" 
y="1225" 
class="s2_346"
>,</text>

<text 
x="361" 
y="1225" 
class="s1_346"
>k</text>

<text 
x="369" 
y="1225" 
dx="0,0,4.6" 
class="s2_346"
>) *</text>

<text 
x="401" 
y="1225" 
class="s1_346"
>p_topic_given_document</text>

<text 
x="574" 
y="1225" 
class="s2_346"
>(</text>

<text 
x="582" 
y="1225" 
class="s1_346"
>k</text>

<text 
x="590" 
y="1225" 
class="s2_346"
>,</text>

<text 
x="606" 
y="1225" 
class="s1_346"
>d</text>

<text 
x="614" 
y="1225" 
class="s2_346"
>)</text>



<!-- Any embedded fonts defined here -->
<style type="text/css" ><![CDATA[

@font-face {
	font-family: LiberationMono-Bold_1w;
	src: url("fonts/LiberationMono-Bold_1w.woff") format("woff");
}

@font-face {
	font-family: LiberationSerif-Italic_l;
	src: url("fonts/LiberationSerif-Italic_l.woff") format("woff");
}

@font-face {
	font-family: LiberationMono_1q;
	src: url("fonts/LiberationMono_1q.woff") format("woff");
}

@font-face {
	font-family: LiberationMono-Italic_10;
	src: url("fonts/LiberationMono-Italic_10.woff") format("woff");
}

@font-face {
	font-family: LiberationSerif_e;
	src: url("fonts/LiberationSerif_e.woff") format("woff");
}

]]></style>

</svg>
