<?xml version="1.0" encoding="UTF-8" standalone="no"?>
<!DOCTYPE svg PUBLIC "-//W3C//DTD SVG 1.1//EN"
"http://www.w3.org/Graphics/SVG/1.1/DTD/svg11.dtd">


<!-- Page 348 -->
<svg x="0" y="0" width="909" height="1286" viewBox="0 0 909 1286" version="1.1" xmlns="http://www.w3.org/2000/svg" xmlns:xlink="http://www.w3.org/1999/xlink"
style="display: block;margin-left: auto;margin-right: auto;">
<defs>

<style type="text/css"><![CDATA[

.g1_348{
fill: #F1F6FC;
}
.g2_348{
fill: #C3C3C3;
}
.g3_348{
fill: #9D9D9D;
}

.s1_348{
font-size: 16.50px;
font-family: LiberationSerif_e;
fill: #000000;
}
.s2_348{
font-size: 22.01px;
font-family: LiberationSerif_e;
fill: #000000;
}
.s3_348{
font-size: 13.20px;
font-family: LiberationMono_1q;
fill: #000088;
}
.s4_348{
font-size: 13.20px;
font-family: LiberationMono_1q;
fill: #000000;
}
.s5_348{
font-size: 13.20px;
font-family: LiberationMono_1q;
fill: #CC3300;
}
.s6_348{
font-size: 13.20px;
font-family: LiberationMono-Bold_1w;
fill: #006699;
}
.s7_348{
font-size: 13.20px;
font-family: LiberationMono-Bold_1w;
fill: #000000;
}
.s8_348{
font-size: 13.20px;
font-family: LiberationMono_1q;
fill: #336666;
}
.s9_348{
font-size: 13.20px;
font-family: LiberationMono_1q;
fill: #FF6600;
}

]]></style>

</defs>
<path d="M0,0
L0,1286
L909,1286
L909,0 Z " 
fill="#FFFFFF" stroke="none" />
<path d="M237.5,104.5l147.4,0l0,46.2l-147.4,0l0,-46.2Z" class="g1_348" />
<path d="M384.9,104.5l82.5,0l0,46.2l-82.5,0l0,-46.2Z" class="g1_348" />
<path d="M467.4,104.5l81.3,0l0,46.2l-81.3,0l0,-46.2Z" class="g1_348" />
<path d="M548.7,104.5l124.3,0l0,46.2l-124.3,0l0,-46.2Z" class="g1_348" />
<path d="M237.5,196.9l147.4,0l0,46.3l-147.4,0l0,-46.3Z" class="g1_348" />
<path d="M384.9,196.9l82.5,0l0,46.3l-82.5,0l0,-46.3Z" class="g1_348" />
<path d="M467.4,196.9l81.3,0l0,46.3l-81.3,0l0,-46.3Z" class="g1_348" />
<path d="M548.7,196.9l124.3,0l0,46.3l-124.3,0l0,-46.3Z" class="g1_348" />
<path d="M548.7,243.2l124.3,0l0,1.1l-124.3,0l0,-1.1Z" class="g2_348" />
<path d="M548.7,289.4l124.3,0l0,1.1l-124.3,0l0,-1.1Z" class="g2_348" />
<path d="M467.4,243.2l81.3,0l0,1.1l-81.3,0l0,-1.1Z" class="g2_348" />
<path d="M467.4,289.4l81.3,0l0,1.1l-81.3,0l0,-1.1Z" class="g2_348" />
<path d="M384.9,243.2l82.5,0l0,1.1l-82.5,0l0,-1.1Z" class="g2_348" />
<path d="M384.9,289.4l82.5,0l0,1.1l-82.5,0l0,-1.1Z" class="g2_348" />
<path d="M237.5,243.2l147.4,0l0,1.1l-147.4,0l0,-1.1Z" class="g2_348" />
<path d="M237.5,289.4l147.4,0l0,1.1l-147.4,0l0,-1.1Z" class="g2_348" />
<path d="M548.7,196.9l124.3,0l0,1.1l-124.3,0l0,-1.1Z" class="g2_348" />
<path d="M548.7,243.2l124.3,0l0,1.1l-124.3,0l0,-1.1Z" class="g2_348" />
<path d="M467.4,196.9l81.3,0l0,1.1l-81.3,0l0,-1.1Z" class="g2_348" />
<path d="M467.4,243.2l81.3,0l0,1.1l-81.3,0l0,-1.1Z" class="g2_348" />
<path d="M384.9,196.9l82.5,0l0,1.1l-82.5,0l0,-1.1Z" class="g2_348" />
<path d="M384.9,243.2l82.5,0l0,1.1l-82.5,0l0,-1.1Z" class="g2_348" />
<path d="M237.5,196.9l147.4,0l0,1.1l-147.4,0l0,-1.1Z" class="g2_348" />
<path d="M237.5,243.2l147.4,0l0,1.1l-147.4,0l0,-1.1Z" class="g2_348" />
<path d="M548.7,150.7l124.3,0l0,1.1l-124.3,0l0,-1.1Z" class="g2_348" />
<path d="M548.7,196.9l124.3,0l0,1.1l-124.3,0l0,-1.1Z" class="g2_348" />
<path d="M467.4,150.7l81.3,0l0,1.1l-81.3,0l0,-1.1Z" class="g2_348" />
<path d="M467.4,196.9l81.3,0l0,1.1l-81.3,0l0,-1.1Z" class="g2_348" />
<path d="M384.9,150.7l82.5,0l0,1.1l-82.5,0l0,-1.1Z" class="g2_348" />
<path d="M384.9,196.9l82.5,0l0,1.1l-82.5,0l0,-1.1Z" class="g2_348" />
<path d="M237.5,150.7l147.4,0l0,1.1l-147.4,0l0,-1.1Z" class="g2_348" />
<path d="M237.5,196.9l147.4,0l0,1.1l-147.4,0l0,-1.1Z" class="g2_348" />
<path d="M548.7,104.5l124.3,0l0,1.1l-124.3,0l0,-1.1Z" class="g2_348" />
<path d="M548.7,150.7l124.3,0l0,1.1l-124.3,0l0,-1.1Z" class="g2_348" />
<path d="M467.4,104.5l81.3,0l0,1.1l-81.3,0l0,-1.1Z" class="g2_348" />
<path d="M467.4,150.7l81.3,0l0,1.1l-81.3,0l0,-1.1Z" class="g2_348" />
<path d="M384.9,104.5l82.5,0l0,1.1l-82.5,0l0,-1.1Z" class="g2_348" />
<path d="M384.9,150.7l82.5,0l0,1.1l-82.5,0l0,-1.1Z" class="g2_348" />
<path d="M237.5,104.5l147.4,0l0,1.1l-147.4,0l0,-1.1Z" class="g2_348" />
<path d="M237.5,150.7l147.4,0l0,1.1l-147.4,0l0,-1.1Z" class="g2_348" />
<path d="M548.7,58.3l124.3,0l0,1.1l-124.3,0l0,-1.1Z" class="g3_348" />
<path d="M548.7,104.5l124.3,0l0,1.1l-124.3,0l0,-1.1Z" class="g2_348" />
<path d="M467.4,58.3l81.3,0l0,1.1l-81.3,0l0,-1.1Z" class="g3_348" />
<path d="M467.4,104.5l81.3,0l0,1.1l-81.3,0l0,-1.1Z" class="g2_348" />
<path d="M384.9,58.3l82.5,0l0,1.1l-82.5,0l0,-1.1Z" class="g3_348" />
<path d="M384.9,104.5l82.5,0l0,1.1l-82.5,0l0,-1.1Z" class="g2_348" />
<path d="M237.5,58.3l147.4,0l0,1.1l-147.4,0l0,-1.1Z" class="g3_348" />
<path d="M237.5,104.5l147.4,0l0,1.1l-147.4,0l0,-1.1Z" class="g2_348" />
<path d="M548.7,58.3l124.3,0l0,1.1l-124.3,0l0,-1.1Z" class="g3_348" />
<path d="M467.4,58.3l81.3,0l0,1.1l-81.3,0l0,-1.1Z" class="g3_348" />
<path d="M384.9,58.3l82.5,0l0,1.1l-82.5,0l0,-1.1Z" class="g3_348" />
<path d="M237.5,58.3l147.4,0l0,1.1l-147.4,0l0,-1.1Z" class="g3_348" />
<text 
x="241" 
y="88" 
class="s1_348"
>Java</text>

<text 
x="389" 
y="88" 
class="s1_348"
>R</text>

<text 
x="471" 
y="88" 
class="s1_348"
>HBase</text>

<text 
x="553" 
y="88" 
class="s1_348"
>regression</text>

<text 
x="241" 
y="134" 
class="s1_348"
>Big Data</text>

<text 
x="389" 
y="134" 
class="s1_348"
>statistics</text>

<text 
x="471" 
y="134" 
class="s1_348"
>Postgres</text>

<text 
x="553" 
y="134" 
class="s1_348"
>libsvm</text>

<text 
x="241" 
y="180" 
class="s1_348"
>Hadoop</text>

<text 
x="389" 
y="180" 
class="s1_348"
>Python</text>

<text 
x="471" 
y="180" 
class="s1_348"
>MongoDB</text>

<text 
x="553" 
y="180" 
class="s1_348"
>scikit-learn</text>

<text 
x="241" 
y="226" 
class="s1_348"
>deep learning</text>

<text 
x="389" 
y="226" 
dx="0,0,0,0,0,0,0,0,0,0,0,0,6,0,0,0,0,0,0,0,0" 
class="s1_348"
>probability Cassandra</text>

<text 
x="553" 
y="226" 
class="s1_348"
>machine learning</text>

<text 
x="241" 
y="272" 
dx="0,0,0,0,0,0,0,0,0,0,0,0,0,0,0,0,0,0,0,0,0,0,0,0,6.5,0,0,0,0,0" 
class="s1_348"
>artificial intelligence pandas</text>

<text 
x="471" 
y="272" 
class="s1_348"
>NoSQL</text>

<text 
x="553" 
y="272" 
class="s1_348"
>neural networks</text>

<text 
x="55" 
y="344" 
class="s2_348"
>Based on these I’d probably assign topic names:</text>

<text 
x="76" 
y="389" 
class="s3_348"
>topic_names</text>

<text 
x="171" 
y="389" 
dx="0,0,4.6" 
class="s4_348"
>= [</text>

<text 
x="195" 
y="389" 
dx="0,0,0,0,0,4.6,0,0,0,0,4.6,0,0,0,4.6,0,0,0,0,0,0,0,0,0,0,0,4.6,0,0,0,0,0,0,0,0,0" 
class="s5_348"
>"Big Data and programming languages"</text>

<text 
x="480" 
y="389" 
class="s4_348"
>,</text>

<text 
x="195" 
y="404" 
dx="0,0,0,0,0,0,0,0,4.6,0,0,0,4.6,0,0,0,0,0,0,0,0,0,0" 
class="s5_348"
>"Python and statistics"</text>

<text 
x="377" 
y="404" 
class="s4_348"
>,</text>

<text 
x="195" 
y="420" 
class="s5_348"
>"databases"</text>

<text 
x="282" 
y="420" 
class="s4_348"
>,</text>

<text 
x="195" 
y="435" 
dx="0,0,0,0,0,0,0,0,0,4.6,0,0,0,0,0,0,0,0" 
class="s5_348"
>"machine learning"</text>

<text 
x="337" 
y="435" 
class="s4_348"
>]</text>

<text 
x="55" 
y="488" 
dx="0,0,0,0,0,0,0,0,0,0,0,0,0,0,0,0,0,0,0,0,0,0,0,0,0,0,0,0,0,0,0,0,0,0,0,0,0,0,0,0,0,0,0,0,0,0,0,0,0,0,0,0,0,0,0,0,0,0,0,0,0,0,0,0,0,0,0,0.8,-1.2,0,0,0,0,0,0,0,0,0,0,0" 
class="s2_348"
>at which point we can see how the model assigns topics to each user’s interests:</text>

<text 
x="76" 
y="533" 
class="s6_348"
>for</text>

<text 
x="108" 
y="533" 
class="s3_348"
>document</text>

<text 
x="171" 
y="533" 
class="s4_348"
>,</text>

<text 
x="187" 
y="533" 
class="s3_348"
>topic_counts</text>

<text 
x="290" 
y="533" 
class="s7_348"
>in</text>

<text 
x="314" 
y="533" 
class="s8_348"
>zip</text>

<text 
x="337" 
y="533" 
class="s4_348"
>(</text>

<text 
x="345" 
y="533" 
class="s3_348"
>documents</text>

<text 
x="416" 
y="533" 
class="s4_348"
>,</text>

<text 
x="432" 
y="533" 
class="s3_348"
>document_topic_counts</text>

<text 
x="598" 
y="533" 
class="s4_348"
>):</text>

<text 
x="108" 
y="549" 
class="s6_348"
>print</text>

<text 
x="156" 
y="549" 
class="s3_348"
>document</text>

<text 
x="108" 
y="564" 
class="s6_348"
>for</text>

<text 
x="140" 
y="564" 
class="s3_348"
>topic</text>

<text 
x="179" 
y="564" 
class="s4_348"
>,</text>

<text 
x="195" 
y="564" 
class="s3_348"
>count</text>

<text 
x="242" 
y="564" 
class="s7_348"
>in</text>

<text 
x="266" 
y="564" 
class="s3_348"
>topic_counts</text>

<text 
x="361" 
y="564" 
class="s4_348"
>.</text>

<text 
x="369" 
y="564" 
class="s3_348"
>most_common</text>

<text 
x="456" 
y="564" 
class="s4_348"
>():</text>

<text 
x="140" 
y="579" 
class="s6_348"
>if</text>

<text 
x="163" 
y="579" 
class="s3_348"
>count</text>

<text 
x="211" 
y="579" 
class="s4_348"
>&gt;</text>

<text 
x="227" 
y="579" 
class="s9_348"
>0</text>

<text 
x="235" 
y="579" 
class="s4_348"
>:</text>

<text 
x="171" 
y="595" 
class="s6_348"
>print</text>

<text 
x="219" 
y="595" 
class="s3_348"
>topic_names</text>

<text 
x="306" 
y="595" 
class="s4_348"
>[</text>

<text 
x="314" 
y="595" 
class="s3_348"
>topic</text>

<text 
x="353" 
y="595" 
class="s4_348"
>],</text>

<text 
x="377" 
y="595" 
class="s3_348"
>count</text>

<text 
x="416" 
y="595" 
class="s4_348"
>,</text>

<text 
x="108" 
y="610" 
class="s6_348"
>print</text>

<text 
x="55" 
y="663" 
class="s2_348"
>which gives:</text>

<text 
x="76" 
y="708" 
dx="0,0,0,0,0,0,0,0,0,0,0,4.6,0,0,0,0,4.6,0,0,0,0,0,0,4.6,0,0,0,0,0,0,0,0,4.6,0,0,0,0,0,0,0,4.6,0,0,0,0,0,0,0,0,4.6,0,0,0,0,0,0,0,0,4.6,0,0,0,0,0,0,0,0,0,0,0" 
class="s4_348"
>['Hadoop', 'Big Data', 'HBase', 'Java', 'Spark', 'Storm', 'Cassandra']</text>

<text 
x="76" 
y="723" 
dx="0,0,0,0,4.6,0,0,0,0,4.6,0,0,0,4.6,0,0,0,0,0,0,0,0,0,0,0,4.6,0,0,0,0,0,0,0,0,0,4.6,0,4.6,0,0,0,0,0,0,0,0,0,4.6" 
class="s4_348"
>Big Data and programming languages 4 databases 3</text>

<text 
x="76" 
y="739" 
dx="0,0,0,0,0,0,0,0,0,0,4.6,0,0,0,0,0,0,0,0,0,0,4.6,0,0,0,0,0,0,0,0,0,0,0,0,4.6,0,0,0,0,0,0,0,0,4.6,0,0,0,0,0,0,0,0,0,0" 
class="s4_348"
>['NoSQL', 'MongoDB', 'Cassandra', 'HBase', 'Postgres']</text>

<text 
x="76" 
y="754" 
dx="0,0,0,0,0,0,0,0,0,0,4.6" 
class="s4_348"
>databases 5</text>

<text 
x="76" 
y="770" 
dx="0,0,0,0,0,0,0,0,0,0,0,4.6,0,0,0,0,0,0,0,0,0,0,0,0,0,0,0,4.6,0,0,0,0,0,0,0,0,4.6,0,0,0,0,0,0,0,0,4.6,0,0,0,0,0,0,0,0,0,0,0,0,0,0,4.6,0,0,0,0,0,0,0,0" 
class="s4_348"
>['Python', 'scikit-learn', 'scipy', 'numpy', 'statsmodels', 'pandas']</text>

<text 
x="76" 
y="785" 
dx="0,0,0,0,0,0,0,4.6,0,0,0,4.6,0,0,0,0,0,0,0,0,0,0,4.6,0,4.6,0,0,0,0,0,0,0,4.6,0,0,0,0,0,0,0,0,4.6" 
class="s4_348"
>Python and statistics 5 machine learning 1</text>

<text 
x="55" 
y="838" 
dx="0,0,0,0,0,0,0,0,0,0,0,0,0,0,0,0,0,0,0,0,0,0,0,0,0,0,0,0,0,0,0,0,0,0,0,0,0,0,0,0,0,0,0,0,0,0,0,0,0,0,0,0,0,0,0,0,0,0,0,0,0,0,0,0,0,0,0,0,0,-1.2,0,0,0,0,0,0,0,0,0,0,0,0" 
class="s2_348"
>and so on. Given the “ands” we needed in some of our topic names, it’s possible we</text>

<text 
x="55" 
y="865" 
dx="0,0,0,0,0,0,0,0,0,0,0,0,0,0,0,0,0,0,0,0,0,0,0,0,0,0,0,0,0,0,0,0,0,0,0,0,0,0,0,0,0,0,0,0,0,0,0,0,0,0,0,0,-0.4,0,0,0,0,0,0,0,0,0,0,0,0,0,0,0,0,0,0,0,0,0,0,0,0,0,0,0,0,0,0,0,0,0" 
class="s2_348"
>should use more topics, although most likely we don’t have enough data to successfully</text>

<text 
x="55" 
y="893" 
class="s2_348"
>learn them.</text>



<!-- Any embedded fonts defined here -->
<style type="text/css" ><![CDATA[

@font-face {
	font-family: LiberationMono-Bold_1w;
	src: url("fonts/LiberationMono-Bold_1w.woff") format("woff");
}

@font-face {
	font-family: LiberationMono_1q;
	src: url("fonts/LiberationMono_1q.woff") format("woff");
}

@font-face {
	font-family: LiberationSerif_e;
	src: url("fonts/LiberationSerif_e.woff") format("woff");
}

]]></style>

</svg>
