<?xml version="1.0" encoding="UTF-8" standalone="no"?>
<!DOCTYPE svg PUBLIC "-//W3C//DTD SVG 1.1//EN"
"http://www.w3.org/Graphics/SVG/1.1/DTD/svg11.dtd">


<!-- Page 352 -->
<svg x="0" y="0" width="909" height="1286" viewBox="0 0 909 1286" version="1.1" xmlns="http://www.w3.org/2000/svg" xmlns:xlink="http://www.w3.org/1999/xlink"
style="display: block;margin-left: auto;margin-right: auto;">
<defs>

<style type="text/css"><![CDATA[


.s1_352{
font-size: 30.81px;
font-family: LiberationSerif-Bold_b;
fill: #8E0012;
}
.s2_352{
font-size: 22.01px;
font-family: LiberationSerif_e;
fill: #000000;
}
.s3_352{
font-size: 22.01px;
font-family: LiberationSerif_e;
fill: #8E0012;
}
.s4_352{
font-size: 13.20px;
font-family: LiberationMono_1q;
fill: #000088;
}
.s5_352{
font-size: 13.20px;
font-family: LiberationMono_1q;
fill: #000000;
}
.s6_352{
font-size: 13.20px;
font-family: LiberationMono_1q;
fill: #CC3300;
}
.s7_352{
font-size: 13.20px;
font-family: LiberationMono_1q;
fill: #FF6600;
}
.s8_352{
font-size: 16.50px;
font-family: LiberationSerif-Italic_l;
fill: #000000;
}
.s9_352{
font-size: 17.60px;
font-family: LiberationMono_1q;
fill: #000000;
}
.s10_352{
font-size: 13.20px;
font-family: LiberationMono-Bold_1w;
fill: #006699;
}
.s11_352{
font-size: 13.20px;
font-family: LiberationMono-Bold_1w;
fill: #000000;
}
.s12_352{
font-size: 13.20px;
font-family: LiberationMono-Italic_10;
fill: #0099FF;
}
.s13_352{
font-size: 22.01px;
font-family: LiberationSerif-Italic_l;
fill: #000000;
}

]]></style>

</defs>
<path d="M0,0
L0,1286
L909,1286
L909,0 Z " 
fill="#FFFFFF" stroke="none" />
<text 
x="55" 
y="81" 
class="s1_352"
>Betweenness Centrality</text>

<text 
x="55" 
y="122" 
class="s2_352"
>In</text>

<text 
x="78" 
y="122" 
class="s3_352"
>Chapter 1</text>

<text 
x="164" 
y="122" 
class="s2_352"
>, we computed the key connectors in the DataSciencester network by counting</text>

<text 
x="55" 
y="149" 
class="s2_352"
>the number of friends each user had. Now we have enough machinery to look at other</text>

<text 
x="55" 
y="177" 
class="s2_352"
>approaches. Recall that the network (</text>

<text 
x="382" 
y="177" 
class="s3_352"
>Figure 21-1</text>

<text 
x="485" 
y="177" 
class="s2_352"
>) comprised users:</text>

<text 
x="76" 
y="222" 
class="s4_352"
>users</text>

<text 
x="124" 
y="222" 
dx="0,0,4.6" 
class="s5_352"
>= [</text>

<text 
x="108" 
y="237" 
class="s5_352"
>{</text>

<text 
x="124" 
y="237" 
class="s6_352"
>"id"</text>

<text 
x="156" 
y="237" 
class="s5_352"
>:</text>

<text 
x="171" 
y="237" 
class="s7_352"
>0</text>

<text 
x="179" 
y="237" 
class="s5_352"
>,</text>

<text 
x="195" 
y="237" 
class="s6_352"
>"name"</text>

<text 
x="242" 
y="237" 
class="s5_352"
>:</text>

<text 
x="258" 
y="237" 
class="s6_352"
>"Hero"</text>

<text 
x="314" 
y="237" 
class="s5_352"
>},</text>

<text 
x="108" 
y="253" 
class="s5_352"
>{</text>

<text 
x="124" 
y="253" 
class="s6_352"
>"id"</text>

<text 
x="156" 
y="253" 
class="s5_352"
>:</text>

<text 
x="171" 
y="253" 
class="s7_352"
>1</text>

<text 
x="179" 
y="253" 
class="s5_352"
>,</text>

<text 
x="195" 
y="253" 
class="s6_352"
>"name"</text>

<text 
x="242" 
y="253" 
class="s5_352"
>:</text>

<text 
x="258" 
y="253" 
class="s6_352"
>"Dunn"</text>

<text 
x="314" 
y="253" 
class="s5_352"
>},</text>

<text 
x="108" 
y="268" 
class="s5_352"
>{</text>

<text 
x="124" 
y="268" 
class="s6_352"
>"id"</text>

<text 
x="156" 
y="268" 
class="s5_352"
>:</text>

<text 
x="171" 
y="268" 
class="s7_352"
>2</text>

<text 
x="179" 
y="268" 
class="s5_352"
>,</text>

<text 
x="195" 
y="268" 
class="s6_352"
>"name"</text>

<text 
x="242" 
y="268" 
class="s5_352"
>:</text>

<text 
x="258" 
y="268" 
class="s6_352"
>"Sue"</text>

<text 
x="306" 
y="268" 
class="s5_352"
>},</text>

<text 
x="108" 
y="283" 
class="s5_352"
>{</text>

<text 
x="124" 
y="283" 
class="s6_352"
>"id"</text>

<text 
x="156" 
y="283" 
class="s5_352"
>:</text>

<text 
x="171" 
y="283" 
class="s7_352"
>3</text>

<text 
x="179" 
y="283" 
class="s5_352"
>,</text>

<text 
x="195" 
y="283" 
class="s6_352"
>"name"</text>

<text 
x="242" 
y="283" 
class="s5_352"
>:</text>

<text 
x="258" 
y="283" 
class="s6_352"
>"Chi"</text>

<text 
x="306" 
y="283" 
class="s5_352"
>},</text>

<text 
x="108" 
y="299" 
class="s5_352"
>{</text>

<text 
x="124" 
y="299" 
class="s6_352"
>"id"</text>

<text 
x="156" 
y="299" 
class="s5_352"
>:</text>

<text 
x="171" 
y="299" 
class="s7_352"
>4</text>

<text 
x="179" 
y="299" 
class="s5_352"
>,</text>

<text 
x="195" 
y="299" 
class="s6_352"
>"name"</text>

<text 
x="242" 
y="299" 
class="s5_352"
>:</text>

<text 
x="258" 
y="299" 
class="s6_352"
>"Thor"</text>

<text 
x="314" 
y="299" 
class="s5_352"
>},</text>

<text 
x="108" 
y="314" 
class="s5_352"
>{</text>

<text 
x="124" 
y="314" 
class="s6_352"
>"id"</text>

<text 
x="156" 
y="314" 
class="s5_352"
>:</text>

<text 
x="171" 
y="314" 
class="s7_352"
>5</text>

<text 
x="179" 
y="314" 
class="s5_352"
>,</text>

<text 
x="195" 
y="314" 
class="s6_352"
>"name"</text>

<text 
x="242" 
y="314" 
class="s5_352"
>:</text>

<text 
x="258" 
y="314" 
class="s6_352"
>"Clive"</text>

<text 
x="322" 
y="314" 
class="s5_352"
>},</text>

<text 
x="108" 
y="330" 
class="s5_352"
>{</text>

<text 
x="124" 
y="330" 
class="s6_352"
>"id"</text>

<text 
x="156" 
y="330" 
class="s5_352"
>:</text>

<text 
x="171" 
y="330" 
class="s7_352"
>6</text>

<text 
x="179" 
y="330" 
class="s5_352"
>,</text>

<text 
x="195" 
y="330" 
class="s6_352"
>"name"</text>

<text 
x="242" 
y="330" 
class="s5_352"
>:</text>

<text 
x="258" 
y="330" 
class="s6_352"
>"Hicks"</text>

<text 
x="322" 
y="330" 
class="s5_352"
>},</text>

<text 
x="108" 
y="345" 
class="s5_352"
>{</text>

<text 
x="124" 
y="345" 
class="s6_352"
>"id"</text>

<text 
x="156" 
y="345" 
class="s5_352"
>:</text>

<text 
x="171" 
y="345" 
class="s7_352"
>7</text>

<text 
x="179" 
y="345" 
class="s5_352"
>,</text>

<text 
x="195" 
y="345" 
class="s6_352"
>"name"</text>

<text 
x="242" 
y="345" 
class="s5_352"
>:</text>

<text 
x="258" 
y="345" 
class="s6_352"
>"Devin"</text>

<text 
x="322" 
y="345" 
class="s5_352"
>},</text>

<text 
x="108" 
y="360" 
class="s5_352"
>{</text>

<text 
x="124" 
y="360" 
class="s6_352"
>"id"</text>

<text 
x="156" 
y="360" 
class="s5_352"
>:</text>

<text 
x="171" 
y="360" 
class="s7_352"
>8</text>

<text 
x="179" 
y="360" 
class="s5_352"
>,</text>

<text 
x="195" 
y="360" 
class="s6_352"
>"name"</text>

<text 
x="242" 
y="360" 
class="s5_352"
>:</text>

<text 
x="258" 
y="360" 
class="s6_352"
>"Kate"</text>

<text 
x="314" 
y="360" 
class="s5_352"
>},</text>

<text 
x="108" 
y="376" 
class="s5_352"
>{</text>

<text 
x="124" 
y="376" 
class="s6_352"
>"id"</text>

<text 
x="156" 
y="376" 
class="s5_352"
>:</text>

<text 
x="171" 
y="376" 
class="s7_352"
>9</text>

<text 
x="179" 
y="376" 
class="s5_352"
>,</text>

<text 
x="195" 
y="376" 
class="s6_352"
>"name"</text>

<text 
x="242" 
y="376" 
class="s5_352"
>:</text>

<text 
x="258" 
y="376" 
class="s6_352"
>"Klein"</text>

<text 
x="322" 
y="376" 
class="s5_352"
>}</text>

<text 
x="76" 
y="391" 
class="s5_352"
>]</text>

<text 
x="55" 
y="444" 
class="s2_352"
>and friendships:</text>

<text 
x="76" 
y="489" 
class="s4_352"
>friendships</text>

<text 
x="171" 
y="489" 
dx="0,0,4.6,0" 
class="s5_352"
>= [(</text>

<text 
x="203" 
y="489" 
class="s7_352"
>0</text>

<text 
x="211" 
y="489" 
class="s5_352"
>,</text>

<text 
x="227" 
y="489" 
class="s7_352"
>1</text>

<text 
x="235" 
y="489" 
dx="0,0,0,4.6" 
class="s5_352"
>), (</text>

<text 
x="266" 
y="489" 
class="s7_352"
>0</text>

<text 
x="274" 
y="489" 
class="s5_352"
>,</text>

<text 
x="290" 
y="489" 
class="s7_352"
>2</text>

<text 
x="298" 
y="489" 
dx="0,0,0,4.6" 
class="s5_352"
>), (</text>

<text 
x="329" 
y="489" 
class="s7_352"
>1</text>

<text 
x="337" 
y="489" 
class="s5_352"
>,</text>

<text 
x="353" 
y="489" 
class="s7_352"
>2</text>

<text 
x="361" 
y="489" 
dx="0,0,0,4.6" 
class="s5_352"
>), (</text>

<text 
x="393" 
y="489" 
class="s7_352"
>1</text>

<text 
x="401" 
y="489" 
class="s5_352"
>,</text>

<text 
x="416" 
y="489" 
class="s7_352"
>3</text>

<text 
x="424" 
y="489" 
dx="0,0,0,4.6" 
class="s5_352"
>), (</text>

<text 
x="456" 
y="489" 
class="s7_352"
>2</text>

<text 
x="464" 
y="489" 
class="s5_352"
>,</text>

<text 
x="480" 
y="489" 
class="s7_352"
>3</text>

<text 
x="487" 
y="489" 
dx="0,0,0,4.6" 
class="s5_352"
>), (</text>

<text 
x="519" 
y="489" 
class="s7_352"
>3</text>

<text 
x="527" 
y="489" 
class="s5_352"
>,</text>

<text 
x="543" 
y="489" 
class="s7_352"
>4</text>

<text 
x="551" 
y="489" 
class="s5_352"
>),</text>

<text 
x="195" 
y="505" 
class="s5_352"
>(</text>

<text 
x="203" 
y="505" 
class="s7_352"
>4</text>

<text 
x="211" 
y="505" 
class="s5_352"
>,</text>

<text 
x="227" 
y="505" 
class="s7_352"
>5</text>

<text 
x="235" 
y="505" 
dx="0,0,0,4.6" 
class="s5_352"
>), (</text>

<text 
x="266" 
y="505" 
class="s7_352"
>5</text>

<text 
x="274" 
y="505" 
class="s5_352"
>,</text>

<text 
x="290" 
y="505" 
class="s7_352"
>6</text>

<text 
x="298" 
y="505" 
dx="0,0,0,4.6" 
class="s5_352"
>), (</text>

<text 
x="329" 
y="505" 
class="s7_352"
>5</text>

<text 
x="337" 
y="505" 
class="s5_352"
>,</text>

<text 
x="353" 
y="505" 
class="s7_352"
>7</text>

<text 
x="361" 
y="505" 
dx="0,0,0,4.6" 
class="s5_352"
>), (</text>

<text 
x="393" 
y="505" 
class="s7_352"
>6</text>

<text 
x="401" 
y="505" 
class="s5_352"
>,</text>

<text 
x="416" 
y="505" 
class="s7_352"
>8</text>

<text 
x="424" 
y="505" 
dx="0,0,0,4.6" 
class="s5_352"
>), (</text>

<text 
x="456" 
y="505" 
class="s7_352"
>7</text>

<text 
x="464" 
y="505" 
class="s5_352"
>,</text>

<text 
x="480" 
y="505" 
class="s7_352"
>8</text>

<text 
x="487" 
y="505" 
dx="0,0,0,4.6" 
class="s5_352"
>), (</text>

<text 
x="519" 
y="505" 
class="s7_352"
>8</text>

<text 
x="527" 
y="505" 
class="s5_352"
>,</text>

<text 
x="543" 
y="505" 
class="s7_352"
>9</text>

<text 
x="551" 
y="505" 
class="s5_352"
>)]</text>

<image preserveAspectRatio="none" x="55" y="537" width="799" height="255" xlink:href="352/img/1.png" />
<text 
x="314" 
y="818" 
dx="0,0,0,0,0,-0.6,0,0,0,0,0,0,0,0,0,0,0,0,0,0,0,0,0,0,0,0,0,0,0,0,0,0,0,0,0,0,0,0,0,0" 
class="s8_352"
>Figure 21-1. The DataSciencester network</text>

<text 
x="55" 
y="860" 
dx="0,-1.8,0,0,0,0,0,0,0,0,0,0,0,0,0,0,0,0,0,0,0,0,0,0,0,0,0,0,0,0,0,0,0,0,0,0,0,0,0" 
class="s2_352"
>We also added friend lists to each user</text>

<text 
x="397" 
y="860" 
class="s9_352"
>dict</text>

<text 
x="439" 
y="860" 
class="s2_352"
>:</text>

<text 
x="76" 
y="907" 
class="s10_352"
>for</text>

<text 
x="108" 
y="907" 
class="s4_352"
>user</text>

<text 
x="148" 
y="907" 
class="s11_352"
>in</text>

<text 
x="171" 
y="907" 
class="s4_352"
>users</text>

<text 
x="211" 
y="907" 
class="s5_352"
>:</text>

<text 
x="108" 
y="923" 
class="s4_352"
>user</text>

<text 
x="140" 
y="923" 
class="s5_352"
>[</text>

<text 
x="148" 
y="923" 
class="s6_352"
>"friends"</text>

<text 
x="219" 
y="923" 
dx="0,0,4.6,0,4.6,0" 
class="s5_352"
>] = []</text>

<text 
x="76" 
y="953" 
class="s10_352"
>for</text>

<text 
x="108" 
y="953" 
class="s4_352"
>i</text>

<text 
x="116" 
y="953" 
class="s5_352"
>,</text>

<text 
x="132" 
y="953" 
class="s4_352"
>j</text>

<text 
x="148" 
y="953" 
class="s11_352"
>in</text>

<text 
x="171" 
y="953" 
class="s4_352"
>friendships</text>

<text 
x="258" 
y="953" 
class="s5_352"
>:</text>

<text 
x="108" 
y="969" 
dx="0,0,4.6,0,0,0,0,4.6,0,0,0,0,0,4.6,0,0,0,0,0,0,0,4.6,0,0,0,0,0,0,0,0,4.6,0,0,4.6,0,0,0,4.6,0,0,0,0,4.6,0,0,0,0,0,4.6,0,0,4.6,0,0,4.6" 
class="s12_352"
># this works because users[i] is the user whose id is i</text>

<text 
x="108" 
y="984" 
class="s4_352"
>users</text>

<text 
x="148" 
y="984" 
class="s5_352"
>[</text>

<text 
x="156" 
y="984" 
class="s4_352"
>i</text>

<text 
x="163" 
y="984" 
class="s5_352"
>][</text>

<text 
x="179" 
y="984" 
class="s6_352"
>"friends"</text>

<text 
x="250" 
y="984" 
class="s5_352"
>].</text>

<text 
x="266" 
y="984" 
class="s4_352"
>append</text>

<text 
x="314" 
y="984" 
class="s5_352"
>(</text>

<text 
x="322" 
y="984" 
class="s4_352"
>users</text>

<text 
x="361" 
y="984" 
class="s5_352"
>[</text>

<text 
x="369" 
y="984" 
class="s4_352"
>j</text>

<text 
x="377" 
y="984" 
class="s5_352"
>])</text>

<text 
x="401" 
y="984" 
dx="0,0,4.6,0,0,0,4.6,0,4.6,0,0,4.6,0,4.6,0,0,0,0,0,0,4.6,0,0,4.6" 
class="s12_352"
># add i as a friend of j</text>

<text 
x="108" 
y="1000" 
class="s4_352"
>users</text>

<text 
x="148" 
y="1000" 
class="s5_352"
>[</text>

<text 
x="156" 
y="1000" 
class="s4_352"
>j</text>

<text 
x="163" 
y="1000" 
class="s5_352"
>][</text>

<text 
x="179" 
y="1000" 
class="s6_352"
>"friends"</text>

<text 
x="250" 
y="1000" 
class="s5_352"
>].</text>

<text 
x="266" 
y="1000" 
class="s4_352"
>append</text>

<text 
x="314" 
y="1000" 
class="s5_352"
>(</text>

<text 
x="322" 
y="1000" 
class="s4_352"
>users</text>

<text 
x="361" 
y="1000" 
class="s5_352"
>[</text>

<text 
x="369" 
y="1000" 
class="s4_352"
>i</text>

<text 
x="377" 
y="1000" 
class="s5_352"
>])</text>

<text 
x="401" 
y="1000" 
dx="0,0,4.6,0,0,0,4.6,0,4.6,0,0,4.6,0,4.6,0,0,0,0,0,0,4.6,0,0,4.6" 
class="s12_352"
># add j as a friend of i</text>

<text 
x="55" 
y="1052" 
dx="0,0,0,0,0,0,0,0,0,0,0,0,0,0,0,-0.4,0,0,0,0,0,0,0,0,0,0,0,0,0,0,0,0,0,0,0,0,0,0,0,0,0,0,0,0,0,0,0,0,0,0,0,0,0,0,0,0" 
class="s2_352"
>When we left off we were dissatisfied with our notion of</text>

<text 
x="558" 
y="1052" 
dx="0,0,0,0,-0.8,0,0,0,0,0,0,0,0,0,0,0,0" 
class="s13_352"
>degree centrality</text>

<text 
x="707" 
y="1052" 
dx="0,0,0,0,0,0,0,0,0,0,0,0,0,-0.4" 
class="s2_352"
>, which didn’t</text>

<text 
x="55" 
y="1080" 
class="s2_352"
>really agree with our intuition about who were the key connectors of the network.</text>

<text 
x="55" 
y="1118" 
class="s2_352"
>An alternative metric is</text>

<text 
x="267" 
y="1118" 
class="s13_352"
>betweenness centrality</text>

<text 
x="467" 
y="1118" 
class="s2_352"
>, which identifies people who frequently</text>

<text 
x="55" 
y="1146" 
dx="0,0,0,0,0,0,0,0,0,0,0,0,0,0,0,0,0,0,0,0,0,0,0,0,0,0,0,0,0,0,0,0,0,0,0,0,0,0,0,0,0,0,0,0,0,0,0,0,0,0,0,0,0,0,0,0,0,0,0,0,0,0,0,0,0,0,0,0,0,0,-0.9,0,0,0,0,0,0,0,0,0,0,0,0,0,0,0,0" 
class="s2_352"
>are on the shortest paths between pairs of other people. In particular, the betweenness</text>

<text 
x="55" 
y="1173" 
class="s2_352"
>centrality of node</text>

<text 
x="215" 
y="1173" 
class="s13_352"
>i</text>

<text 
x="227" 
y="1173" 
class="s2_352"
>is computed by adding up, for every other pair of nodes</text>

<text 
x="721" 
y="1173" 
class="s13_352"
>j</text>

<text 
x="733" 
y="1173" 
class="s2_352"
>and</text>

<text 
x="770" 
y="1173" 
class="s13_352"
>k</text>

<text 
x="780" 
y="1173" 
class="s2_352"
>, the</text>

<text 
x="55" 
y="1201" 
class="s2_352"
>proportion of shortest paths between node</text>

<text 
x="429" 
y="1201" 
class="s13_352"
>j</text>

<text 
x="441" 
y="1201" 
class="s2_352"
>and node</text>

<text 
x="527" 
y="1201" 
class="s13_352"
>k</text>

<text 
x="542" 
y="1201" 
class="s2_352"
>that pass through</text>

<text 
x="697" 
y="1201" 
class="s13_352"
>i</text>

<text 
x="704" 
y="1201" 
class="s2_352"
>.</text>



<!-- Any embedded fonts defined here -->
<style type="text/css" ><![CDATA[

@font-face {
	font-family: LiberationSerif-Italic_l;
	src: url("fonts/LiberationSerif-Italic_l.woff") format("woff");
}

@font-face {
	font-family: LiberationMono-Bold_1w;
	src: url("fonts/LiberationMono-Bold_1w.woff") format("woff");
}

@font-face {
	font-family: LiberationMono_1q;
	src: url("fonts/LiberationMono_1q.woff") format("woff");
}

@font-face {
	font-family: LiberationMono-Italic_10;
	src: url("fonts/LiberationMono-Italic_10.woff") format("woff");
}

@font-face {
	font-family: LiberationSerif-Bold_b;
	src: url("fonts/LiberationSerif-Bold_b.woff") format("woff");
}

@font-face {
	font-family: LiberationSerif_e;
	src: url("fonts/LiberationSerif_e.woff") format("woff");
}

]]></style>

</svg>
