<?xml version="1.0" encoding="UTF-8" standalone="no"?>
<!DOCTYPE svg PUBLIC "-//W3C//DTD SVG 1.1//EN"
"http://www.w3.org/Graphics/SVG/1.1/DTD/svg11.dtd">


<!-- Page 358 -->
<svg x="0" y="0" width="909" height="1286" viewBox="0 0 909 1286" version="1.1" xmlns="http://www.w3.org/2000/svg" xmlns:xlink="http://www.w3.org/1999/xlink"
style="display: block;margin-left: auto;margin-right: auto;">
<defs>

<style type="text/css"><![CDATA[


.s1_358{
font-size: 25.31px;
font-family: LiberationSerif-Bold_b;
fill: #000000;
}
.s2_358{
font-size: 22.01px;
font-family: LiberationSerif_e;
fill: #000000;
}
.s3_358{
font-size: 22.01px;
font-family: LiberationSerif-Italic_l;
fill: #000000;
}
.s4_358{
font-size: 17.60px;
font-family: LiberationMono_1q;
fill: #000000;
}
.s5_358{
font-size: 13.20px;
font-family: LiberationMono-Bold_1w;
fill: #006699;
}
.s6_358{
font-size: 13.20px;
font-family: LiberationMono_1q;
fill: #CC00FF;
}
.s7_358{
font-size: 13.20px;
font-family: LiberationMono_1q;
fill: #000000;
}
.s8_358{
font-size: 13.20px;
font-family: LiberationMono_1q;
fill: #000088;
}
.s9_358{
font-size: 13.20px;
font-family: LiberationMono-Bold_1w;
fill: #CC0000;
}
.s10_358{
font-size: 13.20px;
font-family: LiberationMono_1q;
fill: #CC3300;
}
.s11_358{
font-size: 13.20px;
font-family: LiberationMono_1q;
fill: #FF6600;
}
.s12_358{
font-size: 13.20px;
font-family: LiberationMono-Italic_10;
fill: #CC3300;
}
.s13_358{
font-size: 13.20px;
font-family: LiberationMono-Bold_1w;
fill: #000000;
}

]]></style>

</defs>
<path d="M0,0
L0,1286
L909,1286
L909,0 Z " 
fill="#FFFFFF" stroke="none" />
<text 
x="55" 
y="77" 
class="s1_358"
>Matrix Multiplication</text>

<text 
x="55" 
y="122" 
class="s2_358"
>If</text>

<text 
x="75" 
y="122" 
class="s3_358"
>A</text>

<text 
x="94" 
y="122" 
class="s2_358"
>is a</text>

<image preserveAspectRatio="none" x="130" y="95" width="77" height="27" xlink:href="358/img/1.png" />
<text 
x="211" 
y="122" 
class="s2_358"
>matrix and</text>

<text 
x="312" 
y="122" 
class="s3_358"
>B</text>

<text 
x="330" 
y="122" 
class="s2_358"
>is a</text>

<image preserveAspectRatio="none" x="366" y="95" width="79" height="27" xlink:href="358/img/2.png" />
<text 
x="451" 
y="122" 
class="s2_358"
>matrix, and if</text>

<image preserveAspectRatio="none" x="575" y="95" width="80" height="27" xlink:href="358/img/3.png" />
<text 
x="655" 
y="122" 
class="s2_358"
>, then their product</text>

<text 
x="55" 
y="156" 
class="s3_358"
>AB</text>

<text 
x="87" 
y="156" 
class="s2_358"
>is the</text>

<image preserveAspectRatio="none" x="140" y="129" width="79" height="27" xlink:href="358/img/4.png" />
<text 
x="224" 
y="156" 
class="s2_358"
>matrix whose (i,j)th entry is:</text>

<image preserveAspectRatio="none" x="55" y="174" width="799" height="71" xlink:href="358/img/5.png" />
<text 
x="55" 
y="277" 
class="s2_358"
>Which is just the</text>

<text 
x="208" 
y="277" 
class="s4_358"
>dot</text>

<text 
x="246" 
y="277" 
class="s2_358"
>product of the</text>

<text 
x="374" 
y="277" 
class="s3_358"
>i</text>

<text 
x="380" 
y="277" 
class="s2_358"
>th row of</text>

<text 
x="467" 
y="277" 
class="s3_358"
>A</text>

<text 
x="485" 
y="277" 
class="s2_358"
>(thought of as a vector) with the</text>

<text 
x="773" 
y="277" 
class="s3_358"
>j</text>

<text 
x="779" 
y="277" 
class="s2_358"
>th</text>

<text 
x="55" 
y="306" 
class="s2_358"
>column of</text>

<text 
x="150" 
y="306" 
class="s3_358"
>B</text>

<text 
x="169" 
y="306" 
class="s2_358"
>(also thought of as a vector):</text>

<text 
x="76" 
y="352" 
class="s5_358"
>def</text>

<text 
x="108" 
y="352" 
class="s6_358"
>matrix_product_entry</text>

<text 
x="266" 
y="352" 
class="s7_358"
>(</text>

<text 
x="274" 
y="352" 
class="s8_358"
>A</text>

<text 
x="282" 
y="352" 
class="s7_358"
>,</text>

<text 
x="298" 
y="352" 
class="s8_358"
>B</text>

<text 
x="306" 
y="352" 
class="s7_358"
>,</text>

<text 
x="322" 
y="352" 
class="s8_358"
>i</text>

<text 
x="329" 
y="352" 
class="s7_358"
>,</text>

<text 
x="345" 
y="352" 
class="s8_358"
>j</text>

<text 
x="353" 
y="352" 
class="s7_358"
>):</text>

<text 
x="108" 
y="367" 
class="s5_358"
>return</text>

<text 
x="163" 
y="367" 
class="s8_358"
>dot</text>

<text 
x="187" 
y="367" 
class="s7_358"
>(</text>

<text 
x="195" 
y="367" 
class="s8_358"
>get_row</text>

<text 
x="250" 
y="367" 
class="s7_358"
>(</text>

<text 
x="258" 
y="367" 
class="s8_358"
>A</text>

<text 
x="266" 
y="367" 
class="s7_358"
>,</text>

<text 
x="282" 
y="367" 
class="s8_358"
>i</text>

<text 
x="290" 
y="367" 
class="s7_358"
>),</text>

<text 
x="314" 
y="367" 
class="s8_358"
>get_column</text>

<text 
x="393" 
y="367" 
class="s7_358"
>(</text>

<text 
x="401" 
y="367" 
class="s8_358"
>B</text>

<text 
x="408" 
y="367" 
class="s7_358"
>,</text>

<text 
x="424" 
y="367" 
class="s8_358"
>j</text>

<text 
x="432" 
y="367" 
class="s7_358"
>))</text>

<text 
x="55" 
y="420" 
class="s2_358"
>after which we have:</text>

<text 
x="76" 
y="465" 
class="s5_358"
>def</text>

<text 
x="108" 
y="465" 
class="s6_358"
>matrix_multiply</text>

<text 
x="227" 
y="465" 
class="s7_358"
>(</text>

<text 
x="235" 
y="465" 
class="s8_358"
>A</text>

<text 
x="242" 
y="465" 
class="s7_358"
>,</text>

<text 
x="258" 
y="465" 
class="s8_358"
>B</text>

<text 
x="266" 
y="465" 
class="s7_358"
>):</text>

<text 
x="108" 
y="480" 
class="s8_358"
>n1</text>

<text 
x="124" 
y="480" 
class="s7_358"
>,</text>

<text 
x="140" 
y="480" 
class="s8_358"
>k1</text>

<text 
x="163" 
y="480" 
class="s7_358"
>=</text>

<text 
x="179" 
y="480" 
class="s8_358"
>shape</text>

<text 
x="219" 
y="480" 
class="s7_358"
>(</text>

<text 
x="227" 
y="480" 
class="s8_358"
>A</text>

<text 
x="235" 
y="480" 
class="s7_358"
>)</text>

<text 
x="108" 
y="496" 
class="s8_358"
>n2</text>

<text 
x="124" 
y="496" 
class="s7_358"
>,</text>

<text 
x="140" 
y="496" 
class="s8_358"
>k2</text>

<text 
x="163" 
y="496" 
class="s7_358"
>=</text>

<text 
x="179" 
y="496" 
class="s8_358"
>shape</text>

<text 
x="219" 
y="496" 
class="s7_358"
>(</text>

<text 
x="227" 
y="496" 
class="s8_358"
>B</text>

<text 
x="235" 
y="496" 
class="s7_358"
>)</text>

<text 
x="108" 
y="511" 
class="s5_358"
>if</text>

<text 
x="132" 
y="511" 
class="s8_358"
>k1</text>

<text 
x="156" 
y="511" 
class="s7_358"
>!=</text>

<text 
x="179" 
y="511" 
class="s8_358"
>n2</text>

<text 
x="195" 
y="511" 
class="s7_358"
>:</text>

<text 
x="140" 
y="527" 
class="s5_358"
>raise</text>

<text 
x="187" 
y="527" 
class="s9_358"
>ArithmeticError</text>

<text 
x="306" 
y="527" 
class="s7_358"
>(</text>

<text 
x="314" 
y="527" 
dx="0,0,0,0,0,0,0,0,0,0,0,0,0,0,4.6,0,0,0,0,0,0,0" 
class="s10_358"
>"incompatible shapes!"</text>

<text 
x="487" 
y="527" 
class="s7_358"
>)</text>

<text 
x="108" 
y="557" 
class="s5_358"
>return</text>

<text 
x="163" 
y="557" 
class="s8_358"
>make_matrix</text>

<text 
x="250" 
y="557" 
class="s7_358"
>(</text>

<text 
x="258" 
y="557" 
class="s8_358"
>n1</text>

<text 
x="274" 
y="557" 
class="s7_358"
>,</text>

<text 
x="290" 
y="557" 
class="s8_358"
>k2</text>

<text 
x="306" 
y="557" 
class="s7_358"
>,</text>

<text 
x="322" 
y="557" 
class="s8_358"
>partial</text>

<text 
x="377" 
y="557" 
class="s7_358"
>(</text>

<text 
x="385" 
y="557" 
class="s8_358"
>matrix_product_entry</text>

<text 
x="543" 
y="557" 
class="s7_358"
>,</text>

<text 
x="559" 
y="557" 
class="s8_358"
>A</text>

<text 
x="567" 
y="557" 
class="s7_358"
>,</text>

<text 
x="582" 
y="557" 
class="s8_358"
>B</text>

<text 
x="590" 
y="557" 
class="s7_358"
>))</text>

<text 
x="55" 
y="613" 
class="s2_358"
>Notice that if</text>

<text 
x="176" 
y="613" 
class="s3_358"
>A</text>

<text 
x="195" 
y="613" 
class="s2_358"
>is a</text>

<image preserveAspectRatio="none" x="231" y="590" width="71" height="24" xlink:href="358/img/6.png" />
<text 
x="307" 
y="613" 
class="s2_358"
>matrix and</text>

<text 
x="407" 
y="613" 
class="s3_358"
>B</text>

<text 
x="426" 
y="613" 
class="s2_358"
>is a</text>

<image preserveAspectRatio="none" x="462" y="590" width="67" height="24" xlink:href="358/img/7.png" />
<text 
x="534" 
y="613" 
class="s2_358"
>matrix, then</text>

<text 
x="646" 
y="613" 
class="s3_358"
>AB</text>

<text 
x="678" 
y="613" 
class="s2_358"
>is a</text>

<image preserveAspectRatio="none" x="715" y="590" width="68" height="24" xlink:href="358/img/8.png" />
<text 
x="787" 
y="613" 
class="s2_358"
>matrix.</text>

<text 
x="55" 
y="641" 
class="s2_358"
>If we treat a vector as a one-column matrix, we can think of</text>

<text 
x="586" 
y="641" 
class="s3_358"
>A</text>

<text 
x="605" 
y="641" 
class="s2_358"
>as a function that maps</text>

<text 
x="813" 
y="641" 
class="s3_358"
>k</text>

<text 
x="822" 
y="641" 
class="s2_358"
>-</text>

<text 
x="55" 
y="668" 
class="s2_358"
>dimensional vectors to</text>

<text 
x="259" 
y="668" 
class="s3_358"
>n</text>

<text 
x="270" 
y="668" 
class="s2_358"
>-dimensional vectors, where the function is just matrix</text>

<text 
x="55" 
y="696" 
class="s2_358"
>multiplication.</text>

<text 
x="55" 
y="734" 
dx="0,0,0,0,0,0,0,0,0,0,0,0,0,0,0,0,0,0,0,0,0,0,0,0,0,0,0,0,0,0,0,0,0,0,0,0,0,0,0,0,0,0,0,0,0,0,0,0,0,0,0,0,0,0,0,0,0,0,0,0,0,-0.4,0,0,0,0,0,0,0,0,0,0,0,0,0,0,0,0" 
class="s2_358"
>Previously we represented vectors simply as lists, which isn’t quite the same:</text>

<text 
x="76" 
y="780" 
class="s8_358"
>v</text>

<text 
x="92" 
y="780" 
dx="0,0,4.6" 
class="s7_358"
>= [</text>

<text 
x="116" 
y="780" 
class="s11_358"
>1</text>

<text 
x="124" 
y="780" 
class="s7_358"
>,</text>

<text 
x="140" 
y="780" 
class="s11_358"
>2</text>

<text 
x="148" 
y="780" 
class="s7_358"
>,</text>

<text 
x="163" 
y="780" 
class="s11_358"
>3</text>

<text 
x="171" 
y="780" 
class="s7_358"
>]</text>

<text 
x="76" 
y="795" 
class="s8_358"
>v_as_matrix</text>

<text 
x="171" 
y="795" 
dx="0,0,4.6,0" 
class="s7_358"
>= [[</text>

<text 
x="203" 
y="795" 
class="s11_358"
>1</text>

<text 
x="211" 
y="795" 
class="s7_358"
>],</text>

<text 
x="195" 
y="810" 
class="s7_358"
>[</text>

<text 
x="203" 
y="810" 
class="s11_358"
>2</text>

<text 
x="211" 
y="810" 
class="s7_358"
>],</text>

<text 
x="195" 
y="826" 
class="s7_358"
>[</text>

<text 
x="203" 
y="826" 
class="s11_358"
>3</text>

<text 
x="211" 
y="826" 
class="s7_358"
>]]</text>

<text 
x="55" 
y="879" 
class="s2_358"
>So we’ll need some helper functions to convert back and forth between the two</text>

<text 
x="55" 
y="906" 
class="s2_358"
>representations:</text>

<text 
x="76" 
y="951" 
class="s5_358"
>def</text>

<text 
x="108" 
y="951" 
class="s6_358"
>vector_as_matrix</text>

<text 
x="235" 
y="951" 
class="s7_358"
>(</text>

<text 
x="242" 
y="951" 
class="s8_358"
>v</text>

<text 
x="250" 
y="951" 
class="s7_358"
>):</text>

<text 
x="108" 
y="967" 
dx="0,0,0,0,0,0,0,0,0,0,0,4.6,0,0,0,4.6,0,0,0,0,0,0,4.6,0,4.6,0,0,0,0,0,0,0,0,0,0,0,0,4.6,0,0,4.6,0,4.6,0,0,0,0,0,4.6,0,0,4.6,0,4.6,0,4.6,0,4.6,0,4.6,0,0,0,0,0,0,0,0" 
class="s12_358"
>"""returns the vector v (represented as a list) as a n x 1 matrix"""</text>

<text 
x="108" 
y="982" 
class="s5_358"
>return</text>

<text 
x="163" 
y="982" 
class="s7_358"
>[[</text>

<text 
x="179" 
y="982" 
class="s8_358"
>v_i</text>

<text 
x="203" 
y="982" 
class="s7_358"
>]</text>

<text 
x="219" 
y="982" 
class="s5_358"
>for</text>

<text 
x="250" 
y="982" 
class="s8_358"
>v_i</text>

<text 
x="282" 
y="982" 
class="s13_358"
>in</text>

<text 
x="306" 
y="982" 
class="s8_358"
>v</text>

<text 
x="314" 
y="982" 
class="s7_358"
>]</text>

<text 
x="76" 
y="1013" 
class="s5_358"
>def</text>

<text 
x="108" 
y="1013" 
class="s6_358"
>vector_from_matrix</text>

<text 
x="250" 
y="1013" 
class="s7_358"
>(</text>

<text 
x="258" 
y="1013" 
class="s8_358"
>v_as_matrix</text>

<text 
x="345" 
y="1013" 
class="s7_358"
>):</text>

<text 
x="108" 
y="1028" 
dx="0,0,0,0,0,0,0,0,0,0,0,4.6,0,0,0,4.6,0,4.6,0,4.6,0,4.6,0,0,0,0,0,0,4.6,0,0,4.6,0,4.6,0,0,0,0,4.6,0,0,4.6,0,0,0,0,0,0,0,0" 
class="s12_358"
>"""returns the n x 1 matrix as a list of values"""</text>

<text 
x="108" 
y="1044" 
class="s5_358"
>return</text>

<text 
x="163" 
y="1044" 
class="s7_358"
>[</text>

<text 
x="171" 
y="1044" 
class="s8_358"
>row</text>

<text 
x="195" 
y="1044" 
class="s7_358"
>[</text>

<text 
x="203" 
y="1044" 
class="s11_358"
>0</text>

<text 
x="211" 
y="1044" 
class="s7_358"
>]</text>

<text 
x="227" 
y="1044" 
class="s5_358"
>for</text>

<text 
x="258" 
y="1044" 
class="s8_358"
>row</text>

<text 
x="290" 
y="1044" 
class="s13_358"
>in</text>

<text 
x="314" 
y="1044" 
class="s8_358"
>v_as_matrix</text>

<text 
x="401" 
y="1044" 
class="s7_358"
>]</text>

<text 
x="55" 
y="1096" 
class="s2_358"
>after which we can define the matrix operation using</text>

<text 
x="524" 
y="1096" 
class="s4_358"
>matrix_multiply</text>

<text 
x="682" 
y="1096" 
class="s2_358"
>:</text>

<text 
x="76" 
y="1144" 
class="s5_358"
>def</text>

<text 
x="108" 
y="1144" 
class="s6_358"
>matrix_operate</text>

<text 
x="219" 
y="1144" 
class="s7_358"
>(</text>

<text 
x="227" 
y="1144" 
class="s8_358"
>A</text>

<text 
x="235" 
y="1144" 
class="s7_358"
>,</text>

<text 
x="250" 
y="1144" 
class="s8_358"
>v</text>

<text 
x="258" 
y="1144" 
class="s7_358"
>):</text>

<text 
x="108" 
y="1159" 
class="s8_358"
>v_as_matrix</text>

<text 
x="203" 
y="1159" 
class="s7_358"
>=</text>

<text 
x="219" 
y="1159" 
class="s8_358"
>vector_as_matrix</text>

<text 
x="345" 
y="1159" 
class="s7_358"
>(</text>

<text 
x="353" 
y="1159" 
class="s8_358"
>v</text>

<text 
x="361" 
y="1159" 
class="s7_358"
>)</text>

<text 
x="108" 
y="1175" 
class="s8_358"
>product</text>

<text 
x="171" 
y="1175" 
class="s7_358"
>=</text>

<text 
x="187" 
y="1175" 
class="s8_358"
>matrix_multiply</text>

<text 
x="306" 
y="1175" 
class="s7_358"
>(</text>

<text 
x="314" 
y="1175" 
class="s8_358"
>A</text>

<text 
x="322" 
y="1175" 
class="s7_358"
>,</text>

<text 
x="337" 
y="1175" 
class="s8_358"
>v_as_matrix</text>

<text 
x="424" 
y="1175" 
class="s7_358"
>)</text>

<text 
x="108" 
y="1190" 
class="s5_358"
>return</text>

<text 
x="163" 
y="1190" 
class="s8_358"
>vector_from_matrix</text>

<text 
x="306" 
y="1190" 
class="s7_358"
>(</text>

<text 
x="314" 
y="1190" 
class="s8_358"
>product</text>

<text 
x="369" 
y="1190" 
class="s7_358"
>)</text>



<!-- Any embedded fonts defined here -->
<style type="text/css" ><![CDATA[

@font-face {
	font-family: LiberationSerif-Italic_l;
	src: url("fonts/LiberationSerif-Italic_l.woff") format("woff");
}

@font-face {
	font-family: LiberationMono-Bold_1w;
	src: url("fonts/LiberationMono-Bold_1w.woff") format("woff");
}

@font-face {
	font-family: LiberationMono_1q;
	src: url("fonts/LiberationMono_1q.woff") format("woff");
}

@font-face {
	font-family: LiberationMono-Italic_10;
	src: url("fonts/LiberationMono-Italic_10.woff") format("woff");
}

@font-face {
	font-family: LiberationSerif-Bold_b;
	src: url("fonts/LiberationSerif-Bold_b.woff") format("woff");
}

@font-face {
	font-family: LiberationSerif_e;
	src: url("fonts/LiberationSerif_e.woff") format("woff");
}

]]></style>

</svg>
