<?xml version="1.0" encoding="UTF-8" standalone="no"?>
<!DOCTYPE svg PUBLIC "-//W3C//DTD SVG 1.1//EN"
"http://www.w3.org/Graphics/SVG/1.1/DTD/svg11.dtd">


<!-- Page 362 -->
<svg x="0" y="0" width="909" height="1286" viewBox="0 0 909 1286" version="1.1" xmlns="http://www.w3.org/2000/svg" xmlns:xlink="http://www.w3.org/1999/xlink"
style="display: block;margin-left: auto;margin-right: auto;">
<defs>

<style type="text/css"><![CDATA[


.s1_362{
font-size: 30.81px;
font-family: LiberationSerif-Bold_b;
fill: #8E0012;
}
.s2_362{
font-size: 22.01px;
font-family: LiberationSerif_e;
fill: #000000;
}
.s3_362{
font-size: 22.01px;
font-family: LiberationSerif-Italic_l;
fill: #000000;
}
.s4_362{
font-size: 17.60px;
font-family: LiberationMono_1q;
fill: #000000;
}
.s5_362{
font-size: 22.01px;
font-family: LiberationSerif_e;
fill: #8E0012;
}
.s6_362{
font-size: 13.20px;
font-family: LiberationMono_1q;
fill: #000088;
}
.s7_362{
font-size: 13.20px;
font-family: LiberationMono_1q;
fill: #000000;
}
.s8_362{
font-size: 13.20px;
font-family: LiberationMono_1q;
fill: #FF6600;
}
.s9_362{
font-size: 13.20px;
font-family: LiberationMono-Bold_1w;
fill: #006699;
}
.s10_362{
font-size: 13.20px;
font-family: LiberationMono-Bold_1w;
fill: #000000;
}
.s11_362{
font-size: 13.20px;
font-family: LiberationMono_1q;
fill: #CC3300;
}
.s12_362{
font-size: 13.20px;
font-family: LiberationMono-Italic_10;
fill: #0099FF;
}
.s13_362{
font-size: 16.50px;
font-family: LiberationSerif-Italic_l;
fill: #000000;
}
.s14_362{
font-size: 13.20px;
font-family: LiberationMono_1q;
fill: #336666;
}

]]></style>

</defs>
<path d="M0,0
L0,1286
L909,1286
L909,0 Z " 
fill="#FFFFFF" stroke="none" />
<text 
x="55" 
y="81" 
dx="0,0,0,-0.6,0,0,0,0,0,0,0,0,0,0,0,0,0,0,0,0,0,0,0,0,0,0,0,0" 
class="s1_362"
>Directed Graphs and PageRank</text>

<text 
x="55" 
y="122" 
dx="0,0,0,0,0,0,0,0,0,0,0,0,0,0,0,0,0,0,0,0,-0.4,0,0,0,0,0,0,0,0,0,0,0,0,0,0,0,0,0,0,0,0,0,0,0,0,0,0,0,0,0,0,0,0,0,0,-0.8,0,0,0,0,0,0,0,0,0,0,0,0,0,0,0,0,0,0,0,0,0,0,0,0,0,0,0,0,0,0,0,0,0" 
class="s2_362"
>DataSciencester isn’t getting much traction, so the VP of Revenue considers pivoting from</text>

<text 
x="55" 
y="149" 
class="s2_362"
>a friendship model to an endorsement model. It turns out that no one particularly cares</text>

<text 
x="55" 
y="177" 
class="s2_362"
>which data scientists are</text>

<text 
x="274" 
y="177" 
class="s3_362"
>friends</text>

<text 
x="341" 
y="177" 
dx="0,0,0,0,0,0,0,0,0,0,0,0,0,0,0,0,-0.9,0,0,0,0,0,0,0,0,0,0,0,0,0,0,0,0,0,0,0,0,0,0,0,0,0,0,0,0,0,0,0,0,0,0,0" 
class="s2_362"
>with one another, but tech recruiters care very much</text>

<text 
x="55" 
y="204" 
class="s2_362"
>which data scientists are respected by other data scientists.</text>

<text 
x="55" 
y="243" 
class="s2_362"
>In this new model, we’ll track endorsements</text>

<text 
x="450" 
y="243" 
dx="0,0,0,0,0,0,0,0,0,6.1,0,0,0,0,0,0" 
class="s4_362"
>(source, target)</text>

<text 
x="624" 
y="243" 
class="s2_362"
>that no longer represent a</text>

<text 
x="55" 
y="272" 
class="s2_362"
>reciprocal relationship, but rather that</text>

<text 
x="391" 
y="272" 
class="s4_362"
>source</text>

<text 
x="460" 
y="272" 
class="s2_362"
>endorses</text>

<text 
x="543" 
y="272" 
class="s4_362"
>target</text>

<text 
x="611" 
y="272" 
class="s2_362"
>as an awesome data</text>

<text 
x="55" 
y="302" 
class="s2_362"
>scientist (</text>

<text 
x="139" 
y="302" 
class="s5_362"
>Figure 21-5</text>

<text 
x="243" 
y="302" 
dx="0,0,0,0,-1.8,0,0,0,0,0,0,0,0,0,0,0,0,0,0,0,0,0,0,0,0,0,0,0,0,0,0,0,0,0,0,0,0,0,0,0,0,0,0,0" 
class="s2_362"
>). We’ll need to account for this asymmetry:</text>

<text 
x="76" 
y="347" 
class="s6_362"
>endorsements</text>

<text 
x="179" 
y="347" 
dx="0,0,4.6,0" 
class="s7_362"
>= [(</text>

<text 
x="211" 
y="347" 
class="s8_362"
>0</text>

<text 
x="219" 
y="347" 
class="s7_362"
>,</text>

<text 
x="235" 
y="347" 
class="s8_362"
>1</text>

<text 
x="242" 
y="347" 
dx="0,0,0,4.6" 
class="s7_362"
>), (</text>

<text 
x="274" 
y="347" 
class="s8_362"
>1</text>

<text 
x="282" 
y="347" 
class="s7_362"
>,</text>

<text 
x="298" 
y="347" 
class="s8_362"
>0</text>

<text 
x="306" 
y="347" 
dx="0,0,0,4.6" 
class="s7_362"
>), (</text>

<text 
x="337" 
y="347" 
class="s8_362"
>0</text>

<text 
x="345" 
y="347" 
class="s7_362"
>,</text>

<text 
x="361" 
y="347" 
class="s8_362"
>2</text>

<text 
x="369" 
y="347" 
dx="0,0,0,4.6" 
class="s7_362"
>), (</text>

<text 
x="401" 
y="347" 
class="s8_362"
>2</text>

<text 
x="408" 
y="347" 
class="s7_362"
>,</text>

<text 
x="424" 
y="347" 
class="s8_362"
>0</text>

<text 
x="432" 
y="347" 
dx="0,0,0,4.6" 
class="s7_362"
>), (</text>

<text 
x="464" 
y="347" 
class="s8_362"
>1</text>

<text 
x="472" 
y="347" 
class="s7_362"
>,</text>

<text 
x="487" 
y="347" 
class="s8_362"
>2</text>

<text 
x="495" 
y="347" 
class="s7_362"
>),</text>

<text 
x="203" 
y="363" 
class="s7_362"
>(</text>

<text 
x="211" 
y="363" 
class="s8_362"
>2</text>

<text 
x="219" 
y="363" 
class="s7_362"
>,</text>

<text 
x="235" 
y="363" 
class="s8_362"
>1</text>

<text 
x="242" 
y="363" 
dx="0,0,0,4.6" 
class="s7_362"
>), (</text>

<text 
x="274" 
y="363" 
class="s8_362"
>1</text>

<text 
x="282" 
y="363" 
class="s7_362"
>,</text>

<text 
x="298" 
y="363" 
class="s8_362"
>3</text>

<text 
x="306" 
y="363" 
dx="0,0,0,4.6" 
class="s7_362"
>), (</text>

<text 
x="337" 
y="363" 
class="s8_362"
>2</text>

<text 
x="345" 
y="363" 
class="s7_362"
>,</text>

<text 
x="361" 
y="363" 
class="s8_362"
>3</text>

<text 
x="369" 
y="363" 
dx="0,0,0,4.6" 
class="s7_362"
>), (</text>

<text 
x="401" 
y="363" 
class="s8_362"
>3</text>

<text 
x="408" 
y="363" 
class="s7_362"
>,</text>

<text 
x="424" 
y="363" 
class="s8_362"
>4</text>

<text 
x="432" 
y="363" 
dx="0,0,0,4.6" 
class="s7_362"
>), (</text>

<text 
x="464" 
y="363" 
class="s8_362"
>5</text>

<text 
x="472" 
y="363" 
class="s7_362"
>,</text>

<text 
x="487" 
y="363" 
class="s8_362"
>4</text>

<text 
x="495" 
y="363" 
class="s7_362"
>),</text>

<text 
x="203" 
y="378" 
class="s7_362"
>(</text>

<text 
x="211" 
y="378" 
class="s8_362"
>5</text>

<text 
x="219" 
y="378" 
class="s7_362"
>,</text>

<text 
x="235" 
y="378" 
class="s8_362"
>6</text>

<text 
x="242" 
y="378" 
dx="0,0,0,4.6" 
class="s7_362"
>), (</text>

<text 
x="274" 
y="378" 
class="s8_362"
>7</text>

<text 
x="282" 
y="378" 
class="s7_362"
>,</text>

<text 
x="298" 
y="378" 
class="s8_362"
>5</text>

<text 
x="306" 
y="378" 
dx="0,0,0,4.6" 
class="s7_362"
>), (</text>

<text 
x="337" 
y="378" 
class="s8_362"
>6</text>

<text 
x="345" 
y="378" 
class="s7_362"
>,</text>

<text 
x="361" 
y="378" 
class="s8_362"
>8</text>

<text 
x="369" 
y="378" 
dx="0,0,0,4.6" 
class="s7_362"
>), (</text>

<text 
x="401" 
y="378" 
class="s8_362"
>8</text>

<text 
x="408" 
y="378" 
class="s7_362"
>,</text>

<text 
x="424" 
y="378" 
class="s8_362"
>7</text>

<text 
x="432" 
y="378" 
dx="0,0,0,4.6" 
class="s7_362"
>), (</text>

<text 
x="464" 
y="378" 
class="s8_362"
>8</text>

<text 
x="472" 
y="378" 
class="s7_362"
>,</text>

<text 
x="487" 
y="378" 
class="s8_362"
>9</text>

<text 
x="495" 
y="378" 
class="s7_362"
>)]</text>

<text 
x="76" 
y="409" 
class="s9_362"
>for</text>

<text 
x="108" 
y="409" 
class="s6_362"
>user</text>

<text 
x="148" 
y="409" 
class="s10_362"
>in</text>

<text 
x="171" 
y="409" 
class="s6_362"
>users</text>

<text 
x="211" 
y="409" 
class="s7_362"
>:</text>

<text 
x="108" 
y="424" 
class="s6_362"
>user</text>

<text 
x="140" 
y="424" 
class="s7_362"
>[</text>

<text 
x="148" 
y="424" 
class="s11_362"
>"endorses"</text>

<text 
x="227" 
y="424" 
dx="0,0,4.6,0,4.6,0" 
class="s7_362"
>] = []</text>

<text 
x="329" 
y="424" 
dx="0,0,4.6,0,0,0,4.6,0,0,0,4.6,0,0,0,0,4.6,0,0,4.6,0,0,0,0,0,4.6,0,0,0,0,0,0,0,0,4.6,0,0,0,0,0,0,0,0,0,0,0" 
class="s12_362"
># add one list to track outgoing endorsements</text>

<text 
x="108" 
y="440" 
class="s6_362"
>user</text>

<text 
x="140" 
y="440" 
class="s7_362"
>[</text>

<text 
x="148" 
y="440" 
class="s11_362"
>"endorsed_by"</text>

<text 
x="250" 
y="440" 
dx="0,0,4.6,0,4.6,0" 
class="s7_362"
>] = []</text>

<text 
x="329" 
y="440" 
dx="0,0,4.6,0,0,0,4.6,0,0,0,0,0,0,0,4.6,0,0,4.6,0,0,0,0,0,4.6,0,0,0,0,0,0,0,0,0,0,0" 
class="s12_362"
># and another to track endorsements</text>

<text 
x="76" 
y="470" 
class="s9_362"
>for</text>

<text 
x="108" 
y="470" 
class="s6_362"
>source_id</text>

<text 
x="179" 
y="470" 
class="s7_362"
>,</text>

<text 
x="195" 
y="470" 
class="s6_362"
>target_id</text>

<text 
x="274" 
y="470" 
class="s10_362"
>in</text>

<text 
x="298" 
y="470" 
class="s6_362"
>endorsements</text>

<text 
x="393" 
y="470" 
class="s7_362"
>:</text>

<text 
x="108" 
y="486" 
class="s6_362"
>users</text>

<text 
x="148" 
y="486" 
class="s7_362"
>[</text>

<text 
x="156" 
y="486" 
class="s6_362"
>source_id</text>

<text 
x="227" 
y="486" 
class="s7_362"
>][</text>

<text 
x="242" 
y="486" 
class="s11_362"
>"endorses"</text>

<text 
x="322" 
y="486" 
class="s7_362"
>].</text>

<text 
x="337" 
y="486" 
class="s6_362"
>append</text>

<text 
x="385" 
y="486" 
class="s7_362"
>(</text>

<text 
x="393" 
y="486" 
class="s6_362"
>users</text>

<text 
x="432" 
y="486" 
class="s7_362"
>[</text>

<text 
x="440" 
y="486" 
class="s6_362"
>target_id</text>

<text 
x="511" 
y="486" 
class="s7_362"
>])</text>

<text 
x="108" 
y="501" 
class="s6_362"
>users</text>

<text 
x="148" 
y="501" 
class="s7_362"
>[</text>

<text 
x="156" 
y="501" 
class="s6_362"
>target_id</text>

<text 
x="227" 
y="501" 
class="s7_362"
>][</text>

<text 
x="242" 
y="501" 
class="s11_362"
>"endorsed_by"</text>

<text 
x="345" 
y="501" 
class="s7_362"
>].</text>

<text 
x="361" 
y="501" 
class="s6_362"
>append</text>

<text 
x="408" 
y="501" 
class="s7_362"
>(</text>

<text 
x="416" 
y="501" 
class="s6_362"
>users</text>

<text 
x="456" 
y="501" 
class="s7_362"
>[</text>

<text 
x="464" 
y="501" 
class="s6_362"
>source_id</text>

<text 
x="535" 
y="501" 
class="s7_362"
>])</text>

<image preserveAspectRatio="none" x="55" y="534" width="799" height="255" xlink:href="362/img/1.png" />
<text 
x="258" 
y="815" 
dx="0,0,0,0,0,-0.6,0,0,0,0,0,0,0,0,0,0,0,0,0,0,0,0,0,0,0,0,0,0,0,0,0,0,0,0,0,0,0,0,0,0,0,0,0,0,0,0,0,0,0,0,0,0,0,0,0,0" 
class="s13_362"
>Figure 21-5. The DataSciencester network of endorsements</text>

<text 
x="55" 
y="857" 
class="s2_362"
>after which we can easily find the</text>

<text 
x="357" 
y="857" 
class="s4_362"
>most_endorsed</text>

<text 
x="499" 
y="857" 
class="s2_362"
>data scientists and sell that information</text>

<text 
x="55" 
y="886" 
class="s2_362"
>to recruiters:</text>

<text 
x="76" 
y="931" 
class="s6_362"
>endorsements_by_id</text>

<text 
x="227" 
y="931" 
dx="0,0,4.6,0" 
class="s7_362"
>= [(</text>

<text 
x="258" 
y="931" 
class="s6_362"
>user</text>

<text 
x="290" 
y="931" 
class="s7_362"
>[</text>

<text 
x="298" 
y="931" 
class="s11_362"
>"id"</text>

<text 
x="329" 
y="931" 
class="s7_362"
>],</text>

<text 
x="353" 
y="931" 
class="s14_362"
>len</text>

<text 
x="377" 
y="931" 
class="s7_362"
>(</text>

<text 
x="385" 
y="931" 
class="s6_362"
>user</text>

<text 
x="416" 
y="931" 
class="s7_362"
>[</text>

<text 
x="424" 
y="931" 
class="s11_362"
>"endorsed_by"</text>

<text 
x="527" 
y="931" 
class="s7_362"
>]))</text>

<text 
x="250" 
y="947" 
class="s9_362"
>for</text>

<text 
x="282" 
y="947" 
class="s6_362"
>user</text>

<text 
x="322" 
y="947" 
class="s10_362"
>in</text>

<text 
x="345" 
y="947" 
class="s6_362"
>users</text>

<text 
x="385" 
y="947" 
class="s7_362"
>]</text>

<text 
x="76" 
y="978" 
class="s14_362"
>sorted</text>

<text 
x="124" 
y="978" 
class="s7_362"
>(</text>

<text 
x="132" 
y="978" 
class="s6_362"
>endorsements_by_id</text>

<text 
x="274" 
y="978" 
class="s7_362"
>,</text>

<text 
x="132" 
y="993" 
class="s6_362"
>key</text>

<text 
x="156" 
y="993" 
class="s7_362"
>=</text>

<text 
x="163" 
y="993" 
class="s9_362"
>lambda</text>

<text 
x="219" 
y="993" 
class="s7_362"
>(</text>

<text 
x="227" 
y="993" 
class="s6_362"
>user_id</text>

<text 
x="282" 
y="993" 
class="s7_362"
>,</text>

<text 
x="298" 
y="993" 
class="s6_362"
>num_endorsements</text>

<text 
x="424" 
y="993" 
class="s7_362"
>):</text>

<text 
x="448" 
y="993" 
class="s6_362"
>num_endorsements</text>

<text 
x="574" 
y="993" 
class="s7_362"
>,</text>

<text 
x="132" 
y="1008" 
class="s6_362"
>reverse</text>

<text 
x="187" 
y="1008" 
class="s7_362"
>=</text>

<text 
x="195" 
y="1008" 
class="s14_362"
>True</text>

<text 
x="227" 
y="1008" 
class="s7_362"
>)</text>

<text 
x="55" 
y="1061" 
dx="0,0,0,0,0,0,0,-0.9,0,0,0,0,0,0,0,0,0,0,0,0,0,0,0,0,0,0,0,0,0,0,0,0,0,0,0,0,0,0,0,0,0,0,0,0,0,0,0,0,0,0,0,0,0,0,0,0,0,0,0,0,0,0,0,0,0,0,0,0,0,0,0,0,0,0,0,0,0,0,0,0,0,0" 
class="s2_362"
>However, “number of endorsements” is an easy metric to game. All you need to do is</text>

<text 
x="55" 
y="1089" 
class="s2_362"
>create phony accounts and have them endorse you. Or arrange with your friends to</text>

<text 
x="55" 
y="1116" 
dx="0,0,0,0,0,0,0,0,0,0,0,0,0,0,0,0,0,0,-1.2,0,0,0,0,0,0,0,0,0,0,0,0,0,0,0,0,0,0,0,0,0,0,0,0,0,0,0,0,0,0,0,0,0,0,0,0,0,0,0,0,0,0" 
class="s2_362"
>endorse each other. (As users 0, 1, and 2 seem to have done.)</text>

<text 
x="55" 
y="1155" 
dx="0,0,-1.2,0,0,0,0,0,0,0,0,0,0,0,0,0,0,0,0,0,0,0,0,0,0,0,0,0,0,0,0,0,0,0,0,0,0,0,0" 
class="s2_362"
>A better metric would take into account</text>

<text 
x="408" 
y="1155" 
class="s3_362"
>who</text>

<text 
x="450" 
y="1155" 
class="s2_362"
>endorses you. Endorsements from people</text>

<text 
x="55" 
y="1182" 
class="s2_362"
>who have a lot of endorsements should somehow count more than endorsements from</text>

<text 
x="55" 
y="1210" 
class="s2_362"
>people with few endorsements. This is the essence of the PageRank algorithm, used by</text>



<!-- Any embedded fonts defined here -->
<style type="text/css" ><![CDATA[

@font-face {
	font-family: LiberationSerif-Italic_l;
	src: url("fonts/LiberationSerif-Italic_l.woff") format("woff");
}

@font-face {
	font-family: LiberationMono-Bold_1w;
	src: url("fonts/LiberationMono-Bold_1w.woff") format("woff");
}

@font-face {
	font-family: LiberationMono_1q;
	src: url("fonts/LiberationMono_1q.woff") format("woff");
}

@font-face {
	font-family: LiberationMono-Italic_10;
	src: url("fonts/LiberationMono-Italic_10.woff") format("woff");
}

@font-face {
	font-family: LiberationSerif-Bold_b;
	src: url("fonts/LiberationSerif-Bold_b.woff") format("woff");
}

@font-face {
	font-family: LiberationSerif_e;
	src: url("fonts/LiberationSerif_e.woff") format("woff");
}

]]></style>

</svg>
