<?xml version="1.0" encoding="UTF-8" standalone="no"?>
<!DOCTYPE svg PUBLIC "-//W3C//DTD SVG 1.1//EN"
"http://www.w3.org/Graphics/SVG/1.1/DTD/svg11.dtd">


<!-- Page 366 -->
<svg x="0" y="0" width="909" height="1286" viewBox="0 0 909 1286" version="1.1" xmlns="http://www.w3.org/2000/svg" xmlns:xlink="http://www.w3.org/1999/xlink"
style="display: block;margin-left: auto;margin-right: auto;">
<defs>

<style type="text/css"><![CDATA[

.g1_366{
}

.s1_366{
font-size: 44.01px;
font-family: LiberationSerif-Bold_b;
fill: #000000;
}
.s2_366{
font-size: 22.01px;
font-family: LiberationSerif_e;
fill: #000000;
}
.s3_366{
font-size: 22.01px;
font-family: LiberationSerif-Italic_l;
fill: #000000;
}
.s4_366{
font-size: 17.60px;
font-family: LiberationMono_1q;
fill: #000000;
}
.s5_366{
font-size: 13.20px;
font-family: LiberationMono_1q;
fill: #000088;
}
.s6_366{
font-size: 13.20px;
font-family: LiberationMono_1q;
fill: #000000;
}
.s7_366{
font-size: 13.20px;
font-family: LiberationMono_1q;
fill: #CC3300;
}

]]></style>

</defs>
<path d="M0,0
L0,1286
L909,1286
L909,0 Z " 
fill="#FFFFFF" stroke="none" />
<path d="M55,117.7l799.4,0l0,1.1L55,118.8l0,-1.1Z" class="g1_366" />
<text 
x="55" 
y="94" 
dx="0,0,0,0,0,0,0,0,-0.8,0,0,0,0,0,0,0,0,0,0,0,0,0,0,0,-0.8,0,0,0,0,0,0" 
class="s1_366"
>Chapter 22. Recommender Systems</text>

<text 
x="65" 
y="193" 
class="s2_366"
>O nature, nature, why art thou so dishonest, as ever to send men with these false</text>

<text 
x="65" 
y="218" 
class="s2_366"
>recommendations into the world!</text>

<text 
x="65" 
y="255" 
class="s2_366"
>Henry Fielding</text>

<text 
x="55" 
y="292" 
class="s2_366"
>Another common data problem is producing</text>

<text 
x="450" 
y="292" 
dx="0,-0.8,0,0,0,0,0,0,0,0,0,0,0,0,0" 
class="s3_366"
>recommendations</text>

<text 
x="611" 
y="292" 
class="s2_366"
>of some sort. Netflix</text>

<text 
x="55" 
y="320" 
class="s2_366"
>recommends movies you might want to watch. Amazon recommends products you might</text>

<text 
x="55" 
y="347" 
dx="0,0,0,0,0,0,0,0,0,0,0,-1.4,0,0,-1.6,0,0,0,0,0,0,0,0,0,0,0,0,0,0,0,0,0,0,0,0,0,0,0,0,0,0,0,0,0,0,0,0,0,0,0,0,0,0,0,0,0,0,0,0,0,0,0,-1.4,0,0,0,0,0,0,0,0,0,0,0,0,0,0,0,0,-0.9,0,0,0,0,0,0" 
class="s2_366"
>want to buy. Twitter recommends users you might want to follow. In this chapter, we’ll</text>

<text 
x="55" 
y="375" 
class="s2_366"
>look at several ways to use data to make recommendations.</text>

<text 
x="55" 
y="413" 
dx="0,0,0,0,0,0,0,0,0,0,0,0,0,-0.9,0,0,0,0,0,0,0,0,0,0,0,0,0,0,0,0,0,0,0,0,0,0,0,0,0,0,0,0,0,0" 
class="s2_366"
>In particular, we’ll look at the data set of</text>

<text 
x="417" 
y="413" 
class="s4_366"
>users_interests</text>

<text 
x="581" 
y="413" 
class="s2_366"
>that we’ve used before:</text>

<text 
x="76" 
y="461" 
class="s5_366"
>users_interests</text>

<text 
x="203" 
y="461" 
dx="0,0,4.6" 
class="s6_366"
>= [</text>

<text 
x="108" 
y="476" 
class="s6_366"
>[</text>

<text 
x="116" 
y="476" 
class="s7_366"
>"Hadoop"</text>

<text 
x="179" 
y="476" 
class="s6_366"
>,</text>

<text 
x="195" 
y="476" 
dx="0,0,0,0,0,4.6,0,0,0,0" 
class="s7_366"
>"Big Data"</text>

<text 
x="274" 
y="476" 
class="s6_366"
>,</text>

<text 
x="290" 
y="476" 
class="s7_366"
>"HBase"</text>

<text 
x="345" 
y="476" 
class="s6_366"
>,</text>

<text 
x="361" 
y="476" 
class="s7_366"
>"Java"</text>

<text 
x="408" 
y="476" 
class="s6_366"
>,</text>

<text 
x="424" 
y="476" 
class="s7_366"
>"Spark"</text>

<text 
x="480" 
y="476" 
class="s6_366"
>,</text>

<text 
x="495" 
y="476" 
class="s7_366"
>"Storm"</text>

<text 
x="551" 
y="476" 
class="s6_366"
>,</text>

<text 
x="567" 
y="476" 
class="s7_366"
>"Cassandra"</text>

<text 
x="653" 
y="476" 
class="s6_366"
>],</text>

<text 
x="108" 
y="491" 
class="s6_366"
>[</text>

<text 
x="116" 
y="491" 
class="s7_366"
>"NoSQL"</text>

<text 
x="171" 
y="491" 
class="s6_366"
>,</text>

<text 
x="187" 
y="491" 
class="s7_366"
>"MongoDB"</text>

<text 
x="258" 
y="491" 
class="s6_366"
>,</text>

<text 
x="274" 
y="491" 
class="s7_366"
>"Cassandra"</text>

<text 
x="361" 
y="491" 
class="s6_366"
>,</text>

<text 
x="377" 
y="491" 
class="s7_366"
>"HBase"</text>

<text 
x="432" 
y="491" 
class="s6_366"
>,</text>

<text 
x="448" 
y="491" 
class="s7_366"
>"Postgres"</text>

<text 
x="527" 
y="491" 
class="s6_366"
>],</text>

<text 
x="108" 
y="507" 
class="s6_366"
>[</text>

<text 
x="116" 
y="507" 
class="s7_366"
>"Python"</text>

<text 
x="179" 
y="507" 
class="s6_366"
>,</text>

<text 
x="195" 
y="507" 
class="s7_366"
>"scikit-learn"</text>

<text 
x="306" 
y="507" 
class="s6_366"
>,</text>

<text 
x="322" 
y="507" 
class="s7_366"
>"scipy"</text>

<text 
x="377" 
y="507" 
class="s6_366"
>,</text>

<text 
x="393" 
y="507" 
class="s7_366"
>"numpy"</text>

<text 
x="448" 
y="507" 
class="s6_366"
>,</text>

<text 
x="464" 
y="507" 
class="s7_366"
>"statsmodels"</text>

<text 
x="567" 
y="507" 
class="s6_366"
>,</text>

<text 
x="582" 
y="507" 
class="s7_366"
>"pandas"</text>

<text 
x="646" 
y="507" 
class="s6_366"
>],</text>

<text 
x="108" 
y="522" 
class="s6_366"
>[</text>

<text 
x="116" 
y="522" 
class="s7_366"
>"R"</text>

<text 
x="140" 
y="522" 
class="s6_366"
>,</text>

<text 
x="156" 
y="522" 
class="s7_366"
>"Python"</text>

<text 
x="219" 
y="522" 
class="s6_366"
>,</text>

<text 
x="235" 
y="522" 
class="s7_366"
>"statistics"</text>

<text 
x="329" 
y="522" 
class="s6_366"
>,</text>

<text 
x="345" 
y="522" 
class="s7_366"
>"regression"</text>

<text 
x="440" 
y="522" 
class="s6_366"
>,</text>

<text 
x="456" 
y="522" 
class="s7_366"
>"probability"</text>

<text 
x="559" 
y="522" 
class="s6_366"
>],</text>

<text 
x="108" 
y="538" 
class="s6_366"
>[</text>

<text 
x="116" 
y="538" 
dx="0,0,0,0,0,0,0,0,0,4.6,0,0,0,0,0,0,0,0" 
class="s7_366"
>"machine learning"</text>

<text 
x="258" 
y="538" 
class="s6_366"
>,</text>

<text 
x="274" 
y="538" 
class="s7_366"
>"regression"</text>

<text 
x="369" 
y="538" 
class="s6_366"
>,</text>

<text 
x="385" 
y="538" 
dx="0,0,0,0,0,0,0,0,0,0,4.6,0,0,0,0,0" 
class="s7_366"
>"decision trees"</text>

<text 
x="511" 
y="538" 
class="s6_366"
>,</text>

<text 
x="527" 
y="538" 
class="s7_366"
>"libsvm"</text>

<text 
x="590" 
y="538" 
class="s6_366"
>],</text>

<text 
x="108" 
y="553" 
class="s6_366"
>[</text>

<text 
x="116" 
y="553" 
class="s7_366"
>"Python"</text>

<text 
x="179" 
y="553" 
class="s6_366"
>,</text>

<text 
x="195" 
y="553" 
class="s7_366"
>"R"</text>

<text 
x="219" 
y="553" 
class="s6_366"
>,</text>

<text 
x="235" 
y="553" 
class="s7_366"
>"Java"</text>

<text 
x="282" 
y="553" 
class="s6_366"
>,</text>

<text 
x="298" 
y="553" 
class="s7_366"
>"C++"</text>

<text 
x="337" 
y="553" 
class="s6_366"
>,</text>

<text 
x="353" 
y="553" 
class="s7_366"
>"Haskell"</text>

<text 
x="424" 
y="553" 
class="s6_366"
>,</text>

<text 
x="440" 
y="553" 
dx="0,0,0,0,0,0,0,0,0,0,0,0,0,4.6,0,0,0,0,0,0,0,0,0" 
class="s7_366"
>"programming languages"</text>

<text 
x="622" 
y="553" 
class="s6_366"
>],</text>

<text 
x="108" 
y="568" 
class="s6_366"
>[</text>

<text 
x="116" 
y="568" 
class="s7_366"
>"statistics"</text>

<text 
x="211" 
y="568" 
class="s6_366"
>,</text>

<text 
x="227" 
y="568" 
class="s7_366"
>"probability"</text>

<text 
x="329" 
y="568" 
class="s6_366"
>,</text>

<text 
x="345" 
y="568" 
class="s7_366"
>"mathematics"</text>

<text 
x="448" 
y="568" 
class="s6_366"
>,</text>

<text 
x="464" 
y="568" 
class="s7_366"
>"theory"</text>

<text 
x="527" 
y="568" 
class="s6_366"
>],</text>

<text 
x="108" 
y="584" 
class="s6_366"
>[</text>

<text 
x="116" 
y="584" 
dx="0,0,0,0,0,0,0,0,0,4.6,0,0,0,0,0,0,0,0" 
class="s7_366"
>"machine learning"</text>

<text 
x="258" 
y="584" 
class="s6_366"
>,</text>

<text 
x="274" 
y="584" 
class="s7_366"
>"scikit-learn"</text>

<text 
x="385" 
y="584" 
class="s6_366"
>,</text>

<text 
x="401" 
y="584" 
class="s7_366"
>"Mahout"</text>

<text 
x="464" 
y="584" 
class="s6_366"
>,</text>

<text 
x="480" 
y="584" 
dx="0,0,0,0,0,0,0,0,4.6,0,0,0,0,0,0,0,0" 
class="s7_366"
>"neural networks"</text>

<text 
x="614" 
y="584" 
class="s6_366"
>],</text>

<text 
x="108" 
y="599" 
class="s6_366"
>[</text>

<text 
x="116" 
y="599" 
dx="0,0,0,0,0,0,0,0,4.6,0,0,0,0,0,0,0,0" 
class="s7_366"
>"neural networks"</text>

<text 
x="250" 
y="599" 
class="s6_366"
>,</text>

<text 
x="266" 
y="599" 
dx="0,0,0,0,0,0,4.6,0,0,0,0,0,0,0,0" 
class="s7_366"
>"deep learning"</text>

<text 
x="385" 
y="599" 
class="s6_366"
>,</text>

<text 
x="401" 
y="599" 
dx="0,0,0,0,0,4.6,0,0,0,0" 
class="s7_366"
>"Big Data"</text>

<text 
x="480" 
y="599" 
class="s6_366"
>,</text>

<text 
x="495" 
y="599" 
dx="0,0,0,0,0,0,0,0,0,0,0,0,4.6,0,0,0,0,0,0,0,0,0,0,0,0" 
class="s7_366"
>"artificial intelligence"</text>

<text 
x="693" 
y="599" 
class="s6_366"
>],</text>

<text 
x="108" 
y="615" 
class="s6_366"
>[</text>

<text 
x="116" 
y="615" 
class="s7_366"
>"Hadoop"</text>

<text 
x="179" 
y="615" 
class="s6_366"
>,</text>

<text 
x="195" 
y="615" 
class="s7_366"
>"Java"</text>

<text 
x="242" 
y="615" 
class="s6_366"
>,</text>

<text 
x="258" 
y="615" 
class="s7_366"
>"MapReduce"</text>

<text 
x="345" 
y="615" 
class="s6_366"
>,</text>

<text 
x="361" 
y="615" 
dx="0,0,0,0,0,4.6,0,0,0,0" 
class="s7_366"
>"Big Data"</text>

<text 
x="440" 
y="615" 
class="s6_366"
>],</text>

<text 
x="108" 
y="630" 
class="s6_366"
>[</text>

<text 
x="116" 
y="630" 
class="s7_366"
>"statistics"</text>

<text 
x="211" 
y="630" 
class="s6_366"
>,</text>

<text 
x="227" 
y="630" 
class="s7_366"
>"R"</text>

<text 
x="250" 
y="630" 
class="s6_366"
>,</text>

<text 
x="266" 
y="630" 
class="s7_366"
>"statsmodels"</text>

<text 
x="369" 
y="630" 
class="s6_366"
>],</text>

<text 
x="108" 
y="645" 
class="s6_366"
>[</text>

<text 
x="116" 
y="645" 
class="s7_366"
>"C++"</text>

<text 
x="156" 
y="645" 
class="s6_366"
>,</text>

<text 
x="171" 
y="645" 
dx="0,0,0,0,0,0,4.6,0,0,0,0,0,0,0,0" 
class="s7_366"
>"deep learning"</text>

<text 
x="290" 
y="645" 
class="s6_366"
>,</text>

<text 
x="306" 
y="645" 
dx="0,0,0,0,0,0,0,0,0,0,0,0,4.6,0,0,0,0,0,0,0,0,0,0,0,0" 
class="s7_366"
>"artificial intelligence"</text>

<text 
x="503" 
y="645" 
class="s6_366"
>,</text>

<text 
x="519" 
y="645" 
class="s7_366"
>"probability"</text>

<text 
x="622" 
y="645" 
class="s6_366"
>],</text>

<text 
x="108" 
y="661" 
class="s6_366"
>[</text>

<text 
x="116" 
y="661" 
class="s7_366"
>"pandas"</text>

<text 
x="179" 
y="661" 
class="s6_366"
>,</text>

<text 
x="195" 
y="661" 
class="s7_366"
>"R"</text>

<text 
x="219" 
y="661" 
class="s6_366"
>,</text>

<text 
x="235" 
y="661" 
class="s7_366"
>"Python"</text>

<text 
x="298" 
y="661" 
class="s6_366"
>],</text>

<text 
x="108" 
y="676" 
class="s6_366"
>[</text>

<text 
x="116" 
y="676" 
class="s7_366"
>"databases"</text>

<text 
x="203" 
y="676" 
class="s6_366"
>,</text>

<text 
x="219" 
y="676" 
class="s7_366"
>"HBase"</text>

<text 
x="274" 
y="676" 
class="s6_366"
>,</text>

<text 
x="290" 
y="676" 
class="s7_366"
>"Postgres"</text>

<text 
x="369" 
y="676" 
class="s6_366"
>,</text>

<text 
x="385" 
y="676" 
class="s7_366"
>"MySQL"</text>

<text 
x="440" 
y="676" 
class="s6_366"
>,</text>

<text 
x="456" 
y="676" 
class="s7_366"
>"MongoDB"</text>

<text 
x="527" 
y="676" 
class="s6_366"
>],</text>

<text 
x="108" 
y="692" 
class="s6_366"
>[</text>

<text 
x="116" 
y="692" 
class="s7_366"
>"libsvm"</text>

<text 
x="179" 
y="692" 
class="s6_366"
>,</text>

<text 
x="195" 
y="692" 
class="s7_366"
>"regression"</text>

<text 
x="290" 
y="692" 
class="s6_366"
>,</text>

<text 
x="306" 
y="692" 
dx="0,0,0,0,0,0,0,0,0,4.6,0,0,0,0,0,0,4.6,0,0,0,0,0,0,0,0" 
class="s7_366"
>"support vector machines"</text>

<text 
x="503" 
y="692" 
class="s6_366"
>]</text>

<text 
x="76" 
y="707" 
class="s6_366"
>]</text>

<text 
x="55" 
y="760" 
class="s2_366"
>And we’ll think about the problem of recommending new interests to a user based on her</text>

<text 
x="55" 
y="787" 
class="s2_366"
>currently specified interests.</text>



<!-- Any embedded fonts defined here -->
<style type="text/css" ><![CDATA[

@font-face {
	font-family: LiberationSerif-Italic_l;
	src: url("fonts/LiberationSerif-Italic_l.woff") format("woff");
}

@font-face {
	font-family: LiberationMono_1q;
	src: url("fonts/LiberationMono_1q.woff") format("woff");
}

@font-face {
	font-family: LiberationSerif-Bold_b;
	src: url("fonts/LiberationSerif-Bold_b.woff") format("woff");
}

@font-face {
	font-family: LiberationSerif_e;
	src: url("fonts/LiberationSerif_e.woff") format("woff");
}

]]></style>

</svg>
