<?xml version="1.0" encoding="UTF-8" standalone="no"?>
<!DOCTYPE svg PUBLIC "-//W3C//DTD SVG 1.1//EN"
"http://www.w3.org/Graphics/SVG/1.1/DTD/svg11.dtd">


<!-- Page 372 -->
<svg x="0" y="0" width="909" height="1286" viewBox="0 0 909 1286" version="1.1" xmlns="http://www.w3.org/2000/svg" xmlns:xlink="http://www.w3.org/1999/xlink"
style="display: block;margin-left: auto;margin-right: auto;">
<defs>

<style type="text/css"><![CDATA[


.s1_372{
font-size: 30.81px;
font-family: LiberationSerif-Bold_b;
fill: #8E0012;
}
.s2_372{
font-size: 22.01px;
font-family: LiberationSerif_e;
fill: #000000;
}
.s3_372{
font-size: 22.01px;
font-family: LiberationSerif-Italic_l;
fill: #000000;
}
.s4_372{
font-size: 13.20px;
font-family: LiberationMono_1q;
fill: #000088;
}
.s5_372{
font-size: 13.20px;
font-family: LiberationMono_1q;
fill: #000000;
}
.s6_372{
font-size: 13.20px;
font-family: LiberationMono-Bold_1w;
fill: #006699;
}
.s7_372{
font-size: 13.20px;
font-family: LiberationMono-Bold_1w;
fill: #000000;
}
.s8_372{
font-size: 13.20px;
font-family: LiberationMono_1q;
fill: #336666;
}
.s9_372{
font-size: 17.60px;
font-family: LiberationMono_1q;
fill: #000000;
}
.s10_372{
font-size: 13.20px;
font-family: LiberationMono_1q;
fill: #FF6600;
}
.s11_372{
font-size: 13.20px;
font-family: LiberationMono_1q;
fill: #CC00FF;
}
.s12_372{
font-size: 13.20px;
font-family: LiberationMono_1q;
fill: #CC3300;
}

]]></style>

</defs>
<path d="M0,0
L0,1286
L909,1286
L909,0 Z " 
fill="#FFFFFF" stroke="none" />
<text 
x="55" 
y="81" 
class="s1_372"
>Item-Based Collaborative Filtering</text>

<text 
x="55" 
y="122" 
dx="0,0,0,0,0,0,0,0,0,0,0,0,0,0,0,0,0,0,0,0,0,0,0,0,0,0,0,0,0,0,0,0,0,0,0,0,0,0,0,0,0,0,0,0,0,0,0,0,0,0,0,0,0,0,0,0,0,0,0,0,0,0,0,0,0,0,0,0,0,0,0,0,0,0,0,0,0,-1.4,0,0,-1.8,0,0,0,0,0,0,0,0,0" 
class="s2_372"
>An alternative approach is to compute similarities between interests directly. We can then</text>

<text 
x="55" 
y="149" 
class="s2_372"
>generate suggestions for each user by aggregating interests that are similar to her current</text>

<text 
x="55" 
y="177" 
class="s2_372"
>interests.</text>

<text 
x="55" 
y="215" 
dx="0,-1.6,0,0,0,0,0,0,0,0,0,0,0,0,0,0,0,0,0,0,0,0,0,0,0,0,0,0" 
class="s2_372"
>To start with, we’ll want to</text>

<text 
x="298" 
y="215" 
class="s3_372"
>transpose</text>

<text 
x="389" 
y="215" 
dx="0,0,0,0,0,0,0,0,-0.5,0,0,0,0,0,0,0,0,0,0,0,0,0,0,0,0,0,0,0,0,0,0,0,0,0,0,0,0,0,0,0,0,0,0,0,0,0,0,0,0,0,0" 
class="s2_372"
>our user-interest matrix so that rows correspond to</text>

<text 
x="55" 
y="243" 
class="s2_372"
>interests and columns correspond to users:</text>

<text 
x="76" 
y="288" 
class="s4_372"
>interest_user_matrix</text>

<text 
x="242" 
y="288" 
dx="0,0,4.6,0" 
class="s5_372"
>= [[</text>

<text 
x="274" 
y="288" 
class="s4_372"
>user_interest_vector</text>

<text 
x="432" 
y="288" 
class="s5_372"
>[</text>

<text 
x="440" 
y="288" 
class="s4_372"
>j</text>

<text 
x="448" 
y="288" 
class="s5_372"
>]</text>

<text 
x="274" 
y="303" 
class="s6_372"
>for</text>

<text 
x="306" 
y="303" 
class="s4_372"
>user_interest_vector</text>

<text 
x="472" 
y="303" 
class="s7_372"
>in</text>

<text 
x="495" 
y="303" 
class="s4_372"
>user_interest_matrix</text>

<text 
x="653" 
y="303" 
class="s5_372"
>]</text>

<text 
x="266" 
y="319" 
class="s6_372"
>for</text>

<text 
x="298" 
y="319" 
class="s4_372"
>j</text>

<text 
x="306" 
y="319" 
class="s5_372"
>,</text>

<text 
x="322" 
y="319" 
class="s4_372"
>_</text>

<text 
x="337" 
y="319" 
class="s7_372"
>in</text>

<text 
x="361" 
y="319" 
class="s8_372"
>enumerate</text>

<text 
x="432" 
y="319" 
class="s5_372"
>(</text>

<text 
x="440" 
y="319" 
class="s4_372"
>unique_interests</text>

<text 
x="567" 
y="319" 
class="s5_372"
>)]</text>

<text 
x="55" 
y="371" 
class="s2_372"
>What does this look like? Row</text>

<text 
x="330" 
y="371" 
class="s9_372"
>j</text>

<text 
x="347" 
y="371" 
class="s2_372"
>of</text>

<text 
x="370" 
y="371" 
class="s9_372"
>interest_user_matrix</text>

<text 
x="587" 
y="371" 
class="s2_372"
>is column</text>

<text 
x="678" 
y="371" 
class="s9_372"
>j</text>

<text 
x="694" 
y="371" 
class="s2_372"
>of</text>

<text 
x="55" 
y="401" 
class="s9_372"
>user_interest_matrix</text>

<text 
x="265" 
y="401" 
class="s2_372"
>. That is, it has 1 for each user with that interest and 0 for each</text>

<text 
x="55" 
y="431" 
class="s2_372"
>user without that interest.</text>

<text 
x="55" 
y="469" 
class="s2_372"
>For example,</text>

<text 
x="176" 
y="469" 
class="s9_372"
>unique_interests[0]</text>

<text 
x="382" 
y="469" 
class="s2_372"
>is Big Data, and so</text>

<text 
x="554" 
y="469" 
class="s9_372"
>interest_user_matrix[0]</text>

<text 
x="802" 
y="469" 
class="s2_372"
>is:</text>

<text 
x="76" 
y="517" 
class="s5_372"
>[</text>

<text 
x="84" 
y="517" 
class="s10_372"
>1</text>

<text 
x="92" 
y="517" 
class="s5_372"
>,</text>

<text 
x="108" 
y="517" 
class="s10_372"
>0</text>

<text 
x="116" 
y="517" 
class="s5_372"
>,</text>

<text 
x="132" 
y="517" 
class="s10_372"
>0</text>

<text 
x="140" 
y="517" 
class="s5_372"
>,</text>

<text 
x="156" 
y="517" 
class="s10_372"
>0</text>

<text 
x="163" 
y="517" 
class="s5_372"
>,</text>

<text 
x="179" 
y="517" 
class="s10_372"
>0</text>

<text 
x="187" 
y="517" 
class="s5_372"
>,</text>

<text 
x="203" 
y="517" 
class="s10_372"
>0</text>

<text 
x="211" 
y="517" 
class="s5_372"
>,</text>

<text 
x="227" 
y="517" 
class="s10_372"
>0</text>

<text 
x="235" 
y="517" 
class="s5_372"
>,</text>

<text 
x="250" 
y="517" 
class="s10_372"
>0</text>

<text 
x="258" 
y="517" 
class="s5_372"
>,</text>

<text 
x="274" 
y="517" 
class="s10_372"
>1</text>

<text 
x="282" 
y="517" 
class="s5_372"
>,</text>

<text 
x="298" 
y="517" 
class="s10_372"
>1</text>

<text 
x="306" 
y="517" 
class="s5_372"
>,</text>

<text 
x="322" 
y="517" 
class="s10_372"
>0</text>

<text 
x="329" 
y="517" 
class="s5_372"
>,</text>

<text 
x="345" 
y="517" 
class="s10_372"
>0</text>

<text 
x="353" 
y="517" 
class="s5_372"
>,</text>

<text 
x="369" 
y="517" 
class="s10_372"
>0</text>

<text 
x="377" 
y="517" 
class="s5_372"
>,</text>

<text 
x="393" 
y="517" 
class="s10_372"
>0</text>

<text 
x="401" 
y="517" 
class="s5_372"
>,</text>

<text 
x="416" 
y="517" 
class="s10_372"
>0</text>

<text 
x="424" 
y="517" 
class="s5_372"
>]</text>

<text 
x="55" 
y="569" 
class="s2_372"
>because users 0, 8, and 9 indicated interest in Big Data.</text>

<text 
x="55" 
y="608" 
dx="0,-1.8,0,0,0,0,0,0,0,0,0,0,0,0,0,0,0,0,0,0,0,0,0,0,0,0,0,0,0,0,0,0,0,0,0,0,0,0,0,0,0,0,0,0,0,0,0,0,0,0,0,0,0,0,0,0,0,0,0,0,0,0,0,0,0,0,0,0,0,0,0,0,0,0,0,0,0,0,0,0,0,0,0,0,0,0,0,0,0" 
class="s2_372"
>We can now use cosine similarity again. If precisely the same users are interested in two</text>

<text 
x="55" 
y="635" 
class="s2_372"
>topics, their similarity will be 1. If no two users are interested in both topics, their</text>

<text 
x="55" 
y="663" 
class="s2_372"
>similarity will be 0:</text>

<text 
x="76" 
y="708" 
class="s4_372"
>interest_similarities</text>

<text 
x="250" 
y="708" 
dx="0,0,4.6,0" 
class="s5_372"
>= [[</text>

<text 
x="282" 
y="708" 
class="s4_372"
>cosine_similarity</text>

<text 
x="416" 
y="708" 
class="s5_372"
>(</text>

<text 
x="424" 
y="708" 
class="s4_372"
>user_vector_i</text>

<text 
x="527" 
y="708" 
class="s5_372"
>,</text>

<text 
x="543" 
y="708" 
class="s4_372"
>user_vector_j</text>

<text 
x="646" 
y="708" 
class="s5_372"
>)</text>

<text 
x="282" 
y="723" 
class="s6_372"
>for</text>

<text 
x="314" 
y="723" 
class="s4_372"
>user_vector_j</text>

<text 
x="424" 
y="723" 
class="s7_372"
>in</text>

<text 
x="448" 
y="723" 
class="s4_372"
>interest_user_matrix</text>

<text 
x="606" 
y="723" 
class="s5_372"
>]</text>

<text 
x="274" 
y="739" 
class="s6_372"
>for</text>

<text 
x="306" 
y="739" 
class="s4_372"
>user_vector_i</text>

<text 
x="416" 
y="739" 
class="s7_372"
>in</text>

<text 
x="440" 
y="739" 
class="s4_372"
>interest_user_matrix</text>

<text 
x="598" 
y="739" 
class="s5_372"
>]</text>

<text 
x="55" 
y="792" 
class="s2_372"
>For example, we can find the interests most similar to Big Data (interest 0) using:</text>

<text 
x="76" 
y="837" 
class="s6_372"
>def</text>

<text 
x="108" 
y="837" 
class="s11_372"
>most_similar_interests_to</text>

<text 
x="306" 
y="837" 
class="s5_372"
>(</text>

<text 
x="314" 
y="837" 
class="s4_372"
>interest_id</text>

<text 
x="401" 
y="837" 
class="s5_372"
>):</text>

<text 
x="108" 
y="852" 
class="s4_372"
>similarities</text>

<text 
x="211" 
y="852" 
class="s5_372"
>=</text>

<text 
x="227" 
y="852" 
class="s4_372"
>interest_similarities</text>

<text 
x="393" 
y="852" 
class="s5_372"
>[</text>

<text 
x="401" 
y="852" 
class="s4_372"
>interest_id</text>

<text 
x="487" 
y="852" 
class="s5_372"
>]</text>

<text 
x="108" 
y="868" 
class="s4_372"
>pairs</text>

<text 
x="156" 
y="868" 
dx="0,0,4.6,0" 
class="s5_372"
>= [(</text>

<text 
x="187" 
y="868" 
class="s4_372"
>unique_interests</text>

<text 
x="314" 
y="868" 
class="s5_372"
>[</text>

<text 
x="322" 
y="868" 
class="s4_372"
>other_interest_id</text>

<text 
x="456" 
y="868" 
class="s5_372"
>],</text>

<text 
x="480" 
y="868" 
class="s4_372"
>similarity</text>

<text 
x="559" 
y="868" 
class="s5_372"
>)</text>

<text 
x="179" 
y="883" 
class="s6_372"
>for</text>

<text 
x="211" 
y="883" 
class="s4_372"
>other_interest_id</text>

<text 
x="345" 
y="883" 
class="s5_372"
>,</text>

<text 
x="361" 
y="883" 
class="s4_372"
>similarity</text>

<text 
x="448" 
y="883" 
class="s7_372"
>in</text>

<text 
x="472" 
y="883" 
class="s8_372"
>enumerate</text>

<text 
x="543" 
y="883" 
class="s5_372"
>(</text>

<text 
x="551" 
y="883" 
class="s4_372"
>similarities</text>

<text 
x="646" 
y="883" 
class="s5_372"
>)</text>

<text 
x="179" 
y="898" 
class="s6_372"
>if</text>

<text 
x="203" 
y="898" 
class="s4_372"
>interest_id</text>

<text 
x="298" 
y="898" 
class="s5_372"
>!=</text>

<text 
x="322" 
y="898" 
class="s4_372"
>other_interest_id</text>

<text 
x="464" 
y="898" 
class="s7_372"
>and</text>

<text 
x="495" 
y="898" 
class="s4_372"
>similarity</text>

<text 
x="582" 
y="898" 
class="s5_372"
>&gt;</text>

<text 
x="598" 
y="898" 
class="s10_372"
>0</text>

<text 
x="606" 
y="898" 
class="s5_372"
>]</text>

<text 
x="108" 
y="914" 
class="s6_372"
>return</text>

<text 
x="163" 
y="914" 
class="s8_372"
>sorted</text>

<text 
x="211" 
y="914" 
class="s5_372"
>(</text>

<text 
x="219" 
y="914" 
class="s4_372"
>pairs</text>

<text 
x="258" 
y="914" 
class="s5_372"
>,</text>

<text 
x="219" 
y="929" 
class="s4_372"
>key</text>

<text 
x="242" 
y="929" 
class="s5_372"
>=</text>

<text 
x="250" 
y="929" 
class="s6_372"
>lambda</text>

<text 
x="306" 
y="929" 
class="s5_372"
>(</text>

<text 
x="314" 
y="929" 
class="s4_372"
>_</text>

<text 
x="322" 
y="929" 
class="s5_372"
>,</text>

<text 
x="337" 
y="929" 
class="s4_372"
>similarity</text>

<text 
x="416" 
y="929" 
class="s5_372"
>):</text>

<text 
x="440" 
y="929" 
class="s4_372"
>similarity</text>

<text 
x="519" 
y="929" 
class="s5_372"
>,</text>

<text 
x="219" 
y="945" 
class="s4_372"
>reverse</text>

<text 
x="274" 
y="945" 
class="s5_372"
>=</text>

<text 
x="282" 
y="945" 
class="s8_372"
>True</text>

<text 
x="314" 
y="945" 
class="s5_372"
>)</text>

<text 
x="55" 
y="997" 
class="s2_372"
>which suggests the following similar interests:</text>

<text 
x="76" 
y="1043" 
class="s5_372"
>[(</text>

<text 
x="92" 
y="1043" 
class="s12_372"
>'Hadoop'</text>

<text 
x="156" 
y="1043" 
class="s5_372"
>,</text>

<text 
x="171" 
y="1043" 
class="s10_372"
>0.8164965809277261</text>

<text 
x="314" 
y="1043" 
class="s5_372"
>),</text>

<text 
x="84" 
y="1058" 
class="s5_372"
>(</text>

<text 
x="92" 
y="1058" 
class="s12_372"
>'Java'</text>

<text 
x="140" 
y="1058" 
class="s5_372"
>,</text>

<text 
x="156" 
y="1058" 
class="s10_372"
>0.6666666666666666</text>

<text 
x="298" 
y="1058" 
class="s5_372"
>),</text>

<text 
x="84" 
y="1073" 
class="s5_372"
>(</text>

<text 
x="92" 
y="1073" 
class="s12_372"
>'MapReduce'</text>

<text 
x="179" 
y="1073" 
class="s5_372"
>,</text>

<text 
x="195" 
y="1073" 
class="s10_372"
>0.5773502691896258</text>

<text 
x="337" 
y="1073" 
class="s5_372"
>),</text>

<text 
x="84" 
y="1089" 
class="s5_372"
>(</text>

<text 
x="92" 
y="1089" 
class="s12_372"
>'Spark'</text>

<text 
x="148" 
y="1089" 
class="s5_372"
>,</text>

<text 
x="163" 
y="1089" 
class="s10_372"
>0.5773502691896258</text>

<text 
x="306" 
y="1089" 
class="s5_372"
>),</text>

<text 
x="84" 
y="1104" 
class="s5_372"
>(</text>

<text 
x="92" 
y="1104" 
class="s12_372"
>'Storm'</text>

<text 
x="148" 
y="1104" 
class="s5_372"
>,</text>

<text 
x="163" 
y="1104" 
class="s10_372"
>0.5773502691896258</text>

<text 
x="306" 
y="1104" 
class="s5_372"
>),</text>

<text 
x="84" 
y="1120" 
class="s5_372"
>(</text>

<text 
x="92" 
y="1120" 
class="s12_372"
>'Cassandra'</text>

<text 
x="179" 
y="1120" 
class="s5_372"
>,</text>

<text 
x="195" 
y="1120" 
class="s10_372"
>0.4082482904638631</text>

<text 
x="337" 
y="1120" 
class="s5_372"
>),</text>

<text 
x="84" 
y="1135" 
class="s5_372"
>(</text>

<text 
x="92" 
y="1135" 
dx="0,0,0,0,0,0,0,0,0,0,0,0,4.6,0,0,0,0,0,0,0,0,0,0,0,0" 
class="s12_372"
>'artificial intelligence'</text>

<text 
x="290" 
y="1135" 
class="s5_372"
>,</text>

<text 
x="306" 
y="1135" 
class="s10_372"
>0.4082482904638631</text>

<text 
x="448" 
y="1135" 
class="s5_372"
>),</text>

<text 
x="84" 
y="1150" 
class="s5_372"
>(</text>

<text 
x="92" 
y="1150" 
dx="0,0,0,0,0,0,4.6,0,0,0,0,0,0,0,0" 
class="s12_372"
>'deep learning'</text>

<text 
x="211" 
y="1150" 
class="s5_372"
>,</text>

<text 
x="227" 
y="1150" 
class="s10_372"
>0.4082482904638631</text>

<text 
x="369" 
y="1150" 
class="s5_372"
>),</text>

<text 
x="84" 
y="1166" 
class="s5_372"
>(</text>

<text 
x="92" 
y="1166" 
dx="0,0,0,0,0,0,0,0,4.6,0,0,0,0,0,0,0,0" 
class="s12_372"
>'neural networks'</text>

<text 
x="227" 
y="1166" 
class="s5_372"
>,</text>

<text 
x="242" 
y="1166" 
class="s10_372"
>0.4082482904638631</text>

<text 
x="385" 
y="1166" 
class="s5_372"
>),</text>

<text 
x="84" 
y="1181" 
class="s5_372"
>(</text>

<text 
x="92" 
y="1181" 
class="s12_372"
>'HBase'</text>

<text 
x="148" 
y="1181" 
class="s5_372"
>,</text>

<text 
x="163" 
y="1181" 
class="s10_372"
>0.3333333333333333</text>

<text 
x="306" 
y="1181" 
class="s5_372"
>)]</text>



<!-- Any embedded fonts defined here -->
<style type="text/css" ><![CDATA[

@font-face {
	font-family: LiberationSerif-Italic_l;
	src: url("fonts/LiberationSerif-Italic_l.woff") format("woff");
}

@font-face {
	font-family: LiberationMono-Bold_1w;
	src: url("fonts/LiberationMono-Bold_1w.woff") format("woff");
}

@font-face {
	font-family: LiberationMono_1q;
	src: url("fonts/LiberationMono_1q.woff") format("woff");
}

@font-face {
	font-family: LiberationSerif-Bold_b;
	src: url("fonts/LiberationSerif-Bold_b.woff") format("woff");
}

@font-face {
	font-family: LiberationSerif_e;
	src: url("fonts/LiberationSerif_e.woff") format("woff");
}

]]></style>

</svg>
