<?xml version="1.0" encoding="UTF-8" standalone="no"?>
<!DOCTYPE svg PUBLIC "-//W3C//DTD SVG 1.1//EN"
"http://www.w3.org/Graphics/SVG/1.1/DTD/svg11.dtd">


<!-- Page 373 -->
<svg x="0" y="0" width="909" height="1286" viewBox="0 0 909 1286" version="1.1" xmlns="http://www.w3.org/2000/svg" xmlns:xlink="http://www.w3.org/1999/xlink"
style="display: block;margin-left: auto;margin-right: auto;">
<defs>

<style type="text/css"><![CDATA[


.s1_373{
font-size: 22.01px;
font-family: LiberationSerif_e;
fill: #000000;
}
.s2_373{
font-size: 13.20px;
font-family: LiberationMono-Bold_1w;
fill: #006699;
}
.s3_373{
font-size: 13.20px;
font-family: LiberationMono_1q;
fill: #CC00FF;
}
.s4_373{
font-size: 13.20px;
font-family: LiberationMono_1q;
fill: #000000;
}
.s5_373{
font-size: 13.20px;
font-family: LiberationMono_1q;
fill: #000088;
}
.s6_373{
font-size: 13.20px;
font-family: LiberationMono_1q;
fill: #336666;
}
.s7_373{
font-size: 13.20px;
font-family: LiberationMono-Italic_10;
fill: #0099FF;
}
.s8_373{
font-size: 13.20px;
font-family: LiberationMono-Bold_1w;
fill: #000000;
}
.s9_373{
font-size: 13.20px;
font-family: LiberationMono_1q;
fill: #FF6600;
}
.s10_373{
font-size: 13.20px;
font-family: LiberationMono_1q;
fill: #CC3300;
}

]]></style>

</defs>
<path d="M0,0
L0,1286
L909,1286
L909,0 Z " 
fill="#FFFFFF" stroke="none" />
<text 
x="55" 
y="74" 
class="s1_373"
>Now we can create recommendations for a user by summing up the similarities of the</text>

<text 
x="55" 
y="102" 
class="s1_373"
>interests similar to his:</text>

<text 
x="76" 
y="147" 
class="s2_373"
>def</text>

<text 
x="108" 
y="147" 
class="s3_373"
>item_based_suggestions</text>

<text 
x="282" 
y="147" 
class="s4_373"
>(</text>

<text 
x="290" 
y="147" 
class="s5_373"
>user_id</text>

<text 
x="345" 
y="147" 
class="s4_373"
>,</text>

<text 
x="361" 
y="147" 
class="s5_373"
>include_current_interests</text>

<text 
x="559" 
y="147" 
class="s4_373"
>=</text>

<text 
x="567" 
y="147" 
class="s6_373"
>False</text>

<text 
x="606" 
y="147" 
class="s4_373"
>):</text>

<text 
x="108" 
y="162" 
dx="0,0,4.6,0,0,0,4.6,0,0,4.6,0,0,0,4.6,0,0,0,0,0,0,0,4.6,0,0,0,0,0,0,0,0" 
class="s7_373"
># add up the similar interests</text>

<text 
x="108" 
y="178" 
class="s5_373"
>suggestions</text>

<text 
x="203" 
y="178" 
class="s4_373"
>=</text>

<text 
x="219" 
y="178" 
class="s5_373"
>defaultdict</text>

<text 
x="306" 
y="178" 
class="s4_373"
>(</text>

<text 
x="314" 
y="178" 
class="s6_373"
>float</text>

<text 
x="353" 
y="178" 
class="s4_373"
>)</text>

<text 
x="108" 
y="193" 
class="s5_373"
>user_interest_vector</text>

<text 
x="274" 
y="193" 
class="s4_373"
>=</text>

<text 
x="290" 
y="193" 
class="s5_373"
>user_interest_matrix</text>

<text 
x="448" 
y="193" 
class="s4_373"
>[</text>

<text 
x="456" 
y="193" 
class="s5_373"
>user_id</text>

<text 
x="511" 
y="193" 
class="s4_373"
>]</text>

<text 
x="108" 
y="209" 
class="s2_373"
>for</text>

<text 
x="140" 
y="209" 
class="s5_373"
>interest_id</text>

<text 
x="227" 
y="209" 
class="s4_373"
>,</text>

<text 
x="242" 
y="209" 
class="s5_373"
>is_interested</text>

<text 
x="353" 
y="209" 
class="s8_373"
>in</text>

<text 
x="377" 
y="209" 
class="s6_373"
>enumerate</text>

<text 
x="448" 
y="209" 
class="s4_373"
>(</text>

<text 
x="456" 
y="209" 
class="s5_373"
>user_interest_vector</text>

<text 
x="614" 
y="209" 
class="s4_373"
>):</text>

<text 
x="140" 
y="224" 
class="s2_373"
>if</text>

<text 
x="163" 
y="224" 
class="s5_373"
>is_interested</text>

<text 
x="274" 
y="224" 
class="s4_373"
>==</text>

<text 
x="298" 
y="224" 
class="s9_373"
>1</text>

<text 
x="306" 
y="224" 
class="s4_373"
>:</text>

<text 
x="171" 
y="239" 
class="s5_373"
>similar_interests</text>

<text 
x="314" 
y="239" 
class="s4_373"
>=</text>

<text 
x="329" 
y="239" 
class="s5_373"
>most_similar_interests_to</text>

<text 
x="527" 
y="239" 
class="s4_373"
>(</text>

<text 
x="535" 
y="239" 
class="s5_373"
>interest_id</text>

<text 
x="622" 
y="239" 
class="s4_373"
>)</text>

<text 
x="171" 
y="255" 
class="s2_373"
>for</text>

<text 
x="203" 
y="255" 
class="s5_373"
>interest</text>

<text 
x="266" 
y="255" 
class="s4_373"
>,</text>

<text 
x="282" 
y="255" 
class="s5_373"
>similarity</text>

<text 
x="369" 
y="255" 
class="s8_373"
>in</text>

<text 
x="393" 
y="255" 
class="s5_373"
>similar_interests</text>

<text 
x="527" 
y="255" 
class="s4_373"
>:</text>

<text 
x="203" 
y="270" 
class="s5_373"
>suggestions</text>

<text 
x="290" 
y="270" 
class="s4_373"
>[</text>

<text 
x="298" 
y="270" 
class="s5_373"
>interest</text>

<text 
x="361" 
y="270" 
dx="0,0,4.6,0" 
class="s4_373"
>] +=</text>

<text 
x="401" 
y="270" 
class="s5_373"
>similarity</text>

<text 
x="108" 
y="301" 
dx="0,0,4.6,0,0,0,0,4.6,0,0,0,0,4.6,0,0,4.6,0,0,0,0,0" 
class="s7_373"
># sort them by weight</text>

<text 
x="108" 
y="316" 
class="s5_373"
>suggestions</text>

<text 
x="203" 
y="316" 
class="s4_373"
>=</text>

<text 
x="219" 
y="316" 
class="s6_373"
>sorted</text>

<text 
x="266" 
y="316" 
class="s4_373"
>(</text>

<text 
x="274" 
y="316" 
class="s5_373"
>suggestions</text>

<text 
x="361" 
y="316" 
class="s4_373"
>.</text>

<text 
x="369" 
y="316" 
class="s5_373"
>items</text>

<text 
x="408" 
y="316" 
class="s4_373"
>(),</text>

<text 
x="274" 
y="332" 
class="s5_373"
>key</text>

<text 
x="298" 
y="332" 
class="s4_373"
>=</text>

<text 
x="306" 
y="332" 
class="s2_373"
>lambda</text>

<text 
x="361" 
y="332" 
class="s4_373"
>(</text>

<text 
x="369" 
y="332" 
class="s5_373"
>_</text>

<text 
x="377" 
y="332" 
class="s4_373"
>,</text>

<text 
x="393" 
y="332" 
class="s5_373"
>similarity</text>

<text 
x="472" 
y="332" 
class="s4_373"
>):</text>

<text 
x="495" 
y="332" 
class="s5_373"
>similarity</text>

<text 
x="574" 
y="332" 
class="s4_373"
>,</text>

<text 
x="274" 
y="347" 
class="s5_373"
>reverse</text>

<text 
x="329" 
y="347" 
class="s4_373"
>=</text>

<text 
x="337" 
y="347" 
class="s6_373"
>True</text>

<text 
x="369" 
y="347" 
class="s4_373"
>)</text>

<text 
x="108" 
y="378" 
class="s2_373"
>if</text>

<text 
x="132" 
y="378" 
class="s5_373"
>include_current_interests</text>

<text 
x="329" 
y="378" 
class="s4_373"
>:</text>

<text 
x="140" 
y="393" 
class="s2_373"
>return</text>

<text 
x="195" 
y="393" 
class="s5_373"
>suggestions</text>

<text 
x="108" 
y="409" 
class="s2_373"
>else</text>

<text 
x="140" 
y="409" 
class="s4_373"
>:</text>

<text 
x="140" 
y="424" 
class="s2_373"
>return</text>

<text 
x="195" 
y="424" 
class="s4_373"
>[(</text>

<text 
x="211" 
y="424" 
class="s5_373"
>suggestion</text>

<text 
x="290" 
y="424" 
class="s4_373"
>,</text>

<text 
x="306" 
y="424" 
class="s5_373"
>weight</text>

<text 
x="353" 
y="424" 
class="s4_373"
>)</text>

<text 
x="203" 
y="440" 
class="s2_373"
>for</text>

<text 
x="235" 
y="440" 
class="s5_373"
>suggestion</text>

<text 
x="314" 
y="440" 
class="s4_373"
>,</text>

<text 
x="329" 
y="440" 
class="s5_373"
>weight</text>

<text 
x="385" 
y="440" 
class="s8_373"
>in</text>

<text 
x="408" 
y="440" 
class="s5_373"
>suggestions</text>

<text 
x="203" 
y="455" 
class="s2_373"
>if</text>

<text 
x="227" 
y="455" 
class="s5_373"
>suggestion</text>

<text 
x="314" 
y="455" 
dx="0,0,0,0,4.6,0" 
class="s8_373"
>not in</text>

<text 
x="369" 
y="455" 
class="s5_373"
>users_interests</text>

<text 
x="487" 
y="455" 
class="s4_373"
>[</text>

<text 
x="495" 
y="455" 
class="s5_373"
>user_id</text>

<text 
x="551" 
y="455" 
class="s4_373"
>]]</text>

<text 
x="55" 
y="508" 
class="s1_373"
>For user 0, this generates the following (seemingly reasonable) recommendations:</text>

<text 
x="76" 
y="553" 
class="s4_373"
>[(</text>

<text 
x="92" 
y="553" 
class="s10_373"
>'MapReduce'</text>

<text 
x="179" 
y="553" 
class="s4_373"
>,</text>

<text 
x="195" 
y="553" 
class="s9_373"
>1.861807319565799</text>

<text 
x="329" 
y="553" 
class="s4_373"
>),</text>

<text 
x="84" 
y="568" 
class="s4_373"
>(</text>

<text 
x="92" 
y="568" 
class="s10_373"
>'Postgres'</text>

<text 
x="171" 
y="568" 
class="s4_373"
>,</text>

<text 
x="187" 
y="568" 
class="s9_373"
>1.3164965809277263</text>

<text 
x="329" 
y="568" 
class="s4_373"
>),</text>

<text 
x="84" 
y="584" 
class="s4_373"
>(</text>

<text 
x="92" 
y="584" 
class="s10_373"
>'MongoDB'</text>

<text 
x="163" 
y="584" 
class="s4_373"
>,</text>

<text 
x="179" 
y="584" 
class="s9_373"
>1.3164965809277263</text>

<text 
x="322" 
y="584" 
class="s4_373"
>),</text>

<text 
x="84" 
y="599" 
class="s4_373"
>(</text>

<text 
x="92" 
y="599" 
class="s10_373"
>'NoSQL'</text>

<text 
x="148" 
y="599" 
class="s4_373"
>,</text>

<text 
x="163" 
y="599" 
class="s9_373"
>1.2844570503761732</text>

<text 
x="306" 
y="599" 
class="s4_373"
>),</text>

<text 
x="84" 
y="615" 
class="s4_373"
>(</text>

<text 
x="92" 
y="615" 
dx="0,0,0,0,0,0,0,0,0,0,0,0,0,4.6,0,0,0,0,0,0,0,0,0" 
class="s10_373"
>'programming languages'</text>

<text 
x="274" 
y="615" 
class="s4_373"
>,</text>

<text 
x="290" 
y="615" 
class="s9_373"
>0.5773502691896258</text>

<text 
x="432" 
y="615" 
class="s4_373"
>),</text>

<text 
x="84" 
y="630" 
class="s4_373"
>(</text>

<text 
x="92" 
y="630" 
class="s10_373"
>'MySQL'</text>

<text 
x="148" 
y="630" 
class="s4_373"
>,</text>

<text 
x="163" 
y="630" 
class="s9_373"
>0.5773502691896258</text>

<text 
x="306" 
y="630" 
class="s4_373"
>),</text>

<text 
x="84" 
y="645" 
class="s4_373"
>(</text>

<text 
x="92" 
y="645" 
class="s10_373"
>'Haskell'</text>

<text 
x="163" 
y="645" 
class="s4_373"
>,</text>

<text 
x="179" 
y="645" 
class="s9_373"
>0.5773502691896258</text>

<text 
x="322" 
y="645" 
class="s4_373"
>),</text>

<text 
x="84" 
y="661" 
class="s4_373"
>(</text>

<text 
x="92" 
y="661" 
class="s10_373"
>'databases'</text>

<text 
x="179" 
y="661" 
class="s4_373"
>,</text>

<text 
x="195" 
y="661" 
class="s9_373"
>0.5773502691896258</text>

<text 
x="337" 
y="661" 
class="s4_373"
>),</text>

<text 
x="84" 
y="676" 
class="s4_373"
>(</text>

<text 
x="92" 
y="676" 
dx="0,0,0,0,0,0,0,0,4.6,0,0,0,0,0,0,0,0" 
class="s10_373"
>'neural networks'</text>

<text 
x="227" 
y="676" 
class="s4_373"
>,</text>

<text 
x="242" 
y="676" 
class="s9_373"
>0.4082482904638631</text>

<text 
x="385" 
y="676" 
class="s4_373"
>),</text>

<text 
x="84" 
y="692" 
class="s4_373"
>(</text>

<text 
x="92" 
y="692" 
dx="0,0,0,0,0,0,4.6,0,0,0,0,0,0,0,0" 
class="s10_373"
>'deep learning'</text>

<text 
x="211" 
y="692" 
class="s4_373"
>,</text>

<text 
x="227" 
y="692" 
class="s9_373"
>0.4082482904638631</text>

<text 
x="369" 
y="692" 
class="s4_373"
>),</text>

<text 
x="84" 
y="707" 
class="s4_373"
>(</text>

<text 
x="92" 
y="707" 
class="s10_373"
>'C++'</text>

<text 
x="132" 
y="707" 
class="s4_373"
>,</text>

<text 
x="148" 
y="707" 
class="s9_373"
>0.4082482904638631</text>

<text 
x="290" 
y="707" 
class="s4_373"
>),</text>

<text 
x="84" 
y="722" 
class="s4_373"
>(</text>

<text 
x="92" 
y="722" 
dx="0,0,0,0,0,0,0,0,0,0,0,0,4.6,0,0,0,0,0,0,0,0,0,0,0,0" 
class="s10_373"
>'artificial intelligence'</text>

<text 
x="290" 
y="722" 
class="s4_373"
>,</text>

<text 
x="306" 
y="722" 
class="s9_373"
>0.4082482904638631</text>

<text 
x="448" 
y="722" 
class="s4_373"
>),</text>

<text 
x="84" 
y="738" 
class="s4_373"
>(</text>

<text 
x="92" 
y="738" 
class="s10_373"
>'Python'</text>

<text 
x="156" 
y="738" 
class="s4_373"
>,</text>

<text 
x="171" 
y="738" 
class="s9_373"
>0.2886751345948129</text>

<text 
x="314" 
y="738" 
class="s4_373"
>),</text>

<text 
x="84" 
y="753" 
class="s4_373"
>(</text>

<text 
x="92" 
y="753" 
class="s10_373"
>'R'</text>

<text 
x="116" 
y="753" 
class="s4_373"
>,</text>

<text 
x="132" 
y="753" 
class="s9_373"
>0.2886751345948129</text>

<text 
x="274" 
y="753" 
class="s4_373"
>)]</text>



<!-- Any embedded fonts defined here -->
<style type="text/css" ><![CDATA[

@font-face {
	font-family: LiberationMono-Bold_1w;
	src: url("fonts/LiberationMono-Bold_1w.woff") format("woff");
}

@font-face {
	font-family: LiberationMono_1q;
	src: url("fonts/LiberationMono_1q.woff") format("woff");
}

@font-face {
	font-family: LiberationMono-Italic_10;
	src: url("fonts/LiberationMono-Italic_10.woff") format("woff");
}

@font-face {
	font-family: LiberationSerif_e;
	src: url("fonts/LiberationSerif_e.woff") format("woff");
}

]]></style>

</svg>
