<?xml version="1.0" encoding="UTF-8" standalone="no"?>
<!DOCTYPE svg PUBLIC "-//W3C//DTD SVG 1.1//EN"
"http://www.w3.org/Graphics/SVG/1.1/DTD/svg11.dtd">


<!-- Page 378 -->
<svg x="0" y="0" width="909" height="1286" viewBox="0 0 909 1286" version="1.1" xmlns="http://www.w3.org/2000/svg" xmlns:xlink="http://www.w3.org/1999/xlink"
style="display: block;margin-left: auto;margin-right: auto;">
<defs>

<style type="text/css"><![CDATA[


.s1_378{
font-size: 13.20px;
font-family: LiberationMono-Bold_1w;
fill: #006699;
}
.s2_378{
font-size: 13.20px;
font-family: LiberationMono_1q;
fill: #CC00FF;
}
.s3_378{
font-size: 13.20px;
font-family: LiberationMono_1q;
fill: #000000;
}
.s4_378{
font-size: 13.20px;
font-family: LiberationMono_1q;
fill: #336666;
}
.s5_378{
font-size: 13.20px;
font-family: LiberationMono-Italic_10;
fill: #CC3300;
}
.s6_378{
font-size: 13.20px;
font-family: LiberationMono_1q;
fill: #000088;
}
.s7_378{
font-size: 13.20px;
font-family: LiberationMono_1q;
fill: #CC3300;
}
.s8_378{
font-size: 13.20px;
font-family: LiberationMono-Bold_1w;
fill: #CC3300;
}
.s9_378{
font-size: 13.20px;
font-family: LiberationMono-Bold_1w;
fill: #CC0000;
}
.s10_378{
font-size: 22.01px;
font-family: LiberationSerif_e;
fill: #000000;
}
.s11_378{
font-size: 13.20px;
font-family: LiberationMono_1q;
fill: #FF6600;
}
.s12_378{
font-size: 17.60px;
font-family: LiberationMono_1q;
fill: #000000;
}

]]></style>

</defs>
<path d="M0,0
L0,1286
L909,1286
L909,0 Z " 
fill="#FFFFFF" stroke="none" />
<text 
x="108" 
y="64" 
class="s1_378"
>def</text>

<text 
x="140" 
y="64" 
class="s2_378"
>__repr__</text>

<text 
x="203" 
y="64" 
class="s3_378"
>(</text>

<text 
x="211" 
y="64" 
class="s4_378"
>self</text>

<text 
x="242" 
y="64" 
class="s3_378"
>):</text>

<text 
x="140" 
y="80" 
dx="0,0,0,0,0,0,0,0,0,0,4.6,0,0,0,0,0,0,0,0,0,0,0,0,0,0,4.6,0,0,4.6,0,0,0,4.6,0,0,0,0,0,0,4.6,0,0,0,0,0,0,0,4.6,0,0,0,0,4.6,0,0,0,0,0,0" 
class="s5_378"
>"""pretty representation of the table: columns then rows"""</text>

<text 
x="140" 
y="95" 
class="s1_378"
>return</text>

<text 
x="195" 
y="95" 
class="s4_378"
>str</text>

<text 
x="219" 
y="95" 
class="s3_378"
>(</text>

<text 
x="227" 
y="95" 
class="s4_378"
>self</text>

<text 
x="258" 
y="95" 
class="s3_378"
>.</text>

<text 
x="266" 
y="95" 
class="s6_378"
>columns</text>

<text 
x="322" 
y="95" 
dx="0,0,4.6" 
class="s3_378"
>) +</text>

<text 
x="353" 
y="95" 
class="s7_378"
>"</text>

<text 
x="361" 
y="95" 
class="s8_378"
>\n</text>

<text 
x="377" 
y="95" 
class="s7_378"
>"</text>

<text 
x="393" 
y="95" 
class="s3_378"
>+</text>

<text 
x="408" 
y="95" 
class="s7_378"
>"</text>

<text 
x="416" 
y="95" 
class="s8_378"
>\n</text>

<text 
x="432" 
y="95" 
class="s7_378"
>"</text>

<text 
x="440" 
y="95" 
class="s3_378"
>.</text>

<text 
x="448" 
y="95" 
class="s6_378"
>join</text>

<text 
x="480" 
y="95" 
class="s3_378"
>(</text>

<text 
x="487" 
y="95" 
class="s4_378"
>map</text>

<text 
x="511" 
y="95" 
class="s3_378"
>(</text>

<text 
x="519" 
y="95" 
class="s4_378"
>str</text>

<text 
x="543" 
y="95" 
class="s3_378"
>,</text>

<text 
x="559" 
y="95" 
class="s4_378"
>self</text>

<text 
x="590" 
y="95" 
class="s3_378"
>.</text>

<text 
x="598" 
y="95" 
class="s6_378"
>rows</text>

<text 
x="630" 
y="95" 
class="s3_378"
>))</text>

<text 
x="108" 
y="126" 
class="s1_378"
>def</text>

<text 
x="140" 
y="126" 
class="s2_378"
>insert</text>

<text 
x="187" 
y="126" 
class="s3_378"
>(</text>

<text 
x="195" 
y="126" 
class="s4_378"
>self</text>

<text 
x="227" 
y="126" 
class="s3_378"
>,</text>

<text 
x="242" 
y="126" 
class="s6_378"
>row_values</text>

<text 
x="322" 
y="126" 
class="s3_378"
>):</text>

<text 
x="140" 
y="141" 
class="s1_378"
>if</text>

<text 
x="163" 
y="141" 
class="s4_378"
>len</text>

<text 
x="187" 
y="141" 
class="s3_378"
>(</text>

<text 
x="195" 
y="141" 
class="s6_378"
>row_values</text>

<text 
x="274" 
y="141" 
dx="0,0,4.6,0" 
class="s3_378"
>) !=</text>

<text 
x="314" 
y="141" 
class="s4_378"
>len</text>

<text 
x="337" 
y="141" 
class="s3_378"
>(</text>

<text 
x="345" 
y="141" 
class="s4_378"
>self</text>

<text 
x="377" 
y="141" 
class="s3_378"
>.</text>

<text 
x="385" 
y="141" 
class="s6_378"
>columns</text>

<text 
x="440" 
y="141" 
class="s3_378"
>):</text>

<text 
x="171" 
y="157" 
class="s1_378"
>raise</text>

<text 
x="219" 
y="157" 
class="s9_378"
>TypeError</text>

<text 
x="290" 
y="157" 
class="s3_378"
>(</text>

<text 
x="298" 
y="157" 
dx="0,0,0,0,0,0,0,4.6,0,0,0,0,0,0,4.6,0,0,4.6,0,0,0,0,0,0,0,0" 
class="s7_378"
>"wrong number of elements"</text>

<text 
x="503" 
y="157" 
class="s3_378"
>)</text>

<text 
x="140" 
y="172" 
class="s6_378"
>row_dict</text>

<text 
x="211" 
y="172" 
class="s3_378"
>=</text>

<text 
x="227" 
y="172" 
class="s4_378"
>dict</text>

<text 
x="258" 
y="172" 
class="s3_378"
>(</text>

<text 
x="266" 
y="172" 
class="s4_378"
>zip</text>

<text 
x="290" 
y="172" 
class="s3_378"
>(</text>

<text 
x="298" 
y="172" 
class="s4_378"
>self</text>

<text 
x="329" 
y="172" 
class="s3_378"
>.</text>

<text 
x="337" 
y="172" 
class="s6_378"
>columns</text>

<text 
x="393" 
y="172" 
class="s3_378"
>,</text>

<text 
x="408" 
y="172" 
class="s6_378"
>row_values</text>

<text 
x="487" 
y="172" 
class="s3_378"
>))</text>

<text 
x="140" 
y="188" 
class="s4_378"
>self</text>

<text 
x="171" 
y="188" 
class="s3_378"
>.</text>

<text 
x="179" 
y="188" 
class="s6_378"
>rows</text>

<text 
x="211" 
y="188" 
class="s3_378"
>.</text>

<text 
x="219" 
y="188" 
class="s6_378"
>append</text>

<text 
x="266" 
y="188" 
class="s3_378"
>(</text>

<text 
x="274" 
y="188" 
class="s6_378"
>row_dict</text>

<text 
x="337" 
y="188" 
class="s3_378"
>)</text>

<text 
x="55" 
y="240" 
class="s10_378"
>For example, we could set up:</text>

<text 
x="76" 
y="286" 
class="s6_378"
>users</text>

<text 
x="124" 
y="286" 
class="s3_378"
>=</text>

<text 
x="140" 
y="286" 
class="s6_378"
>Table</text>

<text 
x="179" 
y="286" 
class="s3_378"
>([</text>

<text 
x="195" 
y="286" 
class="s7_378"
>"user_id"</text>

<text 
x="266" 
y="286" 
class="s3_378"
>,</text>

<text 
x="282" 
y="286" 
class="s7_378"
>"name"</text>

<text 
x="329" 
y="286" 
class="s3_378"
>,</text>

<text 
x="345" 
y="286" 
class="s7_378"
>"num_friends"</text>

<text 
x="448" 
y="286" 
class="s3_378"
>])</text>

<text 
x="76" 
y="301" 
class="s6_378"
>users</text>

<text 
x="116" 
y="301" 
class="s3_378"
>.</text>

<text 
x="124" 
y="301" 
class="s6_378"
>insert</text>

<text 
x="171" 
y="301" 
class="s3_378"
>([</text>

<text 
x="187" 
y="301" 
class="s11_378"
>0</text>

<text 
x="195" 
y="301" 
class="s3_378"
>,</text>

<text 
x="211" 
y="301" 
class="s7_378"
>"Hero"</text>

<text 
x="258" 
y="301" 
class="s3_378"
>,</text>

<text 
x="274" 
y="301" 
class="s11_378"
>0</text>

<text 
x="282" 
y="301" 
class="s3_378"
>])</text>

<text 
x="76" 
y="316" 
class="s6_378"
>users</text>

<text 
x="116" 
y="316" 
class="s3_378"
>.</text>

<text 
x="124" 
y="316" 
class="s6_378"
>insert</text>

<text 
x="171" 
y="316" 
class="s3_378"
>([</text>

<text 
x="187" 
y="316" 
class="s11_378"
>1</text>

<text 
x="195" 
y="316" 
class="s3_378"
>,</text>

<text 
x="211" 
y="316" 
class="s7_378"
>"Dunn"</text>

<text 
x="258" 
y="316" 
class="s3_378"
>,</text>

<text 
x="274" 
y="316" 
class="s11_378"
>2</text>

<text 
x="282" 
y="316" 
class="s3_378"
>])</text>

<text 
x="76" 
y="332" 
class="s6_378"
>users</text>

<text 
x="116" 
y="332" 
class="s3_378"
>.</text>

<text 
x="124" 
y="332" 
class="s6_378"
>insert</text>

<text 
x="171" 
y="332" 
class="s3_378"
>([</text>

<text 
x="187" 
y="332" 
class="s11_378"
>2</text>

<text 
x="195" 
y="332" 
class="s3_378"
>,</text>

<text 
x="211" 
y="332" 
class="s7_378"
>"Sue"</text>

<text 
x="250" 
y="332" 
class="s3_378"
>,</text>

<text 
x="266" 
y="332" 
class="s11_378"
>3</text>

<text 
x="274" 
y="332" 
class="s3_378"
>])</text>

<text 
x="76" 
y="347" 
class="s6_378"
>users</text>

<text 
x="116" 
y="347" 
class="s3_378"
>.</text>

<text 
x="124" 
y="347" 
class="s6_378"
>insert</text>

<text 
x="171" 
y="347" 
class="s3_378"
>([</text>

<text 
x="187" 
y="347" 
class="s11_378"
>3</text>

<text 
x="195" 
y="347" 
class="s3_378"
>,</text>

<text 
x="211" 
y="347" 
class="s7_378"
>"Chi"</text>

<text 
x="250" 
y="347" 
class="s3_378"
>,</text>

<text 
x="266" 
y="347" 
class="s11_378"
>3</text>

<text 
x="274" 
y="347" 
class="s3_378"
>])</text>

<text 
x="76" 
y="363" 
class="s6_378"
>users</text>

<text 
x="116" 
y="363" 
class="s3_378"
>.</text>

<text 
x="124" 
y="363" 
class="s6_378"
>insert</text>

<text 
x="171" 
y="363" 
class="s3_378"
>([</text>

<text 
x="187" 
y="363" 
class="s11_378"
>4</text>

<text 
x="195" 
y="363" 
class="s3_378"
>,</text>

<text 
x="211" 
y="363" 
class="s7_378"
>"Thor"</text>

<text 
x="258" 
y="363" 
class="s3_378"
>,</text>

<text 
x="274" 
y="363" 
class="s11_378"
>3</text>

<text 
x="282" 
y="363" 
class="s3_378"
>])</text>

<text 
x="76" 
y="378" 
class="s6_378"
>users</text>

<text 
x="116" 
y="378" 
class="s3_378"
>.</text>

<text 
x="124" 
y="378" 
class="s6_378"
>insert</text>

<text 
x="171" 
y="378" 
class="s3_378"
>([</text>

<text 
x="187" 
y="378" 
class="s11_378"
>5</text>

<text 
x="195" 
y="378" 
class="s3_378"
>,</text>

<text 
x="211" 
y="378" 
class="s7_378"
>"Clive"</text>

<text 
x="266" 
y="378" 
class="s3_378"
>,</text>

<text 
x="282" 
y="378" 
class="s11_378"
>2</text>

<text 
x="290" 
y="378" 
class="s3_378"
>])</text>

<text 
x="76" 
y="393" 
class="s6_378"
>users</text>

<text 
x="116" 
y="393" 
class="s3_378"
>.</text>

<text 
x="124" 
y="393" 
class="s6_378"
>insert</text>

<text 
x="171" 
y="393" 
class="s3_378"
>([</text>

<text 
x="187" 
y="393" 
class="s11_378"
>6</text>

<text 
x="195" 
y="393" 
class="s3_378"
>,</text>

<text 
x="211" 
y="393" 
class="s7_378"
>"Hicks"</text>

<text 
x="266" 
y="393" 
class="s3_378"
>,</text>

<text 
x="282" 
y="393" 
class="s11_378"
>3</text>

<text 
x="290" 
y="393" 
class="s3_378"
>])</text>

<text 
x="76" 
y="409" 
class="s6_378"
>users</text>

<text 
x="116" 
y="409" 
class="s3_378"
>.</text>

<text 
x="124" 
y="409" 
class="s6_378"
>insert</text>

<text 
x="171" 
y="409" 
class="s3_378"
>([</text>

<text 
x="187" 
y="409" 
class="s11_378"
>7</text>

<text 
x="195" 
y="409" 
class="s3_378"
>,</text>

<text 
x="211" 
y="409" 
class="s7_378"
>"Devin"</text>

<text 
x="266" 
y="409" 
class="s3_378"
>,</text>

<text 
x="282" 
y="409" 
class="s11_378"
>2</text>

<text 
x="290" 
y="409" 
class="s3_378"
>])</text>

<text 
x="76" 
y="424" 
class="s6_378"
>users</text>

<text 
x="116" 
y="424" 
class="s3_378"
>.</text>

<text 
x="124" 
y="424" 
class="s6_378"
>insert</text>

<text 
x="171" 
y="424" 
class="s3_378"
>([</text>

<text 
x="187" 
y="424" 
class="s11_378"
>8</text>

<text 
x="195" 
y="424" 
class="s3_378"
>,</text>

<text 
x="211" 
y="424" 
class="s7_378"
>"Kate"</text>

<text 
x="258" 
y="424" 
class="s3_378"
>,</text>

<text 
x="274" 
y="424" 
class="s11_378"
>2</text>

<text 
x="282" 
y="424" 
class="s3_378"
>])</text>

<text 
x="76" 
y="440" 
class="s6_378"
>users</text>

<text 
x="116" 
y="440" 
class="s3_378"
>.</text>

<text 
x="124" 
y="440" 
class="s6_378"
>insert</text>

<text 
x="171" 
y="440" 
class="s3_378"
>([</text>

<text 
x="187" 
y="440" 
class="s11_378"
>9</text>

<text 
x="195" 
y="440" 
class="s3_378"
>,</text>

<text 
x="211" 
y="440" 
class="s7_378"
>"Klein"</text>

<text 
x="266" 
y="440" 
class="s3_378"
>,</text>

<text 
x="282" 
y="440" 
class="s11_378"
>3</text>

<text 
x="290" 
y="440" 
class="s3_378"
>])</text>

<text 
x="76" 
y="455" 
class="s6_378"
>users</text>

<text 
x="116" 
y="455" 
class="s3_378"
>.</text>

<text 
x="124" 
y="455" 
class="s6_378"
>insert</text>

<text 
x="171" 
y="455" 
class="s3_378"
>([</text>

<text 
x="187" 
y="455" 
class="s11_378"
>10</text>

<text 
x="203" 
y="455" 
class="s3_378"
>,</text>

<text 
x="219" 
y="455" 
class="s7_378"
>"Jen"</text>

<text 
x="258" 
y="455" 
class="s3_378"
>,</text>

<text 
x="274" 
y="455" 
class="s11_378"
>1</text>

<text 
x="282" 
y="455" 
class="s3_378"
>])</text>

<text 
x="55" 
y="508" 
class="s10_378"
>If you now</text>

<text 
x="156" 
y="508" 
dx="0,0,0,0,0,0,6.1,0,0,0,0" 
class="s12_378"
>print users</text>

<text 
x="273" 
y="508" 
class="s10_378"
>, you’ll see:</text>

<text 
x="76" 
y="555" 
dx="0,0,0,0,0,0,0,0,0,0,0,0,4.6,0,0,0,0,0,0,0,4.6,0,0,0,0,0,0,0,0,0,0,0,0,0" 
class="s3_378"
>['user_id', 'name', 'num_friends']</text>

<text 
x="76" 
y="571" 
dx="0,0,0,0,0,0,0,0,0,0,0,0,4.6,0,0,4.6,0,0,0,0,0,0,0,4.6,0,0,0,0,0,0,0,4.6,0,0,0,0,0,0,0,0,0,0,0,0,0,0,4.6,0" 
class="s3_378"
>{'user_id': 0, 'name': 'Hero', 'num_friends': 0}</text>

<text 
x="76" 
y="586" 
dx="0,0,0,0,0,0,0,0,0,0,0,0,4.6,0,0,4.6,0,0,0,0,0,0,0,4.6,0,0,0,0,0,0,0,4.6,0,0,0,0,0,0,0,0,0,0,0,0,0,0,4.6,0" 
class="s3_378"
>{'user_id': 1, 'name': 'Dunn', 'num_friends': 2}</text>

<text 
x="76" 
y="601" 
dx="0,0,0,0,0,0,0,0,0,0,0,0,4.6,0,0,4.6,0,0,0,0,0,0,0,4.6,0,0,0,0,0,0,4.6,0,0,0,0,0,0,0,0,0,0,0,0,0,0,4.6,0" 
class="s3_378"
>{'user_id': 2, 'name': 'Sue', 'num_friends': 3}</text>

<text 
x="76" 
y="617" 
class="s3_378"
>...</text>



<!-- Any embedded fonts defined here -->
<style type="text/css" ><![CDATA[

@font-face {
	font-family: LiberationMono-Bold_1w;
	src: url("fonts/LiberationMono-Bold_1w.woff") format("woff");
}

@font-face {
	font-family: LiberationMono_1q;
	src: url("fonts/LiberationMono_1q.woff") format("woff");
}

@font-face {
	font-family: LiberationMono-Italic_10;
	src: url("fonts/LiberationMono-Italic_10.woff") format("woff");
}

@font-face {
	font-family: LiberationSerif_e;
	src: url("fonts/LiberationSerif_e.woff") format("woff");
}

]]></style>

</svg>
