<?xml version="1.0" encoding="UTF-8" standalone="no"?>
<!DOCTYPE svg PUBLIC "-//W3C//DTD SVG 1.1//EN"
"http://www.w3.org/Graphics/SVG/1.1/DTD/svg11.dtd">


<!-- Page 388 -->
<svg x="0" y="0" width="909" height="1286" viewBox="0 0 909 1286" version="1.1" xmlns="http://www.w3.org/2000/svg" xmlns:xlink="http://www.w3.org/1999/xlink"
style="display: block;margin-left: auto;margin-right: auto;">
<defs>

<style type="text/css"><![CDATA[


.s1_388{
font-size: 22.01px;
font-family: LiberationSerif_e;
fill: #000000;
}
.s2_388{
font-size: 17.60px;
font-family: LiberationMono_1q;
fill: #000000;
}
.s3_388{
font-size: 13.20px;
font-family: LiberationMono-Bold_1w;
fill: #006699;
}
.s4_388{
font-size: 13.20px;
font-family: LiberationMono_1q;
fill: #000088;
}
.s5_388{
font-size: 13.20px;
font-family: LiberationMono_1q;
fill: #000000;
}
.s6_388{
font-size: 13.20px;
font-family: LiberationMono_1q;
fill: #CC00FF;
}
.s7_388{
font-size: 13.20px;
font-family: LiberationMono_1q;
fill: #336666;
}
.s8_388{
font-size: 13.20px;
font-family: LiberationMono-Bold_1w;
fill: #000000;
}
.s9_388{
font-size: 13.20px;
font-family: LiberationMono-Italic_10;
fill: #0099FF;
}
.s10_388{
font-size: 13.20px;
font-family: LiberationMono_1q;
fill: #CC3300;
}
.s11_388{
font-size: 13.20px;
font-family: LiberationMono-Italic_10;
fill: #CC3300;
}

]]></style>

</defs>
<path d="M0,0
L0,1286
L909,1286
L909,0 Z " 
fill="#FFFFFF" stroke="none" />
<text 
x="55" 
y="74" 
class="s1_388"
>Using a</text>

<text 
x="128" 
y="74" 
dx="0,0,0,0,0,6.1,0,0,0" 
class="s2_388"
>LEFT JOIN</text>

<text 
x="223" 
y="74" 
dx="0,0,0,0,0,-1.2,0,0,0,0,0,0,0,0,0,0,0,0,0,0,0,0,0,0,0,0,0,0,0,0,0,0,0,0,0,0,0,0,0,0,0,0,0,0,0,0,0,0,0,0,0,0,0,0,0,0,0,0,0" 
class="s1_388"
>, it’s easy to count the number of interests each user has:</text>

<text 
x="76" 
y="122" 
class="s3_388"
>SELECT</text>

<text 
x="132" 
y="122" 
class="s4_388"
>users</text>

<text 
x="171" 
y="122" 
class="s5_388"
>.</text>

<text 
x="179" 
y="122" 
class="s4_388"
>id</text>

<text 
x="195" 
y="122" 
class="s5_388"
>,</text>

<text 
x="211" 
y="122" 
class="s3_388"
>COUNT</text>

<text 
x="250" 
y="122" 
class="s5_388"
>(</text>

<text 
x="258" 
y="122" 
class="s4_388"
>user_interests</text>

<text 
x="369" 
y="122" 
class="s5_388"
>.</text>

<text 
x="377" 
y="122" 
class="s4_388"
>interest</text>

<text 
x="440" 
y="122" 
class="s5_388"
>)</text>

<text 
x="456" 
y="122" 
class="s3_388"
>AS</text>

<text 
x="480" 
y="122" 
class="s4_388"
>num_interests</text>

<text 
x="76" 
y="137" 
class="s3_388"
>FROM</text>

<text 
x="116" 
y="137" 
class="s4_388"
>users</text>

<text 
x="76" 
y="152" 
dx="0,0,0,0,0,4.6,0,0,0" 
class="s3_388"
>LEFT JOIN</text>

<text 
x="156" 
y="152" 
class="s4_388"
>user_interests</text>

<text 
x="76" 
y="168" 
class="s3_388"
>ON</text>

<text 
x="100" 
y="168" 
class="s4_388"
>users</text>

<text 
x="140" 
y="168" 
class="s5_388"
>.</text>

<text 
x="148" 
y="168" 
class="s4_388"
>user_id</text>

<text 
x="211" 
y="168" 
class="s5_388"
>=</text>

<text 
x="227" 
y="168" 
class="s4_388"
>user_interests</text>

<text 
x="337" 
y="168" 
class="s5_388"
>.</text>

<text 
x="345" 
y="168" 
class="s4_388"
>user_id</text>

<text 
x="55" 
y="221" 
class="s1_388"
>The</text>

<text 
x="94" 
y="221" 
dx="0,0,0,0,0,6.1,0,0,0" 
class="s2_388"
>LEFT JOIN</text>

<text 
x="195" 
y="221" 
class="s1_388"
>ensures that users with no interests will still have rows in the joined data</text>

<text 
x="55" 
y="250" 
class="s1_388"
>set (with</text>

<text 
x="136" 
y="250" 
class="s2_388"
>NULL</text>

<text 
x="184" 
y="250" 
class="s1_388"
>values for the fields coming from</text>

<text 
x="483" 
y="250" 
class="s2_388"
>user_interests</text>

<text 
x="631" 
y="250" 
class="s1_388"
>), and</text>

<text 
x="686" 
y="250" 
class="s2_388"
>COUNT</text>

<text 
x="745" 
y="250" 
class="s1_388"
>only counts</text>

<text 
x="55" 
y="280" 
class="s1_388"
>values that are non-</text>

<text 
x="227" 
y="280" 
class="s2_388"
>NULL</text>

<text 
x="269" 
y="280" 
class="s1_388"
>.</text>

<text 
x="55" 
y="321" 
class="s1_388"
>The NotQuiteABase</text>

<text 
x="240" 
y="321" 
class="s2_388"
>join()</text>

<text 
x="309" 
y="321" 
class="s1_388"
>implementation will be more restrictive — it simply joins</text>

<text 
x="55" 
y="350" 
dx="0,0,0,0,0,0,0,0,0,0,0,0,0,0,0,0,0,0,0,0,0,0,0,0,0,0,0,0,0,0,0,0,0,0,0,0,0,0,0,0,0,0,0,0,0,0,0,0,0,0,0,0,0,0,0,0,0,0,0,0,0,0,0,0,-1.2,0,0,0,0,0,0,0,0,0,0,0,0,0,0,0,0,0,0,0,0,0,0" 
class="s1_388"
>two tables on whatever columns they have in common. Even so, it’s not trivial to write:</text>

<text 
x="108" 
y="396" 
class="s3_388"
>def</text>

<text 
x="140" 
y="396" 
class="s6_388"
>join</text>

<text 
x="171" 
y="396" 
class="s5_388"
>(</text>

<text 
x="179" 
y="396" 
class="s7_388"
>self</text>

<text 
x="211" 
y="396" 
class="s5_388"
>,</text>

<text 
x="227" 
y="396" 
class="s4_388"
>other_table</text>

<text 
x="314" 
y="396" 
class="s5_388"
>,</text>

<text 
x="329" 
y="396" 
class="s4_388"
>left_join</text>

<text 
x="401" 
y="396" 
class="s5_388"
>=</text>

<text 
x="408" 
y="396" 
class="s7_388"
>False</text>

<text 
x="448" 
y="396" 
class="s5_388"
>):</text>

<text 
x="140" 
y="426" 
class="s4_388"
>join_on_columns</text>

<text 
x="266" 
y="426" 
dx="0,0,4.6" 
class="s5_388"
>= [</text>

<text 
x="290" 
y="426" 
class="s4_388"
>c</text>

<text 
x="306" 
y="426" 
class="s3_388"
>for</text>

<text 
x="337" 
y="426" 
class="s4_388"
>c</text>

<text 
x="353" 
y="426" 
class="s8_388"
>in</text>

<text 
x="377" 
y="426" 
class="s7_388"
>self</text>

<text 
x="408" 
y="426" 
class="s5_388"
>.</text>

<text 
x="416" 
y="426" 
class="s4_388"
>columns</text>

<text 
x="559" 
y="426" 
dx="0,0,4.6,0,0,0,0,0,0,0,4.6,0" 
class="s9_388"
># columns in</text>

<text 
x="290" 
y="442" 
class="s3_388"
>if</text>

<text 
x="314" 
y="442" 
class="s4_388"
>c</text>

<text 
x="329" 
y="442" 
class="s8_388"
>in</text>

<text 
x="353" 
y="442" 
class="s4_388"
>other_table</text>

<text 
x="440" 
y="442" 
class="s5_388"
>.</text>

<text 
x="448" 
y="442" 
class="s4_388"
>columns</text>

<text 
x="503" 
y="442" 
class="s5_388"
>]</text>

<text 
x="559" 
y="442" 
dx="0,0,4.6,0,0,0,0,4.6,0,0,0,0,0" 
class="s9_388"
># both tables</text>

<text 
x="140" 
y="473" 
class="s4_388"
>additional_columns</text>

<text 
x="290" 
y="473" 
dx="0,0,4.6" 
class="s5_388"
>= [</text>

<text 
x="314" 
y="473" 
class="s4_388"
>c</text>

<text 
x="329" 
y="473" 
class="s3_388"
>for</text>

<text 
x="361" 
y="473" 
class="s4_388"
>c</text>

<text 
x="377" 
y="473" 
class="s8_388"
>in</text>

<text 
x="401" 
y="473" 
class="s4_388"
>other_table</text>

<text 
x="487" 
y="473" 
class="s5_388"
>.</text>

<text 
x="495" 
y="473" 
class="s4_388"
>columns</text>

<text 
x="559" 
y="473" 
dx="0,0,4.6,0,0,0,0,0,0,0,4.6,0,0,0" 
class="s9_388"
># columns only</text>

<text 
x="314" 
y="488" 
class="s3_388"
>if</text>

<text 
x="337" 
y="488" 
class="s4_388"
>c</text>

<text 
x="353" 
y="488" 
dx="0,0,0,0,4.6,0" 
class="s8_388"
>not in</text>

<text 
x="408" 
y="488" 
class="s4_388"
>join_on_columns</text>

<text 
x="527" 
y="488" 
class="s5_388"
>]</text>

<text 
x="559" 
y="488" 
dx="0,0,4.6,0,0,4.6,0,0,0,0,0,4.6,0,0,0,0" 
class="s9_388"
># in right table</text>

<text 
x="140" 
y="519" 
dx="0,0,4.6,0,0,0,4.6,0,0,0,0,0,0,0,4.6,0,0,0,0,4.6,0,0,0,0,4.6,0,0,0,0,0,4.6,0,4.6,0,0,0,0,0,0,0,0,0,0,0,0,0,0,0,0,0,0,4.6,0,0,0,0,4.6,0,0,0,0,0,4.6,0,0,0,0" 
class="s9_388"
># all columns from left table + additional_columns from right table</text>

<text 
x="140" 
y="534" 
class="s4_388"
>join_table</text>

<text 
x="227" 
y="534" 
class="s5_388"
>=</text>

<text 
x="242" 
y="534" 
class="s4_388"
>Table</text>

<text 
x="282" 
y="534" 
class="s5_388"
>(</text>

<text 
x="290" 
y="534" 
class="s7_388"
>self</text>

<text 
x="322" 
y="534" 
class="s5_388"
>.</text>

<text 
x="329" 
y="534" 
class="s4_388"
>columns</text>

<text 
x="393" 
y="534" 
class="s5_388"
>+</text>

<text 
x="408" 
y="534" 
class="s4_388"
>additional_columns</text>

<text 
x="551" 
y="534" 
class="s5_388"
>)</text>

<text 
x="140" 
y="565" 
class="s3_388"
>for</text>

<text 
x="171" 
y="565" 
class="s4_388"
>row</text>

<text 
x="203" 
y="565" 
class="s8_388"
>in</text>

<text 
x="227" 
y="565" 
class="s7_388"
>self</text>

<text 
x="258" 
y="565" 
class="s5_388"
>.</text>

<text 
x="266" 
y="565" 
class="s4_388"
>rows</text>

<text 
x="298" 
y="565" 
class="s5_388"
>:</text>

<text 
x="171" 
y="580" 
class="s3_388"
>def</text>

<text 
x="203" 
y="580" 
class="s6_388"
>is_join</text>

<text 
x="258" 
y="580" 
class="s5_388"
>(</text>

<text 
x="266" 
y="580" 
class="s4_388"
>other_row</text>

<text 
x="337" 
y="580" 
class="s5_388"
>):</text>

<text 
x="203" 
y="596" 
class="s3_388"
>return</text>

<text 
x="258" 
y="596" 
class="s7_388"
>all</text>

<text 
x="282" 
y="596" 
class="s5_388"
>(</text>

<text 
x="290" 
y="596" 
class="s4_388"
>other_row</text>

<text 
x="361" 
y="596" 
class="s5_388"
>[</text>

<text 
x="369" 
y="596" 
class="s4_388"
>c</text>

<text 
x="377" 
y="596" 
dx="0,0,4.6,0" 
class="s5_388"
>] ==</text>

<text 
x="416" 
y="596" 
class="s4_388"
>row</text>

<text 
x="440" 
y="596" 
class="s5_388"
>[</text>

<text 
x="448" 
y="596" 
class="s4_388"
>c</text>

<text 
x="456" 
y="596" 
class="s5_388"
>]</text>

<text 
x="472" 
y="596" 
class="s3_388"
>for</text>

<text 
x="503" 
y="596" 
class="s4_388"
>c</text>

<text 
x="519" 
y="596" 
class="s8_388"
>in</text>

<text 
x="543" 
y="596" 
class="s4_388"
>join_on_columns</text>

<text 
x="661" 
y="596" 
class="s5_388"
>)</text>

<text 
x="171" 
y="627" 
class="s4_388"
>other_rows</text>

<text 
x="258" 
y="627" 
class="s5_388"
>=</text>

<text 
x="274" 
y="627" 
class="s4_388"
>other_table</text>

<text 
x="361" 
y="627" 
class="s5_388"
>.</text>

<text 
x="369" 
y="627" 
class="s4_388"
>where</text>

<text 
x="408" 
y="627" 
class="s5_388"
>(</text>

<text 
x="416" 
y="627" 
class="s4_388"
>is_join</text>

<text 
x="472" 
y="627" 
class="s5_388"
>).</text>

<text 
x="487" 
y="627" 
class="s4_388"
>rows</text>

<text 
x="171" 
y="657" 
dx="0,0,4.6,0,0,0,0,4.6,0,0,0,0,0,4.6,0,0,0,4.6,0,0,0,0,4.6,0,0,0,0,0,0,0,4.6,0,0,0,0,4.6,0,0,0,4.6,0,0,0,0,0,0,0,0,4.6,0,4.6,0,0,0,0,0,0,4.6,0,0" 
class="s9_388"
># each other row that matches this one produces a result row</text>

<text 
x="171" 
y="673" 
class="s3_388"
>for</text>

<text 
x="203" 
y="673" 
class="s4_388"
>other_row</text>

<text 
x="282" 
y="673" 
class="s8_388"
>in</text>

<text 
x="306" 
y="673" 
class="s4_388"
>other_rows</text>

<text 
x="385" 
y="673" 
class="s5_388"
>:</text>

<text 
x="203" 
y="688" 
class="s4_388"
>join_table</text>

<text 
x="282" 
y="688" 
class="s5_388"
>.</text>

<text 
x="290" 
y="688" 
class="s4_388"
>insert</text>

<text 
x="337" 
y="688" 
class="s5_388"
>([</text>

<text 
x="353" 
y="688" 
class="s4_388"
>row</text>

<text 
x="377" 
y="688" 
class="s5_388"
>[</text>

<text 
x="385" 
y="688" 
class="s4_388"
>c</text>

<text 
x="393" 
y="688" 
class="s5_388"
>]</text>

<text 
x="408" 
y="688" 
class="s3_388"
>for</text>

<text 
x="440" 
y="688" 
class="s4_388"
>c</text>

<text 
x="456" 
y="688" 
class="s8_388"
>in</text>

<text 
x="480" 
y="688" 
class="s7_388"
>self</text>

<text 
x="511" 
y="688" 
class="s5_388"
>.</text>

<text 
x="519" 
y="688" 
class="s4_388"
>columns</text>

<text 
x="574" 
y="688" 
dx="0,0,4.6" 
class="s5_388"
>] +</text>

<text 
x="345" 
y="704" 
class="s5_388"
>[</text>

<text 
x="353" 
y="704" 
class="s4_388"
>other_row</text>

<text 
x="424" 
y="704" 
class="s5_388"
>[</text>

<text 
x="432" 
y="704" 
class="s4_388"
>c</text>

<text 
x="440" 
y="704" 
class="s5_388"
>]</text>

<text 
x="456" 
y="704" 
class="s3_388"
>for</text>

<text 
x="487" 
y="704" 
class="s4_388"
>c</text>

<text 
x="503" 
y="704" 
class="s8_388"
>in</text>

<text 
x="527" 
y="704" 
class="s4_388"
>additional_columns</text>

<text 
x="669" 
y="704" 
class="s5_388"
>])</text>

<text 
x="171" 
y="734" 
dx="0,0,4.6,0,0,4.6,0,0,4.6,0,0,0,0,4.6,0,0,0,0,0,4.6,0,0,0,4.6,0,0,0,0,4.6,0,4.6,0,0,0,0,4.6,0,0,0,0,0,4.6,0,0,0,0,0,0,4.6,0,0,0,0,4.6,0,0,0,0" 
class="s9_388"
># if no rows match and it's a left join, output with Nones</text>

<text 
x="171" 
y="750" 
class="s3_388"
>if</text>

<text 
x="195" 
y="750" 
class="s4_388"
>left_join</text>

<text 
x="274" 
y="750" 
dx="0,0,0,0,4.6,0,0" 
class="s8_388"
>and not</text>

<text 
x="337" 
y="750" 
class="s4_388"
>other_rows</text>

<text 
x="416" 
y="750" 
class="s5_388"
>:</text>

<text 
x="203" 
y="765" 
class="s4_388"
>join_table</text>

<text 
x="282" 
y="765" 
class="s5_388"
>.</text>

<text 
x="290" 
y="765" 
class="s4_388"
>insert</text>

<text 
x="337" 
y="765" 
class="s5_388"
>([</text>

<text 
x="353" 
y="765" 
class="s4_388"
>row</text>

<text 
x="377" 
y="765" 
class="s5_388"
>[</text>

<text 
x="385" 
y="765" 
class="s4_388"
>c</text>

<text 
x="393" 
y="765" 
class="s5_388"
>]</text>

<text 
x="408" 
y="765" 
class="s3_388"
>for</text>

<text 
x="440" 
y="765" 
class="s4_388"
>c</text>

<text 
x="456" 
y="765" 
class="s8_388"
>in</text>

<text 
x="480" 
y="765" 
class="s7_388"
>self</text>

<text 
x="511" 
y="765" 
class="s5_388"
>.</text>

<text 
x="519" 
y="765" 
class="s4_388"
>columns</text>

<text 
x="574" 
y="765" 
dx="0,0,4.6" 
class="s5_388"
>] +</text>

<text 
x="345" 
y="781" 
class="s5_388"
>[</text>

<text 
x="353" 
y="781" 
class="s7_388"
>None</text>

<text 
x="393" 
y="781" 
class="s3_388"
>for</text>

<text 
x="424" 
y="781" 
class="s4_388"
>c</text>

<text 
x="440" 
y="781" 
class="s8_388"
>in</text>

<text 
x="464" 
y="781" 
class="s4_388"
>additional_columns</text>

<text 
x="606" 
y="781" 
class="s5_388"
>])</text>

<text 
x="140" 
y="811" 
class="s3_388"
>return</text>

<text 
x="195" 
y="811" 
class="s4_388"
>join_table</text>

<text 
x="55" 
y="864" 
dx="0,0,0,0,0,0,0,0,0,0,0,0,0,0,0,0,0,0,0,0,0,0,0,0,0,0,0,0,0,0,0,0,0,0,0,0,0,0,0,0,0,0,-0.8,0,0,0,0" 
class="s1_388"
>So, we could find users interested in SQL with:</text>

<text 
x="76" 
y="909" 
class="s4_388"
>sql_users</text>

<text 
x="156" 
y="909" 
class="s5_388"
>=</text>

<text 
x="171" 
y="909" 
class="s4_388"
>users</text>

<text 
x="219" 
y="909" 
class="s5_388"
>\</text>

<text 
x="108" 
y="925" 
class="s5_388"
>.</text>

<text 
x="116" 
y="925" 
class="s4_388"
>join</text>

<text 
x="148" 
y="925" 
class="s5_388"
>(</text>

<text 
x="156" 
y="925" 
class="s4_388"
>user_interests</text>

<text 
x="266" 
y="925" 
dx="0,0,4.6" 
class="s5_388"
>) \</text>

<text 
x="108" 
y="940" 
class="s5_388"
>.</text>

<text 
x="116" 
y="940" 
class="s4_388"
>where</text>

<text 
x="156" 
y="940" 
class="s5_388"
>(</text>

<text 
x="163" 
y="940" 
class="s3_388"
>lambda</text>

<text 
x="219" 
y="940" 
class="s4_388"
>row</text>

<text 
x="242" 
y="940" 
class="s5_388"
>:</text>

<text 
x="258" 
y="940" 
class="s4_388"
>row</text>

<text 
x="282" 
y="940" 
class="s5_388"
>[</text>

<text 
x="290" 
y="940" 
class="s10_388"
>"interest"</text>

<text 
x="369" 
y="940" 
dx="0,0,4.6,0" 
class="s5_388"
>] ==</text>

<text 
x="408" 
y="940" 
class="s10_388"
>"SQL"</text>

<text 
x="448" 
y="940" 
dx="0,0,4.6" 
class="s5_388"
>) \</text>

<text 
x="108" 
y="956" 
class="s5_388"
>.</text>

<text 
x="116" 
y="956" 
class="s4_388"
>select</text>

<text 
x="163" 
y="956" 
class="s5_388"
>(</text>

<text 
x="171" 
y="956" 
class="s4_388"
>keep_columns</text>

<text 
x="266" 
y="956" 
class="s5_388"
>=[</text>

<text 
x="282" 
y="956" 
class="s10_388"
>"name"</text>

<text 
x="329" 
y="956" 
class="s5_388"
>])</text>

<text 
x="55" 
y="1008" 
class="s1_388"
>And we could get the interest counts with:</text>

<text 
x="76" 
y="1054" 
class="s3_388"
>def</text>

<text 
x="108" 
y="1054" 
class="s6_388"
>count_interests</text>

<text 
x="227" 
y="1054" 
class="s5_388"
>(</text>

<text 
x="235" 
y="1054" 
class="s4_388"
>rows</text>

<text 
x="266" 
y="1054" 
class="s5_388"
>):</text>

<text 
x="108" 
y="1069" 
dx="0,0,0,0,0,0,0,0,0,0,4.6,0,0,0,4.6,0,0,0,0,4.6,0,0,0,0,4.6,0,0,0,0,4.6,0,0,0,0,0,0,0,0,4.6,0,0,0,0,0,0,0,0,0,0,0" 
class="s11_388"
>"""counts how many rows have non-None interests"""</text>

<text 
x="108" 
y="1084" 
class="s3_388"
>return</text>

<text 
x="163" 
y="1084" 
class="s7_388"
>len</text>

<text 
x="187" 
y="1084" 
class="s5_388"
>([</text>

<text 
x="203" 
y="1084" 
class="s4_388"
>row</text>

<text 
x="235" 
y="1084" 
class="s3_388"
>for</text>

<text 
x="266" 
y="1084" 
class="s4_388"
>row</text>

<text 
x="298" 
y="1084" 
class="s8_388"
>in</text>

<text 
x="322" 
y="1084" 
class="s4_388"
>rows</text>

<text 
x="361" 
y="1084" 
class="s3_388"
>if</text>

<text 
x="385" 
y="1084" 
class="s4_388"
>row</text>

<text 
x="408" 
y="1084" 
class="s5_388"
>[</text>

<text 
x="416" 
y="1084" 
class="s10_388"
>"interest"</text>

<text 
x="495" 
y="1084" 
class="s5_388"
>]</text>

<text 
x="511" 
y="1084" 
dx="0,0,0,4.6,0,0" 
class="s8_388"
>is not</text>

<text 
x="567" 
y="1084" 
class="s7_388"
>None</text>

<text 
x="598" 
y="1084" 
class="s5_388"
>])</text>

<text 
x="76" 
y="1115" 
class="s4_388"
>user_interest_counts</text>

<text 
x="242" 
y="1115" 
class="s5_388"
>=</text>

<text 
x="258" 
y="1115" 
class="s4_388"
>users</text>

<text 
x="306" 
y="1115" 
class="s5_388"
>\</text>

<text 
x="108" 
y="1131" 
class="s5_388"
>.</text>

<text 
x="116" 
y="1131" 
class="s4_388"
>join</text>

<text 
x="148" 
y="1131" 
class="s5_388"
>(</text>

<text 
x="156" 
y="1131" 
class="s4_388"
>user_interests</text>

<text 
x="266" 
y="1131" 
class="s5_388"
>,</text>

<text 
x="282" 
y="1131" 
class="s4_388"
>left_join</text>

<text 
x="353" 
y="1131" 
class="s5_388"
>=</text>

<text 
x="361" 
y="1131" 
class="s7_388"
>True</text>

<text 
x="393" 
y="1131" 
dx="0,0,4.6" 
class="s5_388"
>) \</text>

<text 
x="108" 
y="1146" 
class="s5_388"
>.</text>

<text 
x="116" 
y="1146" 
class="s4_388"
>group_by</text>

<text 
x="179" 
y="1146" 
class="s5_388"
>(</text>

<text 
x="187" 
y="1146" 
class="s4_388"
>group_by_columns</text>

<text 
x="314" 
y="1146" 
class="s5_388"
>=[</text>

<text 
x="329" 
y="1146" 
class="s10_388"
>"user_id"</text>

<text 
x="401" 
y="1146" 
class="s5_388"
>],</text>

<text 
x="187" 
y="1161" 
class="s4_388"
>aggregates</text>

<text 
x="266" 
y="1161" 
class="s5_388"
>={</text>

<text 
x="282" 
y="1161" 
class="s10_388"
>"num_interests"</text>

<text 
x="408" 
y="1161" 
class="s5_388"
>:</text>

<text 
x="424" 
y="1161" 
class="s4_388"
>count_interests</text>

<text 
x="551" 
y="1161" 
class="s5_388"
>})</text>

<text 
x="55" 
y="1214" 
class="s1_388"
>In SQL, there is also a</text>

<text 
x="257" 
y="1214" 
dx="0,0,0,0,0,0,6.1,0,0,0" 
class="s2_388"
>RIGHT JOIN</text>

<text 
x="362" 
y="1214" 
class="s1_388"
>, which keeps rows from the right table that have no</text>



<!-- Any embedded fonts defined here -->
<style type="text/css" ><![CDATA[

@font-face {
	font-family: LiberationMono-Bold_1w;
	src: url("fonts/LiberationMono-Bold_1w.woff") format("woff");
}

@font-face {
	font-family: LiberationMono_1q;
	src: url("fonts/LiberationMono_1q.woff") format("woff");
}

@font-face {
	font-family: LiberationMono-Italic_10;
	src: url("fonts/LiberationMono-Italic_10.woff") format("woff");
}

@font-face {
	font-family: LiberationSerif_e;
	src: url("fonts/LiberationSerif_e.woff") format("woff");
}

]]></style>

</svg>
