<?xml version="1.0" encoding="UTF-8" standalone="no"?>
<!DOCTYPE svg PUBLIC "-//W3C//DTD SVG 1.1//EN"
"http://www.w3.org/Graphics/SVG/1.1/DTD/svg11.dtd">


<!-- Page 40 -->
<svg x="0" y="0" width="909" height="1286" viewBox="0 0 909 1286" version="1.1" xmlns="http://www.w3.org/2000/svg" xmlns:xlink="http://www.w3.org/1999/xlink"
style="display: block;margin-left: auto;margin-right: auto;">
<defs>

<style type="text/css"><![CDATA[


.s1_40{
font-size: 25.31px;
font-family: LiberationSerif-Bold_b;
fill: #000000;
}
.s2_40{
font-size: 22.01px;
font-family: LiberationSerif_e;
fill: #000000;
}
.s3_40{
font-size: 13.20px;
font-family: LiberationMono-Bold_1w;
fill: #006699;
}
.s4_40{
font-size: 13.20px;
font-family: LiberationMono_1q;
fill: #000088;
}
.s5_40{
font-size: 13.20px;
font-family: LiberationMono-Bold_1w;
fill: #000000;
}
.s6_40{
font-size: 13.20px;
font-family: LiberationMono_1q;
fill: #000000;
}
.s7_40{
font-size: 13.20px;
font-family: LiberationMono_1q;
fill: #FF6600;
}
.s8_40{
font-size: 13.20px;
font-family: LiberationMono-Italic_10;
fill: #0099FF;
}
.s9_40{
font-size: 13.20px;
font-family: LiberationMono_1q;
fill: #CC3300;
}
.s10_40{
font-size: 13.20px;
font-family: LiberationMono-Bold_1w;
fill: #CC0000;
}
.s11_40{
font-size: 17.60px;
font-family: LiberationMono_1q;
fill: #000000;
}

]]></style>

</defs>
<path d="M0,0
L0,1286
L909,1286
L909,0 Z " 
fill="#FFFFFF" stroke="none" />
<text 
x="55" 
y="77" 
class="s1_40"
>Whitespace Formatting</text>

<text 
x="55" 
y="115" 
class="s2_40"
>Many languages use curly braces to delimit blocks of code. Python uses indentation:</text>

<text 
x="76" 
y="160" 
class="s3_40"
>for</text>

<text 
x="108" 
y="160" 
class="s4_40"
>i</text>

<text 
x="124" 
y="160" 
class="s5_40"
>in</text>

<text 
x="148" 
y="160" 
class="s6_40"
>[</text>

<text 
x="156" 
y="160" 
class="s7_40"
>1</text>

<text 
x="163" 
y="160" 
class="s6_40"
>,</text>

<text 
x="179" 
y="160" 
class="s7_40"
>2</text>

<text 
x="187" 
y="160" 
class="s6_40"
>,</text>

<text 
x="203" 
y="160" 
class="s7_40"
>3</text>

<text 
x="211" 
y="160" 
class="s6_40"
>,</text>

<text 
x="227" 
y="160" 
class="s7_40"
>4</text>

<text 
x="235" 
y="160" 
class="s6_40"
>,</text>

<text 
x="250" 
y="160" 
class="s7_40"
>5</text>

<text 
x="258" 
y="160" 
class="s6_40"
>]:</text>

<text 
x="108" 
y="176" 
class="s3_40"
>print</text>

<text 
x="156" 
y="176" 
class="s4_40"
>i</text>

<text 
x="329" 
y="176" 
dx="0,0,4.6,0,0,0,0,0,4.6,0,0,0,0,4.6,0,0,4.6,0,0,0,0,4.6,0,0,4.6,0,0,0,0" 
class="s8_40"
># first line in "for i" block</text>

<text 
x="108" 
y="191" 
class="s3_40"
>for</text>

<text 
x="140" 
y="191" 
class="s4_40"
>j</text>

<text 
x="156" 
y="191" 
class="s5_40"
>in</text>

<text 
x="179" 
y="191" 
class="s6_40"
>[</text>

<text 
x="187" 
y="191" 
class="s7_40"
>1</text>

<text 
x="195" 
y="191" 
class="s6_40"
>,</text>

<text 
x="211" 
y="191" 
class="s7_40"
>2</text>

<text 
x="219" 
y="191" 
class="s6_40"
>,</text>

<text 
x="235" 
y="191" 
class="s7_40"
>3</text>

<text 
x="242" 
y="191" 
class="s6_40"
>,</text>

<text 
x="258" 
y="191" 
class="s7_40"
>4</text>

<text 
x="266" 
y="191" 
class="s6_40"
>,</text>

<text 
x="282" 
y="191" 
class="s7_40"
>5</text>

<text 
x="290" 
y="191" 
class="s6_40"
>]:</text>

<text 
x="140" 
y="206" 
class="s3_40"
>print</text>

<text 
x="187" 
y="206" 
class="s4_40"
>j</text>

<text 
x="329" 
y="206" 
dx="0,0,4.6,0,0,0,0,0,4.6,0,0,0,0,4.6,0,0,4.6,0,0,0,0,4.6,0,0,4.6,0,0,0,0" 
class="s8_40"
># first line in "for j" block</text>

<text 
x="140" 
y="222" 
class="s3_40"
>print</text>

<text 
x="187" 
y="222" 
class="s4_40"
>i</text>

<text 
x="203" 
y="222" 
class="s6_40"
>+</text>

<text 
x="219" 
y="222" 
class="s4_40"
>j</text>

<text 
x="329" 
y="222" 
dx="0,0,4.6,0,0,0,0,4.6,0,0,0,0,4.6,0,0,4.6,0,0,0,0,4.6,0,0,4.6,0,0,0,0" 
class="s8_40"
># last line in "for j" block</text>

<text 
x="108" 
y="237" 
class="s3_40"
>print</text>

<text 
x="156" 
y="237" 
class="s4_40"
>i</text>

<text 
x="329" 
y="237" 
dx="0,0,4.6,0,0,0,0,4.6,0,0,0,0,4.6,0,0,4.6,0,0,0,0,4.6,0,0,4.6,0,0,0,0" 
class="s8_40"
># last line in "for i" block</text>

<text 
x="76" 
y="253" 
class="s3_40"
>print</text>

<text 
x="124" 
y="253" 
dx="0,0,0,0,0,0,4.6,0,0,0,0,0,0,0" 
class="s9_40"
>"done looping"</text>

<text 
x="55" 
y="305" 
class="s2_40"
>This makes Python code very readable, but it also means that you have to be very careful</text>

<text 
x="55" 
y="333" 
class="s2_40"
>with your formatting. Whitespace is ignored inside parentheses and brackets, which can be</text>

<text 
x="55" 
y="360" 
class="s2_40"
>helpful for long-winded computations:</text>

<text 
x="76" 
y="405" 
class="s4_40"
>long_winded_computation</text>

<text 
x="266" 
y="405" 
dx="0,0,4.6" 
class="s6_40"
>= (</text>

<text 
x="290" 
y="405" 
class="s7_40"
>1</text>

<text 
x="306" 
y="405" 
class="s6_40"
>+</text>

<text 
x="322" 
y="405" 
class="s7_40"
>2</text>

<text 
x="337" 
y="405" 
class="s6_40"
>+</text>

<text 
x="353" 
y="405" 
class="s7_40"
>3</text>

<text 
x="369" 
y="405" 
class="s6_40"
>+</text>

<text 
x="385" 
y="405" 
class="s7_40"
>4</text>

<text 
x="401" 
y="405" 
class="s6_40"
>+</text>

<text 
x="416" 
y="405" 
class="s7_40"
>5</text>

<text 
x="432" 
y="405" 
class="s6_40"
>+</text>

<text 
x="448" 
y="405" 
class="s7_40"
>6</text>

<text 
x="464" 
y="405" 
class="s6_40"
>+</text>

<text 
x="480" 
y="405" 
class="s7_40"
>7</text>

<text 
x="495" 
y="405" 
class="s6_40"
>+</text>

<text 
x="511" 
y="405" 
class="s7_40"
>8</text>

<text 
x="527" 
y="405" 
class="s6_40"
>+</text>

<text 
x="543" 
y="405" 
class="s7_40"
>9</text>

<text 
x="559" 
y="405" 
class="s6_40"
>+</text>

<text 
x="574" 
y="405" 
class="s7_40"
>10</text>

<text 
x="598" 
y="405" 
class="s6_40"
>+</text>

<text 
x="614" 
y="405" 
class="s7_40"
>11</text>

<text 
x="638" 
y="405" 
class="s6_40"
>+</text>

<text 
x="653" 
y="405" 
class="s7_40"
>12</text>

<text 
x="677" 
y="405" 
class="s6_40"
>+</text>

<text 
x="290" 
y="421" 
class="s7_40"
>13</text>

<text 
x="314" 
y="421" 
class="s6_40"
>+</text>

<text 
x="329" 
y="421" 
class="s7_40"
>14</text>

<text 
x="353" 
y="421" 
class="s6_40"
>+</text>

<text 
x="369" 
y="421" 
class="s7_40"
>15</text>

<text 
x="393" 
y="421" 
class="s6_40"
>+</text>

<text 
x="408" 
y="421" 
class="s7_40"
>16</text>

<text 
x="432" 
y="421" 
class="s6_40"
>+</text>

<text 
x="448" 
y="421" 
class="s7_40"
>17</text>

<text 
x="472" 
y="421" 
class="s6_40"
>+</text>

<text 
x="487" 
y="421" 
class="s7_40"
>18</text>

<text 
x="511" 
y="421" 
class="s6_40"
>+</text>

<text 
x="527" 
y="421" 
class="s7_40"
>19</text>

<text 
x="551" 
y="421" 
class="s6_40"
>+</text>

<text 
x="567" 
y="421" 
class="s7_40"
>20</text>

<text 
x="582" 
y="421" 
class="s6_40"
>)</text>

<text 
x="55" 
y="474" 
class="s2_40"
>and for making code easier to read:</text>

<text 
x="76" 
y="519" 
class="s4_40"
>list_of_lists</text>

<text 
x="187" 
y="519" 
dx="0,0,4.6,0" 
class="s6_40"
>= [[</text>

<text 
x="219" 
y="519" 
class="s7_40"
>1</text>

<text 
x="227" 
y="519" 
class="s6_40"
>,</text>

<text 
x="242" 
y="519" 
class="s7_40"
>2</text>

<text 
x="250" 
y="519" 
class="s6_40"
>,</text>

<text 
x="266" 
y="519" 
class="s7_40"
>3</text>

<text 
x="274" 
y="519" 
dx="0,0,0,4.6" 
class="s6_40"
>], [</text>

<text 
x="306" 
y="519" 
class="s7_40"
>4</text>

<text 
x="314" 
y="519" 
class="s6_40"
>,</text>

<text 
x="329" 
y="519" 
class="s7_40"
>5</text>

<text 
x="337" 
y="519" 
class="s6_40"
>,</text>

<text 
x="353" 
y="519" 
class="s7_40"
>6</text>

<text 
x="361" 
y="519" 
dx="0,0,0,4.6" 
class="s6_40"
>], [</text>

<text 
x="393" 
y="519" 
class="s7_40"
>7</text>

<text 
x="401" 
y="519" 
class="s6_40"
>,</text>

<text 
x="416" 
y="519" 
class="s7_40"
>8</text>

<text 
x="424" 
y="519" 
class="s6_40"
>,</text>

<text 
x="440" 
y="519" 
class="s7_40"
>9</text>

<text 
x="448" 
y="519" 
class="s6_40"
>]]</text>

<text 
x="76" 
y="550" 
class="s4_40"
>easier_to_read_list_of_lists</text>

<text 
x="306" 
y="550" 
dx="0,0,4.6,0,4.6" 
class="s6_40"
>= [ [</text>

<text 
x="345" 
y="550" 
class="s7_40"
>1</text>

<text 
x="353" 
y="550" 
class="s6_40"
>,</text>

<text 
x="369" 
y="550" 
class="s7_40"
>2</text>

<text 
x="377" 
y="550" 
class="s6_40"
>,</text>

<text 
x="393" 
y="550" 
class="s7_40"
>3</text>

<text 
x="401" 
y="550" 
class="s6_40"
>],</text>

<text 
x="337" 
y="565" 
class="s6_40"
>[</text>

<text 
x="345" 
y="565" 
class="s7_40"
>4</text>

<text 
x="353" 
y="565" 
class="s6_40"
>,</text>

<text 
x="369" 
y="565" 
class="s7_40"
>5</text>

<text 
x="377" 
y="565" 
class="s6_40"
>,</text>

<text 
x="393" 
y="565" 
class="s7_40"
>6</text>

<text 
x="401" 
y="565" 
class="s6_40"
>],</text>

<text 
x="337" 
y="580" 
class="s6_40"
>[</text>

<text 
x="345" 
y="580" 
class="s7_40"
>7</text>

<text 
x="353" 
y="580" 
class="s6_40"
>,</text>

<text 
x="369" 
y="580" 
class="s7_40"
>8</text>

<text 
x="377" 
y="580" 
class="s6_40"
>,</text>

<text 
x="393" 
y="580" 
class="s7_40"
>9</text>

<text 
x="401" 
y="580" 
dx="0,0,4.6" 
class="s6_40"
>] ]</text>

<text 
x="55" 
y="633" 
dx="0,-2.2,0,0,0,0,0,0,0,0,0,0,0,0,0,0,0,0,0,0,0,0,0,0,0,0,0,0,0,0,0,0,0,0,0,0,0,0,0,0,0,0,0,0,0,0,0,0,0,0,0,0,0,0,0,0,0,0,0,0,0,0,0,0,0,0,0,0,0,0,0,0,0,0,0,0,0,0,0,0,0,0,0,0,0,0,0" 
class="s2_40"
>You can also use a backslash to indicate that a statement continues onto the next line,</text>

<text 
x="55" 
y="661" 
class="s2_40"
>although we’ll rarely do this:</text>

<text 
x="76" 
y="706" 
class="s4_40"
>two_plus_three</text>

<text 
x="195" 
y="706" 
class="s6_40"
>=</text>

<text 
x="211" 
y="706" 
class="s7_40"
>2</text>

<text 
x="227" 
y="706" 
dx="0,0,4.6" 
class="s6_40"
>+ \</text>

<text 
x="211" 
y="721" 
class="s7_40"
>3</text>

<text 
x="55" 
y="774" 
class="s2_40"
>One consequence of whitespace formatting is that it can be hard to copy and paste code</text>

<text 
x="55" 
y="802" 
class="s2_40"
>into the Python shell. For example, if you tried to paste the code:</text>

<text 
x="76" 
y="847" 
class="s3_40"
>for</text>

<text 
x="108" 
y="847" 
class="s4_40"
>i</text>

<text 
x="124" 
y="847" 
class="s5_40"
>in</text>

<text 
x="148" 
y="847" 
class="s6_40"
>[</text>

<text 
x="156" 
y="847" 
class="s7_40"
>1</text>

<text 
x="163" 
y="847" 
class="s6_40"
>,</text>

<text 
x="179" 
y="847" 
class="s7_40"
>2</text>

<text 
x="187" 
y="847" 
class="s6_40"
>,</text>

<text 
x="203" 
y="847" 
class="s7_40"
>3</text>

<text 
x="211" 
y="847" 
class="s6_40"
>,</text>

<text 
x="227" 
y="847" 
class="s7_40"
>4</text>

<text 
x="235" 
y="847" 
class="s6_40"
>,</text>

<text 
x="250" 
y="847" 
class="s7_40"
>5</text>

<text 
x="258" 
y="847" 
class="s6_40"
>]:</text>

<text 
x="108" 
y="878" 
dx="0,0,4.6,0,0,0,0,0,0,4.6,0,0,0,4.6,0,0,0,0,0,4.6,0,0,0" 
class="s8_40"
># notice the blank line</text>

<text 
x="108" 
y="893" 
class="s3_40"
>print</text>

<text 
x="156" 
y="893" 
class="s4_40"
>i</text>

<text 
x="55" 
y="946" 
class="s2_40"
>into the ordinary Python shell, you would get a:</text>

<text 
x="76" 
y="991" 
class="s10_40"
>IndentationError</text>

<text 
x="203" 
y="991" 
class="s6_40"
>:</text>

<text 
x="219" 
y="991" 
dx="0,0,0,0,0,0,0,0,0,4.6,0,0,4.6,0,0,0,0,0,0,0,0,4.6,0,0,0,0" 
class="s4_40"
>expected an indented block</text>

<text 
x="55" 
y="1044" 
class="s2_40"
>because the interpreter thinks the blank line signals the end of the</text>

<text 
x="636" 
y="1044" 
class="s11_40"
>for</text>

<text 
x="673" 
y="1044" 
dx="0,0,0,0,0,-1.2,0,0,0,0,0,0,0" 
class="s2_40"
>loop’s block.</text>

<text 
x="55" 
y="1084" 
class="s2_40"
>IPython has a magic function</text>

<text 
x="318" 
y="1084" 
class="s11_40"
>%paste</text>

<text 
x="381" 
y="1084" 
class="s2_40"
>, which correctly pastes whatever is on your</text>

<text 
x="55" 
y="1114" 
class="s2_40"
>clipboard, whitespace and all. This alone is a good reason to use IPython.</text>



<!-- Any embedded fonts defined here -->
<style type="text/css" ><![CDATA[

@font-face {
	font-family: LiberationMono-Bold_1w;
	src: url("fonts/LiberationMono-Bold_1w.woff") format("woff");
}

@font-face {
	font-family: LiberationMono_1q;
	src: url("fonts/LiberationMono_1q.woff") format("woff");
}

@font-face {
	font-family: LiberationMono-Italic_10;
	src: url("fonts/LiberationMono-Italic_10.woff") format("woff");
}

@font-face {
	font-family: LiberationSerif-Bold_b;
	src: url("fonts/LiberationSerif-Bold_b.woff") format("woff");
}

@font-face {
	font-family: LiberationSerif_e;
	src: url("fonts/LiberationSerif_e.woff") format("woff");
}

]]></style>

</svg>
