<?xml version="1.0" encoding="UTF-8" standalone="no"?>
<!DOCTYPE svg PUBLIC "-//W3C//DTD SVG 1.1//EN"
"http://www.w3.org/Graphics/SVG/1.1/DTD/svg11.dtd">


<!-- Page 402 -->
<svg x="0" y="0" width="909" height="1286" viewBox="0 0 909 1286" version="1.1" xmlns="http://www.w3.org/2000/svg" xmlns:xlink="http://www.w3.org/1999/xlink"
style="display: block;margin-left: auto;margin-right: auto;">
<defs>

<style type="text/css"><![CDATA[


.s1_402{
font-size: 13.20px;
font-family: LiberationMono_1q;
fill: #000088;
}
.s2_402{
font-size: 13.20px;
font-family: LiberationMono_1q;
fill: #000000;
}
.s3_402{
font-size: 13.20px;
font-family: LiberationMono_1q;
fill: #FF6600;
}
.s4_402{
font-size: 13.20px;
font-family: LiberationMono-Bold_1w;
fill: #006699;
}
.s5_402{
font-size: 22.01px;
font-family: LiberationSerif_e;
fill: #000000;
}
.s6_402{
font-size: 13.20px;
font-family: LiberationMono_1q;
fill: #CC00FF;
}
.s7_402{
font-size: 13.20px;
font-family: LiberationMono_1q;
fill: #CC3300;
}
.s8_402{
font-size: 13.20px;
font-family: LiberationMono-Bold_1w;
fill: #000000;
}

]]></style>

</defs>
<path d="M0,0
L0,1286
L909,1286
L909,0 Z " 
fill="#FFFFFF" stroke="none" />
<text 
x="108" 
y="64" 
class="s1_402"
>word</text>

<text 
x="140" 
y="64" 
class="s2_402"
>,</text>

<text 
x="156" 
y="64" 
class="s1_402"
>count</text>

<text 
x="203" 
y="64" 
class="s2_402"
>=</text>

<text 
x="219" 
y="64" 
class="s1_402"
>word_counts</text>

<text 
x="306" 
y="64" 
class="s2_402"
>.</text>

<text 
x="314" 
y="64" 
class="s1_402"
>most_common</text>

<text 
x="401" 
y="64" 
class="s2_402"
>(</text>

<text 
x="408" 
y="64" 
class="s3_402"
>1</text>

<text 
x="416" 
y="64" 
class="s2_402"
>)[</text>

<text 
x="432" 
y="64" 
class="s3_402"
>0</text>

<text 
x="440" 
y="64" 
class="s2_402"
>]</text>

<text 
x="108" 
y="95" 
class="s4_402"
>yield</text>

<text 
x="156" 
y="95" 
class="s2_402"
>(</text>

<text 
x="163" 
y="95" 
class="s1_402"
>user</text>

<text 
x="195" 
y="95" 
dx="0,0,4.6" 
class="s2_402"
>, (</text>

<text 
x="219" 
y="95" 
class="s1_402"
>word</text>

<text 
x="250" 
y="95" 
class="s2_402"
>,</text>

<text 
x="266" 
y="95" 
class="s1_402"
>count</text>

<text 
x="306" 
y="95" 
class="s2_402"
>))</text>

<text 
x="76" 
y="126" 
class="s1_402"
>user_words</text>

<text 
x="163" 
y="126" 
class="s2_402"
>=</text>

<text 
x="179" 
y="126" 
class="s1_402"
>map_reduce</text>

<text 
x="258" 
y="126" 
class="s2_402"
>(</text>

<text 
x="266" 
y="126" 
class="s1_402"
>status_updates</text>

<text 
x="377" 
y="126" 
class="s2_402"
>,</text>

<text 
x="266" 
y="141" 
class="s1_402"
>words_per_user_mapper</text>

<text 
x="432" 
y="141" 
class="s2_402"
>,</text>

<text 
x="266" 
y="157" 
class="s1_402"
>most_popular_word_reducer</text>

<text 
x="464" 
y="157" 
class="s2_402"
>)</text>

<text 
x="55" 
y="210" 
class="s5_402"
>Or we could find out the number of distinct status-likers for each user:</text>

<text 
x="76" 
y="255" 
class="s4_402"
>def</text>

<text 
x="108" 
y="255" 
class="s6_402"
>liker_mapper</text>

<text 
x="203" 
y="255" 
class="s2_402"
>(</text>

<text 
x="211" 
y="255" 
class="s1_402"
>status_update</text>

<text 
x="314" 
y="255" 
class="s2_402"
>):</text>

<text 
x="108" 
y="270" 
class="s1_402"
>user</text>

<text 
x="148" 
y="270" 
class="s2_402"
>=</text>

<text 
x="163" 
y="270" 
class="s1_402"
>status_update</text>

<text 
x="266" 
y="270" 
class="s2_402"
>[</text>

<text 
x="274" 
y="270" 
class="s7_402"
>"username"</text>

<text 
x="353" 
y="270" 
class="s2_402"
>]</text>

<text 
x="108" 
y="286" 
class="s4_402"
>for</text>

<text 
x="140" 
y="286" 
class="s1_402"
>liker</text>

<text 
x="187" 
y="286" 
class="s8_402"
>in</text>

<text 
x="211" 
y="286" 
class="s1_402"
>status_update</text>

<text 
x="314" 
y="286" 
class="s2_402"
>[</text>

<text 
x="322" 
y="286" 
class="s7_402"
>"liked_by"</text>

<text 
x="401" 
y="286" 
class="s2_402"
>]:</text>

<text 
x="140" 
y="301" 
class="s4_402"
>yield</text>

<text 
x="187" 
y="301" 
class="s2_402"
>(</text>

<text 
x="195" 
y="301" 
class="s1_402"
>user</text>

<text 
x="227" 
y="301" 
class="s2_402"
>,</text>

<text 
x="242" 
y="301" 
class="s1_402"
>liker</text>

<text 
x="282" 
y="301" 
class="s2_402"
>)</text>

<text 
x="76" 
y="332" 
class="s1_402"
>distinct_likers_per_user</text>

<text 
x="274" 
y="332" 
class="s2_402"
>=</text>

<text 
x="290" 
y="332" 
class="s1_402"
>map_reduce</text>

<text 
x="369" 
y="332" 
class="s2_402"
>(</text>

<text 
x="377" 
y="332" 
class="s1_402"
>status_updates</text>

<text 
x="487" 
y="332" 
class="s2_402"
>,</text>

<text 
x="377" 
y="347" 
class="s1_402"
>liker_mapper</text>

<text 
x="472" 
y="347" 
class="s2_402"
>,</text>

<text 
x="377" 
y="363" 
class="s1_402"
>count_distinct_reducer</text>

<text 
x="551" 
y="363" 
class="s2_402"
>)</text>



<!-- Any embedded fonts defined here -->
<style type="text/css" ><![CDATA[

@font-face {
	font-family: LiberationMono-Bold_1w;
	src: url("fonts/LiberationMono-Bold_1w.woff") format("woff");
}

@font-face {
	font-family: LiberationMono_1q;
	src: url("fonts/LiberationMono_1q.woff") format("woff");
}

@font-face {
	font-family: LiberationSerif_e;
	src: url("fonts/LiberationSerif_e.woff") format("woff");
}

]]></style>

</svg>
