<?xml version="1.0" encoding="UTF-8" standalone="no"?>
<!DOCTYPE svg PUBLIC "-//W3C//DTD SVG 1.1//EN"
"http://www.w3.org/Graphics/SVG/1.1/DTD/svg11.dtd">


<!-- Page 404 -->
<svg x="0" y="0" width="909" height="1286" viewBox="0 0 909 1286" version="1.1" xmlns="http://www.w3.org/2000/svg" xmlns:xlink="http://www.w3.org/1999/xlink"
style="display: block;margin-left: auto;margin-right: auto;">
<defs>

<style type="text/css"><![CDATA[


.s1_404{
font-size: 13.20px;
font-family: LiberationMono-Bold_1w;
fill: #006699;
}
.s2_404{
font-size: 13.20px;
font-family: LiberationMono_1q;
fill: #000088;
}
.s3_404{
font-size: 13.20px;
font-family: LiberationMono_1q;
fill: #000000;
}
.s4_404{
font-size: 13.20px;
font-family: LiberationMono_1q;
fill: #FF6600;
}
.s5_404{
font-size: 22.01px;
font-family: LiberationSerif_e;
fill: #000000;
}
.s6_404{
font-size: 13.20px;
font-family: LiberationMono_1q;
fill: #CC3300;
}
.s7_404{
font-size: 13.20px;
font-family: LiberationMono-Italic_10;
fill: #0099FF;
}

]]></style>

</defs>
<path d="M0,0
L0,1286
L909,1286
L909,0 Z " 
fill="#FFFFFF" stroke="none" />
<text 
x="108" 
y="64" 
class="s1_404"
>if</text>

<text 
x="132" 
y="64" 
class="s2_404"
>sum_product</text>

<text 
x="227" 
y="64" 
class="s3_404"
>!=</text>

<text 
x="250" 
y="64" 
class="s4_404"
>0.0</text>

<text 
x="274" 
y="64" 
class="s3_404"
>:</text>

<text 
x="140" 
y="80" 
class="s1_404"
>yield</text>

<text 
x="187" 
y="80" 
class="s3_404"
>(</text>

<text 
x="195" 
y="80" 
class="s2_404"
>key</text>

<text 
x="219" 
y="80" 
class="s3_404"
>,</text>

<text 
x="235" 
y="80" 
class="s2_404"
>sum_product</text>

<text 
x="322" 
y="80" 
class="s3_404"
>)</text>

<text 
x="55" 
y="133" 
class="s5_404"
>For example, if you had the two matrices</text>

<text 
x="76" 
y="178" 
class="s2_404"
>A</text>

<text 
x="92" 
y="178" 
dx="0,0,4.6,0" 
class="s3_404"
>= [[</text>

<text 
x="124" 
y="178" 
class="s4_404"
>3</text>

<text 
x="132" 
y="178" 
class="s3_404"
>,</text>

<text 
x="148" 
y="178" 
class="s4_404"
>2</text>

<text 
x="156" 
y="178" 
class="s3_404"
>,</text>

<text 
x="171" 
y="178" 
class="s4_404"
>0</text>

<text 
x="179" 
y="178" 
class="s3_404"
>],</text>

<text 
x="116" 
y="193" 
class="s3_404"
>[</text>

<text 
x="124" 
y="193" 
class="s4_404"
>0</text>

<text 
x="132" 
y="193" 
class="s3_404"
>,</text>

<text 
x="148" 
y="193" 
class="s4_404"
>0</text>

<text 
x="156" 
y="193" 
class="s3_404"
>,</text>

<text 
x="171" 
y="193" 
class="s4_404"
>0</text>

<text 
x="179" 
y="193" 
class="s3_404"
>]]</text>

<text 
x="76" 
y="224" 
class="s2_404"
>B</text>

<text 
x="92" 
y="224" 
dx="0,0,4.6,0" 
class="s3_404"
>= [[</text>

<text 
x="124" 
y="224" 
class="s4_404"
>4</text>

<text 
x="132" 
y="224" 
dx="0,0,4.6" 
class="s3_404"
>, -</text>

<text 
x="156" 
y="224" 
class="s4_404"
>1</text>

<text 
x="163" 
y="224" 
class="s3_404"
>,</text>

<text 
x="179" 
y="224" 
class="s4_404"
>0</text>

<text 
x="187" 
y="224" 
class="s3_404"
>],</text>

<text 
x="116" 
y="239" 
class="s3_404"
>[</text>

<text 
x="124" 
y="239" 
class="s4_404"
>10</text>

<text 
x="140" 
y="239" 
class="s3_404"
>,</text>

<text 
x="156" 
y="239" 
class="s4_404"
>0</text>

<text 
x="163" 
y="239" 
class="s3_404"
>,</text>

<text 
x="179" 
y="239" 
class="s4_404"
>0</text>

<text 
x="187" 
y="239" 
class="s3_404"
>],</text>

<text 
x="116" 
y="255" 
class="s3_404"
>[</text>

<text 
x="124" 
y="255" 
class="s4_404"
>0</text>

<text 
x="132" 
y="255" 
class="s3_404"
>,</text>

<text 
x="148" 
y="255" 
class="s4_404"
>0</text>

<text 
x="156" 
y="255" 
class="s3_404"
>,</text>

<text 
x="171" 
y="255" 
class="s4_404"
>0</text>

<text 
x="179" 
y="255" 
class="s3_404"
>]]</text>

<text 
x="55" 
y="308" 
class="s5_404"
>you could rewrite them as tuples:</text>

<text 
x="76" 
y="353" 
class="s2_404"
>entries</text>

<text 
x="140" 
y="353" 
dx="0,0,4.6,0" 
class="s3_404"
>= [(</text>

<text 
x="171" 
y="353" 
class="s6_404"
>"A"</text>

<text 
x="195" 
y="353" 
class="s3_404"
>,</text>

<text 
x="211" 
y="353" 
class="s4_404"
>0</text>

<text 
x="219" 
y="353" 
class="s3_404"
>,</text>

<text 
x="235" 
y="353" 
class="s4_404"
>0</text>

<text 
x="242" 
y="353" 
class="s3_404"
>,</text>

<text 
x="258" 
y="353" 
class="s4_404"
>3</text>

<text 
x="266" 
y="353" 
dx="0,0,0,4.6" 
class="s3_404"
>), (</text>

<text 
x="298" 
y="353" 
class="s6_404"
>"A"</text>

<text 
x="322" 
y="353" 
class="s3_404"
>,</text>

<text 
x="337" 
y="353" 
class="s4_404"
>0</text>

<text 
x="345" 
y="353" 
class="s3_404"
>,</text>

<text 
x="361" 
y="353" 
class="s4_404"
>1</text>

<text 
x="369" 
y="353" 
class="s3_404"
>,</text>

<text 
x="393" 
y="353" 
class="s4_404"
>2</text>

<text 
x="401" 
y="353" 
class="s3_404"
>),</text>

<text 
x="163" 
y="368" 
class="s3_404"
>(</text>

<text 
x="171" 
y="368" 
class="s6_404"
>"B"</text>

<text 
x="195" 
y="368" 
class="s3_404"
>,</text>

<text 
x="211" 
y="368" 
class="s4_404"
>0</text>

<text 
x="219" 
y="368" 
class="s3_404"
>,</text>

<text 
x="235" 
y="368" 
class="s4_404"
>0</text>

<text 
x="242" 
y="368" 
class="s3_404"
>,</text>

<text 
x="258" 
y="368" 
class="s4_404"
>4</text>

<text 
x="266" 
y="368" 
dx="0,0,0,4.6" 
class="s3_404"
>), (</text>

<text 
x="298" 
y="368" 
class="s6_404"
>"B"</text>

<text 
x="322" 
y="368" 
class="s3_404"
>,</text>

<text 
x="337" 
y="368" 
class="s4_404"
>0</text>

<text 
x="345" 
y="368" 
class="s3_404"
>,</text>

<text 
x="361" 
y="368" 
class="s4_404"
>1</text>

<text 
x="369" 
y="368" 
dx="0,0,4.6" 
class="s3_404"
>, -</text>

<text 
x="393" 
y="368" 
class="s4_404"
>1</text>

<text 
x="401" 
y="368" 
dx="0,0,0,4.6" 
class="s3_404"
>), (</text>

<text 
x="432" 
y="368" 
class="s6_404"
>"B"</text>

<text 
x="456" 
y="368" 
class="s3_404"
>,</text>

<text 
x="472" 
y="368" 
class="s4_404"
>1</text>

<text 
x="480" 
y="368" 
class="s3_404"
>,</text>

<text 
x="495" 
y="368" 
class="s4_404"
>0</text>

<text 
x="503" 
y="368" 
class="s3_404"
>,</text>

<text 
x="519" 
y="368" 
class="s4_404"
>10</text>

<text 
x="535" 
y="368" 
class="s3_404"
>)]</text>

<text 
x="76" 
y="383" 
class="s2_404"
>mapper</text>

<text 
x="132" 
y="383" 
class="s3_404"
>=</text>

<text 
x="148" 
y="383" 
class="s2_404"
>partial</text>

<text 
x="203" 
y="383" 
class="s3_404"
>(</text>

<text 
x="211" 
y="383" 
class="s2_404"
>matrix_multiply_mapper</text>

<text 
x="385" 
y="383" 
class="s3_404"
>,</text>

<text 
x="401" 
y="383" 
class="s4_404"
>3</text>

<text 
x="408" 
y="383" 
class="s3_404"
>)</text>

<text 
x="76" 
y="399" 
class="s2_404"
>reducer</text>

<text 
x="140" 
y="399" 
class="s3_404"
>=</text>

<text 
x="156" 
y="399" 
class="s2_404"
>partial</text>

<text 
x="211" 
y="399" 
class="s3_404"
>(</text>

<text 
x="219" 
y="399" 
class="s2_404"
>matrix_multiply_reducer</text>

<text 
x="401" 
y="399" 
class="s3_404"
>,</text>

<text 
x="416" 
y="399" 
class="s4_404"
>3</text>

<text 
x="424" 
y="399" 
class="s3_404"
>)</text>

<text 
x="76" 
y="430" 
class="s2_404"
>map_reduce</text>

<text 
x="156" 
y="430" 
class="s3_404"
>(</text>

<text 
x="163" 
y="430" 
class="s2_404"
>entries</text>

<text 
x="219" 
y="430" 
class="s3_404"
>,</text>

<text 
x="235" 
y="430" 
class="s2_404"
>mapper</text>

<text 
x="282" 
y="430" 
class="s3_404"
>,</text>

<text 
x="298" 
y="430" 
class="s2_404"
>reducer</text>

<text 
x="353" 
y="430" 
class="s3_404"
>)</text>

<text 
x="369" 
y="430" 
dx="0,0,4.6,0,0,0,0,0,4.6,0,0,0,4.6,0,0,0,0,4.6,0,0,0,0,4.6,0,0,0,4.6,0,0,0" 
class="s7_404"
># [((0, 1), -3), ((0, 0), 32)]</text>

<text 
x="55" 
y="483" 
dx="0,0,0,0,0,0,0,0,0,-0.4,0,0,0,0,0,0,0,0,0,0,0,0,0,0,0,0,0,0,0,0,0,0,0,0,0,0,0,0,0,0,0,0,0,0,0,0,0,0,0,0,0,0,0,0,0,0,0,0,0,0,0,0,0,0,0,0,0,0,0,0,0,0,0,0,0,0,0,0,0,0,0,0,0,0,0,0,0,0,0,0,0" 
class="s5_404"
>This isn’t terribly interesting on such small matrices, but if you had millions of rows and</text>

<text 
x="55" 
y="510" 
class="s5_404"
>millions of columns, it could help you a lot.</text>



<!-- Any embedded fonts defined here -->
<style type="text/css" ><![CDATA[

@font-face {
	font-family: LiberationMono-Bold_1w;
	src: url("fonts/LiberationMono-Bold_1w.woff") format("woff");
}

@font-face {
	font-family: LiberationMono_1q;
	src: url("fonts/LiberationMono_1q.woff") format("woff");
}

@font-face {
	font-family: LiberationMono-Italic_10;
	src: url("fonts/LiberationMono-Italic_10.woff") format("woff");
}

@font-face {
	font-family: LiberationSerif_e;
	src: url("fonts/LiberationSerif_e.woff") format("woff");
}

]]></style>

</svg>
