<?xml version="1.0" encoding="UTF-8" standalone="no"?>
<!DOCTYPE svg PUBLIC "-//W3C//DTD SVG 1.1//EN"
"http://www.w3.org/Graphics/SVG/1.1/DTD/svg11.dtd">


<!-- Page 417 -->
<svg x="0" y="0" width="909" height="1286" viewBox="0 0 909 1286" version="1.1" xmlns="http://www.w3.org/2000/svg" xmlns:xlink="http://www.w3.org/1999/xlink"
style="display: block;margin-left: auto;margin-right: auto;">
<defs>

<style type="text/css"><![CDATA[

.g1_417{
stroke: #000000;
stroke-width: 1.0996486;
stroke-linecap: square;
stroke-linejoin: miter;
}

.s1_417{
font-size: 30.81px;
font-family: LiberationSerif-Bold_b;
fill: #8E0012;
}
.s2_417{
font-size: 22.01px;
font-family: LiberationSerif_e;
fill: #000000;
}
.s3_417{
font-size: 22.01px;
font-family: LiberationSerif_e;
fill: #8E0012;
}

]]></style>

</defs>
<path d="M0,0
L0,1286
L909,1286
L909,0 Z " 
fill="#FFFFFF" stroke="none" />
<text 
x="55" 
y="81" 
class="s1_417"
>Find Data</text>

<text 
x="55" 
y="122" 
class="s2_417"
>If you’re doing data science as part of your job, you’ll most likely get the data as part of</text>

<text 
x="55" 
y="149" 
class="s2_417"
>your job (although not necessarily). What if you’re doing data science for fun? Data is</text>

<text 
x="55" 
y="177" 
class="s2_417"
>everywhere, but here are some starting points:</text>

<path d="M61.6,204.6l6.6,0l0,6.6l-6.6,0l0,-6.6Z" class="g1_417" />
<text 
x="82" 
y="214" 
class="s3_417"
>Data.gov</text>

<text 
x="167" 
y="214" 
dx="0,0,0,0,0,0,0,0,0,0,0,0,0,0,0,0,0,0,-1.2,0,0,0,0,0,0,0,0,0,0,0,0,0,0,0,0,0,0,0,0,0,0,0,0,0,0,0,0,0,0,0,0,0,0,0,0,0,0,0,0,0,0,0,0,0,0,0,0,0,0,0,0,0,0,0,0,0,0,0" 
class="s2_417"
>is the government’s open data portal. If you want data on anything that has to</text>

<text 
x="82" 
y="239" 
dx="0,0,0,0,0,0,0,0,0,0,0,0,0,0,0,0,0,0,0,0,0,0,0,0,0,0,0,0,0,0,0,0,0,0,0,0,0,0,0,0,0,0,0,0,0,0,0,0,0,0,0,0,0,0,0,0,0,0,0,0,0,0,0,0,0,0,0,0,0,-1.2,0,0,0,0,0,0,0,0,0,0,0,0,0,0,0,0" 
class="s2_417"
>do with the government (which seems to be most things these days) it’s a good place to</text>

<text 
x="82" 
y="265" 
class="s2_417"
>start.</text>

<path d="M61.6,302.6l6.6,0l0,6.6l-6.6,0l0,-6.6Z" class="g1_417" />
<text 
x="82" 
y="312" 
class="s2_417"
>reddit has a couple of forums,</text>

<text 
x="350" 
y="312" 
class="s3_417"
>r/datasets</text>

<text 
x="439" 
y="312" 
class="s2_417"
>and</text>

<text 
x="476" 
y="312" 
class="s3_417"
>r/data</text>

<text 
x="526" 
y="312" 
class="s2_417"
>, that are places to both ask for and</text>

<text 
x="82" 
y="337" 
class="s2_417"
>discover data.</text>

<path d="M61.6,375.2l6.6,0l0,6.6l-6.6,0l0,-6.6Z" class="g1_417" />
<text 
x="82" 
y="385" 
class="s2_417"
>Amazon.com maintains a collection of</text>

<text 
x="428" 
y="385" 
class="s3_417"
>public data sets</text>

<text 
x="569" 
y="385" 
class="s2_417"
>that they’d like you to analyze</text>

<text 
x="82" 
y="410" 
class="s2_417"
>using their products (but that you can analyze with whatever products you want).</text>

<path d="M61.6,447.8l6.6,0l0,6.6l-6.6,0l0,-6.6Z" class="g1_417" />
<text 
x="82" 
y="457" 
class="s2_417"
>Robb Seaton has a quirky list of curated data sets</text>

<text 
x="520" 
y="457" 
class="s3_417"
>on his blog</text>

<text 
x="618" 
y="457" 
class="s2_417"
>.</text>

<path d="M61.6,495.1l6.6,0l0,6.6l-6.6,0l0,-6.6Z" class="g1_417" />
<text 
x="82" 
y="505" 
class="s3_417"
>Kaggle</text>

<text 
x="151" 
y="505" 
class="s2_417"
>is a site that holds data science competitions. I never managed to get into it (I</text>

<text 
x="82" 
y="530" 
dx="0,0,0,0,-0.4,0,0,0,0,0,0,0,0,0,0,0,0,0,0,0,0,0,0,0,0,0,0,0,0,0,0,0,0,0,0,0,0,0,0,0,0,0,0,0,0,0,0,0,0,0,0,0,0,0,0,0,0,0,0,0,0,0,0,0,0,0,0,0,0,0,0,0,0,0,0,0,0,0,0,0,0,0,0,0,0,0" 
class="s2_417"
>don’t have much of a competitive nature when it comes to data science), but you might.</text>



<!-- Any embedded fonts defined here -->
<style type="text/css" ><![CDATA[

@font-face {
	font-family: LiberationSerif-Bold_b;
	src: url("fonts/LiberationSerif-Bold_b.woff") format("woff");
}

@font-face {
	font-family: LiberationSerif_e;
	src: url("fonts/LiberationSerif_e.woff") format("woff");
}

]]></style>

</svg>
