<?xml version="1.0" encoding="UTF-8" standalone="no"?>
<!DOCTYPE svg PUBLIC "-//W3C//DTD SVG 1.1//EN"
"http://www.w3.org/Graphics/SVG/1.1/DTD/svg11.dtd">


<!-- Page 5 -->
<svg x="0" y="0" width="909" height="1286" viewBox="0 0 909 1286" version="1.1" xmlns="http://www.w3.org/2000/svg" xmlns:xlink="http://www.w3.org/1999/xlink"
style="display: block;margin-left: auto;margin-right: auto;">
<defs>

<style type="text/css"><![CDATA[

.g1_5{
stroke: #000000;
stroke-width: 1.0996486;
stroke-linecap: square;
stroke-linejoin: miter;
}

.s1_5{
font-size: 22.01px;
font-family: LiberationSerif-Bold_b;
fill: #000000;
}
.s2_5{
font-size: 22.01px;
font-family: LiberationSerif_e;
fill: #000000;
}
.s3_5{
font-size: 22.01px;
font-family: LiberationSerif-Italic_l;
fill: #8E0012;
}
.s4_5{
font-size: 22.01px;
font-family: LiberationSerif-Italic_l;
fill: #000000;
}

]]></style>

</defs>
<path d="M0,0
L0,1286
L909,1286
L909,0 Z " 
fill="#FFFFFF" stroke="none" />
<text 
x="55" 
y="73" 
dx="0,0,0,0,0,0,0,0,0,0,0,0,0,0,0,-0.4,0,0,0,0,0,0,0,0,0" 
class="s1_5"
>Data Science from Scratch</text>

<text 
x="55" 
y="111" 
class="s2_5"
>by Joel Grus</text>

<text 
x="55" 
y="149" 
class="s2_5"
>Copyright © 2015 O’Reilly Media. All rights reserved.</text>

<text 
x="55" 
y="188" 
class="s2_5"
>Printed in the United States of America.</text>

<text 
x="55" 
y="226" 
class="s2_5"
>Published by O’Reilly Media, Inc., 1005 Gravenstein Highway North, Sebastopol, CA</text>

<text 
x="55" 
y="254" 
class="s2_5"
>95472.</text>

<text 
x="55" 
y="292" 
class="s2_5"
>O’Reilly books may be purchased for educational, business, or sales promotional use.</text>

<text 
x="55" 
y="320" 
class="s2_5"
>Online editions are also available for most titles (</text>

<text 
x="488" 
y="320" 
class="s3_5"
>http://safaribooksonline.com</text>

<text 
x="741" 
y="320" 
class="s2_5"
>). For more</text>

<text 
x="55" 
y="347" 
class="s2_5"
>information, contact our corporate/institutional sales department: 800-998-9938 or</text>

<text 
x="55" 
y="375" 
dx="0,0,0,0,0,0,0,0,0,0,0,0,-0.8,0,0,0,0,-1.2,0,0,0" 
class="s4_5"
>corporate@oreilly.com</text>

<text 
x="259" 
y="375" 
class="s2_5"
>.</text>

<path d="M61.6,402.7l6.6,0l0,6.6l-6.6,0l0,-6.6Z" class="g1_5" />
<text 
x="82" 
y="412" 
class="s2_5"
>Editor: Marie Beaugureau</text>

<path d="M61.6,450l6.6,0l0,6.6l-6.6,0l0,-6.6Z" class="g1_5" />
<text 
x="82" 
y="459" 
dx="0,0,0,0,0,0,0,0,0,0,0,0,0,0,0,0,0,0,0,0,0,0,0,0,0,0,0,0,-2.2,0,0,0,0,0,0,0" 
class="s2_5"
>Production Editor: Melanie Yarbrough</text>

<path d="M61.6,497.3l6.6,0l0,6.6l-6.6,0l0,-6.6Z" class="g1_5" />
<text 
x="82" 
y="507" 
class="s2_5"
>Copyeditor: Nan Reinhardt</text>

<path d="M61.6,544.6l6.6,0l0,6.6l-6.6,0l0,-6.6Z" class="g1_5" />
<text 
x="82" 
y="554" 
class="s2_5"
>Proofreader: Eileen Cohen</text>

<path d="M61.6,591.9l6.6,0l0,6.6l-6.6,0l0,-6.6Z" class="g1_5" />
<text 
x="82" 
y="601" 
dx="0,0,0,0,0,0,0,0,0,0,0,0,0,0,0,0,-0.8,0,0,0,0,0,0,0,0,0,0,0" 
class="s2_5"
>Indexer: Ellen Troutman-Zaig</text>

<path d="M61.6,639.3l6.6,0l0,6.6l-6.6,0l0,-6.6Z" class="g1_5" />
<text 
x="82" 
y="649" 
class="s2_5"
>Interior Designer: David Futato</text>

<path d="M61.6,686.6l6.6,0l0,6.6l-6.6,0l0,-6.6Z" class="g1_5" />
<text 
x="82" 
y="696" 
class="s2_5"
>Cover Designer: Karen Montgomery</text>

<path d="M61.6,733.9l6.6,0l0,6.6l-6.6,0l0,-6.6Z" class="g1_5" />
<text 
x="82" 
y="743" 
class="s2_5"
>Illustrator: Rebecca Demarest</text>

<path d="M61.6,781.2l6.6,0l0,6.6l-6.6,0l0,-6.6Z" class="g1_5" />
<text 
x="82" 
y="791" 
class="s2_5"
>April 2015: First Edition</text>



<!-- Any embedded fonts defined here -->
<style type="text/css" ><![CDATA[

@font-face {
	font-family: LiberationSerif-Italic_l;
	src: url("fonts/LiberationSerif-Italic_l.woff") format("woff");
}

@font-face {
	font-family: LiberationSerif-Bold_b;
	src: url("fonts/LiberationSerif-Bold_b.woff") format("woff");
}

@font-face {
	font-family: LiberationSerif_e;
	src: url("fonts/LiberationSerif_e.woff") format("woff");
}

]]></style>

</svg>
