<?xml version="1.0" encoding="UTF-8" standalone="no"?>
<!DOCTYPE svg PUBLIC "-//W3C//DTD SVG 1.1//EN"
"http://www.w3.org/Graphics/SVG/1.1/DTD/svg11.dtd">


<!-- Page 74 -->
<svg x="0" y="0" width="909" height="1286" viewBox="0 0 909 1286" version="1.1" xmlns="http://www.w3.org/2000/svg" xmlns:xlink="http://www.w3.org/1999/xlink"
style="display: block;margin-left: auto;margin-right: auto;">
<defs>

<style type="text/css"><![CDATA[

.g1_74{
fill: #BEBEBE;
}

.s1_74{
font-size: 22.01px;
font-family: LiberationSerif_e;
fill: #000000;
}
.s2_74{
font-size: 22.01px;
font-family: LiberationSerif-Bold_b;
fill: #737373;
}
.s3_74{
font-size: 16.50px;
font-family: LiberationSerif_e;
fill: #000000;
}
.s4_74{
font-size: 13.20px;
font-family: LiberationMono_1q;
fill: #000000;
}

]]></style>

</defs>
<path d="M0,0
L0,1286
L909,1286
L909,0 Z " 
fill="#FFFFFF" stroke="none" />
<path fill-rule="evenodd" d="M93.5,219L816,219c3,0,5.5,2.4,5.5,5.5l0,99c0,3,-2.5,5.5,-5.5,5.5L93.5,329c-3,0,-5.5,-2.5,-5.5,-5.5l0,-99c0,-3.1,2.5,-5.5,5.5,-5.5m0,1.1l722.5,0c2.4,0,4.4,1.9,4.4,4.4l0,99c0,2.4,-2,4.4,-4.4,4.4l-722.5,0c-2.4,0,-4.4,-2,-4.4,-4.4l0,-99c0,-2.5,2,-4.4,4.4,-4.4Z" class="g1_74" />
<text 
x="55" 
y="91" 
class="s1_74"
>Making plots that look publication-quality good is more complicated and beyond the</text>

<text 
x="55" 
y="118" 
dx="0,0,0,0,0,0,0,0,0,0,0,0,0,0,0,0,0,0,0,0,0,-1.2,0,0,0,0,0,0,0,0,0,0,0,0,0,0,0,0,0,0,0,0,0,0,0,0,0,0,0,0,0,0,0,0,0,0,0,0,0,0,0,0,0,0,0,0,0,0,0,0,0,0,0,0,0,0,0,0,0,0,0,0" 
class="s1_74"
>scope of this chapter. There are many ways you can customize your charts with (for</text>

<text 
x="55" 
y="146" 
class="s1_74"
>example) axis labels, line styles, and point markers. Rather than attempt a comprehensive</text>

<text 
x="55" 
y="173" 
class="s1_74"
>treatment of these options, we’ll just use (and call attention to) some of them in our</text>

<text 
x="55" 
y="201" 
class="s1_74"
>examples.</text>

<text 
x="421" 
y="244" 
dx="0,1.1,1.1,1.1" 
class="s2_74"
>NOTE</text>

<text 
x="97" 
y="273" 
dx="0,0,0,0,0,0,0,0,0,0,0,0,0,0,0,0,-0.3,0,0,0,0,0,0,0,0,0,0,0,0,0,0,0,0,0,0,0,0,0,0,0,0,0,0,0,0,0,0,0,0,0,0,0,0,-1.1" 
class="s3_74"
>Although we won’t be using much of this functionality,</text>

<text 
x="467" 
y="273" 
class="s4_74"
>matplotlib</text>

<text 
x="550" 
y="273" 
class="s3_74"
>is capable of producing complicated</text>

<text 
x="97" 
y="295" 
class="s3_74"
>plots within plots, sophisticated formatting, and interactive visualizations. Check out its documentation if</text>

<text 
x="97" 
y="315" 
class="s3_74"
>you want to go deeper than we do in this book.</text>



<!-- Any embedded fonts defined here -->
<style type="text/css" ><![CDATA[

@font-face {
	font-family: LiberationMono_1q;
	src: url("fonts/LiberationMono_1q.woff") format("woff");
}

@font-face {
	font-family: LiberationSerif_e;
	src: url("fonts/LiberationSerif_e.woff") format("woff");
}

@font-face {
	font-family: LiberationSerif-Bold_b;
	src: url("fonts/LiberationSerif-Bold_b.woff") format("woff");
}

]]></style>

</svg>
