<?xml version="1.0" encoding="UTF-8" standalone="no"?>
<!DOCTYPE svg PUBLIC "-//W3C//DTD SVG 1.1//EN"
"http://www.w3.org/Graphics/SVG/1.1/DTD/svg11.dtd">


<!-- Page 76 -->
<svg x="0" y="0" width="909" height="1286" viewBox="0 0 909 1286" version="1.1" xmlns="http://www.w3.org/2000/svg" xmlns:xlink="http://www.w3.org/1999/xlink"
style="display: block;margin-left: auto;margin-right: auto;">
<defs>

<style type="text/css"><![CDATA[


.s1_76{
font-size: 13.20px;
font-family: LiberationMono_1q;
fill: #000088;
}
.s2_76{
font-size: 13.20px;
font-family: LiberationMono_1q;
fill: #000000;
}
.s3_76{
font-size: 13.20px;
font-family: LiberationMono_1q;
fill: #FF6600;
}
.s4_76{
font-size: 13.20px;
font-family: LiberationMono-Bold_1w;
fill: #006699;
}
.s5_76{
font-size: 13.20px;
font-family: LiberationMono-Bold_1w;
fill: #000000;
}
.s6_76{
font-size: 13.20px;
font-family: LiberationMono-Italic_10;
fill: #0099FF;
}
.s7_76{
font-size: 13.20px;
font-family: LiberationMono_1q;
fill: #336666;
}
.s8_76{
font-size: 13.20px;
font-family: LiberationMono_1q;
fill: #CC3300;
}
.s9_76{
font-size: 16.50px;
font-family: LiberationSerif-Italic_l;
fill: #000000;
}
.s10_76{
font-size: 22.01px;
font-family: LiberationSerif_e;
fill: #000000;
}
.s11_76{
font-size: 17.60px;
font-family: LiberationMono_1q;
fill: #000000;
}

]]></style>

</defs>
<path d="M0,0
L0,1286
L909,1286
L909,0 Z " 
fill="#FFFFFF" stroke="none" />
<text 
x="76" 
y="64" 
class="s1_76"
>grades</text>

<text 
x="132" 
y="64" 
dx="0,0,4.6" 
class="s2_76"
>= [</text>

<text 
x="156" 
y="64" 
class="s3_76"
>83</text>

<text 
x="171" 
y="64" 
class="s2_76"
>,</text>

<text 
x="179" 
y="64" 
class="s3_76"
>95</text>

<text 
x="195" 
y="64" 
class="s2_76"
>,</text>

<text 
x="203" 
y="64" 
class="s3_76"
>91</text>

<text 
x="219" 
y="64" 
class="s2_76"
>,</text>

<text 
x="227" 
y="64" 
class="s3_76"
>87</text>

<text 
x="242" 
y="64" 
class="s2_76"
>,</text>

<text 
x="250" 
y="64" 
class="s3_76"
>70</text>

<text 
x="266" 
y="64" 
class="s2_76"
>,</text>

<text 
x="274" 
y="64" 
class="s3_76"
>0</text>

<text 
x="282" 
y="64" 
class="s2_76"
>,</text>

<text 
x="290" 
y="64" 
class="s3_76"
>85</text>

<text 
x="306" 
y="64" 
class="s2_76"
>,</text>

<text 
x="314" 
y="64" 
class="s3_76"
>82</text>

<text 
x="329" 
y="64" 
class="s2_76"
>,</text>

<text 
x="337" 
y="64" 
class="s3_76"
>100</text>

<text 
x="361" 
y="64" 
class="s2_76"
>,</text>

<text 
x="369" 
y="64" 
class="s3_76"
>67</text>

<text 
x="385" 
y="64" 
class="s2_76"
>,</text>

<text 
x="393" 
y="64" 
class="s3_76"
>73</text>

<text 
x="408" 
y="64" 
class="s2_76"
>,</text>

<text 
x="416" 
y="64" 
class="s3_76"
>77</text>

<text 
x="432" 
y="64" 
class="s2_76"
>,</text>

<text 
x="440" 
y="64" 
class="s3_76"
>0</text>

<text 
x="448" 
y="64" 
class="s2_76"
>]</text>

<text 
x="76" 
y="80" 
class="s1_76"
>decile</text>

<text 
x="132" 
y="80" 
class="s2_76"
>=</text>

<text 
x="148" 
y="80" 
class="s4_76"
>lambda</text>

<text 
x="203" 
y="80" 
class="s1_76"
>grade</text>

<text 
x="242" 
y="80" 
class="s2_76"
>:</text>

<text 
x="258" 
y="80" 
class="s1_76"
>grade</text>

<text 
x="306" 
y="80" 
class="s2_76"
>//</text>

<text 
x="329" 
y="80" 
class="s3_76"
>10</text>

<text 
x="353" 
y="80" 
class="s2_76"
>*</text>

<text 
x="369" 
y="80" 
class="s3_76"
>10</text>

<text 
x="76" 
y="95" 
class="s1_76"
>histogram</text>

<text 
x="156" 
y="95" 
class="s2_76"
>=</text>

<text 
x="171" 
y="95" 
class="s1_76"
>Counter</text>

<text 
x="227" 
y="95" 
class="s2_76"
>(</text>

<text 
x="235" 
y="95" 
class="s1_76"
>decile</text>

<text 
x="282" 
y="95" 
class="s2_76"
>(</text>

<text 
x="290" 
y="95" 
class="s1_76"
>grade</text>

<text 
x="329" 
y="95" 
class="s2_76"
>)</text>

<text 
x="345" 
y="95" 
class="s4_76"
>for</text>

<text 
x="377" 
y="95" 
class="s1_76"
>grade</text>

<text 
x="424" 
y="95" 
class="s5_76"
>in</text>

<text 
x="448" 
y="95" 
class="s1_76"
>grades</text>

<text 
x="495" 
y="95" 
class="s2_76"
>)</text>

<text 
x="76" 
y="126" 
class="s1_76"
>plt</text>

<text 
x="100" 
y="126" 
class="s2_76"
>.</text>

<text 
x="108" 
y="126" 
class="s1_76"
>bar</text>

<text 
x="132" 
y="126" 
class="s2_76"
>([</text>

<text 
x="148" 
y="126" 
class="s1_76"
>x</text>

<text 
x="163" 
y="126" 
class="s2_76"
>-</text>

<text 
x="179" 
y="126" 
class="s3_76"
>4</text>

<text 
x="195" 
y="126" 
class="s4_76"
>for</text>

<text 
x="227" 
y="126" 
class="s1_76"
>x</text>

<text 
x="242" 
y="126" 
class="s5_76"
>in</text>

<text 
x="266" 
y="126" 
class="s1_76"
>histogram</text>

<text 
x="337" 
y="126" 
class="s2_76"
>.</text>

<text 
x="345" 
y="126" 
class="s1_76"
>keys</text>

<text 
x="377" 
y="126" 
class="s2_76"
>()],</text>

<text 
x="416" 
y="126" 
dx="0,0,4.6,0,0,0,0,0,4.6,0,0,0,0,4.6,0,0,0,4.6,0,0,4.6,0,0,0,4.6,0,0,0,0,4.6,0,0,4.6" 
class="s6_76"
># shift each bar to the left by 4</text>

<text 
x="140" 
y="141" 
class="s1_76"
>histogram</text>

<text 
x="211" 
y="141" 
class="s2_76"
>.</text>

<text 
x="219" 
y="141" 
class="s1_76"
>values</text>

<text 
x="266" 
y="141" 
class="s2_76"
>(),</text>

<text 
x="416" 
y="141" 
dx="0,0,4.6,0,0,0,0,4.6,0,0,0,0,4.6,0,0,0,4.6,0,0,0,4.6,0,0,0,0,0,0,0,4.6,0,0,0,0,0" 
class="s6_76"
># give each bar its correct height</text>

<text 
x="140" 
y="157" 
class="s3_76"
>8</text>

<text 
x="148" 
y="157" 
class="s2_76"
>)</text>

<text 
x="416" 
y="157" 
dx="0,0,4.6,0,0,0,0,4.6,0,0,0,0,4.6,0,0,0,4.6,0,4.6,0,0,0,0,0,4.6,0,0,4.6" 
class="s6_76"
># give each bar a width of 8</text>

<text 
x="76" 
y="188" 
class="s1_76"
>plt</text>

<text 
x="100" 
y="188" 
class="s2_76"
>.</text>

<text 
x="108" 
y="188" 
class="s1_76"
>axis</text>

<text 
x="140" 
y="188" 
class="s2_76"
>([-</text>

<text 
x="163" 
y="188" 
class="s3_76"
>5</text>

<text 
x="171" 
y="188" 
class="s2_76"
>,</text>

<text 
x="187" 
y="188" 
class="s3_76"
>105</text>

<text 
x="211" 
y="188" 
class="s2_76"
>,</text>

<text 
x="227" 
y="188" 
class="s3_76"
>0</text>

<text 
x="235" 
y="188" 
class="s2_76"
>,</text>

<text 
x="250" 
y="188" 
class="s3_76"
>5</text>

<text 
x="258" 
y="188" 
class="s2_76"
>])</text>

<text 
x="416" 
y="188" 
dx="0,0,4.6,0,0,0,0,0,0,4.6,0,0,0,0,4.6,0,0,4.6,0,0,4.6,0,0,0" 
class="s6_76"
># x-axis from -5 to 105,</text>

<text 
x="416" 
y="203" 
dx="0,0,4.6,0,0,0,0,0,0,4.6,0,0,0,0,4.6,0,4.6,0,0,4.6" 
class="s6_76"
># y-axis from 0 to 5</text>

<text 
x="76" 
y="234" 
class="s1_76"
>plt</text>

<text 
x="100" 
y="234" 
class="s2_76"
>.</text>

<text 
x="108" 
y="234" 
class="s1_76"
>xticks</text>

<text 
x="156" 
y="234" 
class="s2_76"
>([</text>

<text 
x="171" 
y="234" 
class="s3_76"
>10</text>

<text 
x="195" 
y="234" 
class="s2_76"
>*</text>

<text 
x="211" 
y="234" 
class="s1_76"
>i</text>

<text 
x="227" 
y="234" 
class="s4_76"
>for</text>

<text 
x="258" 
y="234" 
class="s1_76"
>i</text>

<text 
x="274" 
y="234" 
class="s5_76"
>in</text>

<text 
x="298" 
y="234" 
class="s7_76"
>range</text>

<text 
x="337" 
y="234" 
class="s2_76"
>(</text>

<text 
x="345" 
y="234" 
class="s3_76"
>11</text>

<text 
x="361" 
y="234" 
class="s2_76"
>)])</text>

<text 
x="416" 
y="234" 
dx="0,0,4.6,0,0,0,0,0,0,4.6,0,0,0,0,0,0,4.6,0,0,4.6,0,0,4.6,0,0,0,4.6,0,0,0,0,4.6,0,0" 
class="s6_76"
># x-axis labels at 0, 10, ..., 100</text>

<text 
x="76" 
y="249" 
class="s1_76"
>plt</text>

<text 
x="100" 
y="249" 
class="s2_76"
>.</text>

<text 
x="108" 
y="249" 
class="s1_76"
>xlabel</text>

<text 
x="156" 
y="249" 
class="s2_76"
>(</text>

<text 
x="163" 
y="249" 
class="s8_76"
>"Decile"</text>

<text 
x="227" 
y="249" 
class="s2_76"
>)</text>

<text 
x="76" 
y="265" 
class="s1_76"
>plt</text>

<text 
x="100" 
y="265" 
class="s2_76"
>.</text>

<text 
x="108" 
y="265" 
class="s1_76"
>ylabel</text>

<text 
x="156" 
y="265" 
class="s2_76"
>(</text>

<text 
x="163" 
y="265" 
dx="0,0,0,4.6,0,0,4.6,0,0,0,0,0,0,0,0" 
class="s8_76"
>"# of Students"</text>

<text 
x="282" 
y="265" 
class="s2_76"
>)</text>

<text 
x="76" 
y="280" 
class="s1_76"
>plt</text>

<text 
x="100" 
y="280" 
class="s2_76"
>.</text>

<text 
x="108" 
y="280" 
class="s1_76"
>title</text>

<text 
x="148" 
y="280" 
class="s2_76"
>(</text>

<text 
x="156" 
y="280" 
dx="0,0,0,0,0,0,0,0,0,0,0,0,0,0,4.6,0,0,4.6,0,0,0,0,4.6,0,4.6,0,0,0,0,0,0" 
class="s8_76"
>"Distribution of Exam 1 Grades"</text>

<text 
x="401" 
y="280" 
class="s2_76"
>)</text>

<text 
x="76" 
y="295" 
class="s1_76"
>plt</text>

<text 
x="100" 
y="295" 
class="s2_76"
>.</text>

<text 
x="108" 
y="295" 
class="s1_76"
>show</text>

<text 
x="140" 
y="295" 
class="s2_76"
>()</text>

<image preserveAspectRatio="none" x="85" y="328" width="741" height="614" xlink:href="76/img/1.png" />
<text 
x="303" 
y="968" 
dx="0,0,0,0,0,-0.6,0,0,0,0,0,0,0,0,0,0,0,0,0,0,0,0,0,0,0,0,0,0,0,0,0,0,0,0,0,0,0,0,0,0,0,0,0,0,0" 
class="s9_76"
>Figure 3-3. Using a bar chart for a histogram</text>

<text 
x="55" 
y="1010" 
dx="0,0,0,0,0,0,0,0,0,0,0,0,-0.4,0,0,0,0,0,0,0,0" 
class="s10_76"
>The third argument to</text>

<text 
x="252" 
y="1010" 
class="s11_76"
>plt.bar</text>

<text 
x="331" 
y="1010" 
class="s10_76"
>specifies the bar width. Here we chose a width of 8 (which</text>

<text 
x="55" 
y="1039" 
class="s10_76"
>leaves a small gap between bars, since our buckets have width 10). And we shifted the bar</text>

<text 
x="55" 
y="1067" 
class="s10_76"
>left by 4, so that (for example) the “80” bar has its left and right sides at 76 and 84, and</text>

<text 
x="55" 
y="1094" 
class="s10_76"
>(hence) its center at 80.</text>

<text 
x="55" 
y="1133" 
class="s10_76"
>The call to</text>

<text 
x="154" 
y="1133" 
class="s11_76"
>plt.axis</text>

<text 
x="244" 
y="1133" 
class="s10_76"
>indicates that we want the x-axis to range from -5 to 105 (so that the</text>

<text 
x="55" 
y="1162" 
class="s10_76"
>“0” and “100” bars are fully shown), and that the y-axis should range from 0 to 5. And the</text>

<text 
x="55" 
y="1190" 
class="s10_76"
>call to</text>

<text 
x="114" 
y="1190" 
class="s11_76"
>plt.xticks</text>

<text 
x="225" 
y="1190" 
class="s10_76"
>puts x-axis labels at 0, 10, 20, …, 100.</text>



<!-- Any embedded fonts defined here -->
<style type="text/css" ><![CDATA[

@font-face {
	font-family: LiberationMono-Bold_1w;
	src: url("fonts/LiberationMono-Bold_1w.woff") format("woff");
}

@font-face {
	font-family: LiberationSerif-Italic_l;
	src: url("fonts/LiberationSerif-Italic_l.woff") format("woff");
}

@font-face {
	font-family: LiberationMono_1q;
	src: url("fonts/LiberationMono_1q.woff") format("woff");
}

@font-face {
	font-family: LiberationMono-Italic_10;
	src: url("fonts/LiberationMono-Italic_10.woff") format("woff");
}

@font-face {
	font-family: LiberationSerif_e;
	src: url("fonts/LiberationSerif_e.woff") format("woff");
}

]]></style>

</svg>
