<?xml version="1.0" encoding="UTF-8" standalone="no"?>
<!DOCTYPE svg PUBLIC "-//W3C//DTD SVG 1.1//EN"
"http://www.w3.org/Graphics/SVG/1.1/DTD/svg11.dtd">


<!-- Page 77 -->
<svg x="0" y="0" width="909" height="1286" viewBox="0 0 909 1286" version="1.1" xmlns="http://www.w3.org/2000/svg" xmlns:xlink="http://www.w3.org/1999/xlink"
style="display: block;margin-left: auto;margin-right: auto;">
<defs>

<style type="text/css"><![CDATA[


.s1_77{
font-size: 22.01px;
font-family: LiberationSerif_e;
fill: #000000;
}
.s2_77{
font-size: 17.60px;
font-family: LiberationMono_1q;
fill: #000000;
}
.s3_77{
font-size: 22.01px;
font-family: LiberationSerif_e;
fill: #8E0012;
}
.s4_77{
font-size: 13.20px;
font-family: LiberationMono_1q;
fill: #000088;
}
.s5_77{
font-size: 13.20px;
font-family: LiberationMono_1q;
fill: #000000;
}
.s6_77{
font-size: 13.20px;
font-family: LiberationMono_1q;
fill: #FF6600;
}
.s7_77{
font-size: 13.20px;
font-family: LiberationMono_1q;
fill: #CC3300;
}
.s8_77{
font-size: 13.20px;
font-family: LiberationMono-Italic_10;
fill: #0099FF;
}
.s9_77{
font-size: 13.20px;
font-family: LiberationMono_1q;
fill: #336666;
}
.s10_77{
font-size: 16.50px;
font-family: LiberationSerif-Italic_l;
fill: #000000;
}

]]></style>

</defs>
<path d="M0,0
L0,1286
L909,1286
L909,0 Z " 
fill="#FFFFFF" stroke="none" />
<text 
x="55" 
y="74" 
class="s1_77"
>Be judicious when using</text>

<text 
x="277" 
y="74" 
class="s2_77"
>plt.axis()</text>

<text 
x="382" 
y="74" 
class="s1_77"
>. When creating bar charts it is considered especially</text>

<text 
x="55" 
y="104" 
class="s1_77"
>bad form for your y-axis not to start at 0, since this is an easy way to mislead people</text>

<text 
x="55" 
y="132" 
class="s1_77"
>(</text>

<text 
x="62" 
y="132" 
class="s3_77"
>Figure 3-4</text>

<text 
x="154" 
y="132" 
class="s1_77"
>):</text>

<text 
x="76" 
y="177" 
class="s4_77"
>mentions</text>

<text 
x="148" 
y="177" 
dx="0,0,4.6" 
class="s5_77"
>= [</text>

<text 
x="171" 
y="177" 
class="s6_77"
>500</text>

<text 
x="195" 
y="177" 
class="s5_77"
>,</text>

<text 
x="211" 
y="177" 
class="s6_77"
>505</text>

<text 
x="235" 
y="177" 
class="s5_77"
>]</text>

<text 
x="76" 
y="192" 
class="s4_77"
>years</text>

<text 
x="124" 
y="192" 
dx="0,0,4.6" 
class="s5_77"
>= [</text>

<text 
x="148" 
y="192" 
class="s6_77"
>2013</text>

<text 
x="179" 
y="192" 
class="s5_77"
>,</text>

<text 
x="195" 
y="192" 
class="s6_77"
>2014</text>

<text 
x="227" 
y="192" 
class="s5_77"
>]</text>

<text 
x="76" 
y="223" 
class="s4_77"
>plt</text>

<text 
x="100" 
y="223" 
class="s5_77"
>.</text>

<text 
x="108" 
y="223" 
class="s4_77"
>bar</text>

<text 
x="132" 
y="223" 
class="s5_77"
>([</text>

<text 
x="148" 
y="223" 
class="s6_77"
>2012.6</text>

<text 
x="195" 
y="223" 
class="s5_77"
>,</text>

<text 
x="211" 
y="223" 
class="s6_77"
>2013.6</text>

<text 
x="258" 
y="223" 
class="s5_77"
>],</text>

<text 
x="282" 
y="223" 
class="s4_77"
>mentions</text>

<text 
x="345" 
y="223" 
class="s5_77"
>,</text>

<text 
x="361" 
y="223" 
class="s6_77"
>0.8</text>

<text 
x="385" 
y="223" 
class="s5_77"
>)</text>

<text 
x="76" 
y="238" 
class="s4_77"
>plt</text>

<text 
x="100" 
y="238" 
class="s5_77"
>.</text>

<text 
x="108" 
y="238" 
class="s4_77"
>xticks</text>

<text 
x="156" 
y="238" 
class="s5_77"
>(</text>

<text 
x="163" 
y="238" 
class="s4_77"
>years</text>

<text 
x="203" 
y="238" 
class="s5_77"
>)</text>

<text 
x="76" 
y="254" 
class="s4_77"
>plt</text>

<text 
x="100" 
y="254" 
class="s5_77"
>.</text>

<text 
x="108" 
y="254" 
class="s4_77"
>ylabel</text>

<text 
x="156" 
y="254" 
class="s5_77"
>(</text>

<text 
x="163" 
y="254" 
dx="0,0,0,4.6,0,0,4.6,0,0,0,0,0,4.6,0,4.6,0,0,0,0,0,4.6,0,0,0,0,0,0,0,4.6,0,0,0,4.6,0,0,0,0,0,4.6,0,0,0,0,0,0,0,0" 
class="s7_77"
>"# of times I heard someone say 'data science'"</text>

<text 
x="535" 
y="254" 
class="s5_77"
>)</text>

<text 
x="76" 
y="284" 
dx="0,0,4.6,0,0,4.6,0,0,0,4.6,0,0,0,0,0,4.6,0,0,4.6,0,0,0,0,0,4.6,0,0,0,0,0,0,0,0,0,0,4.6,0,0,0,0,4.6,0,0,0,0,0,4.6,0,0,0,4.6,0,0,0,0,0,0,4.6,0,0,4.6" 
class="s8_77"
># if you don't do this, matplotlib will label the x-axis 0, 1</text>

<text 
x="76" 
y="300" 
dx="0,0,4.6,0,0,0,4.6,0,0,0,0,4.6,0,0,0,4.6,0,4.6,0,0,0,0,0,0,0,0,4.6,0,0,0,4.6,0,0,4.6,0,0,0,4.6,0,0,0,0,0,0,4.6,0,0,0,0,4.6,0,0,0,0,0,0,0,0,0,0,0" 
class="s8_77"
># and then add a +2.013e3 off in the corner (bad matplotlib!)</text>

<text 
x="76" 
y="315" 
class="s4_77"
>plt</text>

<text 
x="100" 
y="315" 
class="s5_77"
>.</text>

<text 
x="108" 
y="315" 
class="s4_77"
>ticklabel_format</text>

<text 
x="235" 
y="315" 
class="s5_77"
>(</text>

<text 
x="242" 
y="315" 
class="s4_77"
>useOffset</text>

<text 
x="314" 
y="315" 
class="s5_77"
>=</text>

<text 
x="322" 
y="315" 
class="s9_77"
>False</text>

<text 
x="361" 
y="315" 
class="s5_77"
>)</text>

<text 
x="76" 
y="346" 
dx="0,0,4.6,0,0,0,0,0,0,0,0,0,0,4.6,0,0,0,0,0,0,4.6,0,0,0,0,4.6,0,0,0,0,0,4.6,0,0,0,4.6,0,0,0,0,4.6,0,0,0,0,0,4.6,0,0" 
class="s8_77"
># misleading y-axis only shows the part above 500</text>

<text 
x="76" 
y="361" 
class="s4_77"
>plt</text>

<text 
x="100" 
y="361" 
class="s5_77"
>.</text>

<text 
x="108" 
y="361" 
class="s4_77"
>axis</text>

<text 
x="140" 
y="361" 
class="s5_77"
>([</text>

<text 
x="156" 
y="361" 
class="s6_77"
>2012.5</text>

<text 
x="203" 
y="361" 
class="s5_77"
>,</text>

<text 
x="211" 
y="361" 
class="s6_77"
>2014.5</text>

<text 
x="258" 
y="361" 
class="s5_77"
>,</text>

<text 
x="266" 
y="361" 
class="s6_77"
>499</text>

<text 
x="290" 
y="361" 
class="s5_77"
>,</text>

<text 
x="298" 
y="361" 
class="s6_77"
>506</text>

<text 
x="322" 
y="361" 
class="s5_77"
>])</text>

<text 
x="76" 
y="377" 
class="s4_77"
>plt</text>

<text 
x="100" 
y="377" 
class="s5_77"
>.</text>

<text 
x="108" 
y="377" 
class="s4_77"
>title</text>

<text 
x="148" 
y="377" 
class="s5_77"
>(</text>

<text 
x="156" 
y="377" 
dx="0,0,0,0,0,0,4.6,0,0,4.6,0,0,0,4.6,0,0,0,0,0,0,4.6,0,0,0,0,0,0,0,0,0" 
class="s7_77"
>"Look at the 'Huge' Increase!"</text>

<text 
x="393" 
y="377" 
class="s5_77"
>)</text>

<text 
x="76" 
y="392" 
class="s4_77"
>plt</text>

<text 
x="100" 
y="392" 
class="s5_77"
>.</text>

<text 
x="108" 
y="392" 
class="s4_77"
>show</text>

<text 
x="140" 
y="392" 
class="s5_77"
>()</text>

<image preserveAspectRatio="none" x="73" y="425" width="765" height="586" xlink:href="77/img/1.png" />
<text 
x="308" 
y="1037" 
dx="0,0,0,0,0,-0.6,0,0,0,0,0,0,0,0,-0.3,0,0,0,0,0,0,0,0,0,0,0,0,0,0,0,0,0,0,0,0,0,0,0,0,0,0,0,0,0" 
class="s10_77"
>Figure 3-4. A chart with a misleading y-axis</text>

<text 
x="55" 
y="1079" 
class="s1_77"
>In</text>

<text 
x="78" 
y="1079" 
class="s3_77"
>Figure 3-5</text>

<text 
x="171" 
y="1079" 
class="s1_77"
>, we use more-sensible axes, and it looks far less impressive:</text>

<text 
x="76" 
y="1124" 
class="s4_77"
>plt</text>

<text 
x="100" 
y="1124" 
class="s5_77"
>.</text>

<text 
x="108" 
y="1124" 
class="s4_77"
>axis</text>

<text 
x="140" 
y="1124" 
class="s5_77"
>([</text>

<text 
x="156" 
y="1124" 
class="s6_77"
>2012.5</text>

<text 
x="203" 
y="1124" 
class="s5_77"
>,</text>

<text 
x="211" 
y="1124" 
class="s6_77"
>2014.5</text>

<text 
x="258" 
y="1124" 
class="s5_77"
>,</text>

<text 
x="266" 
y="1124" 
class="s6_77"
>0</text>

<text 
x="274" 
y="1124" 
class="s5_77"
>,</text>

<text 
x="282" 
y="1124" 
class="s6_77"
>550</text>

<text 
x="306" 
y="1124" 
class="s5_77"
>])</text>

<text 
x="76" 
y="1139" 
class="s4_77"
>plt</text>

<text 
x="100" 
y="1139" 
class="s5_77"
>.</text>

<text 
x="108" 
y="1139" 
class="s4_77"
>title</text>

<text 
x="148" 
y="1139" 
class="s5_77"
>(</text>

<text 
x="156" 
y="1139" 
dx="0,0,0,0,0,4.6,0,0,4.6,0,0,0,0,4.6,0,0,0,0,0,0,0" 
class="s7_77"
>"Not So Huge Anymore"</text>

<text 
x="322" 
y="1139" 
class="s5_77"
>)</text>

<text 
x="76" 
y="1155" 
class="s4_77"
>plt</text>

<text 
x="100" 
y="1155" 
class="s5_77"
>.</text>

<text 
x="108" 
y="1155" 
class="s4_77"
>show</text>

<text 
x="140" 
y="1155" 
class="s5_77"
>()</text>



<!-- Any embedded fonts defined here -->
<style type="text/css" ><![CDATA[

@font-face {
	font-family: LiberationSerif-Italic_l;
	src: url("fonts/LiberationSerif-Italic_l.woff") format("woff");
}

@font-face {
	font-family: LiberationMono_1q;
	src: url("fonts/LiberationMono_1q.woff") format("woff");
}

@font-face {
	font-family: LiberationMono-Italic_10;
	src: url("fonts/LiberationMono-Italic_10.woff") format("woff");
}

@font-face {
	font-family: LiberationSerif_e;
	src: url("fonts/LiberationSerif_e.woff") format("woff");
}

]]></style>

</svg>
