<?xml version="1.0" encoding="UTF-8" standalone="no"?>
<!DOCTYPE svg PUBLIC "-//W3C//DTD SVG 1.1//EN"
"http://www.w3.org/Graphics/SVG/1.1/DTD/svg11.dtd">


<!-- Page 79 -->
<svg x="0" y="0" width="909" height="1286" viewBox="0 0 909 1286" version="1.1" xmlns="http://www.w3.org/2000/svg" xmlns:xlink="http://www.w3.org/1999/xlink"
style="display: block;margin-left: auto;margin-right: auto;">
<defs>

<style type="text/css"><![CDATA[


.s1_79{
font-size: 30.81px;
font-family: LiberationSerif-Bold_b;
fill: #8E0012;
}
.s2_79{
font-size: 22.01px;
font-family: LiberationSerif_e;
fill: #000000;
}
.s3_79{
font-size: 17.60px;
font-family: LiberationMono_1q;
fill: #000000;
}
.s4_79{
font-size: 22.01px;
font-family: LiberationSerif-Italic_l;
fill: #000000;
}
.s5_79{
font-size: 22.01px;
font-family: LiberationSerif_e;
fill: #8E0012;
}
.s6_79{
font-size: 13.20px;
font-family: LiberationMono_1q;
fill: #000088;
}
.s7_79{
font-size: 13.20px;
font-family: LiberationMono_1q;
fill: #000000;
}
.s8_79{
font-size: 13.20px;
font-family: LiberationMono_1q;
fill: #FF6600;
}
.s9_79{
font-size: 13.20px;
font-family: LiberationMono-Bold_1w;
fill: #006699;
}
.s10_79{
font-size: 13.20px;
font-family: LiberationMono-Bold_1w;
fill: #000000;
}
.s11_79{
font-size: 13.20px;
font-family: LiberationMono_1q;
fill: #336666;
}
.s12_79{
font-size: 13.20px;
font-family: LiberationMono-Italic_10;
fill: #0099FF;
}
.s13_79{
font-size: 13.20px;
font-family: LiberationMono_1q;
fill: #CC3300;
}
.s14_79{
font-size: 16.50px;
font-family: LiberationSerif-Italic_l;
fill: #000000;
}

]]></style>

</defs>
<path d="M0,0
L0,1286
L909,1286
L909,0 Z " 
fill="#FFFFFF" stroke="none" />
<text 
x="55" 
y="81" 
class="s1_79"
>Line Charts</text>

<text 
x="55" 
y="122" 
dx="0,0,0,0,0,0,0,0,0,0,0,0,0,0,0,0,0,-1.4,0,0,0,0,0,0,0,0,0,0,0,0,0,0,0,0,0,0,0,0,0,0,0,0,0,0,0,0,0,0" 
class="s2_79"
>As we saw already, we can make line charts using</text>

<text 
x="499" 
y="122" 
class="s3_79"
>plt.plot()</text>

<text 
x="605" 
y="122" 
class="s2_79"
>. These are a good choice</text>

<text 
x="55" 
y="151" 
class="s2_79"
>for showing</text>

<text 
x="166" 
y="151" 
dx="0,0,-0.8,0,0,0" 
class="s4_79"
>trends</text>

<text 
x="220" 
y="151" 
class="s2_79"
>, as illustrated in</text>

<text 
x="371" 
y="151" 
class="s5_79"
>Figure 3-6</text>

<text 
x="463" 
y="151" 
class="s2_79"
>:</text>

<text 
x="76" 
y="196" 
class="s6_79"
>variance</text>

<text 
x="179" 
y="196" 
dx="0,0,4.6" 
class="s7_79"
>= [</text>

<text 
x="203" 
y="196" 
class="s8_79"
>1</text>

<text 
x="211" 
y="196" 
class="s7_79"
>,</text>

<text 
x="227" 
y="196" 
class="s8_79"
>2</text>

<text 
x="235" 
y="196" 
class="s7_79"
>,</text>

<text 
x="250" 
y="196" 
class="s8_79"
>4</text>

<text 
x="258" 
y="196" 
class="s7_79"
>,</text>

<text 
x="274" 
y="196" 
class="s8_79"
>8</text>

<text 
x="282" 
y="196" 
class="s7_79"
>,</text>

<text 
x="298" 
y="196" 
class="s8_79"
>16</text>

<text 
x="314" 
y="196" 
class="s7_79"
>,</text>

<text 
x="329" 
y="196" 
class="s8_79"
>32</text>

<text 
x="345" 
y="196" 
class="s7_79"
>,</text>

<text 
x="361" 
y="196" 
class="s8_79"
>64</text>

<text 
x="377" 
y="196" 
class="s7_79"
>,</text>

<text 
x="393" 
y="196" 
class="s8_79"
>128</text>

<text 
x="416" 
y="196" 
class="s7_79"
>,</text>

<text 
x="432" 
y="196" 
class="s8_79"
>256</text>

<text 
x="456" 
y="196" 
class="s7_79"
>]</text>

<text 
x="76" 
y="212" 
class="s6_79"
>bias_squared</text>

<text 
x="179" 
y="212" 
dx="0,0,4.6" 
class="s7_79"
>= [</text>

<text 
x="203" 
y="212" 
class="s8_79"
>256</text>

<text 
x="227" 
y="212" 
class="s7_79"
>,</text>

<text 
x="242" 
y="212" 
class="s8_79"
>128</text>

<text 
x="266" 
y="212" 
class="s7_79"
>,</text>

<text 
x="282" 
y="212" 
class="s8_79"
>64</text>

<text 
x="298" 
y="212" 
class="s7_79"
>,</text>

<text 
x="314" 
y="212" 
class="s8_79"
>32</text>

<text 
x="329" 
y="212" 
class="s7_79"
>,</text>

<text 
x="345" 
y="212" 
class="s8_79"
>16</text>

<text 
x="361" 
y="212" 
class="s7_79"
>,</text>

<text 
x="377" 
y="212" 
class="s8_79"
>8</text>

<text 
x="385" 
y="212" 
class="s7_79"
>,</text>

<text 
x="401" 
y="212" 
class="s8_79"
>4</text>

<text 
x="408" 
y="212" 
class="s7_79"
>,</text>

<text 
x="424" 
y="212" 
class="s8_79"
>2</text>

<text 
x="432" 
y="212" 
class="s7_79"
>,</text>

<text 
x="448" 
y="212" 
class="s8_79"
>1</text>

<text 
x="456" 
y="212" 
class="s7_79"
>]</text>

<text 
x="76" 
y="227" 
class="s6_79"
>total_error</text>

<text 
x="179" 
y="227" 
dx="0,0,4.6" 
class="s7_79"
>= [</text>

<text 
x="203" 
y="227" 
class="s6_79"
>x</text>

<text 
x="219" 
y="227" 
class="s7_79"
>+</text>

<text 
x="235" 
y="227" 
class="s6_79"
>y</text>

<text 
x="250" 
y="227" 
class="s9_79"
>for</text>

<text 
x="282" 
y="227" 
class="s6_79"
>x</text>

<text 
x="290" 
y="227" 
class="s7_79"
>,</text>

<text 
x="306" 
y="227" 
class="s6_79"
>y</text>

<text 
x="322" 
y="227" 
class="s10_79"
>in</text>

<text 
x="345" 
y="227" 
class="s11_79"
>zip</text>

<text 
x="369" 
y="227" 
class="s7_79"
>(</text>

<text 
x="377" 
y="227" 
class="s6_79"
>variance</text>

<text 
x="440" 
y="227" 
class="s7_79"
>,</text>

<text 
x="456" 
y="227" 
class="s6_79"
>bias_squared</text>

<text 
x="551" 
y="227" 
class="s7_79"
>)]</text>

<text 
x="76" 
y="243" 
class="s6_79"
>xs</text>

<text 
x="100" 
y="243" 
dx="0,0,4.6" 
class="s7_79"
>= [</text>

<text 
x="124" 
y="243" 
class="s6_79"
>i</text>

<text 
x="140" 
y="243" 
class="s9_79"
>for</text>

<text 
x="171" 
y="243" 
class="s6_79"
>i</text>

<text 
x="179" 
y="243" 
class="s7_79"
>,</text>

<text 
x="195" 
y="243" 
class="s6_79"
>_</text>

<text 
x="211" 
y="243" 
class="s10_79"
>in</text>

<text 
x="235" 
y="243" 
class="s11_79"
>enumerate</text>

<text 
x="306" 
y="243" 
class="s7_79"
>(</text>

<text 
x="314" 
y="243" 
class="s6_79"
>variance</text>

<text 
x="377" 
y="243" 
class="s7_79"
>)]</text>

<text 
x="76" 
y="273" 
dx="0,0,4.6,0,0,4.6,0,0,0,4.6,0,0,0,0,4.6,0,0,0,0,0,0,0,0,4.6,0,0,0,0,0,4.6,0,0,4.6,0,0,0,0,0,0,0" 
class="s12_79"
># we can make multiple calls to plt.plot</text>

<text 
x="76" 
y="289" 
dx="0,0,4.6,0,0,4.6,0,0,0,0,4.6,0,0,0,0,0,0,0,0,4.6,0,0,0,0,0,0,4.6,0,0,4.6,0,0,0,4.6,0,0,0,0,4.6,0,0,0,0" 
class="s12_79"
># to show multiple series on the same chart</text>

<text 
x="76" 
y="304" 
class="s6_79"
>plt</text>

<text 
x="100" 
y="304" 
class="s7_79"
>.</text>

<text 
x="108" 
y="304" 
class="s6_79"
>plot</text>

<text 
x="140" 
y="304" 
class="s7_79"
>(</text>

<text 
x="148" 
y="304" 
class="s6_79"
>xs</text>

<text 
x="163" 
y="304" 
class="s7_79"
>,</text>

<text 
x="179" 
y="304" 
class="s6_79"
>variance</text>

<text 
x="242" 
y="304" 
class="s7_79"
>,</text>

<text 
x="290" 
y="304" 
class="s13_79"
>'g-'</text>

<text 
x="322" 
y="304" 
class="s7_79"
>,</text>

<text 
x="345" 
y="304" 
class="s6_79"
>label</text>

<text 
x="385" 
y="304" 
class="s7_79"
>=</text>

<text 
x="393" 
y="304" 
class="s13_79"
>'variance'</text>

<text 
x="472" 
y="304" 
class="s7_79"
>)</text>

<text 
x="511" 
y="304" 
dx="0,0,4.6,0,0,0,0,0,4.6,0,0,0,0,0,4.6,0,0,0" 
class="s12_79"
># green solid line</text>

<text 
x="76" 
y="320" 
class="s6_79"
>plt</text>

<text 
x="100" 
y="320" 
class="s7_79"
>.</text>

<text 
x="108" 
y="320" 
class="s6_79"
>plot</text>

<text 
x="140" 
y="320" 
class="s7_79"
>(</text>

<text 
x="148" 
y="320" 
class="s6_79"
>xs</text>

<text 
x="163" 
y="320" 
class="s7_79"
>,</text>

<text 
x="179" 
y="320" 
class="s6_79"
>bias_squared</text>

<text 
x="274" 
y="320" 
class="s7_79"
>,</text>

<text 
x="290" 
y="320" 
class="s13_79"
>'r-.'</text>

<text 
x="329" 
y="320" 
class="s7_79"
>,</text>

<text 
x="345" 
y="320" 
class="s6_79"
>label</text>

<text 
x="385" 
y="320" 
class="s7_79"
>=</text>

<text 
x="393" 
y="320" 
class="s13_79"
>'bias^2'</text>

<text 
x="456" 
y="320" 
class="s7_79"
>)</text>

<text 
x="511" 
y="320" 
dx="0,0,4.6,0,0,0,4.6,0,0,0,0,0,0,0,0,0,0,4.6,0,0,0" 
class="s12_79"
># red dot-dashed line</text>

<text 
x="76" 
y="335" 
class="s6_79"
>plt</text>

<text 
x="100" 
y="335" 
class="s7_79"
>.</text>

<text 
x="108" 
y="335" 
class="s6_79"
>plot</text>

<text 
x="140" 
y="335" 
class="s7_79"
>(</text>

<text 
x="148" 
y="335" 
class="s6_79"
>xs</text>

<text 
x="163" 
y="335" 
class="s7_79"
>,</text>

<text 
x="179" 
y="335" 
class="s6_79"
>total_error</text>

<text 
x="266" 
y="335" 
class="s7_79"
>,</text>

<text 
x="290" 
y="335" 
class="s13_79"
>'b:'</text>

<text 
x="322" 
y="335" 
class="s7_79"
>,</text>

<text 
x="345" 
y="335" 
class="s6_79"
>label</text>

<text 
x="385" 
y="335" 
class="s7_79"
>=</text>

<text 
x="393" 
y="335" 
dx="0,0,0,0,0,0,0,4.6,0,0,0,0,0" 
class="s13_79"
>'total error'</text>

<text 
x="495" 
y="335" 
class="s7_79"
>)</text>

<text 
x="511" 
y="335" 
dx="0,0,4.6,0,0,0,0,4.6,0,0,0,0,0,0,4.6,0,0,0" 
class="s12_79"
># blue dotted line</text>

<text 
x="76" 
y="366" 
dx="0,0,4.6,0,0,0,0,0,0,0,4.6,0,0,0,0,0,4.6,0,0,0,0,0,0,0,0,4.6,0,0,0,0,0,0,4.6,0,0,4.6,0,0,0,0,4.6,0,0,0,0,0" 
class="s12_79"
># because we've assigned labels to each series</text>

<text 
x="76" 
y="381" 
dx="0,0,4.6,0,0,4.6,0,0,0,4.6,0,0,0,4.6,0,4.6,0,0,0,0,0,0,4.6,0,0,0,4.6,0,0,0" 
class="s12_79"
># we can get a legend for free</text>

<text 
x="76" 
y="397" 
dx="0,0,4.6,0,0,0,0,0,4.6,0,0,0,0,0,4.6,0,0,0,0,4.6,0,0,0,0,0,0" 
class="s12_79"
># loc=9 means "top center"</text>

<text 
x="76" 
y="412" 
class="s6_79"
>plt</text>

<text 
x="100" 
y="412" 
class="s7_79"
>.</text>

<text 
x="108" 
y="412" 
class="s6_79"
>legend</text>

<text 
x="156" 
y="412" 
class="s7_79"
>(</text>

<text 
x="163" 
y="412" 
class="s6_79"
>loc</text>

<text 
x="187" 
y="412" 
class="s7_79"
>=</text>

<text 
x="195" 
y="412" 
class="s8_79"
>9</text>

<text 
x="203" 
y="412" 
class="s7_79"
>)</text>

<text 
x="76" 
y="428" 
class="s6_79"
>plt</text>

<text 
x="100" 
y="428" 
class="s7_79"
>.</text>

<text 
x="108" 
y="428" 
class="s6_79"
>xlabel</text>

<text 
x="156" 
y="428" 
class="s7_79"
>(</text>

<text 
x="163" 
y="428" 
dx="0,0,0,0,0,0,0,4.6,0,0,0,0,0,0,0,0,0,0" 
class="s13_79"
>"model complexity"</text>

<text 
x="306" 
y="428" 
class="s7_79"
>)</text>

<text 
x="76" 
y="443" 
class="s6_79"
>plt</text>

<text 
x="100" 
y="443" 
class="s7_79"
>.</text>

<text 
x="108" 
y="443" 
class="s6_79"
>title</text>

<text 
x="148" 
y="443" 
class="s7_79"
>(</text>

<text 
x="156" 
y="443" 
dx="0,0,0,0,0,4.6,0,0,0,0,0,0,0,0,0,0,0,0,0,4.6,0,0,0,0,0,0,0,0" 
class="s13_79"
>"The Bias-Variance Tradeoff"</text>

<text 
x="377" 
y="443" 
class="s7_79"
>)</text>

<text 
x="76" 
y="458" 
class="s6_79"
>plt</text>

<text 
x="100" 
y="458" 
class="s7_79"
>.</text>

<text 
x="108" 
y="458" 
class="s6_79"
>show</text>

<text 
x="140" 
y="458" 
class="s7_79"
>()</text>

<image preserveAspectRatio="none" x="86" y="491" width="738" height="618" xlink:href="79/img/1.png" />
<text 
x="307" 
y="1135" 
dx="0,0,0,0,0,-0.6,0,0,0,0,0,0,0,0,0,0,0,0,0,0,0,0,0,0,0,0,0,0,0,0,0,0,0,0,0,0,0,0,0,0,0,0,0,0,0" 
class="s14_79"
>Figure 3-6. Several line charts with a legend</text>



<!-- Any embedded fonts defined here -->
<style type="text/css" ><![CDATA[

@font-face {
	font-family: LiberationSerif-Italic_l;
	src: url("fonts/LiberationSerif-Italic_l.woff") format("woff");
}

@font-face {
	font-family: LiberationMono-Bold_1w;
	src: url("fonts/LiberationMono-Bold_1w.woff") format("woff");
}

@font-face {
	font-family: LiberationMono_1q;
	src: url("fonts/LiberationMono_1q.woff") format("woff");
}

@font-face {
	font-family: LiberationMono-Italic_10;
	src: url("fonts/LiberationMono-Italic_10.woff") format("woff");
}

@font-face {
	font-family: LiberationSerif-Bold_b;
	src: url("fonts/LiberationSerif-Bold_b.woff") format("woff");
}

@font-face {
	font-family: LiberationSerif_e;
	src: url("fonts/LiberationSerif_e.woff") format("woff");
}

]]></style>

</svg>
