<?xml version="1.0" encoding="UTF-8" standalone="no"?>
<!DOCTYPE svg PUBLIC "-//W3C//DTD SVG 1.1//EN"
"http://www.w3.org/Graphics/SVG/1.1/DTD/svg11.dtd">


<!-- Page 80 -->
<svg x="0" y="0" width="909" height="1286" viewBox="0 0 909 1286" version="1.1" xmlns="http://www.w3.org/2000/svg" xmlns:xlink="http://www.w3.org/1999/xlink"
style="display: block;margin-left: auto;margin-right: auto;">
<defs>

<style type="text/css"><![CDATA[


.s1_80{
font-size: 30.81px;
font-family: LiberationSerif-Bold_b;
fill: #8E0012;
}
.s2_80{
font-size: 22.01px;
font-family: LiberationSerif_e;
fill: #000000;
}
.s3_80{
font-size: 22.01px;
font-family: LiberationSerif_e;
fill: #8E0012;
}
.s4_80{
font-size: 13.20px;
font-family: LiberationMono_1q;
fill: #000088;
}
.s5_80{
font-size: 13.20px;
font-family: LiberationMono_1q;
fill: #000000;
}
.s6_80{
font-size: 13.20px;
font-family: LiberationMono_1q;
fill: #FF6600;
}
.s7_80{
font-size: 13.20px;
font-family: LiberationMono_1q;
fill: #CC3300;
}
.s8_80{
font-size: 13.20px;
font-family: LiberationMono-Italic_10;
fill: #0099FF;
}
.s9_80{
font-size: 13.20px;
font-family: LiberationMono-Bold_1w;
fill: #006699;
}
.s10_80{
font-size: 13.20px;
font-family: LiberationMono-Bold_1w;
fill: #000000;
}
.s11_80{
font-size: 13.20px;
font-family: LiberationMono_1q;
fill: #336666;
}
.s12_80{
font-size: 16.50px;
font-family: LiberationSerif-Italic_l;
fill: #000000;
}
.s13_80{
font-size: 17.60px;
font-family: LiberationMono_1q;
fill: #000000;
}

]]></style>

</defs>
<path d="M0,0
L0,1286
L909,1286
L909,0 Z " 
fill="#FFFFFF" stroke="none" />
<text 
x="55" 
y="81" 
class="s1_80"
>Scatterplots</text>

<text 
x="55" 
y="122" 
dx="0,0,-1.2,0,0,0,0,0,0,0,0,0,0,0,0,0,0,0,0,0,0,0,0,0,0,0,0,0,0,0,0,0,0,0,0,0,0,0,0,0,0,0,0,0,0,0,0,0,0,0,0,0,0,0,0,0,0,0,0,0,0,0,0,0,0,0,0,0,0,0,0,0,0,0,0,0,0,0,0,0,0,0,0,0,0,0,0,0,0,0,0,0,0" 
class="s2_80"
>A scatterplot is the right choice for visualizing the relationship between two paired sets of</text>

<text 
x="55" 
y="149" 
class="s2_80"
>data. For example,</text>

<text 
x="224" 
y="149" 
class="s3_80"
>Figure 3-7</text>

<text 
x="321" 
y="149" 
class="s2_80"
>illustrates the relationship between the number of friends</text>

<text 
x="55" 
y="177" 
class="s2_80"
>your users have and the number of minutes they spend on the site every day:</text>

<text 
x="76" 
y="222" 
class="s4_80"
>friends</text>

<text 
x="140" 
y="222" 
dx="0,0,4.6" 
class="s5_80"
>= [</text>

<text 
x="171" 
y="222" 
class="s6_80"
>70</text>

<text 
x="187" 
y="222" 
class="s5_80"
>,</text>

<text 
x="211" 
y="222" 
class="s6_80"
>65</text>

<text 
x="227" 
y="222" 
class="s5_80"
>,</text>

<text 
x="250" 
y="222" 
class="s6_80"
>72</text>

<text 
x="266" 
y="222" 
class="s5_80"
>,</text>

<text 
x="290" 
y="222" 
class="s6_80"
>63</text>

<text 
x="306" 
y="222" 
class="s5_80"
>,</text>

<text 
x="329" 
y="222" 
class="s6_80"
>71</text>

<text 
x="345" 
y="222" 
class="s5_80"
>,</text>

<text 
x="369" 
y="222" 
class="s6_80"
>64</text>

<text 
x="385" 
y="222" 
class="s5_80"
>,</text>

<text 
x="408" 
y="222" 
class="s6_80"
>60</text>

<text 
x="424" 
y="222" 
class="s5_80"
>,</text>

<text 
x="448" 
y="222" 
class="s6_80"
>64</text>

<text 
x="464" 
y="222" 
class="s5_80"
>,</text>

<text 
x="487" 
y="222" 
class="s6_80"
>67</text>

<text 
x="503" 
y="222" 
class="s5_80"
>]</text>

<text 
x="76" 
y="237" 
class="s4_80"
>minutes</text>

<text 
x="140" 
y="237" 
dx="0,0,4.6" 
class="s5_80"
>= [</text>

<text 
x="163" 
y="237" 
class="s6_80"
>175</text>

<text 
x="187" 
y="237" 
class="s5_80"
>,</text>

<text 
x="203" 
y="237" 
class="s6_80"
>170</text>

<text 
x="227" 
y="237" 
class="s5_80"
>,</text>

<text 
x="242" 
y="237" 
class="s6_80"
>205</text>

<text 
x="266" 
y="237" 
class="s5_80"
>,</text>

<text 
x="282" 
y="237" 
class="s6_80"
>120</text>

<text 
x="306" 
y="237" 
class="s5_80"
>,</text>

<text 
x="322" 
y="237" 
class="s6_80"
>220</text>

<text 
x="345" 
y="237" 
class="s5_80"
>,</text>

<text 
x="361" 
y="237" 
class="s6_80"
>130</text>

<text 
x="385" 
y="237" 
class="s5_80"
>,</text>

<text 
x="401" 
y="237" 
class="s6_80"
>105</text>

<text 
x="424" 
y="237" 
class="s5_80"
>,</text>

<text 
x="440" 
y="237" 
class="s6_80"
>145</text>

<text 
x="464" 
y="237" 
class="s5_80"
>,</text>

<text 
x="480" 
y="237" 
class="s6_80"
>190</text>

<text 
x="503" 
y="237" 
class="s5_80"
>]</text>

<text 
x="76" 
y="253" 
class="s4_80"
>labels</text>

<text 
x="132" 
y="253" 
class="s5_80"
>=</text>

<text 
x="156" 
y="253" 
class="s5_80"
>[</text>

<text 
x="163" 
y="253" 
class="s7_80"
>'a'</text>

<text 
x="187" 
y="253" 
class="s5_80"
>,</text>

<text 
x="203" 
y="253" 
class="s7_80"
>'b'</text>

<text 
x="227" 
y="253" 
class="s5_80"
>,</text>

<text 
x="242" 
y="253" 
class="s7_80"
>'c'</text>

<text 
x="266" 
y="253" 
class="s5_80"
>,</text>

<text 
x="282" 
y="253" 
class="s7_80"
>'d'</text>

<text 
x="306" 
y="253" 
class="s5_80"
>,</text>

<text 
x="322" 
y="253" 
class="s7_80"
>'e'</text>

<text 
x="345" 
y="253" 
class="s5_80"
>,</text>

<text 
x="361" 
y="253" 
class="s7_80"
>'f'</text>

<text 
x="385" 
y="253" 
class="s5_80"
>,</text>

<text 
x="401" 
y="253" 
class="s7_80"
>'g'</text>

<text 
x="424" 
y="253" 
class="s5_80"
>,</text>

<text 
x="440" 
y="253" 
class="s7_80"
>'h'</text>

<text 
x="464" 
y="253" 
class="s5_80"
>,</text>

<text 
x="480" 
y="253" 
class="s7_80"
>'i'</text>

<text 
x="503" 
y="253" 
class="s5_80"
>]</text>

<text 
x="76" 
y="283" 
class="s4_80"
>plt</text>

<text 
x="100" 
y="283" 
class="s5_80"
>.</text>

<text 
x="108" 
y="283" 
class="s4_80"
>scatter</text>

<text 
x="163" 
y="283" 
class="s5_80"
>(</text>

<text 
x="171" 
y="283" 
class="s4_80"
>friends</text>

<text 
x="227" 
y="283" 
class="s5_80"
>,</text>

<text 
x="242" 
y="283" 
class="s4_80"
>minutes</text>

<text 
x="298" 
y="283" 
class="s5_80"
>)</text>

<text 
x="76" 
y="314" 
dx="0,0,4.6,0,0,0,0,0,4.6,0,0,0,0,4.6,0,0,0,0" 
class="s8_80"
># label each point</text>

<text 
x="76" 
y="330" 
class="s9_80"
>for</text>

<text 
x="108" 
y="330" 
class="s4_80"
>label</text>

<text 
x="148" 
y="330" 
class="s5_80"
>,</text>

<text 
x="163" 
y="330" 
class="s4_80"
>friend_count</text>

<text 
x="258" 
y="330" 
class="s5_80"
>,</text>

<text 
x="274" 
y="330" 
class="s4_80"
>minute_count</text>

<text 
x="377" 
y="330" 
class="s10_80"
>in</text>

<text 
x="401" 
y="330" 
class="s11_80"
>zip</text>

<text 
x="424" 
y="330" 
class="s5_80"
>(</text>

<text 
x="432" 
y="330" 
class="s4_80"
>labels</text>

<text 
x="480" 
y="330" 
class="s5_80"
>,</text>

<text 
x="495" 
y="330" 
class="s4_80"
>friends</text>

<text 
x="551" 
y="330" 
class="s5_80"
>,</text>

<text 
x="567" 
y="330" 
class="s4_80"
>minutes</text>

<text 
x="622" 
y="330" 
class="s5_80"
>):</text>

<text 
x="108" 
y="345" 
class="s4_80"
>plt</text>

<text 
x="132" 
y="345" 
class="s5_80"
>.</text>

<text 
x="140" 
y="345" 
class="s4_80"
>annotate</text>

<text 
x="203" 
y="345" 
class="s5_80"
>(</text>

<text 
x="211" 
y="345" 
class="s4_80"
>label</text>

<text 
x="250" 
y="345" 
class="s5_80"
>,</text>

<text 
x="140" 
y="360" 
class="s4_80"
>xy</text>

<text 
x="156" 
y="360" 
class="s5_80"
>=(</text>

<text 
x="171" 
y="360" 
class="s4_80"
>friend_count</text>

<text 
x="266" 
y="360" 
class="s5_80"
>,</text>

<text 
x="282" 
y="360" 
class="s4_80"
>minute_count</text>

<text 
x="377" 
y="360" 
class="s5_80"
>),</text>

<text 
x="401" 
y="360" 
dx="0,0,4.6,0,0,0,4.6,0,0,0,4.6,0,0,0,0,0,4.6,0,0,0,0,4.6,0,0,0,4.6,0,0,0,0" 
class="s8_80"
># put the label with its point</text>

<text 
x="140" 
y="376" 
class="s4_80"
>xytext</text>

<text 
x="187" 
y="376" 
class="s5_80"
>=(</text>

<text 
x="203" 
y="376" 
class="s6_80"
>5</text>

<text 
x="211" 
y="376" 
dx="0,0,4.6" 
class="s5_80"
>, -</text>

<text 
x="235" 
y="376" 
class="s6_80"
>5</text>

<text 
x="242" 
y="376" 
class="s5_80"
>),</text>

<text 
x="401" 
y="376" 
dx="0,0,4.6,0,0,0,4.6,0,0,0,0,0,0,0,0,4.6,0,0,0,0,0" 
class="s8_80"
># but slightly offset</text>

<text 
x="140" 
y="391" 
class="s4_80"
>textcoords</text>

<text 
x="219" 
y="391" 
class="s5_80"
>=</text>

<text 
x="227" 
y="391" 
dx="0,0,0,0,0,0,0,0,4.6,0,0,0,0,0,0" 
class="s7_80"
>'offset points'</text>

<text 
x="345" 
y="391" 
class="s5_80"
>)</text>

<text 
x="76" 
y="422" 
class="s4_80"
>plt</text>

<text 
x="100" 
y="422" 
class="s5_80"
>.</text>

<text 
x="108" 
y="422" 
class="s4_80"
>title</text>

<text 
x="148" 
y="422" 
class="s5_80"
>(</text>

<text 
x="156" 
y="422" 
dx="0,0,0,0,0,0,0,4.6,0,0,0,0,0,0,0,4.6,0,0,0,4.6,0,0,0,0,0,0,4.6,0,0,4.6,0,0,0,0,0,0,0" 
class="s7_80"
>"Daily Minutes vs. Number of Friends"</text>

<text 
x="448" 
y="422" 
class="s5_80"
>)</text>

<text 
x="76" 
y="437" 
class="s4_80"
>plt</text>

<text 
x="100" 
y="437" 
class="s5_80"
>.</text>

<text 
x="108" 
y="437" 
class="s4_80"
>xlabel</text>

<text 
x="156" 
y="437" 
class="s5_80"
>(</text>

<text 
x="163" 
y="437" 
dx="0,0,0,4.6,0,0,4.6,0,0,0,0,0,0,0" 
class="s7_80"
>"# of friends"</text>

<text 
x="274" 
y="437" 
class="s5_80"
>)</text>

<text 
x="76" 
y="453" 
class="s4_80"
>plt</text>

<text 
x="100" 
y="453" 
class="s5_80"
>.</text>

<text 
x="108" 
y="453" 
class="s4_80"
>ylabel</text>

<text 
x="156" 
y="453" 
class="s5_80"
>(</text>

<text 
x="163" 
y="453" 
dx="0,0,0,0,0,0,0,4.6,0,0,0,0,0,0,0,4.6,0,0,0,0,0,4.6,0,0,4.6,0,0,0,4.6,0,0,0,0" 
class="s7_80"
>"daily minutes spent on the site"</text>

<text 
x="424" 
y="453" 
class="s5_80"
>)</text>

<text 
x="76" 
y="468" 
class="s4_80"
>plt</text>

<text 
x="100" 
y="468" 
class="s5_80"
>.</text>

<text 
x="108" 
y="468" 
class="s4_80"
>show</text>

<text 
x="140" 
y="468" 
class="s5_80"
>()</text>

<image preserveAspectRatio="none" x="69" y="501" width="772" height="614" xlink:href="80/img/1.png" />
<text 
x="273" 
y="1140" 
dx="0,0,0,0,0,-0.6,0,0,0,0,0,0,0,0,-0.3,0,0,0,0,0,0,0,0,0,0,0,0,0,0,0,0,0,0,0,0,0,0,0,0,0,0,0,0,0,0,0,0,0,0,0,0,0,0,0,0,0,0" 
class="s12_80"
>Figure 3-7. A scatterplot of friends and time on the site</text>

<text 
x="55" 
y="1182" 
class="s2_80"
>If you’re scattering comparable variables, you might get a misleading picture if you let</text>

<text 
x="55" 
y="1210" 
class="s13_80"
>matplotlib</text>

<text 
x="165" 
y="1210" 
class="s2_80"
>choose the scale, as in</text>

<text 
x="366" 
y="1210" 
class="s3_80"
>Figure 3-8</text>

<text 
x="458" 
y="1210" 
class="s2_80"
>:</text>



<!-- Any embedded fonts defined here -->
<style type="text/css" ><![CDATA[

@font-face {
	font-family: LiberationMono-Bold_1w;
	src: url("fonts/LiberationMono-Bold_1w.woff") format("woff");
}

@font-face {
	font-family: LiberationSerif-Italic_l;
	src: url("fonts/LiberationSerif-Italic_l.woff") format("woff");
}

@font-face {
	font-family: LiberationMono_1q;
	src: url("fonts/LiberationMono_1q.woff") format("woff");
}

@font-face {
	font-family: LiberationMono-Italic_10;
	src: url("fonts/LiberationMono-Italic_10.woff") format("woff");
}

@font-face {
	font-family: LiberationSerif-Bold_b;
	src: url("fonts/LiberationSerif-Bold_b.woff") format("woff");
}

@font-face {
	font-family: LiberationSerif_e;
	src: url("fonts/LiberationSerif_e.woff") format("woff");
}

]]></style>

</svg>
