<?xml version="1.0" encoding="UTF-8" standalone="no"?>
<!DOCTYPE svg PUBLIC "-//W3C//DTD SVG 1.1//EN"
"http://www.w3.org/Graphics/SVG/1.1/DTD/svg11.dtd">


<!-- Page 90 -->
<svg x="0" y="0" width="909" height="1286" viewBox="0 0 909 1286" version="1.1" xmlns="http://www.w3.org/2000/svg" xmlns:xlink="http://www.w3.org/1999/xlink"
style="display: block;margin-left: auto;margin-right: auto;">
<defs>

<style type="text/css"><![CDATA[

.g1_90{
fill: #BEBEBE;
}

.s1_90{
font-size: 13.20px;
font-family: LiberationMono-Bold_1w;
fill: #006699;
}
.s2_90{
font-size: 13.20px;
font-family: LiberationMono_1q;
fill: #000088;
}
.s3_90{
font-size: 13.20px;
font-family: LiberationMono_1q;
fill: #000000;
}
.s4_90{
font-size: 22.01px;
font-family: LiberationSerif_e;
fill: #000000;
}
.s5_90{
font-size: 13.20px;
font-family: LiberationMono_1q;
fill: #CC00FF;
}
.s6_90{
font-size: 22.01px;
font-family: LiberationSerif-Bold_b;
fill: #737373;
}
.s7_90{
font-size: 16.50px;
font-family: LiberationSerif_e;
fill: #000000;
}

]]></style>

</defs>
<path d="M0,0
L0,1286
L909,1286
L909,0 Z " 
fill="#FFFFFF" stroke="none" />
<path fill-rule="evenodd" d="M93.5,276.2l722.5,0c3,0,5.5,2.4,5.5,5.5l0,105.6c0,3,-2.5,5.5,-5.5,5.5l-722.5,0c-3,0,-5.5,-2.5,-5.5,-5.5L88,281.7c0,-3.1,2.5,-5.5,5.5,-5.5m0,1.1l722.5,0c2.4,0,4.4,1.9,4.4,4.4l0,105.6c0,2.4,-2,4.4,-4.4,4.4l-722.5,0c-2.4,0,-4.4,-2,-4.4,-4.4l0,-105.6c0,-2.5,2,-4.4,4.4,-4.4Z" class="g1_90" />
<text 
x="100" 
y="64" 
class="s1_90"
>return</text>

<text 
x="156" 
y="64" 
class="s2_90"
>math</text>

<text 
x="187" 
y="64" 
class="s3_90"
>.</text>

<text 
x="195" 
y="64" 
class="s2_90"
>sqrt</text>

<text 
x="227" 
y="64" 
class="s3_90"
>(</text>

<text 
x="235" 
y="64" 
class="s2_90"
>squared_distance</text>

<text 
x="361" 
y="64" 
class="s3_90"
>(</text>

<text 
x="369" 
y="64" 
class="s2_90"
>v</text>

<text 
x="377" 
y="64" 
class="s3_90"
>,</text>

<text 
x="393" 
y="64" 
class="s2_90"
>w</text>

<text 
x="401" 
y="64" 
class="s3_90"
>))</text>

<text 
x="55" 
y="117" 
class="s4_90"
>Which is possibly clearer if we write it as (the equivalent):</text>

<text 
x="76" 
y="162" 
class="s1_90"
>def</text>

<text 
x="108" 
y="162" 
class="s5_90"
>distance</text>

<text 
x="171" 
y="162" 
class="s3_90"
>(</text>

<text 
x="179" 
y="162" 
class="s2_90"
>v</text>

<text 
x="187" 
y="162" 
class="s3_90"
>,</text>

<text 
x="203" 
y="162" 
class="s2_90"
>w</text>

<text 
x="211" 
y="162" 
class="s3_90"
>):</text>

<text 
x="108" 
y="178" 
class="s1_90"
>return</text>

<text 
x="163" 
y="178" 
class="s2_90"
>magnitude</text>

<text 
x="235" 
y="178" 
class="s3_90"
>(</text>

<text 
x="242" 
y="178" 
class="s2_90"
>vector_subtract</text>

<text 
x="361" 
y="178" 
class="s3_90"
>(</text>

<text 
x="369" 
y="178" 
class="s2_90"
>v</text>

<text 
x="377" 
y="178" 
class="s3_90"
>,</text>

<text 
x="393" 
y="178" 
class="s2_90"
>w</text>

<text 
x="401" 
y="178" 
class="s3_90"
>))</text>

<text 
x="55" 
y="231" 
dx="0,0,0,0,0,0,0,0,0,0,0,0,0,0,0,0,0,0,0,0,0,0,0,0,0,0,0,0,0,0,0,0,0,0,0,0,0,0,0,0,0,0,-1.8,0,0,0,0,0,0,0,0,0,0,0,0,0,0,0,0,0,0,0,0,0,0,0,0,0,0,0,0,0,0,0,0,0,0,0,0,0,0,0,0,0,0,0,0,0,0,0" 
class="s4_90"
>That should be plenty to get us started. We’ll be using these functions heavily throughout</text>

<text 
x="55" 
y="258" 
class="s4_90"
>the book.</text>

<text 
x="421" 
y="301" 
dx="0,1.1,1.1,1.1" 
class="s6_90"
>NOTE</text>

<text 
x="97" 
y="331" 
class="s7_90"
>Using lists as vectors is great for exposition but terrible for performance.</text>

<text 
x="97" 
y="358" 
dx="0,0,0,0,0,0,0,0,0,0,0,0,0,0,0,0,0,0,0,0,0,0,0,0,0,0,0,0,0,0,0,0,0,0,0,0,0,0,0,0,0,0,0,0,0,0,0,0,0,0,0,0,0,0,0,0,0,0,0,-1.1,0,0,0,0,0,0,0,0,0,0,0,0,0,0,0,0,0,0,0,0,0,0,0,0,0,0,0,0,0,0,0,0,0,0,0,0,0,0,0,0" 
class="s7_90"
>In production code, you would want to use the NumPy library, which includes a high-performance array</text>

<text 
x="97" 
y="378" 
class="s7_90"
>class with all sorts of arithmetic operations included.</text>



<!-- Any embedded fonts defined here -->
<style type="text/css" ><![CDATA[

@font-face {
	font-family: LiberationMono-Bold_1w;
	src: url("fonts/LiberationMono-Bold_1w.woff") format("woff");
}

@font-face {
	font-family: LiberationMono_1q;
	src: url("fonts/LiberationMono_1q.woff") format("woff");
}

@font-face {
	font-family: LiberationSerif_e;
	src: url("fonts/LiberationSerif_e.woff") format("woff");
}

@font-face {
	font-family: LiberationSerif-Bold_b;
	src: url("fonts/LiberationSerif-Bold_b.woff") format("woff");
}

]]></style>

</svg>
