<?xml version="1.0" encoding="UTF-8" standalone="no"?>
<!DOCTYPE svg PUBLIC "-//W3C//DTD SVG 1.1//EN"
"http://www.w3.org/Graphics/SVG/1.1/DTD/svg11.dtd">


<!-- Page 92 -->
<svg x="0" y="0" width="909" height="1286" viewBox="0 0 909 1286" version="1.1" xmlns="http://www.w3.org/2000/svg" xmlns:xlink="http://www.w3.org/1999/xlink"
style="display: block;margin-left: auto;margin-right: auto;">
<defs>

<style type="text/css"><![CDATA[


.s1_92{
font-size: 13.20px;
font-family: LiberationMono-Italic_10;
fill: #CC3300;
}
.s2_92{
font-size: 13.20px;
font-family: LiberationMono-Bold_1w;
fill: #006699;
}
.s3_92{
font-size: 13.20px;
font-family: LiberationMono_1q;
fill: #FF6600;
}
.s4_92{
font-size: 13.20px;
font-family: LiberationMono_1q;
fill: #000088;
}
.s5_92{
font-size: 13.20px;
font-family: LiberationMono_1q;
fill: #000000;
}
.s6_92{
font-size: 13.20px;
font-family: LiberationMono-Italic_10;
fill: #0099FF;
}
.s7_92{
font-size: 22.01px;
font-family: LiberationSerif_e;
fill: #000000;
}
.s8_92{
font-size: 22.01px;
font-family: LiberationSerif-Italic_l;
fill: #000000;
}
.s9_92{
font-size: 22.01px;
font-family: LiberationSerif_e;
fill: #8E0012;
}
.s10_92{
font-size: 17.60px;
font-family: LiberationMono_1q;
fill: #000000;
}

]]></style>

</defs>
<path d="M0,0
L0,1286
L909,1286
L909,0 Z " 
fill="#FFFFFF" stroke="none" />
<text 
x="108" 
y="64" 
dx="0,0,0,0,0,0,0,4.6,0,0,4.6,0,0,0,4.6,0,0,0,0,0,0,0,0,0,0,0,4.6,0,0,0,4.6,0,0,0,0,0,0,0,0,0,0,4.6,0,0,0,0,0,0" 
class="s1_92"
>"""1's on the 'diagonal', 0's everywhere else"""</text>

<text 
x="108" 
y="80" 
class="s2_92"
>return</text>

<text 
x="163" 
y="80" 
class="s3_92"
>1</text>

<text 
x="179" 
y="80" 
class="s2_92"
>if</text>

<text 
x="203" 
y="80" 
class="s4_92"
>i</text>

<text 
x="219" 
y="80" 
class="s5_92"
>==</text>

<text 
x="242" 
y="80" 
class="s4_92"
>j</text>

<text 
x="258" 
y="80" 
class="s2_92"
>else</text>

<text 
x="298" 
y="80" 
class="s3_92"
>0</text>

<text 
x="76" 
y="111" 
class="s4_92"
>identity_matrix</text>

<text 
x="203" 
y="111" 
class="s5_92"
>=</text>

<text 
x="219" 
y="111" 
class="s4_92"
>make_matrix</text>

<text 
x="306" 
y="111" 
class="s5_92"
>(</text>

<text 
x="314" 
y="111" 
class="s3_92"
>5</text>

<text 
x="322" 
y="111" 
class="s5_92"
>,</text>

<text 
x="337" 
y="111" 
class="s3_92"
>5</text>

<text 
x="345" 
y="111" 
class="s5_92"
>,</text>

<text 
x="361" 
y="111" 
class="s4_92"
>is_diagonal</text>

<text 
x="448" 
y="111" 
class="s5_92"
>)</text>

<text 
x="76" 
y="141" 
dx="0,0,4.6,0,0,0,0,4.6,0,0,4.6,0,0,4.6,0,0,4.6,0,0" 
class="s6_92"
># [[1, 0, 0, 0, 0],</text>

<text 
x="76" 
y="157" 
class="s6_92"
>#</text>

<text 
x="100" 
y="157" 
dx="0,0,0,0,4.6,0,0,4.6,0,0,4.6,0,0,4.6,0,0" 
class="s6_92"
>[0, 1, 0, 0, 0],</text>

<text 
x="76" 
y="172" 
class="s6_92"
>#</text>

<text 
x="100" 
y="172" 
dx="0,0,0,0,4.6,0,0,4.6,0,0,4.6,0,0,4.6,0,0" 
class="s6_92"
>[0, 0, 1, 0, 0],</text>

<text 
x="76" 
y="188" 
class="s6_92"
>#</text>

<text 
x="100" 
y="188" 
dx="0,0,0,0,4.6,0,0,4.6,0,0,4.6,0,0,4.6,0,0" 
class="s6_92"
>[0, 0, 0, 1, 0],</text>

<text 
x="76" 
y="203" 
class="s6_92"
>#</text>

<text 
x="100" 
y="203" 
dx="0,0,0,0,4.6,0,0,4.6,0,0,4.6,0,0,4.6,0,0" 
class="s6_92"
>[0, 0, 0, 0, 1]]</text>

<text 
x="55" 
y="256" 
class="s7_92"
>Matrices will be important to us for several reasons.</text>

<text 
x="55" 
y="294" 
class="s7_92"
>First, we can use a matrix to represent a data set consisting of multiple vectors, simply by</text>

<text 
x="55" 
y="322" 
class="s7_92"
>considering each vector as a row of the matrix. For example, if you had the heights,</text>

<text 
x="55" 
y="357" 
class="s7_92"
>weights, and ages of 1,000 people you could put them in a</text>

<image preserveAspectRatio="none" x="573" y="329" width="134" height="29" xlink:href="92/img/1.png" />
<text 
x="712" 
y="357" 
class="s7_92"
>matrix:</text>

<text 
x="76" 
y="402" 
class="s4_92"
>data</text>

<text 
x="116" 
y="402" 
dx="0,0,4.6,0" 
class="s5_92"
>= [[</text>

<text 
x="148" 
y="402" 
class="s3_92"
>70</text>

<text 
x="163" 
y="402" 
class="s5_92"
>,</text>

<text 
x="179" 
y="402" 
class="s3_92"
>170</text>

<text 
x="203" 
y="402" 
class="s5_92"
>,</text>

<text 
x="219" 
y="402" 
class="s3_92"
>40</text>

<text 
x="235" 
y="402" 
class="s5_92"
>],</text>

<text 
x="140" 
y="418" 
class="s5_92"
>[</text>

<text 
x="148" 
y="418" 
class="s3_92"
>65</text>

<text 
x="163" 
y="418" 
class="s5_92"
>,</text>

<text 
x="179" 
y="418" 
class="s3_92"
>120</text>

<text 
x="203" 
y="418" 
class="s5_92"
>,</text>

<text 
x="219" 
y="418" 
class="s3_92"
>26</text>

<text 
x="235" 
y="418" 
class="s5_92"
>],</text>

<text 
x="140" 
y="433" 
class="s5_92"
>[</text>

<text 
x="148" 
y="433" 
class="s3_92"
>77</text>

<text 
x="163" 
y="433" 
class="s5_92"
>,</text>

<text 
x="179" 
y="433" 
class="s3_92"
>250</text>

<text 
x="203" 
y="433" 
class="s5_92"
>,</text>

<text 
x="219" 
y="433" 
class="s3_92"
>19</text>

<text 
x="235" 
y="433" 
class="s5_92"
>],</text>

<text 
x="140" 
y="448" 
class="s6_92"
>#</text>

<text 
x="156" 
y="448" 
class="s6_92"
>....</text>

<text 
x="132" 
y="464" 
class="s5_92"
>]</text>

<text 
x="55" 
y="520" 
dx="0,0,0,0,0,0,0,0,0,0,0,0,0,0,0,0,0,0,0,0,0,0,0,0,0,0,-0.9,0,0,0,0,0,0,0,0,0,0,0,0,0,0" 
class="s7_92"
>Second, as we’ll see later, we can use an</text>

<image preserveAspectRatio="none" x="416" y="496" width="71" height="24" xlink:href="92/img/2.png" />
<text 
x="493" 
y="520" 
class="s7_92"
>matrix to represent a linear function that</text>

<text 
x="55" 
y="547" 
class="s7_92"
>maps</text>

<text 
x="106" 
y="547" 
class="s8_92"
>k</text>

<text 
x="116" 
y="547" 
class="s7_92"
>-dimensional vectors to</text>

<text 
x="328" 
y="547" 
class="s8_92"
>n</text>

<text 
x="339" 
y="547" 
class="s7_92"
>-dimensional vectors. Several of our techniques and</text>

<text 
x="55" 
y="575" 
class="s7_92"
>concepts will involve such functions.</text>

<text 
x="55" 
y="613" 
class="s7_92"
>Third, matrices can be used to represent binary relationships. In</text>

<text 
x="620" 
y="613" 
class="s9_92"
>Chapter 1</text>

<text 
x="706" 
y="613" 
class="s7_92"
>, we represented</text>

<text 
x="55" 
y="641" 
class="s7_92"
>the edges of a network as a collection of pairs</text>

<text 
x="462" 
y="641" 
dx="0,0,0,0,6.1,0" 
class="s10_92"
>(i, j)</text>

<text 
x="526" 
y="641" 
class="s7_92"
>. An alternative representation would</text>

<text 
x="55" 
y="671" 
class="s7_92"
>be to create a matrix</text>

<text 
x="239" 
y="671" 
class="s8_92"
>A</text>

<text 
x="258" 
y="671" 
class="s7_92"
>such that</text>

<text 
x="343" 
y="671" 
class="s10_92"
>A[i][j]</text>

<text 
x="422" 
y="671" 
class="s7_92"
>is 1 if nodes</text>

<text 
x="534" 
y="671" 
class="s8_92"
>i</text>

<text 
x="546" 
y="671" 
class="s7_92"
>and</text>

<text 
x="583" 
y="671" 
class="s8_92"
>j</text>

<text 
x="595" 
y="671" 
class="s7_92"
>are connected and 0</text>

<text 
x="55" 
y="700" 
class="s7_92"
>otherwise.</text>

<text 
x="55" 
y="739" 
class="s7_92"
>Recall that before we had:</text>

<text 
x="76" 
y="784" 
class="s4_92"
>friendships</text>

<text 
x="171" 
y="784" 
dx="0,0,4.6,0" 
class="s5_92"
>= [(</text>

<text 
x="203" 
y="784" 
class="s3_92"
>0</text>

<text 
x="211" 
y="784" 
class="s5_92"
>,</text>

<text 
x="227" 
y="784" 
class="s3_92"
>1</text>

<text 
x="235" 
y="784" 
dx="0,0,0,4.6" 
class="s5_92"
>), (</text>

<text 
x="266" 
y="784" 
class="s3_92"
>0</text>

<text 
x="274" 
y="784" 
class="s5_92"
>,</text>

<text 
x="290" 
y="784" 
class="s3_92"
>2</text>

<text 
x="298" 
y="784" 
dx="0,0,0,4.6" 
class="s5_92"
>), (</text>

<text 
x="329" 
y="784" 
class="s3_92"
>1</text>

<text 
x="337" 
y="784" 
class="s5_92"
>,</text>

<text 
x="353" 
y="784" 
class="s3_92"
>2</text>

<text 
x="361" 
y="784" 
dx="0,0,0,4.6" 
class="s5_92"
>), (</text>

<text 
x="393" 
y="784" 
class="s3_92"
>1</text>

<text 
x="401" 
y="784" 
class="s5_92"
>,</text>

<text 
x="416" 
y="784" 
class="s3_92"
>3</text>

<text 
x="424" 
y="784" 
dx="0,0,0,4.6" 
class="s5_92"
>), (</text>

<text 
x="456" 
y="784" 
class="s3_92"
>2</text>

<text 
x="464" 
y="784" 
class="s5_92"
>,</text>

<text 
x="480" 
y="784" 
class="s3_92"
>3</text>

<text 
x="487" 
y="784" 
dx="0,0,0,4.6" 
class="s5_92"
>), (</text>

<text 
x="519" 
y="784" 
class="s3_92"
>3</text>

<text 
x="527" 
y="784" 
class="s5_92"
>,</text>

<text 
x="543" 
y="784" 
class="s3_92"
>4</text>

<text 
x="551" 
y="784" 
class="s5_92"
>),</text>

<text 
x="195" 
y="799" 
class="s5_92"
>(</text>

<text 
x="203" 
y="799" 
class="s3_92"
>4</text>

<text 
x="211" 
y="799" 
class="s5_92"
>,</text>

<text 
x="227" 
y="799" 
class="s3_92"
>5</text>

<text 
x="235" 
y="799" 
dx="0,0,0,4.6" 
class="s5_92"
>), (</text>

<text 
x="266" 
y="799" 
class="s3_92"
>5</text>

<text 
x="274" 
y="799" 
class="s5_92"
>,</text>

<text 
x="290" 
y="799" 
class="s3_92"
>6</text>

<text 
x="298" 
y="799" 
dx="0,0,0,4.6" 
class="s5_92"
>), (</text>

<text 
x="329" 
y="799" 
class="s3_92"
>5</text>

<text 
x="337" 
y="799" 
class="s5_92"
>,</text>

<text 
x="353" 
y="799" 
class="s3_92"
>7</text>

<text 
x="361" 
y="799" 
dx="0,0,0,4.6" 
class="s5_92"
>), (</text>

<text 
x="393" 
y="799" 
class="s3_92"
>6</text>

<text 
x="401" 
y="799" 
class="s5_92"
>,</text>

<text 
x="416" 
y="799" 
class="s3_92"
>8</text>

<text 
x="424" 
y="799" 
dx="0,0,0,4.6" 
class="s5_92"
>), (</text>

<text 
x="456" 
y="799" 
class="s3_92"
>7</text>

<text 
x="464" 
y="799" 
class="s5_92"
>,</text>

<text 
x="480" 
y="799" 
class="s3_92"
>8</text>

<text 
x="487" 
y="799" 
dx="0,0,0,4.6" 
class="s5_92"
>), (</text>

<text 
x="519" 
y="799" 
class="s3_92"
>8</text>

<text 
x="527" 
y="799" 
class="s5_92"
>,</text>

<text 
x="543" 
y="799" 
class="s3_92"
>9</text>

<text 
x="551" 
y="799" 
class="s5_92"
>)]</text>

<text 
x="55" 
y="852" 
dx="0,-1.8,0,0,0,0,0,0,0,0,0,0,0,0,0,0,0,0,0,0,0,0,0,0,0,0,0,0,0,0,0,0" 
class="s7_92"
>We could also represent this as:</text>

<text 
x="116" 
y="897" 
class="s6_92"
>#</text>

<text 
x="163" 
y="897" 
dx="0,0,0,0,0,4.6" 
class="s6_92"
>user 0</text>

<text 
x="227" 
y="897" 
class="s6_92"
>1</text>

<text 
x="250" 
y="897" 
class="s6_92"
>2</text>

<text 
x="274" 
y="897" 
class="s6_92"
>3</text>

<text 
x="298" 
y="897" 
class="s6_92"
>4</text>

<text 
x="322" 
y="897" 
class="s6_92"
>5</text>

<text 
x="345" 
y="897" 
class="s6_92"
>6</text>

<text 
x="369" 
y="897" 
class="s6_92"
>7</text>

<text 
x="393" 
y="897" 
class="s6_92"
>8</text>

<text 
x="416" 
y="897" 
class="s6_92"
>9</text>

<text 
x="116" 
y="913" 
class="s6_92"
>#</text>

<text 
x="76" 
y="928" 
class="s4_92"
>friendships</text>

<text 
x="171" 
y="928" 
dx="0,0,4.6,0" 
class="s5_92"
>= [[</text>

<text 
x="203" 
y="928" 
class="s3_92"
>0</text>

<text 
x="211" 
y="928" 
class="s5_92"
>,</text>

<text 
x="227" 
y="928" 
class="s3_92"
>1</text>

<text 
x="235" 
y="928" 
class="s5_92"
>,</text>

<text 
x="250" 
y="928" 
class="s3_92"
>1</text>

<text 
x="258" 
y="928" 
class="s5_92"
>,</text>

<text 
x="274" 
y="928" 
class="s3_92"
>0</text>

<text 
x="282" 
y="928" 
class="s5_92"
>,</text>

<text 
x="298" 
y="928" 
class="s3_92"
>0</text>

<text 
x="306" 
y="928" 
class="s5_92"
>,</text>

<text 
x="322" 
y="928" 
class="s3_92"
>0</text>

<text 
x="329" 
y="928" 
class="s5_92"
>,</text>

<text 
x="345" 
y="928" 
class="s3_92"
>0</text>

<text 
x="353" 
y="928" 
class="s5_92"
>,</text>

<text 
x="369" 
y="928" 
class="s3_92"
>0</text>

<text 
x="377" 
y="928" 
class="s5_92"
>,</text>

<text 
x="393" 
y="928" 
class="s3_92"
>0</text>

<text 
x="401" 
y="928" 
class="s5_92"
>,</text>

<text 
x="416" 
y="928" 
class="s3_92"
>0</text>

<text 
x="424" 
y="928" 
class="s5_92"
>],</text>

<text 
x="448" 
y="928" 
dx="0,0,4.6,0,0,0,0,4.6" 
class="s6_92"
># user 0</text>

<text 
x="195" 
y="944" 
class="s5_92"
>[</text>

<text 
x="203" 
y="944" 
class="s3_92"
>1</text>

<text 
x="211" 
y="944" 
class="s5_92"
>,</text>

<text 
x="227" 
y="944" 
class="s3_92"
>0</text>

<text 
x="235" 
y="944" 
class="s5_92"
>,</text>

<text 
x="250" 
y="944" 
class="s3_92"
>1</text>

<text 
x="258" 
y="944" 
class="s5_92"
>,</text>

<text 
x="274" 
y="944" 
class="s3_92"
>1</text>

<text 
x="282" 
y="944" 
class="s5_92"
>,</text>

<text 
x="298" 
y="944" 
class="s3_92"
>0</text>

<text 
x="306" 
y="944" 
class="s5_92"
>,</text>

<text 
x="322" 
y="944" 
class="s3_92"
>0</text>

<text 
x="329" 
y="944" 
class="s5_92"
>,</text>

<text 
x="345" 
y="944" 
class="s3_92"
>0</text>

<text 
x="353" 
y="944" 
class="s5_92"
>,</text>

<text 
x="369" 
y="944" 
class="s3_92"
>0</text>

<text 
x="377" 
y="944" 
class="s5_92"
>,</text>

<text 
x="393" 
y="944" 
class="s3_92"
>0</text>

<text 
x="401" 
y="944" 
class="s5_92"
>,</text>

<text 
x="416" 
y="944" 
class="s3_92"
>0</text>

<text 
x="424" 
y="944" 
class="s5_92"
>],</text>

<text 
x="448" 
y="944" 
dx="0,0,4.6,0,0,0,0,4.6" 
class="s6_92"
># user 1</text>

<text 
x="195" 
y="959" 
class="s5_92"
>[</text>

<text 
x="203" 
y="959" 
class="s3_92"
>1</text>

<text 
x="211" 
y="959" 
class="s5_92"
>,</text>

<text 
x="227" 
y="959" 
class="s3_92"
>1</text>

<text 
x="235" 
y="959" 
class="s5_92"
>,</text>

<text 
x="250" 
y="959" 
class="s3_92"
>0</text>

<text 
x="258" 
y="959" 
class="s5_92"
>,</text>

<text 
x="274" 
y="959" 
class="s3_92"
>1</text>

<text 
x="282" 
y="959" 
class="s5_92"
>,</text>

<text 
x="298" 
y="959" 
class="s3_92"
>0</text>

<text 
x="306" 
y="959" 
class="s5_92"
>,</text>

<text 
x="322" 
y="959" 
class="s3_92"
>0</text>

<text 
x="329" 
y="959" 
class="s5_92"
>,</text>

<text 
x="345" 
y="959" 
class="s3_92"
>0</text>

<text 
x="353" 
y="959" 
class="s5_92"
>,</text>

<text 
x="369" 
y="959" 
class="s3_92"
>0</text>

<text 
x="377" 
y="959" 
class="s5_92"
>,</text>

<text 
x="393" 
y="959" 
class="s3_92"
>0</text>

<text 
x="401" 
y="959" 
class="s5_92"
>,</text>

<text 
x="416" 
y="959" 
class="s3_92"
>0</text>

<text 
x="424" 
y="959" 
class="s5_92"
>],</text>

<text 
x="448" 
y="959" 
dx="0,0,4.6,0,0,0,0,4.6" 
class="s6_92"
># user 2</text>

<text 
x="195" 
y="974" 
class="s5_92"
>[</text>

<text 
x="203" 
y="974" 
class="s3_92"
>0</text>

<text 
x="211" 
y="974" 
class="s5_92"
>,</text>

<text 
x="227" 
y="974" 
class="s3_92"
>1</text>

<text 
x="235" 
y="974" 
class="s5_92"
>,</text>

<text 
x="250" 
y="974" 
class="s3_92"
>1</text>

<text 
x="258" 
y="974" 
class="s5_92"
>,</text>

<text 
x="274" 
y="974" 
class="s3_92"
>0</text>

<text 
x="282" 
y="974" 
class="s5_92"
>,</text>

<text 
x="298" 
y="974" 
class="s3_92"
>1</text>

<text 
x="306" 
y="974" 
class="s5_92"
>,</text>

<text 
x="322" 
y="974" 
class="s3_92"
>0</text>

<text 
x="329" 
y="974" 
class="s5_92"
>,</text>

<text 
x="345" 
y="974" 
class="s3_92"
>0</text>

<text 
x="353" 
y="974" 
class="s5_92"
>,</text>

<text 
x="369" 
y="974" 
class="s3_92"
>0</text>

<text 
x="377" 
y="974" 
class="s5_92"
>,</text>

<text 
x="393" 
y="974" 
class="s3_92"
>0</text>

<text 
x="401" 
y="974" 
class="s5_92"
>,</text>

<text 
x="416" 
y="974" 
class="s3_92"
>0</text>

<text 
x="424" 
y="974" 
class="s5_92"
>],</text>

<text 
x="448" 
y="974" 
dx="0,0,4.6,0,0,0,0,4.6" 
class="s6_92"
># user 3</text>

<text 
x="195" 
y="990" 
class="s5_92"
>[</text>

<text 
x="203" 
y="990" 
class="s3_92"
>0</text>

<text 
x="211" 
y="990" 
class="s5_92"
>,</text>

<text 
x="227" 
y="990" 
class="s3_92"
>0</text>

<text 
x="235" 
y="990" 
class="s5_92"
>,</text>

<text 
x="250" 
y="990" 
class="s3_92"
>0</text>

<text 
x="258" 
y="990" 
class="s5_92"
>,</text>

<text 
x="274" 
y="990" 
class="s3_92"
>1</text>

<text 
x="282" 
y="990" 
class="s5_92"
>,</text>

<text 
x="298" 
y="990" 
class="s3_92"
>0</text>

<text 
x="306" 
y="990" 
class="s5_92"
>,</text>

<text 
x="322" 
y="990" 
class="s3_92"
>1</text>

<text 
x="329" 
y="990" 
class="s5_92"
>,</text>

<text 
x="345" 
y="990" 
class="s3_92"
>0</text>

<text 
x="353" 
y="990" 
class="s5_92"
>,</text>

<text 
x="369" 
y="990" 
class="s3_92"
>0</text>

<text 
x="377" 
y="990" 
class="s5_92"
>,</text>

<text 
x="393" 
y="990" 
class="s3_92"
>0</text>

<text 
x="401" 
y="990" 
class="s5_92"
>,</text>

<text 
x="416" 
y="990" 
class="s3_92"
>0</text>

<text 
x="424" 
y="990" 
class="s5_92"
>],</text>

<text 
x="448" 
y="990" 
dx="0,0,4.6,0,0,0,0,4.6" 
class="s6_92"
># user 4</text>

<text 
x="195" 
y="1005" 
class="s5_92"
>[</text>

<text 
x="203" 
y="1005" 
class="s3_92"
>0</text>

<text 
x="211" 
y="1005" 
class="s5_92"
>,</text>

<text 
x="227" 
y="1005" 
class="s3_92"
>0</text>

<text 
x="235" 
y="1005" 
class="s5_92"
>,</text>

<text 
x="250" 
y="1005" 
class="s3_92"
>0</text>

<text 
x="258" 
y="1005" 
class="s5_92"
>,</text>

<text 
x="274" 
y="1005" 
class="s3_92"
>0</text>

<text 
x="282" 
y="1005" 
class="s5_92"
>,</text>

<text 
x="298" 
y="1005" 
class="s3_92"
>1</text>

<text 
x="306" 
y="1005" 
class="s5_92"
>,</text>

<text 
x="322" 
y="1005" 
class="s3_92"
>0</text>

<text 
x="329" 
y="1005" 
class="s5_92"
>,</text>

<text 
x="345" 
y="1005" 
class="s3_92"
>1</text>

<text 
x="353" 
y="1005" 
class="s5_92"
>,</text>

<text 
x="369" 
y="1005" 
class="s3_92"
>1</text>

<text 
x="377" 
y="1005" 
class="s5_92"
>,</text>

<text 
x="393" 
y="1005" 
class="s3_92"
>0</text>

<text 
x="401" 
y="1005" 
class="s5_92"
>,</text>

<text 
x="416" 
y="1005" 
class="s3_92"
>0</text>

<text 
x="424" 
y="1005" 
class="s5_92"
>],</text>

<text 
x="448" 
y="1005" 
dx="0,0,4.6,0,0,0,0,4.6" 
class="s6_92"
># user 5</text>

<text 
x="195" 
y="1021" 
class="s5_92"
>[</text>

<text 
x="203" 
y="1021" 
class="s3_92"
>0</text>

<text 
x="211" 
y="1021" 
class="s5_92"
>,</text>

<text 
x="227" 
y="1021" 
class="s3_92"
>0</text>

<text 
x="235" 
y="1021" 
class="s5_92"
>,</text>

<text 
x="250" 
y="1021" 
class="s3_92"
>0</text>

<text 
x="258" 
y="1021" 
class="s5_92"
>,</text>

<text 
x="274" 
y="1021" 
class="s3_92"
>0</text>

<text 
x="282" 
y="1021" 
class="s5_92"
>,</text>

<text 
x="298" 
y="1021" 
class="s3_92"
>0</text>

<text 
x="306" 
y="1021" 
class="s5_92"
>,</text>

<text 
x="322" 
y="1021" 
class="s3_92"
>1</text>

<text 
x="329" 
y="1021" 
class="s5_92"
>,</text>

<text 
x="345" 
y="1021" 
class="s3_92"
>0</text>

<text 
x="353" 
y="1021" 
class="s5_92"
>,</text>

<text 
x="369" 
y="1021" 
class="s3_92"
>0</text>

<text 
x="377" 
y="1021" 
class="s5_92"
>,</text>

<text 
x="393" 
y="1021" 
class="s3_92"
>1</text>

<text 
x="401" 
y="1021" 
class="s5_92"
>,</text>

<text 
x="416" 
y="1021" 
class="s3_92"
>0</text>

<text 
x="424" 
y="1021" 
class="s5_92"
>],</text>

<text 
x="448" 
y="1021" 
dx="0,0,4.6,0,0,0,0,4.6" 
class="s6_92"
># user 6</text>

<text 
x="195" 
y="1036" 
class="s5_92"
>[</text>

<text 
x="203" 
y="1036" 
class="s3_92"
>0</text>

<text 
x="211" 
y="1036" 
class="s5_92"
>,</text>

<text 
x="227" 
y="1036" 
class="s3_92"
>0</text>

<text 
x="235" 
y="1036" 
class="s5_92"
>,</text>

<text 
x="250" 
y="1036" 
class="s3_92"
>0</text>

<text 
x="258" 
y="1036" 
class="s5_92"
>,</text>

<text 
x="274" 
y="1036" 
class="s3_92"
>0</text>

<text 
x="282" 
y="1036" 
class="s5_92"
>,</text>

<text 
x="298" 
y="1036" 
class="s3_92"
>0</text>

<text 
x="306" 
y="1036" 
class="s5_92"
>,</text>

<text 
x="322" 
y="1036" 
class="s3_92"
>1</text>

<text 
x="329" 
y="1036" 
class="s5_92"
>,</text>

<text 
x="345" 
y="1036" 
class="s3_92"
>0</text>

<text 
x="353" 
y="1036" 
class="s5_92"
>,</text>

<text 
x="369" 
y="1036" 
class="s3_92"
>0</text>

<text 
x="377" 
y="1036" 
class="s5_92"
>,</text>

<text 
x="393" 
y="1036" 
class="s3_92"
>1</text>

<text 
x="401" 
y="1036" 
class="s5_92"
>,</text>

<text 
x="416" 
y="1036" 
class="s3_92"
>0</text>

<text 
x="424" 
y="1036" 
class="s5_92"
>],</text>

<text 
x="448" 
y="1036" 
dx="0,0,4.6,0,0,0,0,4.6" 
class="s6_92"
># user 7</text>

<text 
x="195" 
y="1051" 
class="s5_92"
>[</text>

<text 
x="203" 
y="1051" 
class="s3_92"
>0</text>

<text 
x="211" 
y="1051" 
class="s5_92"
>,</text>

<text 
x="227" 
y="1051" 
class="s3_92"
>0</text>

<text 
x="235" 
y="1051" 
class="s5_92"
>,</text>

<text 
x="250" 
y="1051" 
class="s3_92"
>0</text>

<text 
x="258" 
y="1051" 
class="s5_92"
>,</text>

<text 
x="274" 
y="1051" 
class="s3_92"
>0</text>

<text 
x="282" 
y="1051" 
class="s5_92"
>,</text>

<text 
x="298" 
y="1051" 
class="s3_92"
>0</text>

<text 
x="306" 
y="1051" 
class="s5_92"
>,</text>

<text 
x="322" 
y="1051" 
class="s3_92"
>0</text>

<text 
x="329" 
y="1051" 
class="s5_92"
>,</text>

<text 
x="345" 
y="1051" 
class="s3_92"
>1</text>

<text 
x="353" 
y="1051" 
class="s5_92"
>,</text>

<text 
x="369" 
y="1051" 
class="s3_92"
>1</text>

<text 
x="377" 
y="1051" 
class="s5_92"
>,</text>

<text 
x="393" 
y="1051" 
class="s3_92"
>0</text>

<text 
x="401" 
y="1051" 
class="s5_92"
>,</text>

<text 
x="416" 
y="1051" 
class="s3_92"
>1</text>

<text 
x="424" 
y="1051" 
class="s5_92"
>],</text>

<text 
x="448" 
y="1051" 
dx="0,0,4.6,0,0,0,0,4.6" 
class="s6_92"
># user 8</text>

<text 
x="195" 
y="1067" 
class="s5_92"
>[</text>

<text 
x="203" 
y="1067" 
class="s3_92"
>0</text>

<text 
x="211" 
y="1067" 
class="s5_92"
>,</text>

<text 
x="227" 
y="1067" 
class="s3_92"
>0</text>

<text 
x="235" 
y="1067" 
class="s5_92"
>,</text>

<text 
x="250" 
y="1067" 
class="s3_92"
>0</text>

<text 
x="258" 
y="1067" 
class="s5_92"
>,</text>

<text 
x="274" 
y="1067" 
class="s3_92"
>0</text>

<text 
x="282" 
y="1067" 
class="s5_92"
>,</text>

<text 
x="298" 
y="1067" 
class="s3_92"
>0</text>

<text 
x="306" 
y="1067" 
class="s5_92"
>,</text>

<text 
x="322" 
y="1067" 
class="s3_92"
>0</text>

<text 
x="329" 
y="1067" 
class="s5_92"
>,</text>

<text 
x="345" 
y="1067" 
class="s3_92"
>0</text>

<text 
x="353" 
y="1067" 
class="s5_92"
>,</text>

<text 
x="369" 
y="1067" 
class="s3_92"
>0</text>

<text 
x="377" 
y="1067" 
class="s5_92"
>,</text>

<text 
x="393" 
y="1067" 
class="s3_92"
>1</text>

<text 
x="401" 
y="1067" 
class="s5_92"
>,</text>

<text 
x="416" 
y="1067" 
class="s3_92"
>0</text>

<text 
x="424" 
y="1067" 
class="s5_92"
>]]</text>

<text 
x="448" 
y="1067" 
dx="0,0,4.6,0,0,0,0,4.6" 
class="s6_92"
># user 9</text>

<text 
x="55" 
y="1120" 
dx="0,0,0,0,0,0,0,0,0,0,0,0,0,0,0,0,0,0,0,0,0,0,0,0,0,0,0,0,0,0,0,0,0,0,0,0,0,0,0,0,0,0,0,0,0,0,0,0,0,0,0,0,0,0,0,0,0,0,0,-0.4,0,0,0,0,0,0,0,0,0,0,0,0,0,0,0,0,0,0,0,0,0,0,0,0,0,0,0,0,0,0,0,0" 
class="s7_92"
>If there are very few connections, this is a much more inefficient representation, since you</text>

<text 
x="55" 
y="1147" 
dx="0,0,0,0,0,0,0,0,0,0,0,0,0,0,0,0,0,0,0,0,0,0,0,0,0,0,0,0,0,0,0,0,0,0,0,0,0,0,0,0,0,0,0,0,0,0,0,-0.9,0,0,0,0,0,0,0,0,0,0,0,0,0,0,0,0,0,0,0,0,0,0,0,0,0,0,0,0,0,0,0,0,0,0,0,0,0,0,0,0,0,0" 
class="s7_92"
>end up having to store a lot of zeroes. However, with the matrix representation it is much</text>

<text 
x="55" 
y="1175" 
class="s7_92"
>quicker to check whether two nodes are connected — you just have to do a matrix lookup</text>

<text 
x="55" 
y="1202" 
class="s7_92"
>instead of (potentially) inspecting every edge:</text>



<!-- Any embedded fonts defined here -->
<style type="text/css" ><![CDATA[

@font-face {
	font-family: LiberationMono-Bold_1w;
	src: url("fonts/LiberationMono-Bold_1w.woff") format("woff");
}

@font-face {
	font-family: LiberationSerif-Italic_l;
	src: url("fonts/LiberationSerif-Italic_l.woff") format("woff");
}

@font-face {
	font-family: LiberationMono_1q;
	src: url("fonts/LiberationMono_1q.woff") format("woff");
}

@font-face {
	font-family: LiberationMono-Italic_10;
	src: url("fonts/LiberationMono-Italic_10.woff") format("woff");
}

@font-face {
	font-family: LiberationSerif_e;
	src: url("fonts/LiberationSerif_e.woff") format("woff");
}

]]></style>

</svg>
